<svg xmlns="http://www.w3.org/2000/svg" xmlns:xlink="http://www.w3.org/1999/xlink" width="64.398" height="64.398" viewBox="0 0 64.398 64.398">
  <defs>
    <linearGradient id="linear-gradient" y1="0.5" x2="1" y2="0.5" gradientUnits="objectBoundingBox">
      <stop offset="0" stop-color="#c20010"/>
      <stop offset="1" stop-color="#c20010"/>
    </linearGradient>
  </defs>
  <g id="Group_204" data-name="Group 204" transform="translate(-3.039 -3.234)">
    <circle id="Ellipse_18" data-name="Ellipse 18" cx="24" cy="24" r="24" transform="matrix(0.894, -0.447, 0.447, 0.894, 3.039, 24.7)" fill="url(#linear-gradient)"/>
    <path id="Path_770" data-name="Path 770" d="M47.622,42.406c-.22-.045-.3-.259-.616-.307s-.545.4-.545.4-.018.021-.04.051c-.241.011-1.337.061-1.54.056-.23-.005.018-.214.018-.214l.948-.623c.128.073.261.2.436.16.259-.065.356-.434.6-.618a.866.866,0,0,1,.659-.064c-.187-.249-.6-.2-.826-.182s-.355-.171-.675-.133c-.2.024-.316.23-.372.379L44.1,42.5a27.04,27.04,0,0,1-2.805-.887c-.123-.152.307-.307.449-.449s.207-.193.165-.358-.206-.133-.44-.183a4.806,4.806,0,0,1-1.127-.358,5.732,5.732,0,0,1-1.35-1,6.388,6.388,0,0,1-.484-1.425c-.059-.155-.009-.481.184-.532s.284.156.339.248.415.74.513.916a3.579,3.579,0,0,0,.615.725.557.557,0,0,0,.5.146c.179-.05.206-.128.2-.293s-.513-.633-.513-.633a3.639,3.639,0,0,1-.435-.893.489.489,0,0,1,.353-.546c.192-.073.33.087.394.211a4.037,4.037,0,0,0,1.164,2.2,1.41,1.41,0,0,0,.944.422c.367-.019.486-.184.468-.371s-.339-.4-.514-.546a4.665,4.665,0,0,1-.852-.706,1.633,1.633,0,0,1-.357-.962c.005-.28.045-.449.219-.514s.427.193.541.312l1.073,1.118a22.617,22.617,0,0,0,1.576,1.669,2.195,2.195,0,0,0,1.412.458,1.419,1.419,0,0,0,1.155-.889c.055-.293-.079-.386-.222-.431-.472-.147-.681.275-1.41.028a4.516,4.516,0,0,1-1.516-.986,15.942,15.942,0,0,1-1.27-1.682c-.087-.165-.211-.376-.119-.513s.307-.019.4.073.726.708.956.887a7.94,7.94,0,0,0,1.638.919,1.717,1.717,0,0,0,1.32,0,1.42,1.42,0,0,0,.294-.912c-.019-.275-.676-.157-.676-.157a2.752,2.752,0,0,1-1.057.106,3.064,3.064,0,0,1-1.412-.687c-.321-.275-.992-1.048-1.164-1.229a.54.54,0,0,1-.082-.623c.1-.156.5.032.687.128s.952.6.952.6.932.541,1.193.642a1.66,1.66,0,0,0,1.128-.064.992.992,0,0,0,.4-.862c-.018-.275-.179-.339-.5-.339a7.91,7.91,0,0,1-1.119.055,7.1,7.1,0,0,1-1.265-.513,13.087,13.087,0,0,1-1.09-.862s-.372-.335-.248-.559.348-.019.458.046a10.206,10.206,0,0,0,.917.449c.17.055,1.027.312,1.247.339a4.4,4.4,0,0,0,.953,0,.715.715,0,0,0,.587-1c-.142-.229-.518-.193-.706-.083a1.871,1.871,0,0,1-.926.321,2.511,2.511,0,0,1-.935-.229,13.2,13.2,0,0,1-1.274-.724c-.193-.11-.6-.417-.44-.715s.448-.065.77.091a4.808,4.808,0,0,0,1.939.39,2.891,2.891,0,0,0,1.558-.862c.087-.188.2-.646.023-.793s-.353-.013-.752.22a2.151,2.151,0,0,1-1.356.541,4.592,4.592,0,0,1-1.87-.632.433.433,0,0,1-.266-.578c.082-.206.44-.078.687-.064a8.257,8.257,0,0,0,1.843-.028,2.774,2.774,0,0,0,1.613-.916.8.8,0,0,0,.064-.88.457.457,0,0,0-.678.055,3.384,3.384,0,0,1-1.3.733,7.95,7.95,0,0,1-1.338.128c-.605.037-.862-.238-.862-.495s.312-.293.715-.348a5.855,5.855,0,0,0,1.65-.458,5.1,5.1,0,0,0,1.925-1.8c.22-.477.037-1.1-.4-1.155s-.532.477-.7.752a4.927,4.927,0,0,1-.953.916,5.167,5.167,0,0,1-1.687.789c-.7.128-.641-.074-.641-.074a.305.305,0,0,0-.44-.146s-2.311,1.026-2.787,1.283-.294.513-.294.513a1.979,1.979,0,0,1,.165.789,1.233,1.233,0,0,1-1.026,1.1A1.032,1.032,0,0,1,37.8,28.8a2.906,2.906,0,0,1,.971-1.962,5.58,5.58,0,0,1,2.622-.916c.587-.055.99-.4.9-.514s-.385.184-.788.2a.615.615,0,0,1-.568-.33,16.04,16.04,0,0,0,1.907-.092c.366-.091.9-.715.586-.953s-.678.6-1.137.788a2.558,2.558,0,0,1-1.228,0,1.061,1.061,0,0,1,.678-.531c.5-.129.679.11.679.11-.22-.825-1.357-.514-1.357-.514s-.165-.44-1.045-.495-.917.367-1.448.44a6.773,6.773,0,0,0-1.614.33,10.118,10.118,0,0,1,.978.615l-.061.009a1.757,1.757,0,0,0-1.283.825s1.411-.019.788.128a4.977,4.977,0,0,0-1.375.678.444.444,0,0,1,.477.257c-.017.05-.835.812-1.051,1.043-.216-.231-1.034-.993-1.05-1.043a.442.442,0,0,1,.476-.257,4.961,4.961,0,0,0-1.375-.678c-.623-.147.789-.128.789-.128a1.761,1.761,0,0,0-1.284-.825l-.061-.009a10.241,10.241,0,0,1,.978-.615,6.773,6.773,0,0,0-1.614-.33c-.531-.073-.568-.5-1.448-.44s-1.045.495-1.045.495-1.137-.311-1.357.514c0,0,.184-.239.679-.11a1.061,1.061,0,0,1,.678.531,2.558,2.558,0,0,1-1.228,0c-.459-.183-.825-1.026-1.137-.788s.22.862.587.953a16.016,16.016,0,0,0,1.906.092.615.615,0,0,1-.568.33c-.4-.018-.7-.312-.788-.2s.311.459.9.514a5.58,5.58,0,0,1,2.622.916,2.912,2.912,0,0,1,.972,1.962,1.033,1.033,0,0,1-.991,1.082,1.233,1.233,0,0,1-1.026-1.1,1.979,1.979,0,0,1,.165-.789s.183-.256-.294-.513S28.131,26.2,28.131,26.2a.305.305,0,0,0-.44.146s.055.2-.642.074a5.177,5.177,0,0,1-1.687-.789,4.927,4.927,0,0,1-.953-.916c-.165-.275-.257-.807-.7-.752s-.623.678-.4,1.155a5.1,5.1,0,0,0,1.925,1.8,5.864,5.864,0,0,0,1.65.458c.4.055.715.092.715.348s-.257.532-.862.495a7.95,7.95,0,0,1-1.338-.128,3.384,3.384,0,0,1-1.3-.733.457.457,0,0,0-.678-.055.8.8,0,0,0,.064.88,2.774,2.774,0,0,0,1.613.916,8.257,8.257,0,0,0,1.843.028c.247-.014.605-.142.687.064a.433.433,0,0,1-.265.578,4.6,4.6,0,0,1-1.87.632,2.154,2.154,0,0,1-1.357-.541c-.4-.233-.578-.366-.752-.22s-.064.6.023.793a2.891,2.891,0,0,0,1.558.862A4.808,4.808,0,0,0,26.9,30.9c.322-.156.61-.389.77-.091s-.247.6-.44.715a13.082,13.082,0,0,1-1.274.724,2.511,2.511,0,0,1-.935.229,1.871,1.871,0,0,1-.926-.321c-.188-.11-.564-.146-.706.083a.715.715,0,0,0,.587,1,4.4,4.4,0,0,0,.953,0c.22-.027,1.077-.284,1.247-.339a10.075,10.075,0,0,0,.917-.449c.11-.065.334-.271.458-.046s-.247.559-.247.559a13.137,13.137,0,0,1-1.091.862,7.074,7.074,0,0,1-1.265.513,7.91,7.91,0,0,1-1.119-.055c-.325,0-.486.064-.5.339a.992.992,0,0,0,.4.862,1.66,1.66,0,0,0,1.128.064c.261-.1,1.193-.642,1.193-.642s.769-.508.952-.6.587-.284.688-.128a.542.542,0,0,1-.083.623c-.171.181-.843.954-1.164,1.229a3.064,3.064,0,0,1-1.412.687,2.752,2.752,0,0,1-1.057-.106s-.657-.118-.675.157a1.413,1.413,0,0,0,.293.912,1.717,1.717,0,0,0,1.32,0,7.977,7.977,0,0,0,1.639-.919c.229-.179.859-.8.955-.887s.312-.211.4-.073-.032.348-.12.513a15.942,15.942,0,0,1-1.27,1.682A4.516,4.516,0,0,1,25,38.976c-.729.247-.938-.175-1.41-.028-.143.045-.277.138-.222.431a1.419,1.419,0,0,0,1.155.889,2.193,2.193,0,0,0,1.412-.458,22.617,22.617,0,0,0,1.576-1.669l1.073-1.118c.115-.119.367-.376.541-.312s.214.234.219.514a1.633,1.633,0,0,1-.357.962,4.665,4.665,0,0,1-.852.706c-.175.142-.495.358-.514.546s.1.352.468.371a1.41,1.41,0,0,0,.944-.422,4.037,4.037,0,0,0,1.164-2.2c.065-.124.2-.284.4-.211a.491.491,0,0,1,.353.546,3.668,3.668,0,0,1-.436.893s-.509.468-.513.633.023.243.2.293a.559.559,0,0,0,.505-.146,3.606,3.606,0,0,0,.614-.725c.1-.176.458-.825.513-.916s.147-.3.339-.248.243.377.184.532a6.388,6.388,0,0,1-.484,1.425,5.732,5.732,0,0,1-1.35,1,4.806,4.806,0,0,1-1.127.358c-.234.05-.4.018-.44.183s.023.215.165.358.573.3.449.449a27.04,27.04,0,0,1-2.805.887l-1.572-1.189c-.056-.149-.17-.355-.372-.379-.32-.038-.451.148-.675.133s-.639-.067-.826.182a.866.866,0,0,1,.659.064c.248.184.345.553.6.618.175.044.308-.087.436-.16l.948.623s.248.209.019.214c-.2,0-1.3-.045-1.541-.056-.022-.03-.04-.051-.04-.051s-.226-.451-.545-.4-.4.262-.616.307-.634.106-.748.4a.868.868,0,0,1,.652-.113c.289.111.48.441.747.435.161,0,.253-.134.345-.236l1.718-.015s.229.073,0,.192c-.166.086-.584.262-.8.352-.041-.012-.073-.018-.073-.018s-.456-.217-.678.018-.15.45-.3.621-.434.474-.346.772c0,0,.148-.4.444-.491s.65.052.857-.117c.142-.117.112-.308.132-.456l1.507-.72,1.2.424a.131.131,0,0,0,.031.032c.16.122,0,.447.21.617s.56.027.856.117.444.491.444.491c.089-.3-.2-.6-.346-.772s-.074-.387-.3-.622c-.182-.193-.524-.08-.638-.034l-.98-.363.406-.135a21.5,21.5,0,0,1,2.539-.66c.124.078.651.6.651.6s.257.192.357.137.917-1.521,1.128-1.851,1.224-1.6,1.705-1.311.33,1.315.147,1.686a7.166,7.166,0,0,1-1.33,1.65c-.344.238-.554.555-.889.615a3.859,3.859,0,0,1-.9,0c-.138-.01-.614.018-.642.3s.234.509.578.569.7.192.935.091a4.362,4.362,0,0,0,.733-.6c.165-.133.413-.316.569-.174s.082.408-.092.624A4.853,4.853,0,0,1,32,45.347a1.423,1.423,0,0,1-.706.128c-.215.023-.444.05-.44.238a.588.588,0,0,0,.376.5,1.6,1.6,0,0,0,.88,0,3.769,3.769,0,0,0,.944-.624c.124-.128.417-.5.6-.357s.1.531-.064.779-.454.752-.77.871a4.435,4.435,0,0,1-.825.156c-.133.032-.121.117-.056.256a1.181,1.181,0,0,0,.734.523c.317.027.788-.389.871-.523s.433-.726.477-.761.16-.385.385-.3a.543.543,0,0,1,.284.577,2.056,2.056,0,0,1-.247.853,8,8,0,0,1-.825.807l1.806,2.805h.011l1.805-2.805a8,8,0,0,1-.825-.807,2.056,2.056,0,0,1-.247-.853.543.543,0,0,1,.284-.577c.225-.083.341.268.385.3s.393.628.477.761.554.55.871.523a1.181,1.181,0,0,0,.734-.523c.065-.139.077-.224-.056-.256a4.435,4.435,0,0,1-.825-.156c-.316-.119-.61-.624-.77-.871s-.252-.633-.064-.779.481.229.6.357a3.787,3.787,0,0,0,.944.624,1.6,1.6,0,0,0,.88,0,.588.588,0,0,0,.376-.5c0-.188-.225-.215-.44-.238a1.423,1.423,0,0,1-.706-.128,4.876,4.876,0,0,1-1.082-.889c-.174-.216-.247-.482-.091-.624s.4.041.568.174a4.4,4.4,0,0,0,.733.6c.234.1.592-.032.935-.091s.6-.285.578-.569-.5-.312-.642-.3a3.859,3.859,0,0,1-.9,0c-.335-.06-.545-.377-.889-.615a7.166,7.166,0,0,1-1.33-1.65c-.183-.371-.334-1.393.147-1.686S38.39,40.672,38.6,41s1.027,1.8,1.128,1.851.357-.137.357-.137.527-.518.651-.6a21.5,21.5,0,0,1,2.539.66l.406.135-.979.363c-.115-.046-.457-.159-.639.034-.221.235-.151.451-.3.622s-.435.473-.346.772c0,0,.148-.4.444-.491s.649.052.856-.117.05-.495.21-.617a.131.131,0,0,0,.031-.032l1.2-.424,1.507.72c.02.148-.01.339.133.456.206.169.56.027.856.117s.444.491.444.491c.088-.3-.2-.6-.346-.772s-.075-.387-.3-.621-.678-.018-.678-.018-.032.006-.073.018c-.218-.09-.636-.266-.8-.352-.229-.119,0-.192,0-.192l1.718.015c.092.1.184.232.345.236.268.006.459-.324.747-.435a.868.868,0,0,1,.652.113C48.256,42.512,47.842,42.452,47.622,42.406ZM39.857,24.377c.329,0,.6.117.6.261s-.267.262-.6.262-.6-.117-.6-.262S39.528,24.377,39.857,24.377Zm-8.848.523c-.329,0-.6-.117-.6-.262s.267-.261.6-.261.6.117.6.261S31.338,24.9,31.009,24.9Z" fill="#040506"/>
  </g>
</svg>
