<svg xmlns="http://www.w3.org/2000/svg" xmlns:xlink="http://www.w3.org/1999/xlink" width="64.398" height="64.398" viewBox="0 0 64.398 64.398">
  <defs>
    <clipPath id="clip-path">
      <circle id="Ellipse_24" data-name="Ellipse 24" cx="24" cy="24" r="24" transform="matrix(0.894, -0.447, 0.447, 0.894, 3.234, 24.7)" fill="none"/>
    </clipPath>
  </defs>
  <g id="Group_242" data-name="Group 242" transform="translate(-3.234 -3.234)">
    <g id="Group_241" data-name="Group 241" clip-path="url(#clip-path)">
      <g id="g13237">
        <path id="_21399192" data-name="21399192" d="M72.492,59.9V10.49H-1.626V59.9H72.492Z" fill="#185126"/>
        <g id="g13004">
          <g id="g9244">
            <path id="path3159" d="M29.26,36.083c-.965,1.319-.268,2.176.727,2.237A2.267,2.267,0,0,0,32,36.432l-.372-.19c.208.536-.008.7-.451,1.071C30.3,38.035,28.515,38.086,29.26,36.083Z" fill="#fff" stroke="#fff" stroke-width="0.033" fill-rule="evenodd"/>
            <path id="path3115" d="M36.909,39.541c5.432.139,7.161-4.645,3.808-8.74l-.332.451c.216,1.909.529,3.79.559,5.746a1.012,1.012,0,0,1-1.8-.339,5.5,5.5,0,0,0-.849-2.807l-.268.451a7.282,7.282,0,0,1,.722,2.356c-1.549,1.692-3.263,2.034-2.626-.19-1.226,1.95.629,3.322,2.731.322.451,2.048,2.194.777,2.3.336a16.5,16.5,0,0,0-.291-5.214c1.513,2.383,1.565,4.1.76,5.251-.894,1.278-2.839,1.875-4.713,2.377Z" fill="#fff" stroke="#fff" stroke-width="0.082" fill-rule="evenodd"/>
            <path id="path3117" d="M39.99,34.134c-1.162.077-1.758-.139-1.129-.923.622-.766,1.2-.156,1.36.868.145.96-2.042,2.183-2.8,2.183-1.144,0-1.673-1.339-.618-2.542C35.449,37.232,39.733,35.195,39.99,34.134Zm-.805-.814c-.141-.007-.246.22-.175.264a.551.551,0,0,0,.563-.013c.071-.143-.19-.244-.388-.251Z" fill="#fff" stroke="#fff" stroke-width="0.082" fill-rule="evenodd"/>
            <path id="path3140" d="M33.679,35.791c-1.118,2,0,2.828,1.43,2.6a4.491,4.491,0,0,0,2.5-1.414,45.562,45.562,0,0,0-.171-4.8c.559-.606-.049-.6-.261-1.254-.1.38-.332.79-.1,1.085a47,47,0,0,1,.246,4.821,4.659,4.659,0,0,1-2.575,1.122c-1.248-.01-1.516-.966-1.069-2.16Z" fill="#fff" stroke="#fff" stroke-width="0.082" fill-rule="evenodd"/>
            <path id="path3150" d="M35.963,36.32a40.368,40.368,0,0,0-.194-4.275c.581-.586-.03-.6-.22-1.257-.112.372-.358.779-.141,1.081.1,1.614.19,3.227.208,4.841.134-.078.287-.109.347-.39Z" fill="#fff" stroke="#fff" stroke-width="0.082" fill-rule="evenodd"/>
            <path id="path3152" d="M31.626,36.249c-.142-.163-.242-.346-.358-.505-.018-.227.149-.438.172-.553a3.641,3.641,0,0,0,.454.6m.2.105a3.072,3.072,0,0,0,.939.108c1.222.021,2.508-.163,2.37,1.343a2.385,2.385,0,0,1-2.429,2.1c-1.554-.013-2.88-1.573-.485-4.444a3.816,3.816,0,0,1,.783.044,1.91,1.91,0,0,0,1.371-.373c-.06-.946-.06-1.841-.187-2.695-.216-.3.03-.705.142-1.082.19.658.8.672.22,1.262a17.859,17.859,0,0,1,.153,2.491,1.884,1.884,0,0,1-1.368.993c-.868-.115-1.259-1.22-2.164-.854.249-1,2.548-1.224,2.779-.437-.153.82-2.3.491-2.869,3.142-.175.817.771,1.57,1.744,1.509a2.081,2.081,0,0,0,2.064-1.668c.078-.844-1.23-.746-1.777-.736a3.367,3.367,0,0,1-1.6-.254M32.6,34.52c.141-.122.637-.207.816-.01a2.028,2.028,0,0,0-.373.274A3.321,3.321,0,0,1,32.6,34.52Z" fill="#fff" stroke="#fff" stroke-width="0.033" fill-rule="evenodd"/>
            <path id="path3161" d="M33.809,31.716a1.556,1.556,0,0,1,.2.712.9.9,0,0,1-.757.692.627.627,0,0,1-.618-.349c-.019-.038-.108-.126-.194-.085-.376.563-.656.8-.995.8-.678-.011-.476-.56-1.1-.729a1.142,1.142,0,0,0-.909.7c-.835,2.153-1.595-.007-1.271-1.01.049.959.3,1.529.563,1.512.19-.017.357-.417.6-.838.187-.322.634-.9,1.107-.9.432.01.16.732,1.025.722.417-.007.8-.3,1.188-.882.086-.013.108.126.127.173a.55.55,0,0,0,.954.248c-.027-.109-.015-.289-.146-.326Z" fill="#fff" stroke="#fff" stroke-width="0.082" fill-rule="evenodd"/>
            <path id="path3163" d="M36.525,29.933a.838.838,0,0,1-.983-.166c.331-.061.588-.169.663-.407-.149-.305-.5-.437-1-.44-.667.017-1.01.261-1.051.6.309.01.589-.068.708.2a4.608,4.608,0,0,1-1.893.329,1.47,1.47,0,0,1-1.617-.831.281.281,0,0,0-.175-.064c-.354,0-.615,1.125-1.013,1.122-.4-.048-.309-.726-.425-1.112-.1.607.123,2.864,1.356.413.037-.081.09-.057.123.01a1.857,1.857,0,0,0,1.733.956,4.689,4.689,0,0,0,2.213-.637,1.264,1.264,0,0,0,.857.519,1.288,1.288,0,0,0,1.248-.773c.067-.227.078-.675-.187-.682-.368-.01-.637.8-.551,1.536.007-.01.048-.183.048-.183m-1.631-.976c.242-.1.476-.149.663.074a1.06,1.06,0,0,0-.313.136A2.747,2.747,0,0,1,34.946,29.347Zm1.78.5c.06-.241.094-.434.31-.559C37.08,29.547,37.088,29.689,36.726,29.852Z" fill="#fff" stroke="#fff" stroke-width="0.033" fill-rule="evenodd"/>
            <path id="path3169" d="M38.179,30.225a2.641,2.641,0,0,1-.163-.61.648.648,0,0,1,.763-.675,4.666,4.666,0,0,1,1.043.292c.3.091.7.162,1.085.261.216.088,0,.318-.056.349a11.73,11.73,0,0,1-2.254.908,1.151,1.151,0,0,1-.984-.644,23.761,23.761,0,0,0-.145-2.505,1.19,1.19,0,0,0,.238-.329c.075.837.1,1.719.123,2.607a.642.642,0,0,0,.35.346Zm.615.068c-.514.132-.451-.265-.5-.509-.056-.285-.019-.607.38-.525a11.548,11.548,0,0,1,1.449.467Z" fill="#fff" stroke="#fff" stroke-width="0.033" fill-rule="evenodd"/>
            <path id="path3173" d="M38.291,30.713l.071.315h.056l-.022-.3" fill="#fff" stroke="#fff" stroke-width="0.033" fill-rule="evenodd"/>
            <path id="path5196" d="M30.091,34.008l.261-.244.3.234-.28.227Z" fill="#fff" stroke="#fff" stroke-linecap="round" stroke-linejoin="round" stroke-width="0.33" fill-rule="evenodd"/>
            <path id="path6168" d="M30.754,33.927l.265-.244.3.234-.279.227Z" fill="#fff" stroke="#fff" stroke-linecap="round" stroke-linejoin="round" stroke-width="0.33" fill-rule="evenodd"/>
            <path id="path6170" d="M28.91,31.4l.264-.244.3.234-.279.227Z" fill="#fff" stroke="#fff" stroke-linecap="round" stroke-linejoin="round" stroke-width="0.33" fill-rule="evenodd"/>
            <path id="path6172" d="M29.029,32.116l.265-.244.3.234-.28.227Z" fill="#fff" stroke="#fff" stroke-linecap="round" stroke-linejoin="round" stroke-width="0.33" fill-rule="evenodd"/>
            <path id="path6174" d="M33.817,33.32l.242-.18.223.221-.253.162Z" fill="#fff" stroke="#fff" stroke-linecap="round" stroke-linejoin="round" stroke-width="0.33" fill-rule="evenodd"/>
            <path id="path6176" d="M30.62,28.72l.171-.16.2.153-.183.149Z" fill="#fff" stroke="#fff" stroke-linecap="round" stroke-linejoin="round" stroke-width="0.33" fill-rule="evenodd"/>
            <path id="path6178" d="M31.056,28.669l.171-.163.2.156-.183.146Z" fill="#fff" stroke="#fff" stroke-linecap="round" stroke-linejoin="round" stroke-width="0.33" fill-rule="evenodd"/>
            <path id="path6180" d="M40.206,30.489l-.164.126-.156-.146.171-.115Z" fill="#fff" stroke="#fff" stroke-linecap="round" stroke-linejoin="round" stroke-width="0.33" fill-rule="evenodd"/>
            <path id="path9240" d="M32.494,34.988l-.019.268.47.04.376-.257-.827-.051Z" fill="#fff" stroke="#fff" stroke-width="0.033" fill-rule="evenodd"/>
            <path id="path9242" d="M36.462,29.984l.138-.027-.015.349-.086.031-.037-.353Z" fill="#fff" stroke="#fff" stroke-width="0.082" fill-rule="evenodd"/>
          </g>
          <path id="path2722" d="M35.434,44.04c5.288,0,9.592-3.915,9.592-8.727a8.383,8.383,0,0,0-3.342-6.607,7.2,7.2,0,0,1,1.971,4.922c0,4.179-3.678,7.569-8.221,7.569s-8.222-3.39-8.222-7.569a7.2,7.2,0,0,1,1.971-4.922,8.383,8.383,0,0,0-3.342,6.607c0,4.812,4.3,8.727,9.593,8.727Z" fill="#fff"/>
          <g id="g2908">
            <path id="path2910" d="M34.135,48.9a7.7,7.7,0,0,1-6.995-.613c-.1-.043-.144.022-.048.263a1.752,1.752,0,0,1-.289,2.078c-.312.415.048.481.577.437a30.86,30.86,0,0,0,6.611-1.247Z" fill="#fff" stroke="#040506" stroke-width="0.66"/>
            <path id="path2912" d="M34.087,50.033a23.61,23.61,0,0,1-3.894.941c-.649.087-.625.459.529.59a6.088,6.088,0,0,0,3.606-1.334Z" fill="#fff" stroke="#040506" stroke-width="0.66"/>
            <path id="path2914" d="M35.434,47.933c.288,0,.817-.109,1.346-.175.985-.153.264,1.225-1.346,1.225v.46c1.634,0,3.341-1.619,2.98-2.341-.5-1.05-1.9-.153-2.98-.153s-2.477-.9-2.981.153c-.361.722,1.346,2.341,2.981,2.341v-.46c-1.611,0-2.332-1.378-1.347-1.225C34.616,47.824,35.145,47.933,35.434,47.933Z" fill="#fff" stroke="#040506" stroke-width="0.66"/>
            <path id="path2916" d="M36.732,48.9a7.7,7.7,0,0,0,7-.613c.1-.043.144.022.048.263a1.752,1.752,0,0,0,.289,2.078c.312.415-.048.481-.577.437a30.86,30.86,0,0,1-6.611-1.247Z" fill="#fff" stroke="#040506" stroke-width="0.66"/>
            <path id="path2918" d="M36.78,50.033a23.025,23.025,0,0,0,3.894.941c.649.087.625.459-.529.59a6.088,6.088,0,0,1-3.606-1.334Z" fill="#fff" stroke="#040506" stroke-width="0.66"/>
            <path id="path2920" d="M35.506,49.814c.048.372.12,1.182.673.832a1.478,1.478,0,0,0,.913-1.466c0-.415-.553-1.028-1.658-1.028s-1.659.613-1.659,1.028a1.478,1.478,0,0,0,.913,1.466c.553.35.6-.46.673-.832C35.385,49.683,35.506,49.727,35.506,49.814Z" fill="#fff" stroke="#040506" stroke-width="0.66"/>
          </g>
          <g id="g2724">
            <path id="path2726" d="M34.736,21.794C34.424,20.175,31.8,20.066,31.4,19.8c-.481-.284-.409,0-.241.438.481,1.137,2.116,1.6,2.861,1.728C34.616,22.056,34.809,22.1,34.736,21.794Z" fill="#fff" stroke="#040506" stroke-width="0.66"/>
            <path id="path2728" d="M35.53,21.837c.264-1.662-2.332-2.45-2.645-2.821-.36-.394-.408-.154-.24.306a4.99,4.99,0,0,0,2.115,2.45C35.313,22.034,35.482,22.144,35.53,21.837Z" fill="#fff" stroke="#040506" stroke-width="0.66"/>
            <path id="path2730" d="M37.669,22.8c.241-1.991-1.875-2.3-2.428-2.931-.36-.394-.384-.175-.264.284a4.975,4.975,0,0,0,1.947,2.559C37.429,23,37.645,23.106,37.669,22.8Z" fill="#fff" stroke="#040506" stroke-width="0.66"/>
            <path id="path2732" d="M37.02,22.362c-2.187-1.29-3.726-.568-4.351-.634-.6-.066-.793.284.24.809a5.787,5.787,0,0,0,3.751.307C37.381,22.581,37.164,22.45,37.02,22.362Z" fill="#fff" stroke="#040506" stroke-width="0.66"/>
            <path id="path2734" d="M40.314,23.237c-.674-2.143-2.236-1.793-2.693-2.056s-.5-.2-.409.285c.193.853,1.8,1.793,2.6,2.078C40.1,23.631,40.458,23.762,40.314,23.237Z" fill="#fff" stroke="#040506" stroke-width="0.66"/>
            <path id="path2736" d="M40,23.609c-1.875-1.378-3.341-.35-3.918-.5-.433-.109-.241.153-.073.263a4.4,4.4,0,0,0,3.847.7C40.314,23.894,40.338,23.85,40,23.609Z" fill="#fff" stroke="#040506" stroke-width="0.66"/>
            <path id="path2738" d="M44.064,25.009c.024-1.356-3.053-1.925-3.7-2.756-.385-.5-.722-.241-.529.569.288,1.05,2.4,2.209,3.558,2.428C44.088,25.381,44.064,25.162,44.064,25.009Z" fill="#fff" stroke="#040506" stroke-width="0.66"/>
            <path id="path2740" d="M43.968,25.25c-1.948-1.6-3.582-1.072-4.183-1.225-.6-.131-.842.2.1.853a5.738,5.738,0,0,0,3.678.787C44.3,25.512,44.112,25.359,43.968,25.25Z" fill="#fff" stroke="#040506" stroke-width="0.66"/>
            <path id="path2742" d="M47.453,27.59c-.553-2.318-2.307-2.8-2.74-3.237-.409-.438-.842-.306-.481.744a5.051,5.051,0,0,0,2.6,2.6C47.55,27.984,47.5,27.765,47.453,27.59Z" fill="#fff" stroke="#040506" stroke-width="0.66"/>
            <path id="path2744" d="M47.429,27.9c-1.418-2.079-3.269-2.013-3.846-2.3-.553-.306-.938-.044-.192.853a5.6,5.6,0,0,0,3.461,1.75C47.67,28.247,47.526,28.05,47.429,27.9Z" fill="#fff" stroke="#040506" stroke-width="0.66"/>
            <path id="path2746" d="M49.256,30.368c.818-2.362-1.057-3.237-1.25-3.631-.216-.394-.432-.394-.553.022-.528,1.684,1.178,3.325,1.443,3.653C49.16,30.718,49.208,30.565,49.256,30.368Z" fill="#fff" stroke="#040506" stroke-width="0.66"/>
            <path id="path2748" d="M48.872,31.025c-.649-2.647-2.356-2.494-2.741-2.866-.408-.372-.457-.109-.384.372.192,1.29,1.9,2.165,2.668,2.6C48.655,31.265,48.944,31.418,48.872,31.025Z" fill="#fff" stroke="#040506" stroke-width="0.66"/>
            <path id="path2750" d="M50.506,34.131a3.79,3.79,0,0,0-.649-4.55c-.432-.35-.7-.5-.553,0,.193.765-.48,2.734.553,4.178C50.194,34.24,50.242,34.7,50.506,34.131Z" fill="#fff" stroke="#040506" stroke-width="0.66"/>
            <path id="path2752" d="M49.881,34.634a3.434,3.434,0,0,0-1.73-3.478c-.6-.328-.625-.241-.625.219.048,1.421,1.514,2.6,1.947,3.259C49.881,35.246,49.857,34.787,49.881,34.634Z" fill="#fff" stroke="#040506" stroke-width="0.66"/>
            <path id="path2754" d="M49.617,38.615a4.218,4.218,0,0,1,1.49-4.878c.529-.35.866-.481.625.066-.36.809.025,3.062-1.346,4.484C49.954,38.768,49.785,39.271,49.617,38.615Z" fill="#fff" stroke="#040506" stroke-width="0.66"/>
            <path id="path2756" d="M49.809,37.981a3.673,3.673,0,0,0-1.322-4.222c-.457-.285-.745-.394-.529.065.289.7-.024,2.669,1.178,3.894C49.521,38.134,49.665,38.549,49.809,37.981Z" fill="#fff" stroke="#040506" stroke-width="0.66"/>
            <path id="path2758" d="M48.92,36.8a3.693,3.693,0,0,0-.745,4.222c.36.634.408.591.745.131.913-1.334.36-3.259.409-4.112C49.353,36.231,49.064,36.668,48.92,36.8Z" fill="#fff" stroke="#040506" stroke-width="0.66"/>
            <path id="path2760" d="M51.059,38.812a3.881,3.881,0,0,1-2.428,3.609c-.721.241-.721.175-.625-.35.337-1.969,2-2.691,2.6-3.325C51.18,38.134,51.059,38.637,51.059,38.812Z" fill="#fff" stroke="#040506" stroke-width="0.66"/>
            <path id="path2762" d="M46.588,44.018c2.115-1.75.986-2.975,1.082-4.113.048-.612-.217-.459-.457-.24a4.428,4.428,0,0,0-1.13,4.178C46.2,44.215,46.4,44.171,46.588,44.018Z" fill="#fff" stroke="#040506" stroke-width="0.66"/>
            <path id="path2764" d="M49.425,42.88a4.852,4.852,0,0,1-4.111,3.172c-.914.044-.89-.022-.577-.59,1.178-2.057,3.269-2.3,4.207-2.822C49.809,42.159,49.5,42.683,49.425,42.88Z" fill="#fff" stroke="#040506" stroke-width="0.66"/>
            <path id="path2766" d="M43.679,46.49c2.741-1.247,2.188-3.325,2.693-3.85.36-.372-.072-.328-.289-.2-1.611.853-2.909,2.209-2.933,3.653C43.15,46.643,43.2,46.708,43.679,46.49Z" fill="#fff" stroke="#040506" stroke-width="0.66"/>
            <path id="path2768" d="M39.929,48.808c3.462.5,5.072-1.881,6.082-2.1.529-.109.144-.306-.12-.328-2.308-.24-5.241.744-6.13,1.838C39.4,48.655,39.4,48.743,39.929,48.808Z" fill="#fff" stroke="#040506" stroke-width="0.66"/>
            <path id="path2770" d="M43.439,45.068A6.612,6.612,0,0,1,38.2,48.983c-.913.066-.913-.022-.577-.568,1.563-2.582,4.279-3.019,5.241-3.675C43.679,44.171,43.511,44.871,43.439,45.068Z" fill="#fff" stroke="#040506" stroke-width="0.66"/>
            <path id="path2772" d="M36.131,21.794c.312-1.619,2.933-1.728,3.341-1.991.481-.284.409,0,.241.438-.481,1.137-2.116,1.6-2.861,1.728C36.251,22.056,36.059,22.1,36.131,21.794Z" fill="#fff" stroke="#040506" stroke-width="0.66"/>
            <path id="path2774" d="M35.337,21.837c-.264-1.662,2.332-2.45,2.645-2.821.36-.394.408-.154.24.306a4.99,4.99,0,0,1-2.115,2.45C35.554,22.034,35.385,22.144,35.337,21.837Z" fill="#fff" stroke="#040506" stroke-width="0.66"/>
            <path id="path2776" d="M33.2,22.8c-.241-1.991,1.875-2.3,2.428-2.931.36-.394.384-.175.264.284a4.975,4.975,0,0,1-1.947,2.559C33.438,23,33.222,23.106,33.2,22.8Z" fill="#fff" stroke="#040506" stroke-width="0.66"/>
            <path id="path2778" d="M33.847,22.362c2.188-1.29,3.726-.568,4.351-.634.6-.066.793.284-.24.809a5.785,5.785,0,0,1-3.75.307C33.486,22.581,33.7,22.45,33.847,22.362Z" fill="#fff" stroke="#040506" stroke-width="0.66"/>
            <path id="path2780" d="M30.553,23.237c.674-2.143,2.236-1.793,2.693-2.056s.505-.2.409.285c-.193.853-1.8,1.793-2.6,2.078C30.77,23.631,30.409,23.762,30.553,23.237Z" fill="#fff" stroke="#040506" stroke-width="0.66"/>
            <path id="path2782" d="M30.866,23.609c1.875-1.378,3.342-.35,3.918-.5.433-.109.241.153.073.263a4.4,4.4,0,0,1-3.847.7C30.553,23.894,30.529,23.85,30.866,23.609Z" fill="#fff" stroke="#040506" stroke-width="0.66"/>
            <path id="path2784" d="M26.8,25.009c-.024-1.356,3.053-1.925,3.7-2.756.385-.5.722-.241.529.569-.288,1.05-2.4,2.209-3.558,2.428C26.779,25.381,26.8,25.162,26.8,25.009Z" fill="#fff" stroke="#040506" stroke-width="0.66"/>
            <path id="path2786" d="M26.9,25.25c1.948-1.6,3.582-1.072,4.183-1.225.6-.131.842.2-.1.853a5.738,5.738,0,0,1-3.678.787C26.563,25.512,26.755,25.359,26.9,25.25Z" fill="#fff" stroke="#040506" stroke-width="0.66"/>
            <path id="path2788" d="M23.414,27.59c.553-2.318,2.307-2.8,2.74-3.237.409-.438.842-.306.481.744a5.051,5.051,0,0,1-2.6,2.6C23.318,27.984,23.366,27.765,23.414,27.59Z" fill="#fff" stroke="#040506" stroke-width="0.66"/>
            <path id="path2790" d="M23.438,27.9c1.418-2.079,3.269-2.013,3.846-2.3.553-.306.938-.044.192.853a5.6,5.6,0,0,1-3.461,1.75C23.2,28.247,23.342,28.05,23.438,27.9Z" fill="#fff" stroke="#040506" stroke-width="0.66"/>
            <path id="path2792" d="M21.611,30.368c-.818-2.362,1.057-3.237,1.25-3.631.216-.394.432-.394.553.022.529,1.684-1.178,3.325-1.443,3.653C21.707,30.718,21.659,30.565,21.611,30.368Z" fill="#fff" stroke="#040506" stroke-width="0.66"/>
            <path id="path2794" d="M22,31.025c.649-2.647,2.356-2.494,2.741-2.866.409-.372.457-.109.385.372-.193,1.29-1.9,2.165-2.669,2.6C22.212,31.265,21.923,31.418,22,31.025Z" fill="#fff" stroke="#040506" stroke-width="0.66"/>
            <path id="path2796" d="M20.361,34.131a3.79,3.79,0,0,1,.649-4.55c.432-.35.7-.5.553,0-.193.765.48,2.734-.553,4.178C20.673,34.24,20.625,34.7,20.361,34.131Z" fill="#fff" stroke="#040506" stroke-width="0.66"/>
            <path id="path2798" d="M20.986,34.634a3.433,3.433,0,0,1,1.731-3.478c.6-.328.625-.241.625.219-.049,1.421-1.515,2.6-1.948,3.259C20.986,35.246,21.01,34.787,20.986,34.634Z" fill="#fff" stroke="#040506" stroke-width="0.66"/>
            <path id="path2800" d="M21.25,38.615a4.215,4.215,0,0,0-1.49-4.878c-.529-.35-.866-.481-.625.066.36.809-.024,3.062,1.346,4.484C20.914,38.768,21.058,39.271,21.25,38.615Z" fill="#fff" stroke="#040506" stroke-width="0.66"/>
            <path id="path2802" d="M21.058,37.981a3.673,3.673,0,0,1,1.322-4.222c.457-.285.745-.394.529.065-.289.7.024,2.669-1.178,3.894C21.346,38.134,21.2,38.549,21.058,37.981Z" fill="#fff" stroke="#040506" stroke-width="0.66"/>
            <path id="path2804" d="M21.947,36.8a3.693,3.693,0,0,1,.745,4.222c-.36.634-.408.591-.745.131-.913-1.334-.36-3.259-.408-4.112C21.515,36.231,21.8,36.668,21.947,36.8Z" fill="#fff" stroke="#040506" stroke-width="0.66"/>
            <path id="path2806" d="M19.808,38.812a3.881,3.881,0,0,0,2.428,3.609c.721.241.721.175.625-.35-.337-1.969-2-2.691-2.6-3.325C19.688,38.134,19.808,38.637,19.808,38.812Z" fill="#fff" stroke="#040506" stroke-width="0.66"/>
            <path id="path2808" d="M24.279,44.018c-2.115-1.75-.986-2.975-1.082-4.113-.048-.612.217-.459.457-.24a4.428,4.428,0,0,1,1.13,4.178C24.664,44.215,24.471,44.171,24.279,44.018Z" fill="#fff" stroke="#040506" stroke-width="0.66"/>
            <path id="path2810" d="M21.442,42.88a4.853,4.853,0,0,0,4.111,3.172c.914.044.89-.022.577-.59-1.178-2.057-3.269-2.3-4.207-2.822C21.058,42.159,21.37,42.683,21.442,42.88Z" fill="#fff" stroke="#040506" stroke-width="0.66"/>
            <path id="path2812" d="M27.188,46.49C24.447,45.243,25,43.165,24.5,42.64c-.36-.372.073-.328.289-.2,1.611.853,2.909,2.209,2.933,3.653C27.717,46.643,27.669,46.708,27.188,46.49Z" fill="#fff" stroke="#040506" stroke-width="0.66"/>
            <path id="path2814" d="M30.938,48.808c-3.462.5-5.072-1.881-6.082-2.1-.529-.109-.144-.306.12-.328,2.308-.24,5.241.744,6.13,1.838C31.467,48.655,31.467,48.743,30.938,48.808Z" fill="#fff" stroke="#040506" stroke-width="0.66"/>
            <path id="path2816" d="M27.428,45.068a6.612,6.612,0,0,0,5.241,3.915c.913.066.913-.022.577-.568C31.683,45.833,28.967,45.4,28,44.74,27.188,44.171,27.356,44.871,27.428,45.068Z" fill="#fff" stroke="#040506" stroke-width="0.66"/>
          </g>
          <g id="g2818">
            <path id="path2820" d="M39.5,23.806c-.456-.306-2.139-.131-2.452-.328C37.645,23.937,38.991,23.609,39.5,23.806Z" fill="#185126"/>
            <path id="path2822" d="M43.559,24.594c-.361-.591-2.5-.985-2.813-1.51C41.3,24.09,42.958,23.959,43.559,24.594Z" fill="#185126"/>
            <path id="path2824" d="M43.246,25.272c-.793-.7-2.644-.416-3.2-.832C41.347,25.512,42.069,24.681,43.246,25.272Z" fill="#185126"/>
            <path id="path2826" d="M38.607,22.165a2.876,2.876,0,0,1,1.442,1.05c-.36-.437-1.009-.612-1.538-.984C38.535,22.231,38.583,22.187,38.607,22.165Z" fill="#185126"/>
            <path id="path2828" d="M46.492,26.672c-.313-.657-1.419-1.378-1.515-1.619C45.29,25.906,46.2,26.1,46.492,26.672Z" fill="#185126"/>
            <path id="path2830" d="M46.78,27.831c-.961-1.378-2.476-1.225-3.077-1.75C44.16,26.584,45.891,26.912,46.78,27.831Z" fill="#185126"/>
            <path id="path2832" d="M49.016,29.953c.072-1.466-1.13-2.013-1.178-2.844C47.814,28.093,49.064,29.428,49.016,29.953Z" fill="#185126"/>
            <path id="path2834" d="M48.415,30.74c-.24-1.269-1.875-1.356-2.164-2.1C46.251,29.34,48.175,30.062,48.415,30.74Z" fill="#185126"/>
            <path id="path2836" d="M49.761,30.018c.866.963.265,2.428.625,3.5C49.954,32.731,50.17,30.762,49.761,30.018Z" fill="#185126"/>
            <path id="path2838" d="M48.343,34.131c1.3,1.268.769,2.69,1.3,3.3C48.992,36.581,49.088,34.918,48.343,34.131Z" fill="#185126"/>
            <path id="path2840" d="M51.035,34.306c-1.1,1.115-.432,2.8-1.009,3.587C50.675,37.215,50.579,35.137,51.035,34.306Z" fill="#185126"/>
            <path id="path2842" d="M49.641,34.306c-.144-1.291-1.466-1.969-1.587-2.669C47.91,32.337,49.329,33.431,49.641,34.306Z" fill="#185126"/>
            <path id="path2844" d="M48.968,37.39c.216.9-.577,2.822-.337,3.412C48.1,39.774,49.088,37.827,48.968,37.39Z" fill="#185126"/>
            <path id="path2846" d="M50.675,39.446c-.529,1.6-1.587,1.488-1.923,2.45C48.992,40.977,50.386,40.146,50.675,39.446Z" fill="#185126"/>
            <path id="path2848" d="M47.237,40.19c-.7,1.072-.12,2.3-.7,3.062C47.357,42.487,46.925,41.065,47.237,40.19Z" fill="#185126"/>
            <path id="path2850" d="M48.92,43.121c-.842,1.422-2.572,1.291-3.27,2.319C46.348,44.149,48.487,43.93,48.92,43.121Z" fill="#185126"/>
            <path id="path2852" d="M45.867,42.946c-1.491.941-1.034,1.925-2.164,2.975C45.122,44.871,45,43.712,45.867,42.946Z" fill="#185126"/>
            <path id="path2854" d="M45.17,46.752c-1.443-.044-3.51,1.663-4.76,1.531C41.66,48.524,43.968,46.993,45.17,46.752Z" fill="#185126"/>
            <path id="path2856" d="M42.838,45.221c-.1,1.334-3.847,2.187-4.255,3.084C39.04,47.124,42.333,46.249,42.838,45.221Z" fill="#185126"/>
            <path id="path2858" d="M34.352,20.612c-.481-.371-1.058-.678-1.226-1.05a2.334,2.334,0,0,0,1.082,1.16C34.256,20.7,34.3,20.634,34.352,20.612Z" fill="#185126"/>
            <path id="path2860" d="M33.534,21.006c-.745-.328-1.61-.306-2-.765.241.459,1.058.634,1.755.875A1.165,1.165,0,0,1,33.534,21.006Z" fill="#185126"/>
            <path id="path2862" d="M31.371,23.806c.457-.306,2.139-.131,2.452-.328C33.222,23.937,31.876,23.609,31.371,23.806Z" fill="#185126"/>
            <path id="path2864" d="M27.308,24.594c.361-.591,2.5-.985,2.813-1.51C29.568,24.09,27.909,23.959,27.308,24.594Z" fill="#185126"/>
            <path id="path2866" d="M27.621,25.272c.793-.7,2.644-.416,3.2-.832C29.52,25.512,28.8,24.681,27.621,25.272Z" fill="#185126"/>
            <path id="path2868" d="M30.818,23.215c.457-.875,1.755-.984,2.091-1.509C32.4,22.494,31.3,22.625,30.818,23.215Z" fill="#185126"/>
            <path id="path2870" d="M34.52,22.45c1.322-.569,2.62-.088,3.245-.35C37,22.472,35.169,22.3,34.52,22.45Z" fill="#185126"/>
            <path id="path2872" d="M24.375,26.672c.313-.657,1.419-1.378,1.515-1.619C25.577,25.906,24.664,26.1,24.375,26.672Z" fill="#185126"/>
            <path id="path2874" d="M24.087,27.831c.961-1.378,2.476-1.225,3.077-1.75C26.707,26.584,24.976,26.912,24.087,27.831Z" fill="#185126"/>
            <path id="path2876" d="M21.851,29.953c-.072-1.466,1.13-2.013,1.178-2.844C23.053,28.093,21.8,29.428,21.851,29.953Z" fill="#185126"/>
            <path id="path2878" d="M22.452,30.74c.24-1.269,1.875-1.356,2.164-2.1C24.616,29.34,22.692,30.062,22.452,30.74Z" fill="#185126"/>
            <path id="path2880" d="M21.106,30.018c-.866.963-.265,2.428-.625,3.5C20.914,32.731,20.7,30.762,21.106,30.018Z" fill="#185126"/>
            <path id="path2882" d="M22.524,34.131c-1.3,1.268-.769,2.69-1.3,3.3C21.875,36.581,21.779,34.918,22.524,34.131Z" fill="#185126"/>
            <path id="path2884" d="M19.832,34.306c1.106,1.115.432,2.8,1.009,3.587C20.192,37.215,20.289,35.137,19.832,34.306Z" fill="#185126"/>
            <path id="path2886" d="M21.226,34.306c.144-1.291,1.466-1.969,1.587-2.669C22.957,32.337,21.539,33.431,21.226,34.306Z" fill="#185126"/>
            <path id="path2888" d="M21.9,37.39c-.216.9.577,2.822.337,3.412C22.765,39.774,21.779,37.827,21.9,37.39Z" fill="#185126"/>
            <path id="path2890" d="M20.192,39.446c.529,1.6,1.587,1.488,1.924,2.45C21.875,40.977,20.481,40.146,20.192,39.446Z" fill="#185126"/>
            <path id="path2892" d="M23.63,40.19c.7,1.072.12,2.3.7,3.062C23.51,42.487,23.943,41.065,23.63,40.19Z" fill="#185126"/>
            <path id="path2894" d="M21.947,43.121c.842,1.422,2.573,1.291,3.27,2.319C24.52,44.149,22.38,43.93,21.947,43.121Z" fill="#185126"/>
            <path id="path2896" d="M25,42.946c1.491.941,1.034,1.925,2.164,2.975C25.746,44.871,25.866,43.712,25,42.946Z" fill="#185126"/>
            <path id="path2898" d="M25.7,46.752c1.443-.044,3.51,1.663,4.76,1.531C29.207,48.524,26.9,46.993,25.7,46.752Z" fill="#185126"/>
            <path id="path2900" d="M28.029,45.221c.1,1.334,3.847,2.187,4.255,3.084C31.828,47.124,28.534,46.249,28.029,45.221Z" fill="#185126"/>
            <path id="path2902" d="M33.486,22.494c.289-1.182,1.731-1.4,1.924-2.1C35.337,21.137,33.631,21.969,33.486,22.494Z" fill="#185126"/>
            <path id="path2904" d="M37.741,19.562c-.216.9-1.779,1.4-2,2.079C35.818,20.722,37.429,20.2,37.741,19.562Z" fill="#185126"/>
            <path id="path2906" d="M36.515,21.684c.746-1.093,2.284-.809,2.813-1.443C38.943,20.984,37.044,21.006,36.515,21.684Z" fill="#185126"/>
          </g>
          <path id="path12826" d="M46.69,35.2c0,5.681-5.061,10.286-11.3,10.286s-11.3-4.6-11.3-10.286,5.061-10.286,11.3-10.286S46.69,29.522,46.69,35.2Z" fill="none" stroke="#fcb800" stroke-linecap="round" stroke-linejoin="round" stroke-width="0.669"/>
          <g id="g12874">
            <path id="path12861" d="M33.168,45.494l-.041.126a.2.2,0,0,1-.215.125c-.231-.062-.537-.121-.814-.195l.257-.8c.3.08.606.139.821.174a.148.148,0,0,1,.114.19l-.034.1m-1.944-.5.04-.126a.167.167,0,0,1,.209-.1c.224.082.494.177.794.257l-.257.8c-.277-.074-.554-.148-.8-.236a.286.286,0,0,1-.08-.295" fill="#fcb800"/>
            <path id="path12865" d="M33.01,45.425l-.029.09a.156.156,0,0,1-.173.084c-.191-.051-.446-.1-.676-.165l.184-.57c.25.066.5.118.681.15.077.02.12.08.1.14l-.025.076m-1.616-.416.029-.09a.131.131,0,0,1,.168-.069c.187.066.413.142.662.209l-.184.57c-.23-.061-.46-.123-.667-.194a.2.2,0,0,1-.076-.216" fill="#185126"/>
          </g>
          <g id="g12878">
            <path id="path12880" d="M30.076,44.5l-.078.11a.216.216,0,0,1-.245.064c-.2-.118-.479-.253-.721-.4l.493-.7a8.161,8.161,0,0,0,.734.377.141.141,0,0,1,.051.211l-.065.092m-1.712-.974.078-.111a.174.174,0,0,1,.232-.046c.19.137.419.3.682.451l-.493.7c-.243-.142-.486-.284-.695-.432-.068-.066-.038-.23.014-.3" fill="#fcb800"/>
            <path id="path12882" d="M29.946,44.39l-.056.08a.163.163,0,0,1-.191.036c-.169-.1-.4-.214-.6-.332l.353-.5c.219.128.446.243.607.318a.112.112,0,0,1,.053.161l-.047.066m-1.422-.813.056-.079a.135.135,0,0,1,.182-.023c.159.111.352.242.571.37l-.353.5c-.2-.118-.4-.236-.58-.357a.2.2,0,0,1-.006-.227" fill="#185126"/>
          </g>
          <g id="g12884">
            <path id="path12886" d="M27.418,42.748l-.109.086a.219.219,0,0,1-.255,0c-.158-.165-.381-.366-.57-.564l.69-.544a7.759,7.759,0,0,0,.588.55.139.139,0,0,1-.017.215l-.091.072m-1.341-1.374.109-.086a.177.177,0,0,1,.238.015,7.785,7.785,0,0,0,.514.608l-.69.544c-.188-.2-.377-.4-.533-.593-.044-.08.036-.23.108-.288" fill="#fcb800"/>
            <path id="path12888" d="M27.327,42.612l-.078.062a.166.166,0,0,1-.195-.015c-.131-.137-.314-.306-.472-.471l.494-.389c.171.178.354.347.484.461a.108.108,0,0,1,0,.167l-.065.052m-1.113-1.145.078-.061a.135.135,0,0,1,.182.024c.119.148.263.323.433.5l-.494.389c-.157-.165-.314-.33-.445-.491-.04-.065.012-.178.064-.22" fill="#185126"/>
          </g>
          <g id="g12890">
            <path id="path12892" d="M25.409,40.389l-.131.054a.216.216,0,0,1-.245-.066c-.1-.2-.252-.449-.372-.688l.831-.345a7,7,0,0,0,.393.678.145.145,0,0,1-.083.2l-.109.046m-.861-1.663.131-.054a.171.171,0,0,1,.223.076,7.234,7.234,0,0,0,.306.714l-.831.345c-.12-.238-.24-.477-.328-.7-.018-.089.1-.212.193-.248" fill="#fcb800"/>
            <path id="path12894" d="M25.363,40.235l-.094.039a.162.162,0,0,1-.183-.064c-.083-.166-.206-.374-.306-.573l.595-.247c.108.215.231.424.321.566a.112.112,0,0,1-.051.162l-.079.032m-.713-1.383.094-.039a.13.13,0,0,1,.167.07c.068.172.153.377.261.592l-.595.247c-.1-.2-.2-.4-.275-.585-.018-.073.066-.168.129-.194" fill="#185126"/>
          </g>
          <g id="g12896">
            <path id="path12898" d="M24.211,37.61l-.142.019a.205.205,0,0,1-.214-.127c-.035-.216-.1-.495-.144-.755l.9-.118a6.672,6.672,0,0,0,.168.751.153.153,0,0,1-.142.174l-.119.015m-.312-1.815.143-.019a.162.162,0,0,1,.19.13,7.26,7.26,0,0,0,.072.764l-.9.118c-.041-.259-.083-.519-.1-.761.011-.089.167-.176.262-.189" fill="#fcb800"/>
            <path id="path12900" d="M24.215,37.451l-.1.013a.151.151,0,0,1-.155-.108c-.029-.18-.083-.412-.117-.628l.647-.085c.037.234.091.466.133.626a.116.116,0,0,1-.1.141l-.085.012m-.257-1.511.1-.013a.124.124,0,0,1,.139.11c.011.182.029.4.066.635l-.647.085c-.034-.217-.068-.433-.083-.633.005-.074.116-.144.185-.153" fill="#185126"/>
          </g>
          <g id="g12902">
            <path id="path12904" d="M23.924,34.636l-.143-.019a.193.193,0,0,1-.167-.176c.035-.216.055-.5.1-.761l.9.118a6.715,6.715,0,0,0-.072.764.162.162,0,0,1-.19.13l-.119-.016m.263-1.822.142.019a.152.152,0,0,1,.143.173,6.941,6.941,0,0,0-.167.752l-.9-.118c.041-.26.082-.52.143-.755.038-.083.214-.126.31-.114" fill="#fcb800"/>
            <path id="path12906" d="M23.977,34.484l-.1-.013a.142.142,0,0,1-.115-.144c.028-.18.048-.416.082-.632l.647.084c-.037.234-.057.47-.066.635a.124.124,0,0,1-.139.11l-.085-.011M24.42,33l.1.013a.117.117,0,0,1,.1.142c-.045.178-.1.392-.133.626l-.647-.084c.034-.217.068-.433.116-.629.028-.07.156-.108.225-.1" fill="#185126"/>
          </g>
          <g id="g12908">
            <path id="path12910" d="M24.568,31.711l-.132-.055a.181.181,0,0,1-.105-.212c.1-.2.208-.466.328-.7l.83.345a6.981,6.981,0,0,0-.305.714.171.171,0,0,1-.223.076l-.109-.045m.816-1.681.131.054a.144.144,0,0,1,.083.2,7.638,7.638,0,0,0-.393.679l-.83-.345c.119-.239.239-.478.371-.688a.363.363,0,0,1,.332-.03" fill="#fcb800"/>
            <path id="path12912" d="M24.665,31.579l-.094-.039a.135.135,0,0,1-.066-.168c.083-.166.176-.387.275-.586l.595.247c-.108.215-.2.437-.26.592a.133.133,0,0,1-.168.071l-.078-.033m.682-1.4.094.039a.111.111,0,0,1,.051.161c-.1.16-.213.352-.321.567l-.595-.247c.1-.2.2-.4.306-.573a.253.253,0,0,1,.246-.038" fill="#185126"/>
          </g>
          <g id="g12914">
            <path id="path12916" d="M26.091,29.066l-.109-.086a.173.173,0,0,1-.035-.23c.157-.166.343-.4.532-.593l.691.543a7.454,7.454,0,0,0-.515.608.176.176,0,0,1-.237.016l-.091-.072m1.3-1.4.109.086a.141.141,0,0,1,.017.216,7.8,7.8,0,0,0-.587.55l-.691-.543c.189-.2.378-.4.569-.565a.359.359,0,0,1,.328.056" fill="#fcb800"/>
            <path id="path12918" d="M26.226,28.964l-.078-.061a.13.13,0,0,1-.012-.178c.131-.138.288-.327.445-.492l.494.39c-.17.178-.327.367-.432.5a.137.137,0,0,1-.183.025L26.4,29.1m1.086-1.165.078.061a.109.109,0,0,1,0,.168c-.144.128-.314.283-.484.462l-.494-.39c.157-.165.314-.33.471-.471a.253.253,0,0,1,.248.027" fill="#185126"/>
          </g>
          <g id="g12920">
            <path id="path12922" d="M28.371,26.92l-.078-.11a.174.174,0,0,1,.037-.23c.2-.119.452-.291.695-.433l.494.7a7.81,7.81,0,0,0-.681.451.175.175,0,0,1-.233-.046l-.065-.092m1.685-1.013.078.111a.141.141,0,0,1-.05.211c-.215.1-.471.224-.734.378l-.494-.7c.243-.142.485-.284.721-.4a.344.344,0,0,1,.3.138" fill="#fcb800"/>
            <path id="path12924" d="M28.532,26.857l-.056-.079a.131.131,0,0,1,.044-.174c.168-.1.377-.239.579-.357l.354.5c-.219.128-.428.269-.571.37a.134.134,0,0,1-.182-.023l-.047-.066m1.4-.84.056.079a.11.11,0,0,1-.053.161c-.177.086-.388.191-.606.319l-.354-.5c.2-.118.4-.237.6-.332a.247.247,0,0,1,.229.089" fill="#185126"/>
          </g>
          <g id="g12926">
            <path id="path12928" d="M31.223,25.446l-.041-.126a.181.181,0,0,1,.107-.211c.231-.061.524-.163.8-.237l.258.8c-.3.08-.593.182-.794.258a.167.167,0,0,1-.209-.1l-.034-.1m1.931-.54.04.126a.148.148,0,0,1-.114.19c-.237.041-.521.094-.82.174l-.258-.8c.277-.074.553-.148.814-.195.1,0,.215.125.243.208" fill="#fcb800"/>
            <path id="path12930" d="M31.4,25.427l-.029-.09c-.02-.061.023-.121.095-.156.192-.051.437-.133.667-.194l.184.57c-.249.067-.494.149-.661.209a.132.132,0,0,1-.169-.068l-.024-.076m1.606-.446.03.09c.019.061-.024.12-.1.141-.2.037-.431.083-.681.15l-.184-.57c.23-.062.46-.124.676-.165a.231.231,0,0,1,.193.144" fill="#185126"/>
          </g>
          <g id="g12932">
            <path id="path12934" d="M34.416,24.764v-.131a.193.193,0,0,1,.168-.175c.24,0,.553-.022.841-.022v.831c-.313,0-.625.022-.841.044a.158.158,0,0,1-.169-.153v-.109m2.019-.023v.131a.158.158,0,0,1-.169.153c-.24-.022-.529-.044-.841-.043v-.831c.289,0,.577,0,.842.021.1.022.168.175.168.262" fill="#fcb800"/>
            <path id="path12936" d="M34.589,24.791V24.7c0-.064.06-.11.139-.125.2,0,.46-.016.7-.016v.595c-.26,0-.52.015-.7.031-.08,0-.14-.046-.14-.109v-.079m1.679-.016v.094c0,.063-.059.109-.139.109-.2-.015-.44-.03-.7-.03v-.595c.24,0,.48,0,.7.015a.213.213,0,0,1,.14.188" fill="#185126"/>
          </g>
          <g id="g12938">
            <path id="path12940" d="M37.475,24.911l.039-.126a.208.208,0,0,1,.215-.127c.231.06.538.117.816.189l-.25.8a8.336,8.336,0,0,0-.822-.167.148.148,0,0,1-.116-.189l.033-.106m1.949.482-.04.126a.167.167,0,0,1-.208.1c-.224-.081-.495-.173-.8-.251l.25-.8c.277.071.555.143.8.23.086.045.109.21.083.294" fill="#fcb800"/>
            <path id="path12942" d="M37.633,24.979l.029-.09a.156.156,0,0,1,.172-.085c.192.049.447.1.677.159l-.178.572c-.25-.064-.505-.114-.683-.144-.077-.02-.12-.079-.1-.14l.023-.076m1.62.4-.028.09a.13.13,0,0,1-.167.071c-.188-.065-.414-.139-.664-.2l.178-.572c.231.06.462.119.669.189a.2.2,0,0,1,.078.216" fill="#185126"/>
          </g>
          <g id="g12944">
            <path id="path12946" d="M40.576,25.884l.077-.111a.214.214,0,0,1,.245-.066c.2.116.481.249.725.389l-.487.7c-.265-.151-.542-.285-.738-.371a.141.141,0,0,1-.052-.211l.064-.093m1.721.962-.077.111a.173.173,0,0,1-.232.047c-.191-.135-.422-.293-.686-.445l.487-.7c.244.14.488.28.7.427.068.065.04.23-.012.3" fill="#fcb800"/>
            <path id="path12948" d="M40.707,25.99l.055-.08a.165.165,0,0,1,.192-.037c.169.1.4.21.6.326l-.349.5c-.22-.127-.449-.24-.61-.314a.112.112,0,0,1-.054-.161l.046-.066m1.43.8-.055.079a.136.136,0,0,1-.183.025c-.16-.11-.354-.239-.574-.365l.349-.5c.2.117.406.233.583.353a.2.2,0,0,1,.008.227" fill="#185126"/>
          </g>
          <g id="g12950">
            <path id="path12952" d="M43.251,27.612l.108-.087a.219.219,0,0,1,.255,0c.159.164.384.363.575.56l-.685.549a7.555,7.555,0,0,0-.593-.545.141.141,0,0,1,.015-.216l.09-.072m1.354,1.363-.108.087a.174.174,0,0,1-.237-.014,7.8,7.8,0,0,0-.521-.6l.685-.549c.191.2.382.393.538.588.046.08-.032.231-.1.289" fill="#fcb800"/>
            <path id="path12954" d="M43.343,27.747l.078-.062a.164.164,0,0,1,.195.013c.132.136.317.3.476.467l-.491.394c-.171-.178-.356-.345-.488-.458a.109.109,0,0,1,0-.168l.065-.052M44.3,29.017l-.077.062a.136.136,0,0,1-.183-.023c-.119-.146-.266-.32-.438-.5l.491-.394c.158.164.317.328.45.488a.2.2,0,0,1-.062.22" fill="#185126"/>
          </g>
          <g id="g12956">
            <path id="path12958" d="M45.282,29.955l.13-.055a.217.217,0,0,1,.246.064c.1.2.256.447.378.685L45.209,31a7.374,7.374,0,0,0-.4-.675.144.144,0,0,1,.081-.2L45,30.076m.877,1.655-.131.055a.17.17,0,0,1-.223-.073A7.571,7.571,0,0,0,45.209,31l.827-.351c.122.237.244.475.334.7.019.089-.1.213-.189.25" fill="#fcb800"/>
            <path id="path12960" d="M45.329,30.109l.093-.04a.161.161,0,0,1,.184.063c.084.164.21.372.311.57l-.592.252c-.11-.214-.235-.422-.327-.564a.112.112,0,0,1,.05-.162l.078-.033m.727,1.378-.094.04a.131.131,0,0,1-.168-.069c-.069-.172-.156-.376-.266-.59l.592-.252c.1.2.2.4.282.583.018.073-.065.168-.128.195" fill="#185126"/>
          </g>
          <g id="g12962">
            <path id="path12964" d="M46.505,32.724l.142-.02a.207.207,0,0,1,.216.125c.036.216.107.494.151.754l-.9.125a6.747,6.747,0,0,0-.174-.75.152.152,0,0,1,.14-.175l.119-.016m.329,1.813-.142.02a.164.164,0,0,1-.192-.128,6.89,6.89,0,0,0-.08-.764l.9-.125c.044.259.087.519.1.76-.009.09-.164.178-.259.191" fill="#fcb800"/>
            <path id="path12966" d="M46.5,32.883l.1-.014a.153.153,0,0,1,.156.107c.031.18.086.412.123.627l-.646.09c-.04-.233-.1-.465-.139-.625a.116.116,0,0,1,.1-.142l.086-.012m.27,1.509-.1.014a.125.125,0,0,1-.14-.11c-.013-.182-.033-.4-.072-.634l.646-.09c.036.216.072.432.089.632-.005.074-.114.145-.183.155" fill="#185126"/>
          </g>
          <g id="g12968">
            <path id="path12970" d="M46.822,35.695l.143.018a.192.192,0,0,1,.168.175c-.032.217-.05.5-.089.761l-.9-.11a6.561,6.561,0,0,0,.065-.765.162.162,0,0,1,.189-.131l.119.014m-.245,1.824-.143-.017a.153.153,0,0,1-.144-.172,7.147,7.147,0,0,0,.159-.753l.9.11c-.038.261-.077.521-.136.756-.036.084-.213.129-.308.117" fill="#fcb800"/>
            <path id="path12972" d="M46.77,35.848l.1.012A.143.143,0,0,1,46.99,36c-.027.18-.045.417-.077.633l-.648-.079a6.354,6.354,0,0,0,.06-.635.124.124,0,0,1,.138-.112l.086.01m-.208,1.517-.1-.013a.116.116,0,0,1-.1-.14c.043-.179.092-.393.126-.627l.648.079c-.032.216-.064.433-.11.629a.241.241,0,0,1-.224.1" fill="#185126"/>
          </g>
          <g id="g12974">
            <path id="path12976" d="M46.207,38.627l.132.053a.181.181,0,0,1,.107.211c-.1.2-.2.469-.321.708l-.834-.338a6.685,6.685,0,0,0,.3-.717.171.171,0,0,1,.222-.078l.11.045m-.8,1.687-.132-.053a.145.145,0,0,1-.085-.2,7.316,7.316,0,0,0,.386-.682l.834.338c-.117.24-.234.48-.364.691a.363.363,0,0,1-.332.033" fill="#fcb800"/>
            <path id="path12978" d="M46.111,38.76l.094.038a.134.134,0,0,1,.068.167c-.081.166-.172.388-.269.588l-.6-.242c.1-.216.2-.439.254-.594a.13.13,0,0,1,.166-.072l.079.032m-.668,1.4-.094-.038a.111.111,0,0,1-.053-.161c.1-.16.21-.353.316-.569l.6.242c-.1.2-.2.4-.3.575a.252.252,0,0,1-.245.04" fill="#185126"/>
          </g>
          <g id="g12980">
            <path id="path12982" d="M44.708,41.282l.11.085a.174.174,0,0,1,.037.23c-.155.167-.34.4-.526.6l-.7-.538a7.394,7.394,0,0,0,.509-.611.175.175,0,0,1,.237-.018l.091.071m-1.29,1.414-.11-.085a.141.141,0,0,1-.019-.216,7.962,7.962,0,0,0,.582-.555l.7.538c-.187.2-.374.4-.564.569a.358.358,0,0,1-.329-.053" fill="#fcb800"/>
            <path id="path12984" d="M44.574,41.385l.079.061a.129.129,0,0,1,.014.177c-.13.139-.286.329-.441.495l-.5-.385c.169-.18.324-.37.428-.505a.136.136,0,0,1,.182-.026l.066.051m-1.075,1.174-.079-.061a.109.109,0,0,1,0-.168c.142-.128.311-.285.479-.465l.5.385c-.155.167-.311.333-.466.476a.255.255,0,0,1-.248-.025" fill="#185126"/>
          </g>
          <g id="g12986">
            <path id="path12988" d="M42.449,43.446l.079.109a.175.175,0,0,1-.036.231c-.2.12-.449.294-.69.438l-.5-.695a7.585,7.585,0,0,0,.677-.457.174.174,0,0,1,.233.045l.066.091M40.6,44.234l-.079-.11a.142.142,0,0,1,.048-.212c.214-.1.469-.227.73-.383l.5.695c-.241.144-.483.288-.717.4a.346.346,0,0,1-.3-.135" fill="#fcb800"/>
            <path id="path12990" d="M42.288,43.51l.057.079a.131.131,0,0,1-.042.174c-.167.1-.375.242-.576.362l-.358-.5c.217-.129.425-.272.566-.375a.137.137,0,0,1,.183.022l.048.066m-1.4.851-.056-.079a.11.11,0,0,1,.051-.161c.176-.087.386-.194.6-.324l.358.5c-.2.119-.4.239-.594.336a.246.246,0,0,1-.231-.087" fill="#185126"/>
          </g>
          <g id="g12992">
            <path id="path12994" d="M39.611,44.942l.042.126a.18.18,0,0,1-.1.212c-.23.063-.522.167-.8.243l-.266-.795c.3-.082.591-.186.791-.264a.167.167,0,0,1,.21.1l.035.1m-1.925.555-.042-.125a.147.147,0,0,1,.112-.191c.237-.043.52-.1.819-.181l.266.795c-.276.076-.552.153-.812.2-.1,0-.217-.123-.245-.207" fill="#fcb800"/>
            <path id="path12996" d="M39.437,44.963l.03.09c.021.061-.022.12-.094.156-.191.053-.435.136-.665.2l-.19-.569c.249-.069.493-.152.66-.215a.131.131,0,0,1,.169.068l.025.075m-1.6.459-.03-.09c-.02-.06.023-.12.1-.141.2-.039.431-.087.679-.156l.19.569c-.229.063-.459.127-.674.17a.229.229,0,0,1-.194-.143" fill="#185126"/>
          </g>
          <g id="g12998">
            <path id="path13000" d="M36.424,45.652l0,.131a.193.193,0,0,1-.167.177c-.24,0-.552.026-.841.029l-.008-.831c.312,0,.624-.027.841-.051a.157.157,0,0,1,.169.152l0,.109m-2.02.039v-.131a.158.158,0,0,1,.167-.155c.24.02.529.04.842.037l.008.831c-.288,0-.577.005-.841-.015-.1-.021-.171-.173-.171-.261" fill="#fcb800"/>
            <path id="path13002" d="M36.251,45.628v.094c0,.063-.059.109-.138.125-.2,0-.46.02-.7.022l-.006-.6c.26,0,.52-.02.7-.037.08,0,.141.045.141.108v.079m-1.679.03V45.36c0-.064.059-.11.139-.111.2.014.44.027.7.025l.006.6c-.24,0-.48,0-.7-.01a.215.215,0,0,1-.142-.187" fill="#185126"/>
          </g>
        </g>
      </g>
    </g>
  </g>
</svg>
