<svg xmlns="http://www.w3.org/2000/svg" width="48" height="48.002" viewBox="0 0 48 48.002">
  <g id="Group_436" data-name="Group 436" transform="translate(-16 -667)">
    <path id="Path_410" data-name="Path 410" d="M658.188-322.576a24.027,24.027,0,0,1-24-24,24.027,24.027,0,0,1,24-24,24.028,24.028,0,0,1,24,24A24.028,24.028,0,0,1,658.188-322.576Z" transform="translate(-618.188 1037.578)" fill="#096828"/>
    <path id="Path_519" data-name="Path 519" d="M640.708,491.933a.778.778,0,0,1-.344-.079,21.942,21.942,0,0,1-12.466-19.72,22.285,22.285,0,0,1,.249-3.309.8.8,0,0,1,.9-.674,20.434,20.434,0,0,0,2.646.172,20.037,20.037,0,0,0,8.673-1.948.81.81,0,0,1,.688,0,20.038,20.038,0,0,0,8.673,1.948,20.43,20.43,0,0,0,2.646-.172.8.8,0,0,1,.9.674,22.269,22.269,0,0,1,.249,3.309,21.944,21.944,0,0,1-12.463,19.72.784.784,0,0,1-.344.079ZM629.63,469.827a20.784,20.784,0,0,0-.13,2.307,20.342,20.342,0,0,0,11.208,18.109,20.346,20.346,0,0,0,11.208-18.109,20.755,20.755,0,0,0-.13-2.307c-.684.065-1.374.1-2.06.1a21.6,21.6,0,0,1-9.017-1.944,21.62,21.62,0,0,1-9.017,1.944c-.688,0-1.379-.033-2.06-.1Z" transform="translate(-600.708 213.703)" fill="#fff"/>
    <path id="Path_522" data-name="Path 522" d="M650.82-331.936a.636.636,0,0,0,.9-.047l.008-.008,3.1-3.539a.64.64,0,0,0-.039-.9.637.637,0,0,0-.9.041l-.016.019-2.679,3.059-1.133-.984a.637.637,0,0,0-.9.058.639.639,0,0,0,.06.9Z" transform="translate(-602.429 1010.773)" fill="#fff"/>
    <g id="Group_156" data-name="Group 156" transform="translate(33.497 684.662)">
      <path id="Path_432" data-name="Path 432" d="M646.275-278.3h0a.137.137,0,0,1,.112.067l.293.492,1.354.255a.136.136,0,0,1,.108.159.129.129,0,0,1-.03.062l-.212.249.147.059a.137.137,0,0,1,.075.177.125.125,0,0,1-.028.042l-.1.108.037.034a.135.135,0,0,1,.037.141l-.1.325a.136.136,0,0,1-.171.088h0l-.235-.085-.022.054a.135.135,0,0,1-.088.079l-.652.191-.232.152.317.418a.137.137,0,0,1,.027.105l-.035.208a.138.138,0,0,1-.129.114l-.151.005.078.56.208.3,1.113.7a.137.137,0,0,1,.057.074l.385,1.233.614.67.759.434.785-.062a.136.136,0,0,1,.133.076l.12.25a.136.136,0,0,1-.034.161l-.226.2,2.06,1.181a.129.129,0,0,1,.034.029l.7.787a.134.134,0,0,1,0,.174l-.37.464a.136.136,0,0,1-.191.021.132.132,0,0,1-.036-.043l-.381-.742-.363-.02a.134.134,0,0,1-.071-.025l-.265-.188-.483.945.566.463a.141.141,0,0,1,.048.091l.069.649a.136.136,0,0,1-.089.142l-.559.2v.438a.136.136,0,0,1-.054.108l-.95.718a.135.135,0,0,1-.19-.026.142.142,0,0,1-.027-.1l.093-.65a.146.146,0,0,1,.021-.053l.449-.707-.614-1.562-.57-.369a.133.133,0,0,1-.052-.062l-.171-.414-.74-.212a.138.138,0,0,1-.077-.059l-.361-.573-.76-.136a.14.14,0,0,1-.066-.031l-2.7-2.36a.14.14,0,0,1-.043-.074l-.3-1.405-1.421-.592-.608.653a.137.137,0,0,1-.063.038l-.673.181a.136.136,0,0,1-.166-.1.131.131,0,0,1,.013-.1l.145-.256-.016-.06-.339.018a.134.134,0,0,1-.108-.043l-.32-.353a.137.137,0,0,1-.029-.132l.114-.354-.016-.095-.17-.063a.133.133,0,0,1-.079-.075l-.148-.361a.136.136,0,0,1,.054-.166l.465-.292-.175-.205-.058-.028a.137.137,0,0,1-.074-.107l-.024-.221a.135.135,0,0,1,.1-.147l.285-.073.5-.155a.132.132,0,0,1,.057,0l.247.031.606-.706a.135.135,0,0,1,.191-.015.133.133,0,0,1,.048.11l-.009.2.32.27a.116.116,0,0,1,.02.02l.055.071.007-.01.109-.149.075-.4a.13.13,0,0,1,.063-.091l.173-.105a.135.135,0,0,1,.187.046l0,0,.128.232.268-.034a.133.133,0,0,1,.1.028l.05-.266a.136.136,0,0,1,.158-.108l.009,0,.084.022,0-.015a.136.136,0,0,1,.04-.139l.267-.232a.137.137,0,0,1,.132-.026l.3.1.142-.249a.134.134,0,0,1,.1-.068l1-.127A.078.078,0,0,1,646.275-278.3Zm-3.123,8.64a.122.122,0,0,1,.068.018l.292.186a.115.115,0,0,1,.05.065l.228.743a.12.12,0,0,1-.006.087l-.147.3.083.17a.116.116,0,0,1,.01.067l-.157,1.135a.117.117,0,0,1-.068.092l-.144.064a.118.118,0,0,1-.123-.015l-.123-.1-.044.031,0,.063a.118.118,0,0,1-.03.086l-.171.193a.12.12,0,0,1-.138.028l-.064-.03-.038.024a.119.119,0,0,1-.161-.036l-.285-.435a.118.118,0,0,1,.006-.139l.051-.063-.017-.08a.125.125,0,0,1,.006-.07l.086-.205-.033-.126a.119.119,0,0,1,.029-.111.12.12,0,0,1-.06-.087l-.029-.186a.119.119,0,0,1,.05-.115l.026-.018,0-.006a.176.176,0,0,1,0-.033l0-.12-.028-.014a.119.119,0,0,1-.047-.16l0,0,.017-.03-.04-.082-.039.012a.118.118,0,0,1-.149-.076.118.118,0,0,1,0-.057l.018-.1-.027-.028a.119.119,0,0,1-.014-.151l.074-.107.005-.109a.118.118,0,0,1,.125-.112.115.115,0,0,1,.057.019l.24.153.59-.5a.117.117,0,0,1,.072-.028Zm6.27,4.267a.034.034,0,0,1,.014,0,.119.119,0,0,1,.117.122.11.11,0,0,1-.017.06l-.361.592-.027.219a.11.11,0,0,1-.02.053l-.052.078v.136l.056.044a.119.119,0,0,1,.034.144l.091.24a.12.12,0,0,1-.029.128l-.154.148.016.166a.12.12,0,0,1-.107.131.106.106,0,0,1-.04,0l-.6-.146a.117.117,0,0,1-.078-.061l-.112-.217-.14-.115-.214.013a.123.123,0,0,1-.079-.026l-.646-.5-.086.013a.116.116,0,0,1-.1-.034l-.051-.05-.184.033a.121.121,0,0,1-.121-.052l-.068-.1-.162-.19a.118.118,0,0,1-.021-.119l.143-.4a.122.122,0,0,1,.119-.079h.005l0,0,.006,0,0,0v0l.021-.012-.021.009a.12.12,0,0,1,.121-.119h.011l.036,0a.117.117,0,0,1,.082.045l.079.1a.11.11,0,0,1,.018-.043l.043-.066a.12.12,0,0,1,.133-.049l.03.008.095-.042a.119.119,0,0,1,.158.059l0,.008.023.063.075.01a.113.113,0,0,1,.063.03l.148.131.212-.066a.077.077,0,0,1,.027-.005l.5-.042.253-.132a.118.118,0,0,1,.1-.007l.143.053.083-.088a.116.116,0,0,1,.075-.036Z" transform="translate(-640.243 278.299)" fill="#fff"/>
    </g>
  </g>
</svg>
