<svg xmlns="http://www.w3.org/2000/svg" xmlns:xlink="http://www.w3.org/1999/xlink" width="64.398" height="64.398" viewBox="0 0 64.398 64.398">
  <defs>
    <clipPath id="clip-path">
      <circle id="Ellipse_21" data-name="Ellipse 21" cx="8.921" cy="8.921" r="8.921" transform="translate(26.424 26.513)" fill="none"/>
    </clipPath>
  </defs>
  <g id="Group_218" data-name="Group 218" transform="translate(-3.039 -3.234)">
    <circle id="Ellipse_19" data-name="Ellipse 19" cx="24" cy="24" r="24" transform="matrix(0.894, -0.447, 0.447, 0.894, 3.039, 24.7)" fill="#22722d"/>
    <g id="Group_217" data-name="Group 217">
      <path id="Path_771" data-name="Path 771" d="M46.039,28.641,35.433,21.849,24.827,28.641,14.221,35.433l10.606,6.792,10.606,6.792,10.606-6.792,10.606-6.792Z" fill="#ffd000"/>
      <circle id="Ellipse_20" data-name="Ellipse 20" cx="8.921" cy="8.921" r="8.921" transform="translate(26.424 26.513)" fill="#102856"/>
      <g id="Group_215" data-name="Group 215">
        <g id="Group_214" data-name="Group 214" clip-path="url(#clip-path)">
          <path id="Path_772" data-name="Path 772" d="M30.014,32.769a20.986,20.986,0,0,1,18.6,30.707A20.984,20.984,0,1,0,12.118,42.794,20.97,20.97,0,0,1,30.014,32.769Z" fill="#fff"/>
        </g>
      </g>
      <path id="Path_773" data-name="Path 773" d="M28.169,33.846l.186-.135h-.229l-.071-.218-.071.218h-.229l.186.135-.071.218.186-.135.186.135Z" fill="#fff"/>
      <path id="Path_774" data-name="Path 774" d="M27.869,38.411l.186-.135h-.229l-.071-.218-.071.218h-.229l.186.135-.071.218.186-.135.186.135Z" fill="#fff"/>
      <path id="Path_775" data-name="Path 775" d="M28.931,37.623l.2-.149h-.253l-.078-.241-.078.241h-.253l.2.149-.078.241.2-.149.2.149Z" fill="#fff"/>
      <path id="Path_776" data-name="Path 776" d="M31.688,40.5l.2-.149H31.64l-.078-.241-.078.241h-.253l.2.149-.078.241.2-.149.2.149Z" fill="#fff"/>
      <path id="Path_777" data-name="Path 777" d="M35.191,39.691l.2-.149h-.253l-.078-.241-.078.241h-.253l.2.149-.078.241.2-.149.2.149Z" fill="#fff"/>
      <path id="Path_778" data-name="Path 778" d="M29.8,37.04l.118-.086H29.77l-.045-.139-.045.139h-.146l.118.086-.045.139.118-.086.118.086Z" fill="#fff"/>
      <path id="Path_779" data-name="Path 779" d="M32.032,35.834l.162-.117h-.2l-.062-.19-.062.19h-.2l.162.117-.062.19.162-.117.162.117Z" fill="#fff"/>
      <path id="Path_780" data-name="Path 780" d="M34.53,37.713l.152-.111h-.188l-.058-.179-.058.179h-.188l.152.111-.058.179.152-.111.152.111Z" fill="#fff"/>
      <path id="Path_781" data-name="Path 781" d="M35.439,36.87l.152-.111H35.4l-.058-.179-.058.179H35.1l.152.111-.058.179.152-.111.152.111Z" fill="#fff"/>
      <path id="Path_782" data-name="Path 782" d="M36.477,37.713l.152-.111h-.188l-.058-.179-.058.179h-.188l.152.111-.058.179.152-.111.152.111Z" fill="#fff"/>
      <path id="Path_783" data-name="Path 783" d="M34.96,38.3l.1-.076h-.129L34.9,38.1l-.04.123h-.129l.1.076-.04.123.1-.076.1.076Z" fill="#fff"/>
      <path id="Path_784" data-name="Path 784" d="M35.634,42.15l.069-.05h-.086l-.027-.082-.027.082h-.086l.069.05-.027.082.07-.05.069.05Z" fill="#fff"/>
      <path id="Path_785" data-name="Path 785" d="M37.846,35.008l.1-.076h-.129l-.04-.123-.04.123h-.129l.1.076-.04.123.1-.076.1.076Z" fill="#fff"/>
      <path id="Path_786" data-name="Path 786" d="M37.4,40.467l.114-.083h-.141l-.043-.134-.043.134h-.141l.114.083-.043.134.114-.083.114.083Z" fill="#fff"/>
      <path id="Path_787" data-name="Path 787" d="M38.132,41.5l.162-.117h-.2l-.062-.19-.062.19h-.2l.162.117-.062.19.162-.117.162.117Z" fill="#fff"/>
      <path id="Path_788" data-name="Path 788" d="M38.88,40.692l.134-.1h-.166l-.051-.158-.051.158H38.58l.134.1-.051.158.134-.1.134.1Z" fill="#fff"/>
      <path id="Path_789" data-name="Path 789" d="M39.874,40.382l.11-.08h-.136l-.042-.13-.042.13h-.136l.11.08-.042.13.11-.08.11.08Z" fill="#fff"/>
      <path id="Path_790" data-name="Path 790" d="M39.9,41.255l.16-.117h-.2l-.061-.189-.061.189h-.2l.16.117-.061.189.16-.117.16.117Z" fill="#fff"/>
      <path id="Path_791" data-name="Path 791" d="M39.887,42.173l.132-.1h-.163l-.05-.155-.05.155h-.163l.132.1-.05.155.132-.1.132.1Z" fill="#fff"/>
      <path id="Path_792" data-name="Path 792" d="M40.792,40.559l.132-.1h-.163l-.05-.155-.05.155H40.5l.132.1-.05.155.132-.1.132.1Z" fill="#fff"/>
      <path id="Path_793" data-name="Path 793" d="M41.552,40.11l.17-.123h-.21l-.065-.2-.065.2h-.21l.17.123-.065.2.17-.123.17.123Z" fill="#fff"/>
      <path id="Path_794" data-name="Path 794" d="M42.1,39.4l.17-.123h-.21L42,39.08l-.065.2h-.21l.17.123-.065.2L42,39.48l.17.123Z" fill="#fff"/>
      <path id="Path_795" data-name="Path 795" d="M41.778,38.633,42,38.475h-.269l-.083-.256-.083.256h-.269l.218.158-.083.256.218-.158.218.158Z" fill="#fff"/>
      <path id="Path_796" data-name="Path 796" d="M38.268,32.344l.218-.158h-.269l-.083-.256-.083.256h-.269l.218.158-.083.256.218-.158.218.158Z" fill="#fff"/>
      <path id="Path_797" data-name="Path 797" d="M42.979,38.685l.136-.1h-.169l-.052-.16-.052.16h-.169l.136.1-.052.16.136-.1.136.1Z" fill="#fff"/>
      <path id="Path_798" data-name="Path 798" d="M30.823,38.553,31,38.424h-.219l-.068-.208-.068.208h-.219l.177.129-.068.208.177-.129.177.129Z" fill="#fff"/>
      <path id="Path_799" data-name="Path 799" d="M30.531,39.418l.169-.123h-.209l-.065-.2-.065.2h-.209l.169.123-.065.2.169-.123.169.123Z" fill="#fff"/>
      <g id="Group_216" data-name="Group 216">
        <path id="Path_800" data-name="Path 800" d="M27.479,32.349a.56.56,0,0,1,.017-.23.4.4,0,0,1,.069-.129.324.324,0,0,1,.106-.091.472.472,0,0,1,.186-.055.417.417,0,0,1,.324.088.544.544,0,0,1,.07.669.409.409,0,0,1-.3.153.415.415,0,0,1-.325-.087A.462.462,0,0,1,27.479,32.349Zm.182-.025a.335.335,0,0,0,.093.219.238.238,0,0,0,.35-.036.334.334,0,0,0,.044-.236.328.328,0,0,0-.09-.219A.223.223,0,0,0,27.874,32a.228.228,0,0,0-.169.093A.338.338,0,0,0,27.661,32.324Z" fill="#2c8b28"/>
        <path id="Path_801" data-name="Path 801" d="M28.7,32.671l-.045-.884.376-.019a.663.663,0,0,1,.207.013.207.207,0,0,1,.107.08A.255.255,0,0,1,29.4,32a.241.241,0,0,1-.05.167.278.278,0,0,1-.171.091.431.431,0,0,1,.1.069.972.972,0,0,1,.109.139l.117.167-.214.011-.138-.186a1.219,1.219,0,0,0-.1-.125.128.128,0,0,0-.056-.034.28.28,0,0,0-.09-.006l-.036,0,.019.369Zm.153-.519.132-.007a.617.617,0,0,0,.159-.019.1.1,0,0,0,.049-.04.109.109,0,0,0,.014-.067.1.1,0,0,0-.027-.071.111.111,0,0,0-.069-.031c-.015,0-.058,0-.131,0l-.139.007Z" fill="#2c8b28"/>
        <path id="Path_802" data-name="Path 802" d="M29.783,31.74h.327a.645.645,0,0,1,.168.017.3.3,0,0,1,.134.082.384.384,0,0,1,.084.143.635.635,0,0,1,.029.209.59.59,0,0,1-.027.189.392.392,0,0,1-.095.156.314.314,0,0,1-.125.071.562.562,0,0,1-.158.018h-.337Zm.179.15v.586h.133a.554.554,0,0,0,.109-.008.164.164,0,0,0,.072-.037.188.188,0,0,0,.046-.085.546.546,0,0,0,.019-.163.521.521,0,0,0-.019-.157.21.21,0,0,0-.05-.086.187.187,0,0,0-.083-.042.9.9,0,0,0-.147-.008Z" fill="#2c8b28"/>
        <path id="Path_803" data-name="Path 803" d="M30.863,32.635l.043-.884.656.032-.008.149-.477-.023-.009.2.444.022-.008.149-.443-.022-.012.241.494.024-.007.149Z" fill="#2c8b28"/>
        <path id="Path_804" data-name="Path 804" d="M31.871,32.691l.089-.881.266.027.1.617.219-.584.267.027-.089.88-.166-.017.071-.693-.245.676-.172-.018-.1-.711-.071.694Z" fill="#2c8b28"/>
        <path id="Path_805" data-name="Path 805" d="M33.613,32.907l.158-.87.646.117-.027.147-.47-.085-.035.193.438.079-.027.147-.437-.079-.043.237.486.088-.027.147Z" fill="#2c8b28"/>
        <path id="Path_806" data-name="Path 806" d="M35.13,33.217l.222-.857.278.073a1,1,0,0,1,.2.066.228.228,0,0,1,.1.116.27.27,0,0,1,.006.179.277.277,0,0,1-.063.126.249.249,0,0,1-.095.065.259.259,0,0,1-.1.018,1.012,1.012,0,0,1-.182-.035l-.113-.029-.084.323Zm.358-.667-.063.243.094.025a.452.452,0,0,0,.141.022.119.119,0,0,0,.065-.028.114.114,0,0,0,.036-.062.11.11,0,0,0-.007-.084.121.121,0,0,0-.06-.056.821.821,0,0,0-.123-.038Z" fill="#2c8b28"/>
        <path id="Path_807" data-name="Path 807" d="M36.107,33.479l.265-.844.359.113a.655.655,0,0,1,.19.084.2.2,0,0,1,.072.112.248.248,0,0,1-.005.145.231.231,0,0,1-.1.139.28.28,0,0,1-.191.026.424.424,0,0,1,.069.1.976.976,0,0,1,.054.168l.051.2-.2-.064-.065-.223a1.177,1.177,0,0,0-.051-.152.14.14,0,0,0-.04-.051.334.334,0,0,0-.083-.037l-.035-.011-.11.353Zm.323-.433.127.039a.641.641,0,0,0,.156.038.094.094,0,0,0,.059-.021.11.11,0,0,0,.037-.058.1.1,0,0,0-.055-.129q-.02-.009-.123-.042l-.133-.042Z" fill="#2c8b28"/>
        <path id="Path_808" data-name="Path 808" d="M37.254,33.389a.583.583,0,0,1,.117-.2.422.422,0,0,1,.12-.085.356.356,0,0,1,.135-.035.5.5,0,0,1,.191.034.419.419,0,0,1,.251.224.466.466,0,0,1-.008.357.462.462,0,0,1-.227.273.411.411,0,0,1-.334.005.42.42,0,0,1-.252-.223A.458.458,0,0,1,37.254,33.389Zm.175.059a.334.334,0,0,0-.015.238.24.24,0,0,0,.329.124.339.339,0,0,0,.145-.193.331.331,0,0,0,.017-.236.227.227,0,0,0-.14-.132.224.224,0,0,0-.193.009A.33.33,0,0,0,37.429,33.448Z" fill="#2c8b28"/>
        <path id="Path_809" data-name="Path 809" d="M38.714,34.09l.059-.137.353.155-.141.323a.5.5,0,0,1-.188.022.592.592,0,0,1-.214-.049.478.478,0,0,1-.2-.15.372.372,0,0,1-.076-.215.552.552,0,0,1,.047-.237.514.514,0,0,1,.152-.2.39.39,0,0,1,.222-.083.457.457,0,0,1,.211.045.423.423,0,0,1,.209.167.308.308,0,0,1,.032.222l-.176-.04a.185.185,0,0,0-.023-.123.212.212,0,0,0-.1-.086.238.238,0,0,0-.2-.007.314.314,0,0,0-.152.174.353.353,0,0,0-.031.245.238.238,0,0,0,.137.146.311.311,0,0,0,.112.025.425.425,0,0,0,.11-.01l.045-.1Z" fill="#2c8b28"/>
        <path id="Path_810" data-name="Path 810" d="M39.254,34.693l.4-.79.336.169a.621.621,0,0,1,.173.114.2.2,0,0,1,.054.122.257.257,0,0,1-.028.142.237.237,0,0,1-.126.12.283.283,0,0,1-.194-.005.385.385,0,0,1,.052.109.907.907,0,0,1,.027.174l.019.2-.191-.1-.029-.23a1.256,1.256,0,0,0-.026-.159.142.142,0,0,0-.031-.057.292.292,0,0,0-.076-.049l-.032-.016-.166.33Zm.389-.376.118.06a.688.688,0,0,0,.149.062.092.092,0,0,0,.061-.011.11.11,0,0,0,.046-.051.1.1,0,0,0,.011-.075.112.112,0,0,0-.044-.061c-.012-.009-.051-.029-.115-.062l-.125-.062Z" fill="#2c8b28"/>
        <path id="Path_811" data-name="Path 811" d="M40.214,35.188l.437-.77.571.324-.074.13-.416-.236-.1.171.387.219-.074.13-.386-.219-.119.209.43.244-.074.13Z" fill="#2c8b28"/>
        <path id="Path_812" data-name="Path 812" d="M41.205,35.427l.156.079a.215.215,0,0,0-.015.142.191.191,0,0,0,.087.1.2.2,0,0,0,.13.039.109.109,0,0,0,.083-.049.084.084,0,0,0,.013-.055.148.148,0,0,0-.034-.066c-.014-.018-.047-.054-.1-.11a.472.472,0,0,1-.124-.181.23.23,0,0,1,.027-.2.228.228,0,0,1,.1-.086.237.237,0,0,1,.141-.016.424.424,0,0,1,.163.067.367.367,0,0,1,.173.2.256.256,0,0,1-.029.212l-.155-.089a.155.155,0,0,0,.01-.11.178.178,0,0,0-.079-.085.207.207,0,0,0-.12-.039.066.066,0,0,0-.054.032.067.067,0,0,0-.006.059.482.482,0,0,0,.107.138.867.867,0,0,1,.129.157.249.249,0,0,1,.034.129.261.261,0,0,1-.045.138.265.265,0,0,1-.112.1.252.252,0,0,1-.154.02.517.517,0,0,1-.18-.076.388.388,0,0,1-.176-.2A.339.339,0,0,1,41.205,35.427Z" fill="#2c8b28"/>
        <path id="Path_813" data-name="Path 813" d="M42.069,35.982l.152.087a.213.213,0,0,0-.022.141.192.192,0,0,0,.083.108.188.188,0,0,0,.127.045.11.11,0,0,0,.085-.044.086.086,0,0,0,.016-.055.152.152,0,0,0-.031-.068c-.013-.018-.045-.056-.1-.114a.481.481,0,0,1-.114-.187.229.229,0,0,1,.035-.193.226.226,0,0,1,.1-.081.235.235,0,0,1,.142-.01.446.446,0,0,1,.161.075.378.378,0,0,1,.163.2.258.258,0,0,1-.04.21l-.151-.1A.148.148,0,0,0,42.7,35.9a.182.182,0,0,0-.075-.089.2.2,0,0,0-.118-.044.066.066,0,0,0-.055.028.07.07,0,0,0-.009.06.458.458,0,0,0,.1.142.894.894,0,0,1,.121.163.252.252,0,0,1,.029.13.269.269,0,0,1-.052.136.272.272,0,0,1-.117.092.255.255,0,0,1-.155.012.508.508,0,0,1-.176-.084.382.382,0,0,1-.166-.212A.341.341,0,0,1,42.069,35.982Z" fill="#2c8b28"/>
        <path id="Path_814" data-name="Path 814" d="M43.005,36.466a.55.55,0,0,1,.172-.154.42.42,0,0,1,.139-.045.343.343,0,0,1,.14.008.472.472,0,0,1,.171.09.414.414,0,0,1,.172.288.545.545,0,0,1-.414.531.466.466,0,0,1-.493-.385A.455.455,0,0,1,43.005,36.466Zm.149.108a.329.329,0,0,0-.086.223.239.239,0,0,0,.276.217.421.421,0,0,0,.284-.36.226.226,0,0,0-.093-.168.229.229,0,0,0-.187-.05A.331.331,0,0,0,43.154,36.574Z" fill="#2c8b28"/>
      </g>
    </g>
  </g>
</svg>
