<svg xmlns="http://www.w3.org/2000/svg" width="48" height="48" viewBox="0 0 48 48">
  <g id="Group_103" data-name="Group 103" transform="translate(0 0)">
    <path id="Path_425" data-name="Path 425" d="M658.188-341.3a24.025,24.025,0,0,0-24,24,24.027,24.027,0,0,0,24,24,24.028,24.028,0,0,0,24-24A24.027,24.027,0,0,0,658.188-341.3Z" transform="translate(-634.188 341.299)" fill="#006828"/>
    <g id="Group_102" data-name="Group 102" transform="translate(10.044 9.703)">
      <path id="Path_426" data-name="Path 426" d="M653.626-336.336a.875.875,0,0,0-1.238-.008l-13.13,13.132v0a.694.694,0,0,0,0,.98.693.693,0,0,0,.982,0l2.716-2.714v16.063a.876.876,0,0,0,.877.877H662.18a.878.878,0,0,0,.877-.877v-16.073l2.724,2.726h0a.7.7,0,0,0,.98,0,.694.694,0,0,0,0-.98Zm2.274,26.964h-5.789v-9a2.9,2.9,0,0,1,2.9-2.893,2.9,2.9,0,0,1,2.893,2.893Zm5.806,0h-4.439v-8.992a4.265,4.265,0,0,0-4.26-4.26,4.265,4.265,0,0,0-4.262,4.26v8.992H644.33v-16.958L653-335.005l8.7,8.705Z" transform="translate(-639.055 336.598)" fill="#fff"/>
      <path id="Path_427" data-name="Path 427" d="M650.82-331.936a.636.636,0,0,0,.9-.047l.008-.008,3.1-3.539a.64.64,0,0,0-.039-.9.637.637,0,0,0-.9.041l-.016.019-2.679,3.059-1.133-.984a.637.637,0,0,0-.9.058.639.639,0,0,0,.06.9Z" transform="translate(-628.473 336.598)" fill="#fff"/>
    </g>
  </g>
</svg>
