<svg id="Group_162" data-name="Group 162" xmlns="http://www.w3.org/2000/svg" width="48" height="48" viewBox="0 0 48 48">
  <path id="Path_456" data-name="Path 456" d="M658.188-59.642a24.025,24.025,0,0,1-24-24,24.027,24.027,0,0,1,24-24,24.028,24.028,0,0,1,24,24A24.026,24.026,0,0,1,658.188-59.642Z" transform="translate(-634.188 107.642)" fill="#006828"/>
  <g id="Group_120" data-name="Group 120" transform="translate(12.63 9.851)">
    <g id="Group_119" data-name="Group 119">
      <path id="Path_457" data-name="Path 457" d="M646.183-94.919a.634.634,0,0,0,.9-.047l.008-.008,3.1-3.539a.638.638,0,0,0-.039-.9.637.637,0,0,0-.9.041l-.017.019L646.555-96.3l-1.133-.984a.635.635,0,0,0-.9.058.637.637,0,0,0,.058.9Z" transform="translate(-635.992 106.367)" fill="#fff"/>
      <path id="Path_458" data-name="Path 458" d="M660.451-81.024l-4.534,4.534v-4.534ZM641.674-101.5h20v19.111h-7.13v7.124H641.674Zm-1.366-1.366V-73.9h14.954l7.783-7.787v-21.183Z" transform="translate(-640.308 102.869)" fill="#fff"/>
      <path id="Path_459" data-name="Path 459" d="M648.92-100.193a4.663,4.663,0,0,1,4.658,4.658,4.665,4.665,0,0,1-4.658,4.658,4.665,4.665,0,0,1-4.658-4.658,4.663,4.663,0,0,1,4.658-4.658m0,10.682a6.03,6.03,0,0,0,6.024-6.024,6.032,6.032,0,0,0-6.024-6.026,6.033,6.033,0,0,0-6.024,6.026,6.031,6.031,0,0,0,6.024,6.024" transform="translate(-637.555 104.26)" fill="#fff"/>
    </g>
    <path id="Path_460" data-name="Path 460" d="M649.26-92.949h-6.639a.693.693,0,0,0-.689.689.693.693,0,0,0,.689.689h6.639a.693.693,0,0,0,.689-.689A.679.679,0,0,0,649.26-92.949Z" transform="translate(-638.58 113.422)" fill="#fff"/>
    <path id="Path_461" data-name="Path 461" d="M657.27-94.668H642.621a.693.693,0,0,0-.689.689.693.693,0,0,0,.689.689H657.27a.692.692,0,0,0,.689-.689A.679.679,0,0,0,657.27-94.668Z" transform="translate(-638.58 111.593)" fill="#fff"/>
  </g>
</svg>
