<svg xmlns="http://www.w3.org/2000/svg" width="47.874" height="47.874" viewBox="0 0 47.874 47.874">
  <g id="Group_438" data-name="Group 438" transform="translate(-16.062 -917)">
    <path id="Path_431" data-name="Path 431" d="M658.156-234.931a23.964,23.964,0,0,1-23.938-23.936A23.964,23.964,0,0,1,658.156-282.8a23.964,23.964,0,0,1,23.936,23.938A23.964,23.964,0,0,1,658.156-234.931Z" transform="translate(-618.156 1199.805)" fill="#006828"/>
    <g id="Group_106" data-name="Group 106" transform="translate(28.497 926.299)">
      <path id="Path_432" data-name="Path 432" d="M652.307-278.3h0a.274.274,0,0,1,.225.134l.586.984,2.708.51a.273.273,0,0,1,.217.318.258.258,0,0,1-.06.124l-.423.5.293.118a.274.274,0,0,1,.151.355.252.252,0,0,1-.056.085l-.2.217.074.068a.27.27,0,0,1,.074.283l-.208.65a.273.273,0,0,1-.343.175l-.008,0-.471-.169-.043.107a.27.27,0,0,1-.175.159l-1.3.382-.464.3.634.836a.275.275,0,0,1,.054.21l-.07.417a.277.277,0,0,1-.258.227l-.3.01.157,1.121.417.6,2.227,1.41a.274.274,0,0,1,.113.149l.77,2.466,1.228,1.339,1.519.869,1.571-.124a.272.272,0,0,1,.266.153l.24.5a.272.272,0,0,1-.068.322l-.452.394,4.119,2.361a.26.26,0,0,1,.068.058l1.391,1.575a.269.269,0,0,1,.008.349l-.741.929a.272.272,0,0,1-.382.041.262.262,0,0,1-.072-.087l-.762-1.484-.726-.039a.269.269,0,0,1-.142-.05l-.531-.376-.966,1.89,1.131.927a.283.283,0,0,1,.1.182l.138,1.3a.272.272,0,0,1-.177.285l-1.119.4v.875a.272.272,0,0,1-.107.217l-1.9,1.436a.27.27,0,0,1-.38-.052.283.283,0,0,1-.054-.2l.186-1.3a.288.288,0,0,1,.041-.105l.9-1.414-1.228-3.125-1.139-.739a.265.265,0,0,1-.1-.124l-.343-.828-1.48-.423a.276.276,0,0,1-.155-.118l-.722-1.145-1.521-.272a.279.279,0,0,1-.132-.062l-5.407-4.72a.281.281,0,0,1-.087-.149l-.592-2.811-2.842-1.185-1.216,1.306a.274.274,0,0,1-.126.076l-1.346.361a.272.272,0,0,1-.332-.192.262.262,0,0,1,.027-.2l.289-.512-.031-.12-.679.035a.268.268,0,0,1-.217-.087l-.64-.706a.274.274,0,0,1-.058-.264l.227-.708-.031-.19-.34-.126a.266.266,0,0,1-.159-.151l-.3-.722a.272.272,0,0,1,.107-.332l.931-.584-.351-.411-.115-.056a.272.272,0,0,1-.149-.215l-.047-.442a.271.271,0,0,1,.2-.293l.57-.147,1.009-.31a.265.265,0,0,1,.113-.008l.493.062,1.211-1.412a.269.269,0,0,1,.382-.031.267.267,0,0,1,.1.221l-.018.4.64.541a.238.238,0,0,1,.039.039l.109.142.014-.021.219-.3.151-.8a.261.261,0,0,1,.126-.182l.347-.211a.271.271,0,0,1,.374.093l.006.008.256.464.537-.068a.266.266,0,0,1,.2.056l.1-.532a.271.271,0,0,1,.316-.217l.018,0,.167.043-.008-.031a.272.272,0,0,1,.081-.279l.534-.464a.273.273,0,0,1,.264-.052l.6.2.285-.5a.267.267,0,0,1,.2-.136l1.994-.254A.154.154,0,0,1,652.307-278.3Zm-6.245,17.28a.245.245,0,0,1,.136.035l.584.371a.232.232,0,0,1,.1.13l.456,1.486a.24.24,0,0,1-.012.173l-.293.594.165.341a.231.231,0,0,1,.021.134l-.314,2.27a.234.234,0,0,1-.136.184l-.287.128a.236.236,0,0,1-.246-.031l-.246-.2-.089.062.006.126a.236.236,0,0,1-.06.171l-.342.386a.24.24,0,0,1-.277.056l-.128-.06-.076.047a.238.238,0,0,1-.322-.072l-.57-.871a.236.236,0,0,1,.012-.279l.1-.126-.035-.161a.251.251,0,0,1,.012-.14l.171-.411-.066-.252a.238.238,0,0,1,.058-.223.24.24,0,0,1-.12-.173l-.058-.371a.238.238,0,0,1,.1-.229l.052-.035,0-.012a.362.362,0,0,1-.006-.066l.008-.239-.056-.029a.237.237,0,0,1-.095-.32l0-.008.035-.06-.081-.163-.078.025a.236.236,0,0,1-.3-.153.238.238,0,0,1-.008-.113l.035-.192-.054-.056a.238.238,0,0,1-.029-.3l.149-.215.01-.219a.236.236,0,0,1,.25-.225.231.231,0,0,1,.113.037l.481.305,1.18-1a.234.234,0,0,1,.145-.056Zm12.54,8.534a.068.068,0,0,1,.029,0,.238.238,0,0,1,.233.244.219.219,0,0,1-.035.12l-.722,1.185-.054.437a.22.22,0,0,1-.039.105l-.1.157v.272l.111.089a.238.238,0,0,1,.068.289l.182.481a.241.241,0,0,1-.058.256l-.307.3.033.332a.239.239,0,0,1-.215.262.211.211,0,0,1-.081,0l-1.2-.291a.235.235,0,0,1-.157-.122l-.223-.433-.281-.229-.427.027a.245.245,0,0,1-.159-.052l-1.292-1.005-.171.027a.233.233,0,0,1-.206-.068l-.1-.1-.367.066a.242.242,0,0,1-.241-.1l-.136-.2-.324-.38a.236.236,0,0,1-.041-.237l.287-.795a.243.243,0,0,1,.237-.159h.01l-.008-.006.012-.008,0,.008,0-.008.041-.025-.041.019a.24.24,0,0,1,.241-.237l.023,0,.072.006a.235.235,0,0,1,.163.091l.159.2a.223.223,0,0,1,.035-.087l.087-.132a.241.241,0,0,1,.266-.1l.06.016.19-.085a.237.237,0,0,1,.316.118l.008.016.046.126.151.021a.225.225,0,0,1,.126.06l.3.262.423-.132a.155.155,0,0,1,.054-.01l1.005-.085.506-.264a.236.236,0,0,1,.194-.015l.287.105.165-.175a.232.232,0,0,1,.151-.072Z" transform="translate(-640.243 278.299)" fill="#fff"/>
    </g>
  </g>
</svg>
