<svg xmlns="http://www.w3.org/2000/svg" width="47.874" height="47.874" viewBox="0 0 47.874 47.874">
  <g id="Group_450" data-name="Group 450" transform="translate(-16.062 -2171)">
    <path id="Path_538" data-name="Path 538" d="M658.156-264.147a23.964,23.964,0,0,1-23.938-23.938,23.964,23.964,0,0,1,23.938-23.936,23.964,23.964,0,0,1,23.936,23.936A23.964,23.964,0,0,1,658.156-264.147Z" transform="translate(-618.156 2483.021)" fill="#006828"/>
    <path id="Path_543" data-name="Path 543" d="M661.286-245.684l-.929-1.628-.613,2.243a10.931,10.931,0,0,0-4.468-3.473,11.021,11.021,0,0,0-14.405,5.915l1.2.5a9.72,9.72,0,0,1,12.7-5.215,9.638,9.638,0,0,1,3.7,2.749l-1.954-.535.927,1.628,3.011.823Z" transform="translate(-609.639 2425.554)" fill="#fff"/>
    <path id="Path_541" data-name="Path 541" d="M63.764,28.16a5.205,5.205,0,1,0-3.224,0A6.139,6.139,0,0,0,56,34.09v10.2h.946V34.09a5.205,5.205,0,1,1,10.411,0v10.2H68.3V34.09A6.138,6.138,0,0,0,63.764,28.16Zm-5.871-4.954a4.259,4.259,0,1,1,4.259,4.259A4.252,4.252,0,0,1,57.893,23.205Z" transform="translate(-30 2161.794)" fill="#fff" stroke="#fff" stroke-width="0.5"/>
    <path id="Path_542" data-name="Path 542" d="M63.764,28.16a5.205,5.205,0,1,0-3.224,0A6.139,6.139,0,0,0,56,34.09v10.2h.946V34.09a5.205,5.205,0,1,1,10.411,0v10.2H68.3V34.09A6.138,6.138,0,0,0,63.764,28.16Zm-5.871-4.954a4.259,4.259,0,1,1,4.259,4.259A4.252,4.252,0,0,1,57.893,23.205Z" transform="translate(-15 2166.794)" fill="#fff" stroke="#fff" stroke-width="0.5"/>
  </g>
</svg>
