<svg xmlns="http://www.w3.org/2000/svg" width="47.726" height="47.728" viewBox="0 0 47.726 47.728">
  <g id="Group_441" data-name="Group 441" transform="translate(-16.273 -1173)">
    <path id="Path_453" data-name="Path 453" d="M658.118-118.276a23.89,23.89,0,0,1-23.864-23.864A23.89,23.89,0,0,1,658.118-166a23.89,23.89,0,0,1,23.862,23.864A23.89,23.89,0,0,1,658.118-118.276Z" transform="translate(-617.981 1339.004)" fill="#006828"/>
    <g id="Group_117" data-name="Group 117" transform="translate(23.205 1183.121)">
      <path id="Path_454" data-name="Path 454" d="M660.1-158.483l-.023-.014-.025,0c-.363-.023-.477.149-.524.291a1.808,1.808,0,0,0,.751,1.725l.021.012a7.618,7.618,0,0,1,2.764,5.671,6.7,6.7,0,0,1-1.11,3.674,10.635,10.635,0,0,1-3.176,3.135.7.7,0,0,0-.32.78l1.344,4.794-5.812-3.393a.617.617,0,0,0-.493-.066l-.025.006a14.68,14.68,0,0,1-1.922.289l-.1.006c-.543.035-1.216.078-1.872.078a7.029,7.029,0,0,1-.9-.039l-.015,0-.014,0a23.526,23.526,0,0,1-4.175.371c-.054,0-.151.023-.2.19a.194.194,0,0,0,.153.217,20.859,20.859,0,0,0,5.16.665,19.424,19.424,0,0,0,2.159-.126c.4-.027.823-.093,1.23-.159.192-.031.384-.062.572-.089l.045-.008,7.071,4.082a.671.671,0,0,0,.357.114.629.629,0,0,0,.2-.035.718.718,0,0,0,.444-.336.734.734,0,0,0,.06-.551l-1.7-5.95.076-.056a11.44,11.44,0,0,0,3.106-3.228,8.445,8.445,0,0,0,1.319-4.408C664.508-153.753,662.942-156.467,660.1-158.483Z" transform="translate(-630.548 163.864)" fill="#fff"/>
      <path id="Path_455" data-name="Path 455" d="M662.564-143.023a9.4,9.4,0,0,0,4.384-7.539c0-2.836-1.558-5.514-4.384-7.539a17.877,17.877,0,0,0-10.263-3,17.884,17.884,0,0,0-10.265,3h0a9.469,9.469,0,0,0-4.423,7.541,8.338,8.338,0,0,0,1.282,4.359,11.217,11.217,0,0,0,3.019,3.137l.13.093-1.647,5.826a.72.72,0,0,0,.493.867.713.713,0,0,0,.57-.1l6.941-3.991.087.019a12.105,12.105,0,0,0,1.692.241,19.021,19.021,0,0,0,2.121.124A18.116,18.116,0,0,0,662.564-143.023Zm-14.131,1.191a.725.725,0,0,0-.5.095l-5.663,3.281,1.3-4.648a.713.713,0,0,0-.3-.766,10.2,10.2,0,0,1-3.125-3.083,6.614,6.614,0,0,1-1.061-3.568c0-2.386,1.348-4.656,3.793-6.392a16.218,16.218,0,0,1,9.419-2.753A17.075,17.075,0,0,1,661.755-157c2.452,1.752,3.8,4.02,3.8,6.394s-1.345,4.656-3.793,6.39a16.472,16.472,0,0,1-9.458,2.755c-.652,0-1.294-.039-1.948-.083A14.631,14.631,0,0,1,648.434-141.832Z" transform="translate(-637.613 161.1)" fill="#fff"/>
    </g>
  </g>
</svg>
