<svg xmlns="http://www.w3.org/2000/svg" width="376.208" height="261.945" viewBox="0 0 376.208 261.945">
  <g id="Group_90" data-name="Group 90" transform="translate(2473.264 -2853.127)">
    <g id="Group_91" data-name="Group 91">
      <g id="Group_89" data-name="Group 89" transform="translate(-2457.765 2876.585)">
        <path id="Path_395" data-name="Path 395" d="M-2369.248,3003.576a10.169,10.169,0,0,0-4.61-.6c-1.371,1.3-3.935,1.668-5.82,1.793a28.222,28.222,0,0,0-6.691-4.868c-1.612-.819-3.495-1.683-3.992-3.42-.794-2.777-5.546-3.9-8.363-3.258a12.229,12.229,0,0,0-10.517,2.617c-1.267,1.032.158,3.594,1.251,4.809s2.452,2.57,2.2,4.184a9.618,9.618,0,0,1-4.6.645,7.621,7.621,0,0,0-2.6.049c-.833.259-1.559,1.163-1.238,1.974-.573,1-1.262,1.52-.6,2.459.518.731,1.4,1.333,1.392,2.23a2,2,0,0,1-1.243,1.607,21.3,21.3,0,0,0-1.954.863c-1.883,1.2-1.9,3.888-1.7,6.11a6.806,6.806,0,0,1,.822,5.9,3.41,3.41,0,0,0-.331,2.134c.287.79,1.218,1.1,2.032,1.313,1.74.45,3.788.839,5.173-.307,3.649-3.021,9.316-1.456,13.939-.416a6.7,6.7,0,0,1,4.209,2.292c1.243,1.792.713,4.281-.311,6.206s-2.493,3.638-3.141,5.72a15.873,15.873,0,0,0-.263,6.087c.216,2.509.479,5.149,1.934,7.2a13.866,13.866,0,0,1,2.363,8.007c-.1,2.116-.844,4.2-.65,6.306.352,3.825,3.657,6.695,7.028,8.536a16.4,16.4,0,0,1,7.786,9.039c.611,1.924.793,3.959,1.331,5.905a16.79,16.79,0,0,0,5.691,8.6c1.993,1.585,5.266,2.147,7.772,2.6a7.213,7.213,0,0,1,3.681,1.311c.452.409.778.939,1.212,1.368,2.094,2.071,5.949,1.22,8.068,3.268a19.23,19.23,0,0,1,1.4,1.794,6.4,6.4,0,0,0,5.431,2.288c-.476,1.554,1.389,3.383.813,4.9-.464,1.226-1.866,1.764-2.829,2.653-1.671,1.542-1.931,4.18-1.211,6.337a16.655,16.655,0,0,0,3.765,5.628c2.827,3.135,6.226,4.656,9.291,7.557,2.84,2.688,3.488,7.039,2.863,10.9s-2.316,7.453-3.524,11.172c-2.257,6.948-2.8,14.583-.646,21.563s7.209,13.2,13.98,15.945a2.211,2.211,0,0,0,2.216-.814,2,2,0,0,0,.282-2.251c-1.223-2.248-3.4-4.168-4.981-6.177a3.277,3.277,0,0,1-.96-2.15c.072-.9.848-1.551,1.419-2.25a5.821,5.821,0,0,0,1.3-3.807c-.035-1.287-.785-2.546-.741-3.833a3.282,3.282,0,0,1,1.958-3.057c.555-.189,1.171-.172,1.708-.408,1.763-.777,1.483-3.468,2.758-4.912a6.754,6.754,0,0,1,2.27-1.393c3.41-1.64,6.215-4.89,6.527-8.661.249-3.017-.849-6.679,1.444-8.656,2.1-1.814,5.345-.61,8.088-1.055a3.7,3.7,0,0,0,2.383-2.222,5.285,5.285,0,0,0,.395-3.309c-.231-1.372-.82-2.712-.69-4.1.183-1.949,1.707-3.45,2.886-5.012a16.534,16.534,0,0,0,2.911-6.241c.593-2.575-1.055-5.616-3.364-6.9s-5.079-1.321-7.72-1.4-5.44-.275-7.6-1.8c-1.976-1.4-3.094-3.682-4.657-5.53-2.636-3.118-6.47-4.919-10.178-6.628-1.4-.645-2.97-1.3-4.435-.821a14.224,14.224,0,0,1-1.693.664c-1.638.313-2.961-1.233-4.429-2.026-3.044-1.644-7.417.737-7.689,4.187-1.574.543-4.491.074-5.385-1.331-.643-1.012-.9-2.427-2.008-2.887-.591-.246-1.331-.154-1.812-.577-.8-.7-.177-1.971-.035-3.023a4.153,4.153,0,0,0-2.555-4.007,12.355,12.355,0,0,0-4.974-.844,11.818,11.818,0,0,1-4.962-.891c-2.95-1.478-4.158-5.481-2.864-8.516a8.486,8.486,0,0,1,7.979-4.813c3.232.093,6.644,2.455,6.68,5.688.01.82,1.322.912,2.035.506a2.978,2.978,0,0,0,1.258-2.028c.175-.8.2-1.634.444-2.417a4.579,4.579,0,0,1,4.3-3.122c1.98.023,3.369-1.952,4.774-3.347a5.656,5.656,0,0,0,1.691-5.4c-.3-1.024-.983-2.059-.641-3.071a3.012,3.012,0,0,1,1.854-1.575,15.892,15.892,0,0,1,6.785-1.217c2.017.085,3.053-1.182,4.082-2.918.743-1.255,1.074-2.841,2.258-3.691,1.773-1.274,4.223-.149,6.4-.3a5.583,5.583,0,0,0,4.758-6.836,15.781,15.781,0,0,0-2.272-3.915,16.664,16.664,0,0,1-2.357-5.762c-.381-1.88-.489-3.95-1.728-5.414-1.938.092-4.286.035-6.01.925a12.5,12.5,0,0,0-1.935-5.62c-1.218-1.589-3.56-2.51-5.283-1.492-1.685,1-2.05,3.306-1.738,5.237s1.112,3.8,1.06,5.756-1.411,4.117-3.367,4.064a4.057,4.057,0,0,1-2.648-1.374c-1.026-1.037-1.839-2.364-3.158-2.987a15.28,15.28,0,0,0-3.267-.712,7.335,7.335,0,0,1-5.244-8.775,7.335,7.335,0,0,1,9.036-4.778c4.375-1.6,6.157-7.123,4.411-11.444s-6.438-7-11.094-7.208a20.117,20.117,0,0,1-4.074-.274c-3.737-.945-5.692-5.054-8.944-7.123C-2361.932,3003.169-2366.876,3004.472-2369.248,3003.576Z" transform="translate(2418.418 -2977.144)" fill="#eaeee7"/>
        <path id="Path_396" data-name="Path 396" d="M-2029.05,2949.03c-1.438,2.193.172,5.184,2.265,6.765s4.712,2.529,6.367,4.564c2.66,3.271,1.9,8.107.447,12.063s-3.512,7.957-3.011,12.143a13.684,13.684,0,0,0,2.091,5.535,7.528,7.528,0,0,0,4.276,3.66c2.379.573,4.79-.827,6.593-2.481s3.372-3.656,5.569-4.733c3.165-1.551,7.237-.974,9.993-3.17,3.413-2.72,2.908-7.906,3.846-12.167,1.575-7.156,7.767-12.44,10.188-19.355a12,12,0,0,0,.767-4.208c-.106-4.63-4.005-8.479-8.373-10.02-5.392-1.9-10.838-.708-16.37-.96-3.008-.137-6.332-1.409-9.243-.188-4.49,1.884-3.172,6.313-6.115,8.941C-2022.305,2947.691-2027,2945.908-2029.05,2949.03Z" transform="translate(2137.123 -2935.951)" fill="#eaeee7"/>
        <path id="Path_397" data-name="Path 397" d="M-1805.921,3010.973c-2.572-2.5-6.774-.082-9.445,2.316l-7.966,7.15c-2,1.791-4.142,3.657-6.786,4.1s-5.824-1.234-5.932-3.913c1.808-1.7,5.412.828,7.064-1.028,1.465-1.646-.7-4-2.609-5.1-3.489-2.015-7.092-4.07-11.083-4.614s-8.517.791-10.59,4.246c-1.773,2.956-1.448,6.813-3.205,9.78-1.1,1.857-2.913,3.184-4.161,4.944s-1.783,4.418-.254,5.941c1.235,1.229,3.334,1.231,4.555,2.474.94.957,1.261,2.553,2.494,3.08,1.41.6,3-.756,3.34-2.251s-.137-3.036-.382-4.55c-.733-4.524,1.537-10.086,6.075-10.732,1.033.039,1.375,1.516.912,2.439s-1.365,1.565-1.853,2.476a3.387,3.387,0,0,0,2.033,4.659c1.965.515,5.249.1,4.989,2.116-.276,2.139-4.233.738-5.514,2.473-.755,1.024-.087,2.451-.105,3.723-.035,2.488-2.78,4.108-5.261,4.284s-4.966-.558-7.443-.333-5.175,1.981-5.062,4.466a65.129,65.129,0,0,1-10.658,3.9c.156,2.693,5.235,2.943,5.215,5.641-.012,1.618-2.016,2.461-3.63,2.342s-3.243-.76-4.808-.347c-2.7.714-3.651,4.515-2.154,6.877s4.575,3.3,7.362,3.079a4.169,4.169,0,0,0,3.013-1.261,7.934,7.934,0,0,0,1-3.019,6.794,6.794,0,0,1,4.936-4.74c1.317-.3,2.931-.325,3.638-1.476a10.747,10.747,0,0,1,5.479,8.219c.969,1.251,3.129-.362,2.918-1.93s-1.6-2.658-2.7-3.8-2.019-2.9-1.157-4.231a15.344,15.344,0,0,1,10.45,11.235,2.924,2.924,0,0,0,1.754-4.3c.558-1.252,2.6-.537,3.191.7s.535,2.766,1.376,3.849c2.431,3.134,8.941-.689,10.932,2.741,1.4,2.4-1.75,5.208-4.529,5.122s-5.316-1.674-8.082-1.95c-3.054-.3-6.02,1.009-9.068,1.364s-6.8-.836-7.448-3.837a7.518,7.518,0,0,0-.531-2.4,3.174,3.174,0,0,0-3.145-1.106c-5.07.575-10.216,5.807-14.4,2.893-2.677,5.213-9.224,7.172-12.877,11.754-3.975,4.986-3.641,12.686.218,17.762s10.679,7.473,17,6.673c1.448-.184,2.975-.508,4.324.049s2.192,1.846,3.307,2.766,2.965,1.379,3.889.267a9.044,9.044,0,0,0,.765,8.132c1.65,2.568,4.727,4.6,4.663,7.653-.033,1.581-.952,2.992-1.382,4.514-1.97,6.968,6.265,12.655,7.567,19.779.35,1.917.349,4.227,1.969,5.31a5.178,5.178,0,0,0,2.575.658c4.592.3,10.374-1.065,11.329-5.567a21.868,21.868,0,0,0,.116-3.893,11.111,11.111,0,0,1,5.969-9.385,10.288,10.288,0,0,0,2.731-1.572c1.658-1.63,1.29-4.4.439-6.56s-2.09-4.346-1.792-6.653c.478-3.7,4.453-5.658,7.465-7.865a21.4,21.4,0,0,0,8.433-14.088c-4.18,1.312-9.3,2.433-12.485-.575a12.432,12.432,0,0,1-2.44-3.817l-5.906-12.341a2.275,2.275,0,0,1-.312-1.726c.576-1.527,2.87-.252,3.754,1.119a132.708,132.708,0,0,1,8.478,15.27,33.785,33.785,0,0,0,14.093-6.129,7.625,7.625,0,0,0,3.083-3.753c.447-1.588-.374-3.623-2-3.906a6.955,6.955,0,0,0-1.9.116c-3.834.4-7.165-2.52-9.672-5.448,1.718-1.925,4.84-.81,7.185.267a53.656,53.656,0,0,0,13.205,4.1,11.338,11.338,0,0,1,3.323.894,9.045,9.045,0,0,1,1.928,1.45,39.327,39.327,0,0,1,11.1,18.02c2.006.45,3.417-2.022,3.575-4.071s-.082-4.414,1.394-5.845c1.159-1.124,3.065-1.279,4.083-2.533,1.282-1.58.612-4.244,2.109-5.621,1.878-1.726,4.913.385,5.914,2.73s1.366,5.23,3.475,6.664l3.411-.492a26.2,26.2,0,0,0,5.58,16.006c1.947-1.019,1.065-3.978-.15-5.809s-2.41-4.563-.681-5.92c2.4.023,3.516,3.33,5.845,3.9s4.386-2.194,3.969-4.541-2.437-4.074-4.521-5.232c-1.869-2.046.83-5.315,3.563-5.778s5.72.316,8.2-.928c2.967-1.491,3.959-5.406,3.284-8.658s-2.6-6.075-4.18-9c-1.346-2.5-2.01-6.392.605-7.489a6.441,6.441,0,0,1,2.242-.312c9.893-.419,18.078-10.893,16.093-20.594a9.83,9.83,0,0,0-2.386-4.977c-2.352-2.4-6.343-2.964-8.1-5.829-2.149-3.5.509-8.153,3.949-10.4s7.644-3.227,10.857-5.791c.856-.022,1.315-.862,1.472-1.7a8.438,8.438,0,0,0-.037-1.609,3.526,3.526,0,0,1,2.458-3.314,3.526,3.526,0,0,1,3.862,1.453c.974,1.538.582,3.568-.125,5.246s-1.707,3.285-1.89,5.1.844,3.94,2.653,4.144c2.212.249,3.641-2.376,3.785-4.6s-.288-4.646.906-6.524c1.814-2.856,6.827-3.526,6.957-6.908.1-2.735-3.337-4.341-3.955-7.008a10.42,10.42,0,0,1,.1-3.3,12.724,12.724,0,0,0-4.649-10.916,12.723,12.723,0,0,0-11.676-2.108c-1.276.418-2.482,1.04-3.781,1.381a18.335,18.335,0,0,1-5.914.237l-10.615-.726c-3.166-.216-6.521-.4-9.331,1.081-4.1,2.157-6.433,7.535-11.036,8.093-3.247.394-6.139-1.851-9.181-3.054a15.281,15.281,0,0,0-14.957,2.308c-1.542-.787-1.066-3.083-1.609-4.726a4.773,4.773,0,0,0-4.21-2.907,13.512,13.512,0,0,0-5.3.952c-3.7,1.208-8,3.269-8.343,7.145-.1,1.091.149,2.252-.311,3.247-.655,1.416-2.424,1.887-3.526,2.99-1.314,1.317-1.521,3.35-1.576,5.209s-.071,3.855-1.147,5.373S-1804.588,3012.271-1805.921,3010.973Z" transform="translate(2035.308 -2969.837)" fill="#eaeee7"/>
        <path id="Path_398" data-name="Path 398" d="M-1340.444,3455.855a8.036,8.036,0,0,0,3.65,2.556c1.675.711,3.712,1.264,5.221.247a25.661,25.661,0,0,0,4.71-6.485c.461-1.989-.2-1.875-2.187-2.277C-1332.267,3449.243-1344.129,3450.5-1340.444,3455.855Z" transform="translate(1639.057 -3307.655)" fill="#eaeee7"/>
        <path id="Path_399" data-name="Path 399" d="M-1390.48,3452.7a27.092,27.092,0,0,0,23.61,13.748c.662-.677-.316-1.713-1.189-2.081-2.415-1.02-5.012-1.529-7.486-2.4a12.4,12.4,0,0,1-6.387-4.351,28.624,28.624,0,0,1-1.535-2.9c-1.452-2.8-7.127-9.848-10.678-8.158C-1393.221,3448.5-1391.608,3450.641-1390.48,3452.7Z" transform="translate(1677.399 -3305.165)" fill="#eaeee7"/>
        <path id="Path_400" data-name="Path 400" d="M-1318.732,3525.763c-1.228,1.375-2.376,3.053-4.168,3.482-1.06.253-2.19.013-3.251.259-3.121.722-3.846,4.917-3.136,8.041s2.172,6.4,1.006,9.384a4.992,4.992,0,0,0-.565,1.832,2.593,2.593,0,0,0,1.161,1.915c2.85,2.137,6.894.6,10.026-1.093s6.927-3.531,10.053-1.824c3.346,1.827,3.661,6.452,5.723,9.659,1.813,2.819,5.81,4.507,8.638,2.709a9.762,9.762,0,0,0,2.365-2.438l4.249-5.554c1.874-2.448,3.816-5.06,4.177-8.122.7-5.914-4.544-10.664-9.273-14.283a14.419,14.419,0,0,0-1.484-5.469c-1.928-3.289-5.866-3.639-4.793,1.02-3.084.105-5.579-4.474-9.01-4.915C-1311.192,3519.828-1316.073,3522.788-1318.732,3525.763Z" transform="translate(1630.658 -3358.704)" fill="#eaeee7"/>
      </g>
      <path id="Path_401" data-name="Path 401" d="M-2472.8,3488.913c40.57-6.9,80.215-23.634,102.994-46.6,26.265-26.482,55.866-34.683,66.344,2.9,12.251,43.951,52.457,36.5,70.785-8.658,14.156-34.876,22.137-68.59,50.6-64.574s-35.633,61.617-6.459,89.112c29.317,27.63,90.732-1.867,90.732,26.34" transform="translate(-0.003 -374.58)" fill="none" stroke="#5fa06c" stroke-miterlimit="10" stroke-width="1.5" stroke-dasharray="7.017"/>
      <path id="Path_402" data-name="Path 402" d="M-2472.8,3216.751q6.593-5.106,13.513-10.866c19.5-16.228,61.708-21.054,103.584,15.882,48.666,42.925,101.256,30.818,138-21.942,33-47.384,96-35.423,119.905,9.464" transform="translate(-0.002 -228.325)" fill="none" stroke="#5fa06c" stroke-miterlimit="10" stroke-width="1.5" stroke-dasharray="7.017"/>
      <path id="Path_403" data-name="Path 403" d="M-2472.806,2902.009c4.873-.366,9.668-.837,14.343-1.4,37.879-4.562,65.913-29.012,84.447-38.987,17.073-9.189,46.256-15.49,56.075,13.174,8.785,25.645-37.217,84.222-.869,86.466,18.168,1.122,22.967-31.864,47.982-50.737,23.092-17.423,41.951-11.507,72.611-13.76,35.195-2.587,100.412,1.394,100.412-37.138" fill="none" stroke="#5fa06c" stroke-miterlimit="10" stroke-width="1.5" stroke-dasharray="7.017"/>
    </g>
  </g>
</svg>
