<svg xmlns="http://www.w3.org/2000/svg" xmlns:xlink="http://www.w3.org/1999/xlink" width="64.398" height="64.398" viewBox="0 0 64.398 64.398">
  <defs>
    <clipPath id="clip-path">
      <circle id="Ellipse_17" data-name="Ellipse 17" cx="24" cy="24" r="24" transform="matrix(0.894, -0.447, 0.447, 0.894, -209.365, 24.7)" fill="none"/>
    </clipPath>
  </defs>
  <g id="Group_203" data-name="Group 203" transform="translate(209.365 -3.234)">
    <g id="Group_202" data-name="Group 202" clip-path="url(#clip-path)">
      <g id="Group_201" data-name="Group 201">
        <g id="Group_191" data-name="Group 191">
          <rect id="Rectangle_43" data-name="Rectangle 43" width="24.608" height="19.895" transform="translate(-206.629 8.468)" fill="#10285a"/>
          <g id="Group_189" data-name="Group 189">
            <path id="Path_760" data-name="Path 760" d="M-206.629,10.74v8.6L-173.675,41.1l8.02-3.3Z" fill="#fff"/>
          </g>
          <g id="Group_190" data-name="Group 190">
            <path id="Path_761" data-name="Path 761" d="M-206.629,15.546v2.845l33.39,22.047,1.306-1.982Z" fill="#c10020"/>
          </g>
        </g>
        <g id="Group_194" data-name="Group 194">
          <rect id="Rectangle_44" data-name="Rectangle 44" width="24.61" height="19.895" transform="translate(-171.96 8.468)" fill="#10285a"/>
          <g id="Group_192" data-name="Group 192">
            <path id="Path_762" data-name="Path 762" d="M-147.348,10.74l0,4.46v4.139L-180.3,41.1l-8.02-3.3Z" fill="#fff"/>
          </g>
          <g id="Group_193" data-name="Group 193">
            <path id="Path_763" data-name="Path 763" d="M-148.732,12.96v2.845L-182.12,37.852l-1.31-1.982Z" fill="#c10020"/>
          </g>
        </g>
        <g id="Group_197" data-name="Group 197">
          <rect id="Rectangle_45" data-name="Rectangle 45" width="24.61" height="21.409" transform="translate(-171.96 41.722)" fill="#10285a"/>
          <g id="Group_195" data-name="Group 195">
            <path id="Path_764" data-name="Path 764" d="M-146.345,60.007l-1-5.122V50.746L-180.3,28.988l-8.02,3.3Z" fill="#fff"/>
          </g>
          <g id="Group_196" data-name="Group 196">
            <path id="Path_765" data-name="Path 765" d="M-147.35,54.54V51.695l-33.388-22.047-1.31,1.982Z" fill="#c10020"/>
          </g>
        </g>
        <g id="Group_200" data-name="Group 200">
          <rect id="Rectangle_46" data-name="Rectangle 46" width="25.034" height="21.409" transform="translate(-207.202 41.202)" fill="#10285a"/>
          <g id="Group_198" data-name="Group 198">
            <path id="Path_766" data-name="Path 766" d="M-207.808,59.619l.754-4.958V50.522L-174.1,28.764l8.02,3.3Z" fill="#fff"/>
          </g>
          <g id="Group_199" data-name="Group 199">
            <path id="Path_767" data-name="Path 767" d="M-208.1,58.548V55.7l33.39-22.047,1.306,1.982Z" fill="#c10020"/>
          </g>
        </g>
        <path id="Path_768" data-name="Path 768" d="M-147.35,28.363h-24.558V8.468h-10.261V28.363h-24.46V41.426h24.46V63.131h10.261V41.426h24.558Z" fill="#fff"/>
        <path id="Path_769" data-name="Path 769" d="M-147.35,31.034h-26.735V8.468h-5.906V31.034h-26.637v7.719h26.637V63.131h5.906V38.754h26.735Z" fill="#c10020"/>
      </g>
    </g>
  </g>
</svg>
