<svg xmlns="http://www.w3.org/2000/svg" width="47.759" height="47.761" viewBox="0 0 47.759 47.761">
  <g id="Group_442" data-name="Group 442" transform="translate(-16.12 -1422.574)">
    <path id="Path_445" data-name="Path 445" d="M658.126-147.4a23.908,23.908,0,0,1-23.88-23.88,23.908,23.908,0,0,1,23.88-23.88A23.906,23.906,0,0,1,682-171.285,23.906,23.906,0,0,1,658.126-147.4Z" transform="translate(-618.126 1617.739)" fill="#006828"/>
    <path id="Path_446" data-name="Path 446" d="M664.738-181.567a5.345,5.345,0,0,0,3.094-4.858,5.361,5.361,0,0,0-5.356-5.356,5.361,5.361,0,0,0-5.354,5.356,5.356,5.356,0,0,0,3.081,4.858,6.241,6.241,0,0,0-3.343,3.013,5.336,5.336,0,0,0-3.24-1.108,5.373,5.373,0,0,0-5.182,4,6.278,6.278,0,0,0-1.41-.759,5.354,5.354,0,0,0,3.092-4.873,5.361,5.361,0,0,0-5.355-5.356,5.361,5.361,0,0,0-5.354,5.356,5.344,5.344,0,0,0,3.1,4.858,6.3,6.3,0,0,0-4.027,5.861v9.085h26.555v-1.387h-5.127v-.706a6.292,6.292,0,0,0-4.026-5.861,5.345,5.345,0,0,0,3.094-4.858,5.286,5.286,0,0,0-1.063-3.172,4.9,4.9,0,0,1,4.563-3.127,4.906,4.906,0,0,1,4.9,4.9v14.211h1.387v-14.211A6.292,6.292,0,0,0,664.738-181.567Zm1.707-4.858a3.971,3.971,0,0,1-3.969,3.967,3.97,3.97,0,0,1-3.965-3.967,3.97,3.97,0,0,1,3.965-3.967A3.971,3.971,0,0,1,666.445-186.425ZM640.8-181.3a3.97,3.97,0,0,1,3.965-3.967,3.971,3.971,0,0,1,3.969,3.967,3.973,3.973,0,0,1-3.969,3.969A3.972,3.972,0,0,1,640.8-181.3Zm10.563,11.85a6.29,6.29,0,0,0-4.026,5.861v.706h-7.469v-7.7a4.906,4.906,0,0,1,4.9-4.9,4.844,4.844,0,0,1,3.521,1.486A5.381,5.381,0,0,0,651.362-169.449Zm-2.64,5.861a4.9,4.9,0,0,1,4.9-4.9,4.9,4.9,0,0,1,4.9,4.9v.706h-9.8Zm4.9-6.755a3.97,3.97,0,0,1-3.964-3.965,3.97,3.97,0,0,1,3.964-3.967,3.971,3.971,0,0,1,3.969,3.967A3.971,3.971,0,0,1,653.62-170.342Z" transform="translate(-613.622 1621.339)" fill="#fff"/>
  </g>
</svg>
