<svg id="Group_105" data-name="Group 105" xmlns="http://www.w3.org/2000/svg" width="47.874" height="47.874" viewBox="0 0 47.874 47.874">
  <path id="Path_428" data-name="Path 428" d="M658.156-264.147a23.964,23.964,0,0,1-23.938-23.938,23.964,23.964,0,0,1,23.938-23.936,23.964,23.964,0,0,1,23.936,23.936A23.964,23.964,0,0,1,658.156-264.147Z" transform="translate(-634.218 312.021)" fill="#006828"/>
  <g id="Group_104" data-name="Group 104" transform="translate(10.571 11.968)">
    <path id="Path_429" data-name="Path 429" d="M655.047-302.516a.715.715,0,0,0-.712-.712h-5.717a.712.712,0,0,0-.712.712v2.144h7.141Zm-5.355,12.5h3.568l0-2.142H649.7l0,2.142m5-1.785H657.9a1.426,1.426,0,0,0,1.43-1.426v-5.715H643.624v5.715a1.429,1.429,0,0,0,1.43,1.426h3.211v-.357a1.429,1.429,0,0,1,1.43-1.428h3.564a1.428,1.428,0,0,1,1.43,1.428Zm-6.425,1.428h-3.211a2.856,2.856,0,0,1-2.858-2.854v-5.715h0a1.427,1.427,0,0,0-1.424,1.426v10.713a1.426,1.426,0,0,0,1.424,1.426h18.568a1.426,1.426,0,0,0,1.424-1.426v-10.713a1.429,1.429,0,0,0-1.424-1.426h0v5.715a2.855,2.855,0,0,1-2.858,2.854h-3.209v.357a1.429,1.429,0,0,1-1.43,1.426H649.7a1.426,1.426,0,0,1-1.43-1.426Zm-1.785-9.995h0v-2.144a2.139,2.139,0,0,1,2.138-2.14h5.717a2.139,2.139,0,0,1,2.138,2.14v2.144h4.288a2.854,2.854,0,0,1,2.852,2.852v10.713a2.855,2.855,0,0,1-2.852,2.854H642.194a2.856,2.856,0,0,1-2.854-2.854v-10.713a2.855,2.855,0,0,1,2.854-2.852Z" transform="translate(-639.34 307.887)" fill="#fff"/>
    <path id="Path_430" data-name="Path 430" d="M651.208-301.56a.639.639,0,0,0,.9-.049l.006-.008,3.1-3.539a.634.634,0,0,0-.039-.9.638.638,0,0,0-.9.039l-.015.019-2.679,3.059-1.133-.984a.638.638,0,0,0-.9.06.639.639,0,0,0,.058.9Z" transform="translate(-628.648 306.222)" fill="#fff"/>
  </g>
</svg>
