<svg id="Group_116" data-name="Group 116" xmlns="http://www.w3.org/2000/svg" width="47.874" height="47.874" viewBox="0 0 47.874 47.874">
  <path id="Path_447" data-name="Path 447" d="M658.156-88.985a23.964,23.964,0,0,1-23.938-23.936,23.964,23.964,0,0,1,23.938-23.938,23.964,23.964,0,0,1,23.936,23.938A23.964,23.964,0,0,1,658.156-88.985Z" transform="translate(-634.218 136.859)" fill="#006828"/>
  <g id="Group_113" data-name="Group 113" transform="translate(11.002 19.846)">
    <path id="Path_448" data-name="Path 448" d="M655.256-125.1a.713.713,0,0,0-.71-.712h-5.719a.712.712,0,0,0-.712.712v2.144h7.141ZM649.9-112.609h3.568l0-2.14h-3.566l0,2.14m5-1.785h3.209a1.425,1.425,0,0,0,1.43-1.426v-5.713H643.833v5.713a1.427,1.427,0,0,0,1.43,1.426h3.211v-.355a1.431,1.431,0,0,1,1.43-1.43h3.564a1.428,1.428,0,0,1,1.43,1.43Zm-6.425,1.43h-3.211a2.856,2.856,0,0,1-2.858-2.856v-5.713h0a1.426,1.426,0,0,0-1.424,1.426v10.713a1.426,1.426,0,0,0,1.424,1.426h18.568a1.427,1.427,0,0,0,1.424-1.426v-10.713a1.427,1.427,0,0,0-1.424-1.426h0v5.713a2.855,2.855,0,0,1-2.858,2.856H654.9v.355a1.429,1.429,0,0,1-1.43,1.428h-3.564a1.426,1.426,0,0,1-1.43-1.428Zm-1.785-10h0V-125.1a2.138,2.138,0,0,1,2.138-2.14h5.719a2.139,2.139,0,0,1,2.136,2.14v2.144h4.289a2.854,2.854,0,0,1,2.852,2.852v10.713a2.856,2.856,0,0,1-2.852,2.854H642.4a2.856,2.856,0,0,1-2.854-2.854v-10.713a2.855,2.855,0,0,1,2.854-2.852Z" transform="translate(-639.549 127.243)" fill="#fff"/>
  </g>
  <g id="Group_115" data-name="Group 115" transform="translate(15.423 3.237)">
    <path id="Path_449" data-name="Path 449" d="M643.759-128.091a7.039,7.039,0,0,1-1.158-1.255l1.086-.786a5.759,5.759,0,0,0,.943,1.022Z" transform="translate(-640.723 140.778)" fill="#fff"/>
    <path id="Path_450" data-name="Path 450" d="M651.475-121.262l-.433-1.269a5.924,5.924,0,0,0,2.307-1.457l.962.935A7.266,7.266,0,0,1,651.475-121.262Zm3.558-2.66-1.1-.77a5.966,5.966,0,0,0,.437-.729,5.8,5.8,0,0,0,.578-1.81l1.329.194a7.3,7.3,0,0,1-.71,2.225A7.815,7.815,0,0,1,655.033-123.922Zm-12.315-.9a7.241,7.241,0,0,1-.78-3.261h1.342a5.91,5.91,0,0,0,.635,2.656Zm12.292-3.321a5.9,5.9,0,0,0-.665-2.648l1.191-.621a7.275,7.275,0,0,1,.815,3.253ZM643.35-129l-1.323-.211a7.135,7.135,0,0,1,.7-2.146,7.507,7.507,0,0,1,.58-.953l1.09.782a5.9,5.9,0,0,0-.475.78A5.925,5.925,0,0,0,643.35-129Zm10.509-2.576a5.757,5.757,0,0,0-2.052-1.736l.545-1.23.149.085a6.933,6.933,0,0,1,2.439,2.087Zm-8.872-.648-.951-.947a7.225,7.225,0,0,1,2.854-1.758l.419,1.273A5.872,5.872,0,0,0,644.986-132.221Zm5.936-1.455a5.844,5.844,0,0,0-2.724-.2l-.213-1.325a7.271,7.271,0,0,1,3.343.246Z" transform="translate(-641.428 135.29)" fill="#fff"/>
    <path id="Path_451" data-name="Path 451" d="M645.692-127.573c-.169,0-.341-.006-.51-.017l.093-1.339a5.548,5.548,0,0,0,1.387-.066l.225,1.323A7.182,7.182,0,0,1,645.692-127.573Z" transform="translate(-637.977 141.987)" fill="#fff"/>
    <g id="Group_114" data-name="Group 114" transform="translate(0 8.762)">
      <path id="Path_452" data-name="Path 452" d="M644.289-131.045l.569,3.166-3.167.567,1.585,1.1,3.166-.568-.568-3.166Z" transform="translate(-641.691 131.045)" fill="#fff"/>
    </g>
  </g>
</svg>
