<svg xmlns="http://www.w3.org/2000/svg" width="59.921" height="81.151" viewBox="0 0 59.921 81.151">
  <g id="Group_88" data-name="Group 88" transform="translate(-218.629 -160.77)">
    <g id="Group_87" data-name="Group 87" transform="translate(218.629 160.77)">
      <path id="Path_392" data-name="Path 392" d="M247.979,160.967a29.185,29.185,0,0,0-29.153,29.148c0,19.561,25.267,47.928,26.34,49.129a3.78,3.78,0,0,0,5.62,0c1.073-1.2,26.341-29.564,26.341-49.125A29.184,29.184,0,0,0,247.979,160.967Z" transform="translate(-218.016 -160.157)" fill="#fff"/>
      <path id="Path_393" data-name="Path 393" d="M248.592,161.58a29.184,29.184,0,0,1,29.148,29.148c0,19.561-25.268,47.928-26.341,49.125a3.78,3.78,0,0,1-5.62,0c-1.073-1.2-26.34-29.568-26.34-49.129a29.185,29.185,0,0,1,29.153-29.148m0-.81a29.993,29.993,0,0,0-29.963,29.958c0,8.309,4.341,19.043,12.9,31.9A169.447,169.447,0,0,0,245.175,240.4a4.584,4.584,0,0,0,6.829,0c1.081-1.2,26.546-29.79,26.546-49.667a29.993,29.993,0,0,0-29.958-29.958Z" transform="translate(-218.629 -160.77)" fill="#fff"/>
    </g>
    <path id="Path_394" data-name="Path 394" d="M247.979,160.967a29.185,29.185,0,0,0-29.153,29.148c0,19.561,25.267,47.928,26.34,49.129a3.78,3.78,0,0,0,5.62,0c1.073-1.2,26.341-29.564,26.341-49.125A29.184,29.184,0,0,0,247.979,160.967Zm-1.065,8.362a4.112,4.112,0,0,1,3.207-1.357,4.518,4.518,0,0,1,3.207,7.741,4.478,4.478,0,0,1-6.413,0,4.443,4.443,0,0,1,0-6.385Zm.206,13.328a5.4,5.4,0,0,1,4.091,2q1.5,1.856.617,5.887L248.562,204.9q-.943,4.15.234,4.383,2,.413,3.326-6.648h1.41q-.8,9.62-6.915,9.18a5.527,5.527,0,0,1-4.087-2q-1.56-1.943-.621-5.883,1.412-6.062,2.179-9.649l1.089-4.711q.968-4.144-.234-4.383-2-.438-3.326,6.648H240.2Q241.031,182.214,247.119,182.658Zm1.784,54.893a1.276,1.276,0,0,1-1.854,0c-.781-.872-14.591-16.379-21.633-31.924a27.521,27.521,0,0,0,45.116,0C263.49,221.176,249.685,236.683,248.9,237.551Z" transform="translate(0.613 0.613)" fill="#00a131"/>
  </g>
</svg>
