<svg xmlns="http://www.w3.org/2000/svg" width="48" height="48" viewBox="0 0 48 48">
  <g id="Group_444" data-name="Group 444" transform="translate(-15.862 -1589)">
    <path id="Path_528" data-name="Path 528" d="M658.188-59.642a24.025,24.025,0,0,1-24-24,24.027,24.027,0,0,1,24-24,24.028,24.028,0,0,1,24,24A24.026,24.026,0,0,1,658.188-59.642Z" transform="translate(-618.326 1696.642)" fill="#006828"/>
    <path id="Path_529" data-name="Path 529" d="M51.942,9.777l1.829-.08a.856.856,0,0,0,.636-.8V6.675H34.684a.7.7,0,0,1-.716-.636.713.713,0,0,1,.716-.716h3.658l2.545-1.193H33.571a.883.883,0,0,0-.875.875v16.86a.883.883,0,0,0,.875.875H53.533a.883.883,0,0,0,.875-.875v-3.9a.883.883,0,0,0-.875-.875h-2.7a2.157,2.157,0,0,1-2.147-2.227V11.924c0-1.988,1.67-2.147,3.261-2.147Zm-10.5-4.454h8.748l-1.67-3.34-7.078,3.34Zm10.259,0h2.7V5.005a.883.883,0,0,0-.875-.875H51.067L51.7,5.323ZM50.431,2.779h3.1A2.207,2.207,0,0,1,55.68,5.005V8.9a1.713,1.713,0,0,1-.159.875H56a2.207,2.207,0,0,1,2.227,2.147v2.943A2.276,2.276,0,0,1,56,17.094h-.477a1.574,1.574,0,0,1,.159.875v3.9a2.138,2.138,0,0,1-2.147,2.147H33.571a2.207,2.207,0,0,1-2.227-2.147V5.005a2.276,2.276,0,0,1,2.227-2.227h10.1L48.6.472a.669.669,0,0,1,.875.318l.954,1.988ZM56,11.129H50.829a.751.751,0,0,0-.8.8v2.943a.818.818,0,0,0,.8.875H56a.883.883,0,0,0,.875-.875V11.924a.817.817,0,0,0-.875-.8Z" transform="translate(-4.345 1600.487)" fill="#fff"/>
  </g>
</svg>
