<svg xmlns="http://www.w3.org/2000/svg" width="47.874" height="47.874" viewBox="0 0 47.874 47.874">
  <g id="Group_447" data-name="Group 447" transform="translate(-16.062 -1922)">
    <path id="Path_428" data-name="Path 428" d="M658.156-264.147a23.964,23.964,0,0,1-23.938-23.938,23.964,23.964,0,0,1,23.938-23.936,23.964,23.964,0,0,1,23.936,23.936A23.964,23.964,0,0,1,658.156-264.147Z" transform="translate(-618.156 2234.021)" fill="#006828"/>
    <path id="Path_539" data-name="Path 539" d="M130.1,76.6h5.747a1.41,1.41,0,0,0,1.409-1.409V74.2a.319.319,0,0,0-.319-.319h-.777l-2.817-12.465a11.977,11.977,0,0,0,1.114-.593,11.942,11.942,0,0,1,6.648-1.787V78.169h-2.864a1.642,1.642,0,0,0-1.638,1.6h-.626a.319.319,0,0,0-.319.319v2.093a.319.319,0,0,0,.319.319h10.894a.319.319,0,0,0,.319-.319V80.085a.319.319,0,0,0-.319-.319h-.5a1.642,1.642,0,0,0-1.638-1.6h-2.985V59.031a11.949,11.949,0,0,1,6.649,1.787,11.869,11.869,0,0,0,1.1.585l-2.819,12.473h-.74a.319.319,0,0,0-.319.319v.994a1.41,1.41,0,0,0,1.409,1.409h5.747a1.41,1.41,0,0,0,1.409-1.409V74.2a.319.319,0,0,0-.319-.319h-.813l-2.742-12.134a6.833,6.833,0,0,0,2.323.447,3.387,3.387,0,0,0,1.206-.18.319.319,0,0,0-.241-.59c-.017.007-1.82.685-4.87-1.147a12.45,12.45,0,0,0-6.977-1.882V57.31a.319.319,0,0,0-.638,0v1.079a12.447,12.447,0,0,0-6.977,1.882,10.764,10.764,0,0,1-1.251.646.311.311,0,0,0-.034.014,5.149,5.149,0,0,1-3.583.487.319.319,0,1,0-.243.59,3.376,3.376,0,0,0,1.206.18,6.823,6.823,0,0,0,2.3-.44l-2.741,12.127h-.777a.319.319,0,0,0-.319.319v.994A1.413,1.413,0,0,0,130.1,76.6Zm23.44-1.409a.772.772,0,0,1-.771.771h-5.747C146.6,75.961,146.253,75.615,153.542,75.19Zm-6.214-1.313,2.533-11.21,2.533,11.21Zm-14.352-11.21,2.533,11.21h-5.066Zm2.873,13.294h0Z" transform="translate(-101.437 1876.256)" fill="#fff" stroke="#fff" stroke-width="0.7"/>
  </g>
</svg>
