<svg xmlns="http://www.w3.org/2000/svg" width="137.908" height="115.668" viewBox="0 0 137.908 115.668">
  <g id="Logo_a_Colori" data-name="Logo a Colori" transform="translate(-132.7 -157.8)">
    <path id="Path_1" data-name="Path 1" d="M181.116,221.856a8.579,8.579,0,0,0-3.344-7.27q-3.344-2.538-12.027-5.347A85,85,0,0,1,151.99,203.7q-13.8-7.471-13.817-20.108a19.611,19.611,0,0,1,3.7-11.726,24.2,24.2,0,0,1,10.64-8.048,40.019,40.019,0,0,1,15.568-2.9,36.317,36.317,0,0,1,15.468,3.148,24.789,24.789,0,0,1,10.552,8.884,23.235,23.235,0,0,1,3.763,13.035H181.145q0-5.569-3.512-8.662t-9.858-3.089q-6.124,0-9.523,2.588a8.169,8.169,0,0,0-3.4,6.823q0,3.959,3.984,6.63a45.223,45.223,0,0,0,11.706,5.017q14.26,4.289,20.777,10.635a21.179,21.179,0,0,1,6.517,15.819q0,10.527-7.968,16.513t-21.442,5.991a41.39,41.39,0,0,1-17.044-3.428,26.85,26.85,0,0,1-11.706-9.385,24,24,0,0,1-4.038-13.8H152.4q0,13.424,16.041,13.424,5.957,0,9.3-2.421A7.959,7.959,0,0,0,181.116,221.856Z" transform="translate(-1.711 -1.816)" fill="#00ae44"/>
    <path id="Path_2" data-name="Path 2" d="M166.374,159.174a36.318,36.318,0,0,1,15.468,3.148,24.789,24.789,0,0,1,10.552,8.884,23.236,23.236,0,0,1,3.762,13.035H179.434q0-5.569-3.512-8.662t-9.858-3.089q-6.124,0-9.523,2.588a8.169,8.169,0,0,0-3.4,6.823q0,3.959,3.984,6.63a45.222,45.222,0,0,0,11.706,5.017q14.26,4.289,20.777,10.635A21.179,21.179,0,0,1,196.127,220q0,10.527-7.968,16.513t-21.442,5.991a41.39,41.39,0,0,1-17.044-3.428,26.85,26.85,0,0,1-11.706-9.385,24,24,0,0,1-4.038-13.8h16.764q0,13.424,16.041,13.424,5.957,0,9.3-2.421a7.878,7.878,0,0,0,3.344-6.768,8.579,8.579,0,0,0-3.344-7.27q-3.344-2.538-12-5.368a85.005,85.005,0,0,1-13.754-5.539q-13.8-7.471-13.817-20.108a19.611,19.611,0,0,1,3.7-11.726,24.2,24.2,0,0,1,10.64-8.048,40.019,40.019,0,0,1,15.568-2.9m0-1.254a41.529,41.529,0,0,0-16.053,2.993,25.534,25.534,0,0,0-11.175,8.474,20.9,20.9,0,0,0-3.942,12.462c0,8.888,4.87,16.024,14.473,21.216a85.281,85.281,0,0,0,13.971,5.631c5.627,1.823,9.548,3.553,11.655,5.15a7.324,7.324,0,0,1,2.843,6.271,6.645,6.645,0,0,1-2.822,5.748c-2,1.446-4.879,2.182-8.562,2.182-5.017,0-8.779-1.033-11.221-3.064s-3.562-4.979-3.562-9.1v-1.254H132.7v1.254a25.378,25.378,0,0,0,4.252,14.519,28.253,28.253,0,0,0,12.257,9.828,42.826,42.826,0,0,0,17.558,3.537c9.226,0,16.693-2.09,22.2-6.242,5.619-4.222,8.47-10.117,8.47-17.521a22.505,22.505,0,0,0-6.9-16.722c-4.469-4.356-11.63-8.035-21.292-10.945a43.851,43.851,0,0,1-11.384-4.854c-2.308-1.547-3.428-3.37-3.428-5.581a6.91,6.91,0,0,1,2.9-5.819c2.032-1.547,4.979-2.333,8.779-2.333,3.9,0,6.936.932,9.026,2.776s3.081,4.352,3.081,7.717V185.5h19.231v-1.254a24.569,24.569,0,0,0-3.967-13.725,26.007,26.007,0,0,0-11.078-9.335A37.873,37.873,0,0,0,166.4,157.92Z" transform="translate(0 -0.07)" fill="#fff"/>
    <circle id="Ellipse_2" data-name="Ellipse 2" cx="41.684" cy="41.684" r="41.684" transform="translate(185.981 159.058)" fill="#00ae44"/>
    <path id="Path_3" data-name="Path 3" d="M300.071,159.058a41.688,41.688,0,1,1-41.689,41.687,41.689,41.689,0,0,1,41.689-41.687m0-1.254a42.947,42.947,0,1,0,42.943,42.943A42.948,42.948,0,0,0,300.071,157.8Z" transform="translate(-72.406)" fill="#fff"/>
    <path id="Path_4" data-name="Path 4" d="M338.593,244.462q1.518-6.471-.368-6.844-3.123-.69-5.188,10.385H330.83q1.283-15.025,10.794-14.335a8.447,8.447,0,0,1,6.388,3.127q2.341,2.893.966,9.2L343.861,268.4q-1.476,6.476.368,6.844,3.123.644,5.188-10.38h2.207q-1.254,15.021-10.794,14.331a8.64,8.64,0,0,1-6.388-3.123q-2.433-3.035-.966-9.2,2.207-9.465,3.4-15.05Z" transform="translate(-115.301 -44.133)" fill="#fff"/>
    <path id="Path_5" data-name="Path 5" d="M365.073,185.992a6.789,6.789,0,0,1-2.115,4.962,7.066,7.066,0,1,1-10.012-9.971,6.4,6.4,0,0,1,5.017-2.111,7.216,7.216,0,0,1,7.107,7.107Z" transform="translate(-126.939 -12.26)" fill="#fff"/>
    <path id="Path_6" data-name="Path 6" d="M141.565,386.2a.861.861,0,0,0-.36-.736,3.415,3.415,0,0,0-1.254-.456,5.9,5.9,0,0,1-1.413-.456,1.973,1.973,0,0,1-.773-.635,1.513,1.513,0,0,1-.251-.874,1.777,1.777,0,0,1,.711-1.43,2.784,2.784,0,0,1,1.823-.581,2.86,2.86,0,0,1,1.894.6,1.915,1.915,0,0,1,.727,1.543H141.49a1.062,1.062,0,0,0-.418-.836,1.522,1.522,0,0,0-1.033-.351,1.577,1.577,0,0,0-1,.28.882.882,0,0,0-.364.732.715.715,0,0,0,.339.64,4.109,4.109,0,0,0,1.212.418,6.3,6.3,0,0,1,1.426.472,2.061,2.061,0,0,1,.819.665,1.609,1.609,0,0,1,.263.932,1.748,1.748,0,0,1-.736,1.476,3.064,3.064,0,0,1-1.906.556,3.419,3.419,0,0,1-1.459-.293,2.345,2.345,0,0,1-.995-.815,1.961,1.961,0,0,1-.36-1.133h1.175a1.212,1.212,0,0,0,.472.936,1.818,1.818,0,0,0,1.166.347,1.915,1.915,0,0,0,1.066-.268A.836.836,0,0,0,141.565,386.2Z" transform="translate(-2.665 -129.909)" fill="#1d1d1b"/>
    <path id="Path_7" data-name="Path 7" d="M159.794,384.668a4.093,4.093,0,0,1-.719,2.508,2.291,2.291,0,0,1-1.94.957,2.508,2.508,0,0,1-1.965-.794v3.307H154v-9.486h1.07l.059.761a2.412,2.412,0,0,1,1.994-.886,2.337,2.337,0,0,1,1.956.932,4.135,4.135,0,0,1,.719,2.592Zm-1.175-.134a3.022,3.022,0,0,0-.493-1.831,1.6,1.6,0,0,0-1.359-.673,1.722,1.722,0,0,0-1.6.945v3.282a1.731,1.731,0,0,0,1.61.936,1.58,1.58,0,0,0,1.342-.669A3.294,3.294,0,0,0,158.62,384.535Z" transform="translate(-12.395 -129.909)" fill="#1d1d1b"/>
    <path id="Path_8" data-name="Path 8" d="M170.674,384.544a4.059,4.059,0,0,1,.4-1.814,2.926,2.926,0,0,1,1.1-1.254,3.026,3.026,0,0,1,1.614-.418,2.893,2.893,0,0,1,2.27.97,3.737,3.737,0,0,1,.865,2.579v.084a4.1,4.1,0,0,1-.385,1.8,2.926,2.926,0,0,1-1.1,1.254,3.044,3.044,0,0,1-1.643.443,2.889,2.889,0,0,1-2.262-.97,3.721,3.721,0,0,1-.865-2.567Zm1.179.138a2.964,2.964,0,0,0,.531,1.835,1.7,1.7,0,0,0,1.417.69,1.672,1.672,0,0,0,1.421-.7,3.2,3.2,0,0,0,.527-1.961,2.948,2.948,0,0,0-.535-1.831,1.706,1.706,0,0,0-1.426-.7,1.672,1.672,0,0,0-1.4.694A3.181,3.181,0,0,0,171.853,384.682Z" transform="translate(-22.096 -129.922)" fill="#1d1d1b"/>
    <path id="Path_9" data-name="Path 9" d="M192.494,382.216a3.509,3.509,0,0,0-.577-.046,1.551,1.551,0,0,0-1.547.982v4.875H189.2v-6.865h1.141v.794a1.831,1.831,0,0,1,1.639-.92,1.191,1.191,0,0,1,.518.088Z" transform="translate(-32.88 -129.911)" fill="#1d1d1b"/>
    <path id="Path_10" data-name="Path 10" d="M200.855,377.348v1.672h1.283v.907h-1.283v4.252a.949.949,0,0,0,.171.619.727.727,0,0,0,.585.209,2.844,2.844,0,0,0,.556-.075v.945a3.4,3.4,0,0,1-.9.125,1.459,1.459,0,0,1-1.187-.477,2.032,2.032,0,0,1-.4-1.35v-4.256H198.43v-.907h1.254V377.34Z" transform="translate(-38.251 -127.76)" fill="#1d1d1b"/>
    <path id="Path_11" data-name="Path 11" d="M213,388.126a2.993,2.993,0,0,1-2.27-.916,3.4,3.4,0,0,1-.878-2.454v-.213a4.068,4.068,0,0,1,.393-1.823,3.048,3.048,0,0,1,1.087-1.254,2.759,2.759,0,0,1,1.5-.472,2.584,2.584,0,0,1,2.09.878,3.842,3.842,0,0,1,.74,2.529v.485h-4.64a2.441,2.441,0,0,0,.594,1.643,1.864,1.864,0,0,0,1.442.623,2.027,2.027,0,0,0,1.053-.255,2.555,2.555,0,0,0,.753-.673l.719.56A2.88,2.88,0,0,1,213,388.126Zm-.163-6.154a1.56,1.56,0,0,0-1.191.518,2.509,2.509,0,0,0-.6,1.451h3.462v-.092a2.249,2.249,0,0,0-.485-1.384A1.48,1.48,0,0,0,212.839,381.972Z" transform="translate(-44.897 -129.884)" fill="#1d1d1b"/>
    <path id="Path_12" data-name="Path 12" d="M228.455,384.195H227.28V374.45h1.175Z" transform="translate(-55.04 -126.078)" fill="#1d1d1b"/>
    <path id="Path_13" data-name="Path 13" d="M235.995,384.195H234.82V374.45h1.175Z" transform="translate(-59.428 -126.078)" fill="#1d1d1b"/>
    <path id="Path_14" data-name="Path 14" d="M241.38,384.544a4,4,0,0,1,.418-1.814,2.926,2.926,0,0,1,1.1-1.254,3.018,3.018,0,0,1,1.614-.418,2.889,2.889,0,0,1,2.266.97,3.738,3.738,0,0,1,.865,2.579v.084a4.039,4.039,0,0,1-.385,1.8,2.927,2.927,0,0,1-1.1,1.254,3.027,3.027,0,0,1-1.639.443,2.88,2.88,0,0,1-2.262-.97,3.721,3.721,0,0,1-.865-2.567Zm1.179.138a2.926,2.926,0,0,0,.531,1.835,1.793,1.793,0,0,0,2.839,0,3.2,3.2,0,0,0,.527-1.961,2.926,2.926,0,0,0-.539-1.831,1.781,1.781,0,0,0-2.826,0A3.182,3.182,0,0,0,242.559,384.682Z" transform="translate(-63.246 -129.922)" fill="#1d1d1b"/>
    <path id="Path_15" data-name="Path 15" d="M267.549,376.057a.7.7,0,0,1,.176-.481.782.782,0,0,1,1.037,0,.7.7,0,0,1,.176.481.635.635,0,0,1-.694.669.66.66,0,0,1-.518-.192A.673.673,0,0,1,267.549,376.057Zm1.254,8.687h-1.175v-6.873H268.8Z" transform="translate(-78.475 -126.619)" fill="#1d1d1b"/>
    <path id="Path_16" data-name="Path 16" d="M276.172,381.162l.033.761a2.508,2.508,0,0,1,2.032-.886,1.961,1.961,0,0,1,1.961,1.1,2.546,2.546,0,0,1,2.191-1.1c1.5,0,2.27.794,2.3,2.391v4.6h-1.171v-4.532a1.568,1.568,0,0,0-.339-1.1,1.489,1.489,0,0,0-1.129-.364,1.568,1.568,0,0,0-1.087.389,1.589,1.589,0,0,0-.5,1.049v4.557h-1.183v-4.5a1.307,1.307,0,0,0-1.463-1.5,1.572,1.572,0,0,0-1.58.982v5.017H275.06v-6.869Z" transform="translate(-82.846 -129.91)" fill="#1d1d1b"/>
    <path id="Path_17" data-name="Path 17" d="M303.429,381.139l.029.761a2.533,2.533,0,0,1,2.019-.9,1.961,1.961,0,0,1,1.961,1.1,2.529,2.529,0,0,1,2.191-1.1c1.505,0,2.27.794,2.3,2.391v4.6h-1.175v-4.515a1.589,1.589,0,0,0-.334-1.1,1.488,1.488,0,0,0-1.129-.364,1.559,1.559,0,0,0-1.087.389,1.593,1.593,0,0,0-.5,1.049V388h-1.179v-4.5a1.308,1.308,0,0,0-1.463-1.5,1.572,1.572,0,0,0-1.58.982v5.017H302.3v-6.869Z" transform="translate(-98.698 -129.887)" fill="#1d1d1b"/>
    <path id="Path_18" data-name="Path 18" d="M329.569,376.055a.7.7,0,0,1,.176-.481.66.66,0,0,1,.518-.2.673.673,0,0,1,.518.2.7.7,0,0,1,.176.481.636.636,0,0,1-.694.669.66.66,0,0,1-.518-.192A.673.673,0,0,1,329.569,376.055Zm1.254,8.687h-1.171v-6.873h1.171Z" transform="translate(-114.567 -126.617)" fill="#1d1d1b"/>
    <path id="Path_19" data-name="Path 19" d="M336.422,384.539a4.03,4.03,0,0,1,.74-2.55,2.563,2.563,0,0,1,3.93-.063l.054-.761h1.074v6.689a2.8,2.8,0,0,1-.79,2.09,2.926,2.926,0,0,1-2.124.765,3.5,3.5,0,0,1-1.451-.318,2.508,2.508,0,0,1-1.087-.865l.61-.707a2.287,2.287,0,0,0,1.844.932,1.8,1.8,0,0,0,1.338-.481,1.848,1.848,0,0,0,.477-1.359v-.589a2.412,2.412,0,0,1-1.919.811,2.341,2.341,0,0,1-1.952-.97A4.243,4.243,0,0,1,336.422,384.539Zm1.179.134a3.064,3.064,0,0,0,.477,1.823,1.538,1.538,0,0,0,1.329.665,1.718,1.718,0,0,0,1.63-1.008v-3.135a1.739,1.739,0,0,0-1.618-.982,1.563,1.563,0,0,0-1.338.665A3.345,3.345,0,0,0,337.6,384.672Z" transform="translate(-118.552 -129.913)" fill="#1d1d1b"/>
    <path id="Path_20" data-name="Path 20" d="M357.849,382.217a3.6,3.6,0,0,0-.577-.046,1.555,1.555,0,0,0-1.572.982v4.875H354.53v-6.864h1.141l.021.794a1.823,1.823,0,0,1,1.635-.92,1.23,1.23,0,0,1,.523.088Z" transform="translate(-129.093 -129.911)" fill="#1d1d1b"/>
    <path id="Path_21" data-name="Path 21" d="M368.42,388.011a2.349,2.349,0,0,1-.167-.723,2.621,2.621,0,0,1-1.952.836,2.421,2.421,0,0,1-1.672-.573,1.873,1.873,0,0,1-.631-1.446,1.944,1.944,0,0,1,.815-1.672,3.859,3.859,0,0,1,2.291-.594h1.141V383.3a1.313,1.313,0,0,0-.368-.982,1.476,1.476,0,0,0-1.083-.364,1.705,1.705,0,0,0-1.053.318.924.924,0,0,0-.418.765h-1.2a1.614,1.614,0,0,1,.364-.991,2.538,2.538,0,0,1,.991-.761,3.37,3.37,0,0,1,1.375-.276,2.7,2.7,0,0,1,1.856.594,2.115,2.115,0,0,1,.7,1.63v3.16a3.783,3.783,0,0,0,.242,1.5v.1Zm-1.948-.895a2.091,2.091,0,0,0,1.045-.284,1.722,1.722,0,0,0,.715-.744V384.68h-.92q-2.153,0-2.153,1.254a1.07,1.07,0,0,0,.368.865,1.421,1.421,0,0,0,.945.318Z" transform="translate(-134.601 -129.895)" fill="#1d1d1b"/>
    <path id="Path_22" data-name="Path 22" d="M382.027,387.265h4.017v.957H380.61v-.865l3.788-5.017h-3.729v-.97h5.2v.836Z" transform="translate(-144.27 -130.105)" fill="#1d1d1b"/>
    <path id="Path_23" data-name="Path 23" d="M396.759,376.055a.7.7,0,0,1,.176-.481.661.661,0,0,1,.514-.2.677.677,0,0,1,.523.2.7.7,0,0,1,.176.481.636.636,0,0,1-.7.669.656.656,0,0,1-.514-.192.673.673,0,0,1-.176-.477Zm1.254,8.687H396.86V377.87h1.171Z" transform="translate(-153.668 -126.618)" fill="#1d1d1b"/>
    <path id="Path_24" data-name="Path 24" d="M403.534,384.544a4.06,4.06,0,0,1,.4-1.814,2.927,2.927,0,0,1,1.1-1.254,3.039,3.039,0,0,1,1.614-.418,2.893,2.893,0,0,1,2.27.97,3.737,3.737,0,0,1,.865,2.579v.084a4.1,4.1,0,0,1-.385,1.8,2.926,2.926,0,0,1-1.1,1.254,3.043,3.043,0,0,1-1.643.443,2.876,2.876,0,0,1-2.258-.97,3.7,3.7,0,0,1-.87-2.567Zm1.183.138a2.96,2.96,0,0,0,.527,1.835,1.7,1.7,0,0,0,1.417.69,1.672,1.672,0,0,0,1.421-.7,3.2,3.2,0,0,0,.527-1.961,2.926,2.926,0,0,0-.535-1.839,1.7,1.7,0,0,0-1.426-.7,1.672,1.672,0,0,0-1.4.694A3.182,3.182,0,0,0,404.717,384.682Z" transform="translate(-157.608 -129.922)" fill="#1d1d1b"/>
    <path id="Path_25" data-name="Path 25" d="M423.116,381.164l.038.861a2.508,2.508,0,0,1,2.053-.987c1.451,0,2.182.815,2.195,2.454v4.536h-1.171v-4.544a1.6,1.6,0,0,0-.343-1.1,1.35,1.35,0,0,0-1.037-.355,1.672,1.672,0,0,0-1,.305,2.048,2.048,0,0,0-.669.8v4.891H422v-6.864Z" transform="translate(-168.357 -129.912)" fill="#1d1d1b"/>
    <path id="Path_26" data-name="Path 26" d="M441.612,388.155a2.993,2.993,0,0,1-2.27-.916,3.4,3.4,0,0,1-.878-2.454v-.213a4.126,4.126,0,0,1,.389-1.823,3.027,3.027,0,0,1,1.091-1.254,2.759,2.759,0,0,1,1.522-.451,2.584,2.584,0,0,1,2.09.878,3.842,3.842,0,0,1,.74,2.529v.485h-4.67a2.442,2.442,0,0,0,.594,1.643,1.865,1.865,0,0,0,1.442.623,2.028,2.028,0,0,0,1.053-.255,2.554,2.554,0,0,0,.753-.673l.719.56A2.88,2.88,0,0,1,441.612,388.155ZM441.466,382a1.559,1.559,0,0,0-1.191.518,2.471,2.471,0,0,0-.6,1.451h3.436v-.092a2.224,2.224,0,0,0-.481-1.384,1.48,1.48,0,0,0-1.179-.493Z" transform="translate(-177.935 -129.913)" fill="#1d1d1b"/>
    <path id="Path_27" data-name="Path 27" d="M143.034,418.6a3.228,3.228,0,0,1-1.02,2.178,3.345,3.345,0,0,1-2.3.757,3.19,3.19,0,0,1-1.777-.5,3.256,3.256,0,0,1-1.191-1.421,5.075,5.075,0,0,1-.418-2.09v-1.2a5.122,5.122,0,0,1,.418-2.132,3.278,3.278,0,0,1,1.212-1.434,3.344,3.344,0,0,1,1.819-.506,3.244,3.244,0,0,1,2.291.782,3.3,3.3,0,0,1,.974,2.161h-.769a2.3,2.3,0,0,0-2.508-2.3,2.379,2.379,0,0,0-1.956.916,4.009,4.009,0,0,0-.723,2.538v1.1a4.021,4.021,0,0,0,.706,2.508,2.287,2.287,0,0,0,1.919.928,2.509,2.509,0,0,0,1.8-.573,2.725,2.725,0,0,0,.748-1.718Z" transform="translate(-2.111 -148.075)" fill="#1d1d1b"/>
    <path id="Path_28" data-name="Path 28" d="M162.97,417.424a5.259,5.259,0,0,1-.418,2.186,3.294,3.294,0,0,1-1.233,1.451,3.344,3.344,0,0,1-1.844.506,3.2,3.2,0,0,1-2.55-1.129,4.5,4.5,0,0,1-.974-3.052v-.928a5.234,5.234,0,0,1,.418-2.186A3.471,3.471,0,0,1,161.3,412.8a3.277,3.277,0,0,1,1.229,1.421,5.042,5.042,0,0,1,.456,2.124Zm-.765-.978a3.98,3.98,0,0,0-.736-2.554,2.65,2.65,0,0,0-4.026,0,4.047,4.047,0,0,0-.744,2.588v.941a3.963,3.963,0,0,0,.744,2.542,2.651,2.651,0,0,0,4.038,0,4.072,4.072,0,0,0,.723-2.579Z" transform="translate(-13.527 -148.104)" fill="#1d1d1b"/>
    <path id="Path_29" data-name="Path 29" d="M178.346,412.6l3.344,7.943,3.344-7.943h1.016v9.022h-.761v-3.93l.059-4.026L182,421.609h-.631l-3.344-7.943.063,3.972v3.955h-.761V412.6Z" transform="translate(-25.972 -148.279)" fill="#1d1d1b"/>
    <path id="Path_30" data-name="Path 30" d="M209.572,412.6v6.158a3.119,3.119,0,0,1-.418,1.584,2.634,2.634,0,0,1-1.12,1.037,3.628,3.628,0,0,1-1.672.364,3.273,3.273,0,0,1-2.283-.778,2.847,2.847,0,0,1-.89-2.153V412.6h.757v6.1a2.354,2.354,0,0,0,.652,1.773,2.429,2.429,0,0,0,1.764.627,2.4,2.4,0,0,0,1.76-.631,2.349,2.349,0,0,0,.648-1.76V412.6Z" transform="translate(-41.02 -148.279)" fill="#1d1d1b"/>
    <path id="Path_31" data-name="Path 31" d="M230.258,421.622h-.765l-5.184-7.721v7.721h-.769V412.6h.769l5.192,7.726V412.6h.757Z" transform="translate(-52.864 -148.279)" fill="#1d1d1b"/>
    <path id="Path_32" data-name="Path 32" d="M250.069,417.295h-4.218v3.679H250.7v.648h-5.61V412.6h5.581v.644h-4.82v3.407h4.218Z" transform="translate(-65.405 -148.279)" fill="#1d1d1b"/>
    <path id="Path_33" data-name="Path 33" d="M269.73,421.621V412.6h2.508a3.913,3.913,0,0,1,1.99.506,3.5,3.5,0,0,1,1.371,1.446,4.528,4.528,0,0,1,.493,2.14v.836a4.557,4.557,0,0,1-.489,2.145,3.478,3.478,0,0,1-1.38,1.442,4.051,4.051,0,0,1-2.04.51Zm.761-8.361v7.73h1.71a2.926,2.926,0,0,0,2.287-.945,3.654,3.654,0,0,0,.861-2.554V416.7a3.574,3.574,0,0,0-.836-2.508,2.885,2.885,0,0,0-2.237-.945Z" transform="translate(-79.744 -148.279)" fill="#1d1d1b"/>
    <path id="Path_34" data-name="Path 34" d="M290.765,421.622H290V412.6h.765Z" transform="translate(-91.54 -148.279)" fill="#1d1d1b"/>
    <path id="Path_35" data-name="Path 35" d="M306.491,420.505l.05.192.059-.192,2.834-7.905h.836l-3.344,9.022h-.732L302.85,412.6h.836Z" transform="translate(-99.018 -148.279)" fill="#1d1d1b"/>
    <path id="Path_36" data-name="Path 36" d="M324.935,421.622h-.765V412.6h.765Z" transform="translate(-111.425 -148.279)" fill="#1d1d1b"/>
    <path id="Path_37" data-name="Path 37" d="M335.671,419.088h-4.08l-.928,2.533h-.8l3.4-9.022h.723l3.416,9.022h-.794Zm-3.859-.648h3.62l-1.81-4.912Z" transform="translate(-114.736 -148.279)" fill="#1d1d1b"/>
    <path id="Path_38" data-name="Path 38" d="M354.4,417.85h-2.621v3.762H351v-9.022h2.926a3.344,3.344,0,0,1,2.257.7,2.671,2.671,0,0,1,.3,3.487,2.584,2.584,0,0,1-1.363.911l2.258,3.842v.084h-.836Zm-2.621-.644h2.337a2.17,2.17,0,0,0,1.543-.548,1.84,1.84,0,0,0,.581-1.413,1.861,1.861,0,0,0-.606-1.484,2.508,2.508,0,0,0-1.706-.527h-2.149Z" transform="translate(-127.039 -148.271)" fill="#1d1d1b"/>
    <path id="Path_39" data-name="Path 39" d="M375.313,417.295H371.1v3.679h4.849v.648H370.33V412.6h5.585v.644H371.1v3.407h4.218Z" transform="translate(-138.288 -148.279)" fill="#1d1d1b"/>
    <path id="Path_40" data-name="Path 40" d="M393.745,420.373a2.563,2.563,0,0,1-1.254.882,5.434,5.434,0,0,1-1.894.314,3.5,3.5,0,0,1-1.881-.506,3.374,3.374,0,0,1-1.279-1.438,4.875,4.875,0,0,1-.456-2.132v-1.137a4.365,4.365,0,0,1,.945-2.964,3.223,3.223,0,0,1,2.55-1.087,3.378,3.378,0,0,1,2.241.711,2.927,2.927,0,0,1,1.008,1.957h-.761a2.354,2.354,0,0,0-.807-1.509,2.6,2.6,0,0,0-1.672-.51,2.45,2.45,0,0,0-1.994.895,3.9,3.9,0,0,0-.736,2.533v1.066a4.44,4.44,0,0,0,.351,1.819,2.73,2.73,0,0,0,1,1.225,2.655,2.655,0,0,0,1.5.418,4.239,4.239,0,0,0,1.693-.309,1.882,1.882,0,0,0,.681-.477v-2.329h-2.425v-.644h3.186Z" transform="translate(-147.973 -148.105)" fill="#1d1d1b"/>
    <path id="Path_41" data-name="Path 41" d="M414.494,420.367a2.6,2.6,0,0,1-1.254.882,5.381,5.381,0,0,1-1.89.314,3.528,3.528,0,0,1-1.885-.506,3.394,3.394,0,0,1-1.275-1.438,4.874,4.874,0,0,1-.46-2.132V416.35a4.364,4.364,0,0,1,.945-2.968,3.211,3.211,0,0,1,2.546-1.087,3.4,3.4,0,0,1,2.245.711,2.926,2.926,0,0,1,1.008,1.956h-.761a2.337,2.337,0,0,0-.811-1.509,2.583,2.583,0,0,0-1.672-.51,2.446,2.446,0,0,0-2,.9,3.9,3.9,0,0,0-.736,2.533v1.066a4.44,4.44,0,0,0,.351,1.818,2.73,2.73,0,0,0,1,1.225,2.646,2.646,0,0,0,1.5.418,4.2,4.2,0,0,0,1.672-.309,1.848,1.848,0,0,0,.681-.477v-2.329h-2.391v-.644h3.186Z" transform="translate(-160.048 -148.1)" fill="#1d1d1b"/>
    <path id="Path_42" data-name="Path 42" d="M430.251,421.622h-.761V412.6h.761Z" transform="translate(-172.715 -148.279)" fill="#1d1d1b"/>
    <path id="Path_43" data-name="Path 43" d="M443.33,417.424a5.259,5.259,0,0,1-.418,2.186,3.311,3.311,0,0,1-1.229,1.451,3.378,3.378,0,0,1-1.848.506,3.2,3.2,0,0,1-2.55-1.129,4.5,4.5,0,0,1-.974-3.052v-.928a5.168,5.168,0,0,1,.418-2.186A3.252,3.252,0,0,1,439.8,412.3a3.382,3.382,0,0,1,1.839.5,3.344,3.344,0,0,1,1.229,1.421,5.1,5.1,0,0,1,.452,2.124Zm-.761-.978a3.98,3.98,0,0,0-.74-2.554,2.646,2.646,0,0,0-4.022,0,4.026,4.026,0,0,0-.748,2.588v.941a3.988,3.988,0,0,0,.744,2.542,2.441,2.441,0,0,0,2.019.941,2.412,2.412,0,0,0,2.019-.928,4.072,4.072,0,0,0,.727-2.579Z" transform="translate(-176.681 -148.103)" fill="#1d1d1b"/>
  </g>
</svg>
