<svg xmlns="http://www.w3.org/2000/svg" width="375" height="158.702" viewBox="0 0 375 158.702">
  <g id="Group_153" data-name="Group 153" transform="translate(-895.619 -226.455)">
    <line id="Line_1" data-name="Line 1" x2="375" transform="translate(895.619 384.157)" fill="none" stroke="#006726" stroke-width="2"/>
    <g id="Group_5" data-name="Group 5" transform="translate(926.957 283.724)">
      <g id="Group_1" data-name="Group 1" transform="translate(8.92)">
        <path id="Path_44" data-name="Path 44" d="M939.239,315.015q2.214-9.469-.538-10-4.57-1.009-7.587,15.176H927.89q1.877-21.957,15.78-20.951A12.324,12.324,0,0,1,953,303.8q3.423,4.231,1.41,13.428L946.96,350q-2.15,9.469.535,10,4.568.941,7.589-15.176h3.224q-1.811,21.957-15.78,20.951a12.629,12.629,0,0,1-9.335-4.567q-3.559-4.433-1.411-13.429,3.226-13.832,4.971-22.026Z" transform="translate(-927.89 -265.721)" fill="#22160f"/>
        <path id="Path_45" data-name="Path 45" d="M958.5,282.775a9.927,9.927,0,0,1-3.089,7.253,10.217,10.217,0,0,1-14.639,0,10.138,10.138,0,0,1,0-14.572,9.365,9.365,0,0,1,7.32-3.089A10.549,10.549,0,0,1,958.5,282.775Z" transform="translate(-925.466 -272.362)" fill="#22160f"/>
      </g>
      <g id="Group_4" data-name="Group 4" transform="translate(0 53.247)">
        <path id="Path_46" data-name="Path 46" d="M933.98,331.185a.517.517,0,0,1-.516-.518v-12.4c0-1.129-1.546-2.082-3.376-2.082s-3.376.953-3.376,2.082v12.4a.516.516,0,1,1-1.033,0v-12.4c0-1.718,1.979-3.115,4.409-3.115s4.409,1.4,4.409,3.115v12.4A.518.518,0,0,1,933.98,331.185Z" transform="translate(-919.517 -315.017)" fill="#2a2c36"/>
        <rect id="Rectangle_3" data-name="Rectangle 3" width="5.957" height="2.252" rx="0.903" transform="translate(7.592)" fill="#2a2c36"/>
        <g id="Group_2" data-name="Group 2" transform="translate(1.346 43.059)">
          <circle id="Ellipse_3" data-name="Ellipse 3" cx="2.304" cy="2.304" r="2.304" fill="#2a2c36"/>
          <circle id="Ellipse_4" data-name="Ellipse 4" cx="2.304" cy="2.304" r="2.304" transform="translate(13.841)" fill="#2a2c36"/>
        </g>
        <rect id="Rectangle_4" data-name="Rectangle 4" width="21.141" height="28.379" rx="3.312" transform="translate(0 15.15)" fill="#ae0018"/>
        <rect id="Rectangle_5" data-name="Rectangle 5" width="1.394" height="21.47" rx="0.559" transform="translate(9.874 18.605)" fill="#fff9ec" opacity="0.2"/>
        <g id="Group_3" data-name="Group 3" transform="translate(5.778 18.605)" opacity="0.2">
          <rect id="Rectangle_6" data-name="Rectangle 6" width="1.394" height="21.47" rx="0.559" fill="#fff9ec"/>
          <rect id="Rectangle_7" data-name="Rectangle 7" width="1.394" height="21.47" rx="0.559" transform="translate(8.192)" fill="#fff9ec"/>
        </g>
      </g>
    </g>
    <g id="Group_12" data-name="Group 12" transform="translate(1183.752 283.779)">
      <g id="Group_6" data-name="Group 6" transform="translate(18.688)">
        <path id="Path_47" data-name="Path 47" d="M1152.911,315.036q2.212-9.463-.538-10-4.568-1.009-7.583,15.167h-3.222q1.877-21.944,15.771-20.939a12.318,12.318,0,0,1,9.33,4.566q3.422,4.227,1.41,13.421L1160.629,350q-2.148,9.463.535,10,4.564.941,7.583-15.167h3.222q-1.81,21.946-15.771,20.939a12.625,12.625,0,0,1-9.33-4.565q-3.555-4.429-1.41-13.422,3.224-13.825,4.969-22.013Z" transform="translate(-1141.568 -265.769)" fill="#9d774f"/>
        <path id="Path_48" data-name="Path 48" d="M1172.165,282.814a9.924,9.924,0,0,1-3.088,7.249,10.213,10.213,0,0,1-14.631,0,10.134,10.134,0,0,1,0-14.565,9.363,9.363,0,0,1,7.315-3.088,10.545,10.545,0,0,1,10.4,10.4Z" transform="translate(-1139.145 -272.406)" fill="#9d774f"/>
      </g>
      <g id="Group_11" data-name="Group 11" transform="translate(0 53.205)">
        <path id="Rectangle_8" data-name="Rectangle 8" d="M1.233,0H40.276a1.232,1.232,0,0,1,1.232,1.232V29a1.232,1.232,0,0,1-1.232,1.232H1.233A1.233,1.233,0,0,1,0,29V1.233A1.233,1.233,0,0,1,1.233,0Z" transform="translate(0 2.783)" fill="#4f3523"/>
        <g id="Group_7" data-name="Group 7" transform="translate(12.87)">
          <path id="Path_49" data-name="Path 49" d="M1136.9,317.117h2.873l1.513-2.041.491.364-1.416,1.911v.479H1136.9v-.714Zm15.768,0H1149.8l-1.513-2.041-.491.364,1.416,1.911v.479h3.46Z" transform="translate(-1136.904 -315.05)" fill="#86583d" fill-rule="evenodd"/>
          <rect id="Rectangle_9" data-name="Rectangle 9" width="7.201" height="1.239" transform="translate(4.284)" fill="#412b1e"/>
        </g>
        <g id="Group_10" data-name="Group 10" transform="translate(2.391 2.783)">
          <g id="Group_8" data-name="Group 8">
            <rect id="Rectangle_10" data-name="Rectangle 10" width="2.306" height="30.235" fill="#6d4b35"/>
          </g>
          <g id="Group_9" data-name="Group 9" transform="translate(7.003)">
            <rect id="Rectangle_11" data-name="Rectangle 11" width="2.306" height="30.235" fill="#6d4b35"/>
          </g>
        </g>
        <rect id="Rectangle_12" data-name="Rectangle 12" width="2.306" height="30.235" transform="translate(29.808 2.783)" fill="#6d4b35"/>
        <rect id="Rectangle_13" data-name="Rectangle 13" width="2.306" height="30.235" transform="translate(36.811 2.783)" fill="#6d4b35"/>
        <rect id="Rectangle_14" data-name="Rectangle 14" width="3.28" height="4.286" transform="translate(23.513 26.848) rotate(-23.825)" fill="#6ea7cf"/>
        <rect id="Rectangle_15" data-name="Rectangle 15" width="6.918" height="5.295" transform="translate(16.663 13.036) rotate(-57.523)" fill="#b8632f"/>
        <rect id="Rectangle_16" data-name="Rectangle 16" width="9.331" height="7.143" transform="matrix(0.525, -0.851, 0.851, 0.525, 14.132, 25.543)" fill="#c83b2c"/>
      </g>
    </g>
    <g id="Group_16" data-name="Group 16" transform="translate(977.787 283.724)">
      <g id="Group_13" data-name="Group 13" transform="translate(22.714)">
        <path id="Path_50" data-name="Path 50" d="M991.036,315q2.214-9.463-.538-10-4.568-1.009-7.583,15.17h-3.222q1.877-21.948,15.772-20.942a12.319,12.319,0,0,1,9.331,4.566q3.423,4.227,1.41,13.422l-7.45,32.757q-2.15,9.465.535,10,4.564.941,7.583-15.168h3.222q-1.809,21.948-15.772,20.941a12.623,12.623,0,0,1-9.331-4.565q-3.557-4.431-1.41-13.423,3.224-13.827,4.969-22.016Z" transform="translate(-979.693 -265.724)" fill="#f8d997"/>
        <path id="Path_51" data-name="Path 51" d="M1010.292,282.77a9.922,9.922,0,0,1-3.088,7.25,10.211,10.211,0,0,1-14.632,0,10.133,10.133,0,0,1,0-14.566,9.36,9.36,0,0,1,7.317-3.088,10.545,10.545,0,0,1,10.4,10.4Z" transform="translate(-977.269 -272.362)" fill="#f8d997"/>
      </g>
      <g id="Group_15" data-name="Group 15" transform="translate(0 53.815)">
        <g id="Group_14" data-name="Group 14" transform="translate(13.071 0.321)">
          <path id="Path_52" data-name="Path 52" d="M974.035,320.461l1.666.824v-1.363l4.527-3.495h5.122l6.212,3.563v1.272l1.664-.829-.9-.833-6.268-3.843h-5.939Z" transform="translate(-971.45 -315.757)" fill="#161615"/>
          <path id="Path_53" data-name="Path 53" d="M974.648,345.6a25.92,25.92,0,0,1-1.594-4.813c-2.68-10.115.271-17.346,1.495-21.262l1.667.823c-1.3,3.491-4.6,10.084-2.492,20.158a26.617,26.617,0,0,0,1.647,5.094Z" transform="translate(-971.963 -314.824)" fill="#161615"/>
          <path id="Path_54" data-name="Path 54" d="M989.7,345.581a25.9,25.9,0,0,0,1.584-4.818c2.64-10.046-.221-17.082-1.536-21.257l-1.665.828c1.037,2.762,4.686,9.774,2.532,20.151a26.622,26.622,0,0,1-1.638,5.1Z" transform="translate(-967.973 -314.829)" fill="#161615"/>
        </g>
        <path id="Path_55" data-name="Path 55" d="M1004.861,323.848a1.918,1.918,0,0,0-.528-.218l-.006,0c-.064-.015-.127-.029-.191-.037a1.538,1.538,0,0,0-.215-.015H964.707V344.58c10.346.183,39.118.263,39.516.16a3.6,3.6,0,0,0,2.213-2.066C1009.307,337.2,1008.17,325.827,1004.861,323.848Z" transform="translate(-960.688 -313.501)" fill="#c2ad8d"/>
        <path id="Path_56" data-name="Path 56" d="M969,341.829h-1.023a.865.865,0,0,1-.865-.866h0a.865.865,0,0,1,.865-.866H969a.865.865,0,0,1,.866.866h0A.865.865,0,0,1,969,341.829Z" transform="translate(-960.091 -309.412)" fill="#161615"/>
        <path id="Path_57" data-name="Path 57" d="M993.912,341.829h-1.023a.865.865,0,0,1-.866-.866h0a.865.865,0,0,1,.866-.866h1.023a.865.865,0,0,1,.865.866h0A.865.865,0,0,1,993.912,341.829Z" transform="translate(-953.927 -309.412)" fill="#161615"/>
        <path id="Path_58" data-name="Path 58" d="M971.95,320.253l2.117.832v-1.377l5.752-3.531h6.509l7.894,3.6v1.286l2.115-.838-1.143-.842-7.966-3.883h-7.547Z" transform="translate(-958.895 -315.5)" fill="#161615"/>
        <path id="Path_59" data-name="Path 59" d="M991.858,345.635a22.736,22.736,0,0,0,2.012-4.869c3.427-10.37-.454-17.7-1.952-21.478l-2.115.837c1.324,2.8,5.953,9.878,3.219,20.36a23.3,23.3,0,0,1-2.082,5.152Z" transform="translate(-954.476 -314.563)" fill="#161615"/>
        <path id="Rectangle_17" data-name="Rectangle 17" d="M0,0H24.152a0,0,0,0,1,0,0V6.674a3.716,3.716,0,0,1-3.716,3.716H3.716A3.716,3.716,0,0,1,0,6.674V0A0,0,0,0,1,0,0Z" transform="translate(13.125 18.44)" fill="#947667"/>
        <ellipse id="Ellipse_5" data-name="Ellipse 5" cx="10.346" cy="2.92" rx="10.346" ry="2.92" transform="translate(8.195 10.855)" fill="#a1a5d4" opacity="0.18" style="mix-blend-mode: screen;isolation: isolate"/>
        <path id="Path_60" data-name="Path 60" d="M972.729,345.657a22.713,22.713,0,0,1-2.026-4.864c-3.356-10.071.188-17.132,1.9-21.483l2.117.832c-1.317,2.808-5.929,9.893-3.167,20.369a23.277,23.277,0,0,0,2.093,5.146Z" transform="translate(-959.548 -314.557)" fill="#161615"/>
        <ellipse id="Ellipse_6" data-name="Ellipse 6" cx="4.019" cy="10.502" rx="4.019" ry="10.502" transform="translate(0 10.073)" fill="#947667"/>
        <path id="Path_61" data-name="Path 61" d="M971.786,329.9H996.5c.17,0,.307.215.307.479h0c0,.266-.137.479-.307.479h-24.71c-.17,0-.307-.213-.307-.479h0C971.479,330.112,971.616,329.9,971.786,329.9Z" transform="translate(-959.012 -311.937)" fill="#161615"/>
      </g>
    </g>
    <g id="Group_35" data-name="Group 35" transform="translate(1063.479 283.724)">
      <g id="Group_17" data-name="Group 17">
        <path id="Path_62" data-name="Path 62" d="M1041.52,315q2.214-9.463-.536-10-4.568-1.009-7.585,15.17h-3.222q1.877-21.948,15.772-20.942a12.319,12.319,0,0,1,9.331,4.566q3.423,4.227,1.41,13.422l-7.45,32.757q-2.15,9.465.535,10,4.564.941,7.585-15.168h3.221q-1.809,21.948-15.772,20.941a12.623,12.623,0,0,1-9.331-4.565q-3.557-4.431-1.41-13.423,3.224-13.827,4.969-22.016Z" transform="translate(-1030.176 -265.724)" fill="#e4bd94"/>
        <path id="Path_63" data-name="Path 63" d="M1060.775,282.77a9.922,9.922,0,0,1-3.087,7.25,10.211,10.211,0,0,1-14.632,0,10.133,10.133,0,0,1,0-14.566,9.361,9.361,0,0,1,7.317-3.088,10.545,10.545,0,0,1,10.4,10.4Z" transform="translate(-1027.753 -272.362)" fill="#e4bd94"/>
      </g>
      <path id="Path_64" data-name="Path 64" d="M1053.18,331.884c.16,0,.323-.006.49-.012.086,0,.17-.006.258-.011.219-.014.447-.031.678-.055l.276-.032q.3-.036.611-.085a14.536,14.536,0,0,0,6.4-2.666s-3.6-18.8-2.771-31.376c0,0-7.369-8.947-15.613-1.312h0s-1.818,21.972,6.512,35.249c0,0,.209.054.578.115l.053.009c.112.019.239.036.378.055l.126.015c.122.016.253.03.394.042l.156.015c.147.012.3.022.468.031l.212.009c.185.008.377.013.579.014C1053.036,331.887,1053.109,331.885,1053.18,331.884Z" transform="translate(-1026.917 -267.192)" fill="#ae0018"/>
      <g id="Group_18" data-name="Group 18" transform="translate(8.373 31.797)">
        <path id="Path_65" data-name="Path 65" d="M1046.4,298.107a13.68,13.68,0,0,1,3.287,2.743c-8.529-3.175-12.8.249-12.8.249a7.844,7.844,0,0,1,1.942-1.771A9.929,9.929,0,0,1,1046.4,298.107Z" transform="translate(-1036.888 -297.85)" fill="#17193d"/>
      </g>
      <g id="Group_19" data-name="Group 19" transform="translate(24.094 63.442)">
        <path id="Path_66" data-name="Path 66" d="M1050.588,323.217s-.4,7.7,2.715,10.354l-1.366.929s-3.015-4.049-2.35-11.284Z" transform="translate(-1049.49 -323.217)" fill="#12132a"/>
      </g>
      <g id="Group_20" data-name="Group 20" transform="translate(29.153 62.166)">
        <path id="Path_67" data-name="Path 67" d="M1054.945,322.194s2.381,4.595,0,9.042l-1.4-1.128a11.071,11.071,0,0,0,.281-7.567Z" transform="translate(-1053.545 -322.194)" fill="#12132a"/>
      </g>
      <g id="Group_21" data-name="Group 21" transform="translate(31.74 43.094)">
        <path id="Path_68" data-name="Path 68" d="M1056.346,306.906s6.166,5.948,1.529,12.874A16.11,16.11,0,0,1,1056.346,306.906Z" transform="translate(-1055.619 -306.906)" fill="#12132a"/>
      </g>
      <g id="Group_22" data-name="Group 22" transform="translate(30.702 32.979)">
        <path id="Path_69" data-name="Path 69" d="M1056.186,298.8s3.08,2.857.173,7.355C1056.359,306.153,1052.94,303.425,1056.186,298.8Z" transform="translate(-1054.786 -298.798)" fill="#12132a"/>
      </g>
      <g id="Group_23" data-name="Group 23" transform="translate(16.425 31.195)">
        <path id="Path_70" data-name="Path 70" d="M1043.344,299.758c0-.288-.006-.712,0-1.025.012-.553.044-.989.057-1.365,5.041,3.267,11.947,4.764,15.626,5.365.04,1.643.126,3.32.242,4.989A41.714,41.714,0,0,1,1043.344,299.758Z" transform="translate(-1043.342 -297.368)" fill="#17193d"/>
      </g>
      <g id="Group_24" data-name="Group 24" transform="translate(17.003 44.707)">
        <path id="Path_71" data-name="Path 71" d="M1060.092,313.906c.121.966.243,1.9.367,2.784-3.131.358-9.5.155-16.2-5.273-.177-1.088-.329-2.164-.453-3.219C1046.891,309.863,1054.685,313.728,1060.092,313.906Z" transform="translate(-1043.806 -308.199)" fill="#17193d"/>
      </g>
      <g id="Group_25" data-name="Group 25" transform="translate(19.501 56.467)">
        <path id="Path_72" data-name="Path 72" d="M1058.733,321.346a4.914,4.914,0,0,1,1.768-2.949c.445,2.818.785,4.592.785,4.592a15.114,15.114,0,0,1-11.871,2.561,35.855,35.855,0,0,1-3.606-7.924C1051.56,321.862,1058.733,321.346,1058.733,321.346Z" transform="translate(-1045.808 -317.626)" fill="#17193d"/>
      </g>
      <g id="Group_28" data-name="Group 28" transform="translate(21.038 33.6)">
        <g id="Group_26" data-name="Group 26">
          <path id="Path_73" data-name="Path 73" d="M1054.224,299.718s-4.3-1.366-7.184.815c0,0,.546,4.174,1.672,5.766a6.374,6.374,0,0,0,4.815-.545A16.532,16.532,0,0,0,1054.224,299.718Z" transform="translate(-1047.04 -299.295)" fill="#1f2258"/>
        </g>
        <g id="Group_27" data-name="Group 27" transform="translate(0.014 1.341)">
          <path id="Path_74" data-name="Path 74" d="M1052.732,301.1a2.9,2.9,0,0,1-2.089,1.551s.732,3.221,2.882,2.833a6.373,6.373,0,0,1-4.815.545c-1.027-1.451-1.57-5.039-1.658-5.662C1047.2,300.535,1049.906,303.443,1052.732,301.1Z" transform="translate(-1047.051 -300.37)" fill="#181b43"/>
        </g>
      </g>
      <g id="Group_31" data-name="Group 31" transform="translate(21.941 44.25)">
        <g id="Group_29" data-name="Group 29">
          <path id="Path_75" data-name="Path 75" d="M1054.948,308.256s-4.3-1.367-7.184.815c0,0,.545,4.174,1.672,5.766a6.368,6.368,0,0,0,4.814-.546A16.514,16.514,0,0,0,1054.948,308.256Z" transform="translate(-1047.764 -307.833)" fill="#1f2258"/>
        </g>
        <g id="Group_30" data-name="Group 30" transform="translate(0.014 1.34)">
          <path id="Path_76" data-name="Path 76" d="M1053.456,309.642a2.9,2.9,0,0,1-2.088,1.551s.731,3.22,2.879,2.832a6.368,6.368,0,0,1-4.814.546c-1.027-1.452-1.569-5.04-1.658-5.664C1047.925,309.073,1050.63,311.981,1053.456,309.642Z" transform="translate(-1047.775 -308.907)" fill="#181b43"/>
        </g>
      </g>
      <g id="Group_34" data-name="Group 34" transform="translate(23.238 54.769)">
        <g id="Group_32" data-name="Group 32">
          <path id="Path_77" data-name="Path 77" d="M1055.845,316.406s-4.431-.857-7.041,1.645c0,0,1.027,4.082,2.33,5.533a6.375,6.375,0,0,0,4.719-1.1A16.534,16.534,0,0,0,1055.845,316.406Z" transform="translate(-1048.804 -316.264)" fill="#1f2258"/>
        </g>
        <g id="Group_33" data-name="Group 33" transform="translate(0.026 1.887)">
          <path id="Path_78" data-name="Path 78" d="M1054.552,317.846a2.9,2.9,0,0,1-1.9,1.783s1.1,3.115,3.191,2.48a6.375,6.375,0,0,1-4.719,1.1c-1.188-1.324-2.144-4.824-2.3-5.433C1048.992,317.924,1052.019,320.5,1054.552,317.846Z" transform="translate(-1048.825 -317.777)" fill="#181b43"/>
        </g>
      </g>
      <path id="Path_79" data-name="Path 79" d="M1055.719,298.3a15.47,15.47,0,0,0,3.372-.655s-3.542-4.3-8.462-4.39h-.009c-.251-.005-.505,0-.762.022-.044,0-.089.007-.132.011-.225.019-.452.049-.681.087-.051.009-.1.016-.155.026q-.376.071-.759.177c-.022.007-.045.011-.067.017-.287.084-.575.182-.866.3-.024.01-.047.022-.071.031-.251.1-.505.221-.761.352-.082.041-.165.089-.248.135q-.3.163-.606.354c-.095.06-.191.121-.287.185-.2.136-.406.282-.609.435-.089.067-.177.131-.267.2-.289.23-.579.473-.871.743.6.25,1.193.467,1.773.664.2.066.385.118.58.18.379.12.757.237,1.125.336.221.06.434.109.65.161.332.08.66.157.981.222.217.044.428.082.64.12q.466.082.917.146c.2.027.4.054.589.076.306.035.6.064.893.086.17.014.34.029.506.039.319.019.625.027.926.034.121,0,.246.009.363.009a22.675,22.675,0,0,0,2.3-.1Z" transform="translate(-1026.884 -267.191)" fill="#fff9ec" opacity="0.2"/>
    </g>
    <g id="Group_38" data-name="Group 38" transform="translate(1125.798 283.724)">
      <g id="Group_36" data-name="Group 36" transform="translate(8.309)">
        <path id="Path_80" data-name="Path 80" d="M1098.135,315q2.215-9.465-.538-10-4.566-1.009-7.583,15.17h-3.222q1.877-21.948,15.772-20.942a12.324,12.324,0,0,1,9.331,4.565q3.424,4.229,1.41,13.424l-7.45,32.756q-2.15,9.465.535,10,4.564.941,7.584-15.168h3.222q-1.809,21.946-15.772,20.941a12.623,12.623,0,0,1-9.331-4.565q-3.555-4.429-1.41-13.423,3.226-13.827,4.969-22.016Z" transform="translate(-1086.792 -265.724)" fill="#a25336"/>
        <path id="Path_81" data-name="Path 81" d="M1117.392,282.77a9.924,9.924,0,0,1-3.089,7.25,10.21,10.21,0,0,1-14.631,0,10.133,10.133,0,0,1,0-14.566,9.355,9.355,0,0,1,7.315-3.088,10.547,10.547,0,0,1,10.4,10.4" transform="translate(-1084.368 -272.362)" fill="#a25336"/>
      </g>
      <g id="Group_37" data-name="Group 37" transform="translate(0 54.213)">
        <rect id="Rectangle_18" data-name="Rectangle 18" width="8.567" height="15.243" transform="translate(15.805 15.243)" fill="#89482e"/>
        <rect id="Rectangle_19" data-name="Rectangle 19" width="15.804" height="15.243" transform="translate(0 15.244)" fill="#ab6143"/>
        <rect id="Rectangle_20" data-name="Rectangle 20" width="2.603" height="4.403" transform="translate(18.788 15.244)" fill="#e8e8e8"/>
        <rect id="Rectangle_21" data-name="Rectangle 21" width="5.83" height="0.724" transform="translate(8.835 25.737)" fill="#5d3314"/>
        <rect id="Rectangle_22" data-name="Rectangle 22" width="3.947" height="0.722" transform="translate(10.718 27.11)" fill="#5d3314"/>
        <path id="Path_82" data-name="Path 82" d="M1092.471,339.811h-1.4a.179.179,0,0,1-.18-.18v-1.119a.179.179,0,0,1,.18-.178h1.4a.178.178,0,0,1,.178.178v1.119A.179.179,0,0,1,1092.471,339.811Zm-1.219-.359h1.039v-.76h-1.039Zm-.928.359h-1.4a.179.179,0,0,1-.18-.18v-1.119a.179.179,0,0,1,.18-.178h1.4a.178.178,0,0,1,.178.178v1.119A.179.179,0,0,1,1090.323,339.811Zm-1.218-.359h1.038v-.76h-1.038Z" transform="translate(-1077.998 -310.247)" fill="#5d3314"/>
        <rect id="Rectangle_23" data-name="Rectangle 23" width="8.567" height="15.243" transform="translate(15.805 0.001)" fill="#b36f52"/>
        <rect id="Rectangle_24" data-name="Rectangle 24" width="15.804" height="15.243" transform="translate(0 0.001)" fill="#c58f75"/>
        <rect id="Rectangle_25" data-name="Rectangle 25" width="2.603" height="4.404" transform="translate(18.788)" fill="#e8e8e8"/>
        <rect id="Rectangle_26" data-name="Rectangle 26" width="5.83" height="0.722" transform="translate(8.835 10.494)" fill="#5d3314"/>
        <rect id="Rectangle_27" data-name="Rectangle 27" width="3.947" height="0.722" transform="translate(10.718 11.869)" fill="#5d3314"/>
        <path id="Path_83" data-name="Path 83" d="M1092.471,327.593h-1.4a.179.179,0,0,1-.18-.178V326.3a.179.179,0,0,1,.18-.18h1.4a.179.179,0,0,1,.178.18v1.118A.178.178,0,0,1,1092.471,327.593Zm-1.219-.358h1.039v-.76h-1.039Zm-.928.358h-1.4a.179.179,0,0,1-.18-.178V326.3a.179.179,0,0,1,.18-.18h1.4a.179.179,0,0,1,.178.18v1.118A.178.178,0,0,1,1090.323,327.593Zm-1.218-.358h1.038v-.76h-1.038Z" transform="translate(-1077.998 -313.271)" fill="#5d3314"/>
        <rect id="Rectangle_28" data-name="Rectangle 28" width="8.567" height="15.243" transform="translate(15.804 30.487)" fill="#b36f52"/>
        <rect id="Rectangle_29" data-name="Rectangle 29" width="15.804" height="15.243" transform="translate(0 30.487)" fill="#c58f75"/>
        <rect id="Rectangle_30" data-name="Rectangle 30" width="2.603" height="4.403" transform="translate(18.788 30.487)" fill="#e8e8e8"/>
        <rect id="Rectangle_31" data-name="Rectangle 31" width="5.83" height="0.722" transform="translate(8.835 40.98)" fill="#5d3314"/>
        <rect id="Rectangle_32" data-name="Rectangle 32" width="3.947" height="0.722" transform="translate(10.718 42.352)" fill="#5d3314"/>
        <path id="Path_84" data-name="Path 84" d="M1092.471,352.03h-1.4a.179.179,0,0,1-.18-.18v-1.118a.179.179,0,0,1,.18-.18h1.4a.179.179,0,0,1,.178.18v1.118A.179.179,0,0,1,1092.471,352.03Zm-1.219-.358h1.039v-.761h-1.039Zm-.928.358h-1.4a.179.179,0,0,1-.18-.18v-1.118a.179.179,0,0,1,.18-.18h1.4a.179.179,0,0,1,.178.18v1.118A.179.179,0,0,1,1090.323,352.03Zm-1.218-.358h1.038v-.761h-1.038Z" transform="translate(-1077.998 -307.223)" fill="#5d3314"/>
      </g>
    </g>
    <g id="Group_50" data-name="Group 50" transform="translate(932.918 226.455)">
      <g id="Group_40" data-name="Group 40" transform="translate(8.414 6.305)">
        <g id="Group_39" data-name="Group 39">
          <path id="Path_85" data-name="Path 85" d="M955.2,231.683a4.915,4.915,0,0,0-1.534,9.582,5.8,5.8,0,0,0-3.766,3.207,4.9,4.9,0,0,0-8.005,2.8,5.793,5.793,0,0,0-2.135-1.088,4.933,4.933,0,1,0-3.04-.015,5.791,5.791,0,0,0-4.281,5.594v8.479h24.994v-.892h-4.91v-.893a5.79,5.79,0,0,0-4.281-5.593,4.922,4.922,0,0,0,3.39-4.672,4.854,4.854,0,0,0-1.047-3,4.907,4.907,0,0,1,9.526,1.659v13.389H961V246.858a5.791,5.791,0,0,0-4.283-5.593,4.912,4.912,0,0,0-1.519-9.582Zm0,.893a4.017,4.017,0,1,1-4.017,4.017A4.01,4.01,0,0,1,955.2,232.576Zm-16.96,4.909a4.017,4.017,0,1,1-4.017,4.017A4.011,4.011,0,0,1,938.24,237.485Zm8.479,6.7A4.016,4.016,0,1,1,942.7,248.2,4.01,4.01,0,0,1,946.719,244.18Zm-8.479,2.677a4.871,4.871,0,0,1,3.584,1.548,4.917,4.917,0,0,0,3.376,4.464,5.791,5.791,0,0,0-4.283,5.593v.893H933.33v-7.587A4.889,4.889,0,0,1,938.24,246.858Zm8.479,6.7a4.889,4.889,0,0,1,4.91,4.909v.893H941.81v-.893A4.889,4.889,0,0,1,946.719,253.553Z" transform="translate(-932.22 -231.466)" fill="#006726"/>
          <path id="Path_86" data-name="Path 86" d="M961.264,260.508h-1.33V246.9a4.689,4.689,0,0,0-9.06-1.7,5.05,5.05,0,0,1,1.017,3.036,5.116,5.116,0,0,1-2.963,4.652,6.026,6.026,0,0,1,3.856,5.613v.674h4.909v1.33H932.263v-8.7a6.023,6.023,0,0,1,3.856-5.611,5.112,5.112,0,1,1,4.33.014,5.928,5.928,0,0,1,1.35.729,5.115,5.115,0,0,1,8.066-2.768,5.98,5.98,0,0,1,3.2-2.884,5.132,5.132,0,1,1,4.341,0,6.025,6.025,0,0,1,3.856,5.612Zm-.893-.437h.457V246.9a5.584,5.584,0,0,0-4.122-5.383l-.706-.191.7-.227a4.685,4.685,0,1,0-2.918,0l.691.228-.7.19a5.554,5.554,0,0,0-3.624,3.088l-.12.264-.221-.19a4.679,4.679,0,0,0-7.651,2.68l-.069.357-.283-.23a5.555,5.555,0,0,0-2.052-1.047l-.71-.191.7-.226a4.714,4.714,0,1,0-2.906-.014l.695.226-.706.192a5.583,5.583,0,0,0-4.122,5.38v8.262h24.558v-.457h-4.91V258.5a5.582,5.582,0,0,0-4.12-5.382l-.709-.191.7-.227a4.67,4.67,0,0,0,2.241-7.33l-.075-.094.04-.114a5.126,5.126,0,0,1,9.95,1.734Zm-8.481-.457H941.635V258.5a5.127,5.127,0,1,1,10.254,0Zm-9.818-.437h9.381V258.5a4.691,4.691,0,0,0-9.381,0Zm-.893.437h-8.023V251.81a5.132,5.132,0,0,1,5.127-5.126,5.064,5.064,0,0,1,3.744,1.617l.055.059,0,.08a4.708,4.708,0,0,0,3.226,4.266l.7.227-.707.191a5.583,5.583,0,0,0-4.122,5.382Zm-7.587-.437h7.152V258.5a6.024,6.024,0,0,1,3.856-5.613,5.161,5.161,0,0,1-2.947-4.353,4.638,4.638,0,0,0-3.37-1.421,4.7,4.7,0,0,0-4.692,4.691Zm13.171-6.7A4.235,4.235,0,1,1,951,248.24,4.239,4.239,0,0,1,946.763,252.474Zm0-8.034a3.8,3.8,0,1,0,3.8,3.8A3.8,3.8,0,0,0,946.763,244.441Zm-8.479,1.34a4.235,4.235,0,1,1,4.234-4.235A4.24,4.24,0,0,1,938.283,245.78Zm0-8.034a3.8,3.8,0,1,0,3.8,3.8A3.8,3.8,0,0,0,938.283,237.746Zm16.96,3.125a4.235,4.235,0,1,1,4.234-4.237A4.241,4.241,0,0,1,955.243,240.871Zm0-8.035a3.8,3.8,0,1,0,3.8,3.8A3.8,3.8,0,0,0,955.243,232.836Z" transform="translate(-932.263 -231.509)" fill="#006726"/>
        </g>
      </g>
      <path id="Path_87" data-name="Path 87" d="M1102.636,277.786c-.544,0-1.052-.855-3.262-5.327-.236-.475-.449-.906-.62-1.245l-.086-.148a22.9,22.9,0,1,1,7.261,1.18c-.3,0-.6-.006-.892-.016-.825.851-2.043,2.6-1.723,4.218.069.349.213,1.073-.4,1.282A.891.891,0,0,1,1102.636,277.786Zm3.293-50.083a21.649,21.649,0,0,0-6.649,42.252l.228.075.342.593c.189.372.4.806.641,1.285.4.811,1.05,2.126,1.6,3.167a7.846,7.846,0,0,1,2.272-3.935l.193-.183.266.015c.367.017.735.027,1.1.027a21.648,21.648,0,1,0,0-43.3Z" transform="translate(-886.533 -226.455)" fill="#006726"/>
      <path id="Path_88" data-name="Path 88" d="M955.685,278.784c-.5,0-1.377-.808-4.512-6.7a23.247,23.247,0,0,1-2.757.165,22.9,22.9,0,1,1,11.19-2.923c-1.335,2.007-3.633,6.123-3.24,8.1.059.294.213,1.077-.422,1.3A.76.76,0,0,1,955.685,278.784Zm-3.852-8.056.341.583c.983,1.849,2.138,3.881,2.934,5.125.319-3.06,3.174-7.375,3.543-7.92l.255-.225A21.65,21.65,0,1,0,948.416,271a22.027,22.027,0,0,0,2.814-.181Z" transform="translate(-925.518 -226.455)" fill="#006726"/>
      <path id="Path_89" data-name="Path 89" d="M1161.079,278.786c-.511,0-1.371-.823-4.5-6.7a23.269,23.269,0,0,1-2.758.165,22.9,22.9,0,1,1,11.193-2.923c-1.337,2.007-3.634,6.124-3.242,8.1.059.294.215,1.077-.42,1.3A.78.78,0,0,1,1161.079,278.786Zm-3.841-8.059.342.583c.98,1.848,2.136,3.88,2.932,5.125.321-3.061,3.175-7.375,3.544-7.92l.255-.225A21.65,21.65,0,1,0,1153.82,271a22.062,22.062,0,0,0,2.816-.181Z" transform="translate(-874.68 -226.455)" fill="#006726"/>
      <path id="Path_90" data-name="Path 90" d="M1004.476,277.337a.54.54,0,0,1-.379-.153c-.142-.113-.437-.45-.11-1.078.679-1.3,1.372-2.891,1.789-3.885a22.908,22.908,0,1,1,10.015-3.093C1007.308,276.17,1005.206,277.337,1004.476,277.337Zm2.268-6.456a.624.624,0,0,1,.58.853c-.036.092-.745,1.872-1.588,3.654,1.981-1.347,5.83-4.372,9.3-7.253a.6.6,0,0,1,.084-.059,21.664,21.664,0,1,0-8.444,2.807Z" transform="translate(-911.714 -226.455)" fill="#006726"/>
      <path id="Path_91" data-name="Path 91" d="M1048.439,277.337c-.73,0-2.831-1.165-11.316-8.209a22.908,22.908,0,1,1,10.016,3.093c.417.994,1.109,2.589,1.788,3.885.328.627.034.964-.11,1.078A.534.534,0,0,1,1048.439,277.337Zm.268-49.634a21.663,21.663,0,0,0-10.911,40.374.6.6,0,0,1,.085.059c3.468,2.88,7.317,5.906,9.3,7.252-.85-1.8-1.552-3.56-1.589-3.653a.622.622,0,0,1,.086-.609.628.628,0,0,1,.566-.242,21.66,21.66,0,1,0,2.465-43.181Z" transform="translate(-900.698 -226.455)" fill="#006726"/>
      <g id="Group_44" data-name="Group 44" transform="translate(264.204 12.53)">
        <g id="Group_43" data-name="Group 43">
          <g id="Group_42" data-name="Group 42" transform="translate(4.48 3.716)">
            <path id="Path_92" data-name="Path 92" d="M1148.591,244.96a20.605,20.605,0,0,0-5.258,0,3.474,3.474,0,0,0-2.436,3.3v1.346a.726.726,0,0,0,.737.739h8.625a.726.726,0,0,0,.737-.739v-1.346A3.378,3.378,0,0,0,1148.591,244.96Z" transform="translate(-1140.896 -238.163)" fill="#006726"/>
            <circle id="Ellipse_7" data-name="Ellipse 7" cx="2.886" cy="2.886" r="2.886" transform="translate(2.18)" fill="#006726"/>
            <g id="Group_41" data-name="Group 41" transform="translate(11.372 0.809)">
              <path id="Path_93" data-name="Path 93" d="M1154.35,247.455l.178.526h.542l-.384.291.105.565-.441-.32-.442.312.107-.556-.38-.293h.541Z" transform="translate(-1149.116 -238.313)" fill="#006726"/>
              <path id="Path_94" data-name="Path 94" d="M1154.35,240.127l.178.526h.542l-.384.291.105.565-.441-.321-.442.312.107-.556-.38-.293h.541Z" transform="translate(-1149.116 -240.127)" fill="#006726"/>
              <path id="Path_95" data-name="Path 95" d="M1156.116,240.6l.178.526h.542l-.384.291.106.565-.441-.32-.442.312.107-.556-.38-.293h.541Z" transform="translate(-1148.679 -240.01)" fill="#006726"/>
              <path id="Path_96" data-name="Path 96" d="M1152.5,240.6l.178.526h.542l-.385.291.106.565-.441-.32-.442.312.107-.556-.38-.293h.541Z" transform="translate(-1149.573 -240.01)" fill="#006726"/>
              <path id="Path_97" data-name="Path 97" d="M1156.116,246.96l.178.526h.542l-.384.291.106.565-.441-.321-.442.312.107-.556-.38-.293h.541Z" transform="translate(-1148.679 -238.435)" fill="#006726"/>
              <path id="Path_98" data-name="Path 98" d="M1152.5,246.96l.178.526h.542l-.385.291.106.565-.441-.321-.442.312.107-.556-.38-.293h.541Z" transform="translate(-1149.573 -238.435)" fill="#006726"/>
              <path id="Path_99" data-name="Path 99" d="M1151.148,241.981l.178.526h.542l-.385.291.106.565-.441-.32-.442.312.107-.556-.38-.293h.541Z" transform="translate(-1149.908 -239.668)" fill="#006726"/>
              <path id="Path_100" data-name="Path 100" d="M1157.512,241.981l.178.526h.542l-.384.291.105.565-.44-.32-.442.312.107-.556-.38-.293h.541Z" transform="translate(-1148.333 -239.668)" fill="#006726"/>
              <path id="Path_101" data-name="Path 101" d="M1151.148,245.639l.178.526h.542l-.385.291.106.565-.441-.321-.442.312.107-.556-.38-.293h.541Z" transform="translate(-1149.908 -238.762)" fill="#006726"/>
              <path id="Path_102" data-name="Path 102" d="M1157.512,245.639l.178.526h.542l-.384.291.105.565-.44-.321-.442.312.107-.556-.38-.293h.541Z" transform="translate(-1148.333 -238.762)" fill="#006726"/>
              <path id="Path_103" data-name="Path 103" d="M1150.728,243.8l.178.526h.542l-.385.291.106.565-.441-.32-.442.312.107-.556-.38-.293h.541Z" transform="translate(-1150.012 -239.218)" fill="#006726"/>
              <path id="Path_104" data-name="Path 104" d="M1157.977,243.8l.178.526h.542l-.384.291.105.565-.441-.32-.442.312.107-.556-.38-.293h.541Z" transform="translate(-1148.218 -239.218)" fill="#006726"/>
            </g>
          </g>
          <path id="Path_105" data-name="Path 105" d="M1164.762,236.5H1139.74a2.433,2.433,0,0,0-2.435,2.434v14.749a2.434,2.434,0,0,0,2.435,2.435h25a2.433,2.433,0,0,0,2.434-2.435V238.933A2.4,2.4,0,0,0,1164.762,236.5Zm1.11,17.206a1.1,1.1,0,0,1-1.11,1.11H1139.74a1.1,1.1,0,0,1-1.11-1.11V238.933a1.1,1.1,0,0,1,1.11-1.11h25a1.1,1.1,0,0,1,1.11,1.11Z" transform="translate(-1137.305 -236.499)" fill="#006726"/>
        </g>
      </g>
      <g id="Group_46" data-name="Group 46" transform="translate(135.411 11.909)">
        <g id="Group_45" data-name="Group 45">
          <path id="Path_106" data-name="Path 106" d="M1048.874,240.463a.674.674,0,0,0-.67-.672h-5.393a.671.671,0,0,0-.67.672v2.021h6.733Zm-5.049,11.781h3.363v-2.018h-3.362l0,2.018m4.712-1.683h3.028a1.344,1.344,0,0,0,1.347-1.345V243.83H1038.1v5.387a1.347,1.347,0,0,0,1.349,1.345h3.028v-.336a1.347,1.347,0,0,1,1.348-1.347h3.361a1.345,1.345,0,0,1,1.349,1.347Zm-6.058,1.347h-3.028a2.692,2.692,0,0,1-2.695-2.692V243.83h0a1.345,1.345,0,0,0-1.343,1.345v10.1a1.345,1.345,0,0,0,1.343,1.344h17.507a1.344,1.344,0,0,0,1.344-1.344v-10.1a1.345,1.345,0,0,0-1.344-1.345h0v5.387a2.69,2.69,0,0,1-2.693,2.692h-3.028v.336a1.346,1.346,0,0,1-1.349,1.346h-3.361a1.345,1.345,0,0,1-1.348-1.346Zm-1.683-9.425h0v-2.021a2.016,2.016,0,0,1,2.015-2.018h5.393a2.019,2.019,0,0,1,2.016,2.018v2.021h4.042a2.691,2.691,0,0,1,2.69,2.691v10.1a2.691,2.691,0,0,1-2.69,2.691h-17.507a2.693,2.693,0,0,1-2.691-2.691v-10.1a2.692,2.692,0,0,1,2.691-2.691Z" transform="translate(-1034.064 -235.397)" fill="#006726"/>
          <path id="Path_107" data-name="Path 107" d="M1051.456,240.4a.6.6,0,0,0,.847-.046l.007-.006,2.922-3.338a.6.6,0,1,0-.884-.81l-.015.017-2.526,2.884-1.068-.928a.6.6,0,1,0-.793.9Z" transform="translate(-1030.184 -236.001)" fill="#006726"/>
        </g>
      </g>
      <g id="Group_47" data-name="Group 47" transform="translate(75.842 13.557)">
        <path id="Path_108" data-name="Path 108" d="M1017.371,244.091l2.235-.9-16.612-5.838-.07-.026-16.612,5.864,6.279,2.47s-.352,4.265.075,5.433l.206.287a12.59,12.59,0,0,0,20.176,0l.2-.287c.427-1.168.073-5.3.073-5.3v-.135l2.723-1.032v2h-.667v2.485a1.316,1.316,0,0,0,2.631,0v-2.485h-.644Zm-14.411,11c-4.018,0-7.915-2.566-9.127-4.845a39.418,39.418,0,0,1,.158-4.022l8.968,3.6,8.961-3.6a39.721,39.721,0,0,1,.157,4.022A11.4,11.4,0,0,1,1002.96,255.089Zm.047-6.6-13.125-5.237,13.068-4.628,13.217,4.629Z" transform="translate(-986.313 -237.322)" fill="#006726"/>
      </g>
      <g id="Group_49" data-name="Group 49" transform="translate(206.092 9.252)">
        <g id="Group_48" data-name="Group 48">
          <path id="Path_109" data-name="Path 109" d="M1104.615,234.12a.836.836,0,0,0-1.183-.009l-12.519,12.521h0a.662.662,0,0,0,.936.936l2.59-2.589V260.3a.836.836,0,0,0,.836.837h17.494a.836.836,0,0,0,.836-.837V244.973l2.6,2.6h0a.661.661,0,0,0,.934-.937Zm2.167,25.708h-5.519v-8.582a2.759,2.759,0,1,1,5.519,0Zm5.535,0h-4.231v-8.574a4.063,4.063,0,0,0-8.126,0v8.574h-4.209V243.66l8.268-8.27,8.3,8.3Z" transform="translate(-1090.722 -233.871)" fill="#006726"/>
          <path id="Path_110" data-name="Path 110" d="M1108.145,238.316a.607.607,0,0,0,.857-.046l.008-.007,2.955-3.375a.607.607,0,1,0-.9-.82l-.015.017L1108.5,237l-1.079-.939a.608.608,0,1,0-.8.914Z" transform="translate(-1086.839 -233.871)" fill="#006726"/>
        </g>
      </g>
    </g>
  </g>
</svg>
