<svg xmlns="http://www.w3.org/2000/svg" width="343.394" height="59.68" viewBox="0 0 343.394 59.68">
  <g id="Group_188" data-name="Group 188" transform="translate(-35.953 -1090.754)">
    <g id="Group_187" data-name="Group 187" transform="translate(39.769 1092.938)">
      <path id="Path_544" data-name="Path 544" d="M41.936,1099.848h3.3v.752H41.012v-6.966h.924Z" transform="translate(-40.338 -1093.251)" fill="#161615"/>
      <path id="Path_545" data-name="Path 545" d="M49.786,1100.328a1.879,1.879,0,0,1-1.516.607,1.608,1.608,0,0,1-1.261-.481,2.078,2.078,0,0,1-.438-1.423v-3.369h.885v3.345q0,1.178.957,1.177a1.324,1.324,0,0,0,1.349-.756v-3.766h.886v5.177h-.842Z" transform="translate(-40.994 -1093.49)" fill="#161615"/>
      <path id="Path_546" data-name="Path 546" d="M53.554,1095.649l.029.651a1.887,1.887,0,0,1,1.55-.747q1.641,0,1.656,1.852v3.421H55.9V1097.4a1.188,1.188,0,0,0-.256-.827,1.027,1.027,0,0,0-.782-.268,1.276,1.276,0,0,0-.756.23,1.565,1.565,0,0,0-.507.6v3.689h-.885v-5.177Z" transform="translate(-41.718 -1093.477)" fill="#161615"/>
      <path id="Path_547" data-name="Path 547" d="M60.964,1100.922a2.261,2.261,0,0,1-1.713-.691,2.566,2.566,0,0,1-.66-1.849v-.163a3.116,3.116,0,0,1,.294-1.376,2.308,2.308,0,0,1,.823-.947,2.075,2.075,0,0,1,1.146-.342,1.944,1.944,0,0,1,1.57.665,2.888,2.888,0,0,1,.559,1.905v.369H59.476a1.839,1.839,0,0,0,.448,1.236,1.4,1.4,0,0,0,1.088.471,1.539,1.539,0,0,0,.795-.191,2,2,0,0,0,.569-.506l.541.421A2.175,2.175,0,0,1,60.964,1100.922Zm-.11-4.64a1.178,1.178,0,0,0-.9.389,1.9,1.9,0,0,0-.45,1.093H62.1v-.066a1.679,1.679,0,0,0-.363-1.045A1.107,1.107,0,0,0,60.854,1096.282Z" transform="translate(-42.41 -1093.477)" fill="#161615"/>
      <path id="Path_548" data-name="Path 548" d="M64.486,1097.917a3.035,3.035,0,0,1,.565-1.916,1.92,1.92,0,0,1,2.919-.1v-2.7h.885v7.349h-.812l-.043-.555a1.8,1.8,0,0,1-1.478.65,1.769,1.769,0,0,1-1.467-.737,3.068,3.068,0,0,1-.567-1.923Zm.886.1a2.293,2.293,0,0,0,.363,1.377,1.175,1.175,0,0,0,1,.5,1.29,1.29,0,0,0,1.23-.756v-2.378a1.3,1.3,0,0,0-1.22-.732,1.181,1.181,0,0,0-1.014.5A2.526,2.526,0,0,0,65.372,1098.018Z" transform="translate(-43.105 -1093.2)" fill="#161615"/>
      <path id="Path_549" data-name="Path 549" d="M71.916,1094.61l-.76,0-1.235-1.407h1.067Zm-.086,5.939h-.889v-5.177h.889Z" transform="translate(-43.746 -1093.201)" fill="#161615"/>
      <path id="Path_550" data-name="Path 550" d="M42.2,1107.241l2.278,5.683,2.278-5.683h1.192v6.966h-.919v-2.712l.086-2.928-2.287,5.64h-.7l-2.282-5.626.091,2.914v2.712h-.919v-6.966Z" transform="translate(-40.338 -1094.855)" fill="#161615"/>
      <path id="Path_551" data-name="Path 551" d="M53.729,1114.433a1.882,1.882,0,0,1-.123-.545,1.976,1.976,0,0,1-1.474.641,1.825,1.825,0,0,1-1.256-.433,1.4,1.4,0,0,1-.49-1.1,1.464,1.464,0,0,1,.615-1.255,2.9,2.9,0,0,1,1.73-.448h.861v-.407a1,1,0,0,0-.277-.739,1.116,1.116,0,0,0-.819-.275,1.289,1.289,0,0,0-.794.24.7.7,0,0,0-.321.579h-.89a1.222,1.222,0,0,1,.275-.749,1.874,1.874,0,0,1,.747-.572,2.51,2.51,0,0,1,1.036-.211,2.043,2.043,0,0,1,1.4.448,1.611,1.611,0,0,1,.526,1.231v2.383a2.906,2.906,0,0,0,.183,1.134v.076Zm-1.469-.674a1.552,1.552,0,0,0,.789-.215,1.3,1.3,0,0,0,.541-.56v-1.062H52.9q-1.627,0-1.627.952a.81.81,0,0,0,.277.651A1.068,1.068,0,0,0,52.26,1113.76Z" transform="translate(-41.443 -1095.082)" fill="#161615"/>
      <path id="Path_552" data-name="Path 552" d="M59.1,1110.051a2.689,2.689,0,0,0-.436-.033,1.167,1.167,0,0,0-1.182.74v3.675H56.6v-5.177h.861l.014.6a1.38,1.38,0,0,1,1.235-.694.9.9,0,0,1,.393.067Z" transform="translate(-42.175 -1095.082)" fill="#161615"/>
      <path id="Path_553" data-name="Path 553" d="M61.743,1107.848v1.254h.967v.685h-.967V1113a.723.723,0,0,0,.129.468.543.543,0,0,0,.44.155,2.1,2.1,0,0,0,.422-.057v.714a2.581,2.581,0,0,1-.68.1,1.105,1.105,0,0,1-.894-.358,1.551,1.551,0,0,1-.3-1.021v-3.209h-.942v-.685h.942v-1.254Z" transform="translate(-42.567 -1094.927)" fill="#161615"/>
      <path id="Path_554" data-name="Path 554" d="M66.372,1114.53a2.262,2.262,0,0,1-1.712-.691,2.57,2.57,0,0,1-.661-1.85v-.163a3.1,3.1,0,0,1,.295-1.375,2.291,2.291,0,0,1,.823-.948,2.071,2.071,0,0,1,1.145-.342,1.942,1.942,0,0,1,1.57.665,2.88,2.88,0,0,1,.559,1.9v.369H64.884a1.838,1.838,0,0,0,.448,1.236,1.4,1.4,0,0,0,1.089.471,1.548,1.548,0,0,0,.794-.19,2,2,0,0,0,.57-.507l.54.421A2.172,2.172,0,0,1,66.372,1114.53Zm-.11-4.641a1.182,1.182,0,0,0-.9.389,1.9,1.9,0,0,0-.45,1.094h2.593v-.066a1.687,1.687,0,0,0-.363-1.046A1.113,1.113,0,0,0,66.262,1109.889Z" transform="translate(-43.048 -1095.082)" fill="#161615"/>
      <path id="Path_555" data-name="Path 555" d="M69.895,1111.525a3.031,3.031,0,0,1,.565-1.916,1.92,1.92,0,0,1,2.918-.1v-2.7h.886v7.349H73.45l-.043-.554a1.8,1.8,0,0,1-1.478.65,1.766,1.766,0,0,1-1.466-.737,3.066,3.066,0,0,1-.567-1.924Zm.885.1a2.3,2.3,0,0,0,.364,1.378,1.172,1.172,0,0,0,1,.5,1.291,1.291,0,0,0,1.23-.755v-2.378a1.3,1.3,0,0,0-1.22-.733,1.179,1.179,0,0,0-1.014.5A2.523,2.523,0,0,0,70.78,1111.625Z" transform="translate(-43.743 -1094.804)" fill="#161615"/>
      <path id="Path_556" data-name="Path 556" d="M77.324,1108.217l-.76,0-1.234-1.407H76.4Zm-.086,5.939h-.89v-5.177h.89Z" transform="translate(-44.384 -1094.805)" fill="#161615"/>
      <path id="Path_557" data-name="Path 557" d="M42.2,1120.849l2.278,5.684,2.278-5.684h1.192v6.967h-.919V1125.1l.086-2.929-2.287,5.641h-.7l-2.282-5.627.091,2.915v2.712h-.919v-6.967Z" transform="translate(-40.338 -1096.459)" fill="#161615"/>
      <path id="Path_558" data-name="Path 558" d="M52.672,1128.138a2.263,2.263,0,0,1-1.713-.691,2.569,2.569,0,0,1-.661-1.85v-.162a3.116,3.116,0,0,1,.295-1.376,2.3,2.3,0,0,1,.823-.947,2.072,2.072,0,0,1,1.146-.342,1.94,1.94,0,0,1,1.569.665,2.882,2.882,0,0,1,.559,1.9v.369H51.184a1.837,1.837,0,0,0,.447,1.237,1.406,1.406,0,0,0,1.089.471,1.538,1.538,0,0,0,.794-.192,2,2,0,0,0,.57-.506l.541.42A2.174,2.174,0,0,1,52.672,1128.138Zm-.11-4.641a1.18,1.18,0,0,0-.9.39,1.9,1.9,0,0,0-.45,1.093h2.593v-.066a1.689,1.689,0,0,0-.363-1.046A1.113,1.113,0,0,0,52.561,1123.5Z" transform="translate(-41.433 -1096.686)" fill="#161615"/>
      <path id="Path_559" data-name="Path 559" d="M58.941,1123.659a2.8,2.8,0,0,0-.436-.033,1.167,1.167,0,0,0-1.182.741v3.675h-.885v-5.177H57.3l.014.6a1.378,1.378,0,0,1,1.234-.694.917.917,0,0,1,.393.067Z" transform="translate(-42.157 -1096.686)" fill="#161615"/>
      <path id="Path_560" data-name="Path 560" d="M62.14,1127.415a1.277,1.277,0,0,0,.827-.287,1.011,1.011,0,0,0,.393-.718H64.2a1.608,1.608,0,0,1-.306.847,2.014,2.014,0,0,1-.753.641,2.182,2.182,0,0,1-1,.239,2.128,2.128,0,0,1-1.681-.706,2.8,2.8,0,0,1-.625-1.93v-.148a3.112,3.112,0,0,1,.278-1.344,2.119,2.119,0,0,1,.8-.915,2.261,2.261,0,0,1,1.227-.325,2.077,2.077,0,0,1,1.448.522,1.862,1.862,0,0,1,.615,1.354H63.36a1.222,1.222,0,0,0-.38-.826,1.189,1.189,0,0,0-.845-.323,1.242,1.242,0,0,0-1.045.485,2.284,2.284,0,0,0-.37,1.4v.168a2.237,2.237,0,0,0,.368,1.377A1.248,1.248,0,0,0,62.14,1127.415Z" transform="translate(-42.557 -1096.686)" fill="#161615"/>
      <path id="Path_561" data-name="Path 561" d="M65.643,1125.407a3.057,3.057,0,0,1,.3-1.369,2.237,2.237,0,0,1,.833-.938,2.266,2.266,0,0,1,1.218-.331,2.187,2.187,0,0,1,1.71.732,2.82,2.82,0,0,1,.653,1.948v.063a3.09,3.09,0,0,1-.289,1.356,2.2,2.2,0,0,1-.827.935,2.289,2.289,0,0,1-1.238.335,2.175,2.175,0,0,1-1.705-.732,2.8,2.8,0,0,1-.653-1.937Zm.889.1a2.214,2.214,0,0,0,.4,1.382,1.354,1.354,0,0,0,2.141-.007,2.415,2.415,0,0,0,.4-1.48,2.212,2.212,0,0,0-.4-1.381,1.285,1.285,0,0,0-1.074-.528,1.271,1.271,0,0,0-1.058.521A2.4,2.4,0,0,0,66.532,1125.512Z" transform="translate(-43.242 -1096.686)" fill="#161615"/>
      <path id="Path_562" data-name="Path 562" d="M73.215,1127.765H72.33v-7.349h.885Z" transform="translate(-44.03 -1096.408)" fill="#161615"/>
      <path id="Path_563" data-name="Path 563" d="M77.058,1128.138a2.263,2.263,0,0,1-1.713-.691,2.569,2.569,0,0,1-.661-1.85v-.162a3.1,3.1,0,0,1,.295-1.376,2.3,2.3,0,0,1,.823-.947,2.072,2.072,0,0,1,1.146-.342,1.942,1.942,0,0,1,1.569.665,2.882,2.882,0,0,1,.559,1.9v.369H75.57a1.837,1.837,0,0,0,.447,1.237,1.406,1.406,0,0,0,1.089.471,1.538,1.538,0,0,0,.794-.192,2,2,0,0,0,.57-.506l.54.42A2.172,2.172,0,0,1,77.058,1128.138Zm-.11-4.641a1.18,1.18,0,0,0-.9.39,1.9,1.9,0,0,0-.45,1.093h2.593v-.066a1.689,1.689,0,0,0-.363-1.046A1.113,1.113,0,0,0,76.948,1123.5Z" transform="translate(-44.308 -1096.686)" fill="#161615"/>
      <path id="Path_564" data-name="Path 564" d="M80.58,1125.133a3.027,3.027,0,0,1,.565-1.915,1.92,1.92,0,0,1,2.918-.1v-2.7h.886v7.349h-.813l-.043-.555a1.8,1.8,0,0,1-1.478.65,1.766,1.766,0,0,1-1.466-.737,3.063,3.063,0,0,1-.567-1.923Zm.885.1a2.292,2.292,0,0,0,.364,1.377,1.172,1.172,0,0,0,1,.5,1.29,1.29,0,0,0,1.23-.756v-2.378a1.3,1.3,0,0,0-1.22-.732,1.178,1.178,0,0,0-1.014.5A2.526,2.526,0,0,0,81.465,1125.234Z" transform="translate(-45.003 -1096.408)" fill="#161615"/>
      <path id="Path_565" data-name="Path 565" d="M88.009,1121.825l-.76,0-1.234-1.406h1.066Zm-.086,5.94h-.89v-5.177h.89Z" transform="translate(-45.643 -1096.409)" fill="#161615"/>
      <path id="Path_566" data-name="Path 566" d="M46.126,1140.5a2.109,2.109,0,0,1-.988.758,3.967,3.967,0,0,1-1.476.252,2.862,2.862,0,0,1-1.512-.4,2.663,2.663,0,0,1-1.021-1.137,3.93,3.93,0,0,1-.371-1.708v-.608a3.665,3.665,0,0,1,.735-2.44,2.561,2.561,0,0,1,2.065-.866,2.644,2.644,0,0,1,1.755.557,2.428,2.428,0,0,1,.813,1.582h-.918a1.52,1.52,0,0,0-1.646-1.388,1.628,1.628,0,0,0-1.4.648,3.18,3.18,0,0,0-.481,1.88v.571a2.971,2.971,0,0,0,.536,1.865,1.738,1.738,0,0,0,1.449.692,3.18,3.18,0,0,0,.9-.115,1.4,1.4,0,0,0,.641-.386v-1.561H43.6v-.751h2.526Z" transform="translate(-40.308 -1098.051)" fill="#161615"/>
      <path id="Path_567" data-name="Path 567" d="M48.427,1134.86a.532.532,0,0,1,.131-.363.5.5,0,0,1,.39-.148.506.506,0,0,1,.393.148.526.526,0,0,1,.134.363.548.548,0,0,1-.917.36A.514.514,0,0,1,48.427,1134.86Zm.957,6.551H48.5v-5.177h.886Z" transform="translate(-41.212 -1098.051)" fill="#161615"/>
      <path id="Path_568" data-name="Path 568" d="M50.852,1139.014a3.06,3.06,0,0,1,.3-1.369,2.235,2.235,0,0,1,.833-.937,2.266,2.266,0,0,1,1.218-.331,2.185,2.185,0,0,1,1.71.732,2.818,2.818,0,0,1,.653,1.948v.062a3.089,3.089,0,0,1-.289,1.356,2.2,2.2,0,0,1-.827.936,2.289,2.289,0,0,1-1.238.335,2.177,2.177,0,0,1-1.705-.732,2.8,2.8,0,0,1-.653-1.938Zm.889.1a2.214,2.214,0,0,0,.4,1.382,1.355,1.355,0,0,0,2.141-.006,2.418,2.418,0,0,0,.4-1.481,2.207,2.207,0,0,0-.4-1.38,1.282,1.282,0,0,0-1.074-.528,1.269,1.269,0,0,0-1.058.521A2.4,2.4,0,0,0,51.741,1139.119Z" transform="translate(-41.498 -1098.29)" fill="#161615"/>
      <path id="Path_569" data-name="Path 569" d="M59.01,1140.462l1.283-3.977h.9l-1.857,5.177h-.674l-1.875-5.177h.9Z" transform="translate(-42.198 -1098.303)" fill="#161615"/>
      <path id="Path_570" data-name="Path 570" d="M64.8,1141.746a2.261,2.261,0,0,1-1.713-.692,2.566,2.566,0,0,1-.66-1.849v-.163a3.112,3.112,0,0,1,.294-1.375,2.3,2.3,0,0,1,.823-.948,2.081,2.081,0,0,1,1.146-.341,1.944,1.944,0,0,1,1.57.665,2.885,2.885,0,0,1,.559,1.9v.369H63.311a1.838,1.838,0,0,0,.448,1.236,1.4,1.4,0,0,0,1.088.471,1.548,1.548,0,0,0,.795-.191,2,2,0,0,0,.569-.507l.541.421A2.174,2.174,0,0,1,64.8,1141.746Zm-.11-4.641a1.178,1.178,0,0,0-.9.389,1.9,1.9,0,0,0-.45,1.094h2.593v-.067a1.681,1.681,0,0,0-.363-1.045A1.11,1.11,0,0,0,64.689,1137.1Z" transform="translate(-42.863 -1098.29)" fill="#161615"/>
      <path id="Path_571" data-name="Path 571" d="M68.321,1138.74a3.035,3.035,0,0,1,.565-1.916,1.921,1.921,0,0,1,2.919-.1v-2.7h.885v7.349h-.812l-.043-.555a1.8,1.8,0,0,1-1.479.651,1.771,1.771,0,0,1-1.466-.737,3.071,3.071,0,0,1-.567-1.924Zm.886.1a2.3,2.3,0,0,0,.363,1.378,1.174,1.174,0,0,0,1,.5,1.291,1.291,0,0,0,1.23-.755v-2.379a1.3,1.3,0,0,0-1.22-.732,1.182,1.182,0,0,0-1.014.5A2.522,2.522,0,0,0,69.207,1138.841Z" transform="translate(-43.558 -1098.013)" fill="#161615"/>
      <path id="Path_572" data-name="Path 572" d="M75.751,1135.433l-.76,0-1.235-1.407h1.067Zm-.086,5.939h-.889V1136.2h.889Z" transform="translate(-44.198 -1098.013)" fill="#161615"/>
      <path id="Path_573" data-name="Path 573" d="M43.228,1153.811l1.991-5.747h1l-2.584,6.967h-.813l-2.578-6.967h1Z" transform="translate(-40.248 -1099.668)" fill="#161615"/>
      <path id="Path_574" data-name="Path 574" d="M49.8,1155.353a2.264,2.264,0,0,1-1.713-.691,2.57,2.57,0,0,1-.66-1.85v-.162a3.116,3.116,0,0,1,.294-1.376,2.3,2.3,0,0,1,.823-.948,2.076,2.076,0,0,1,1.146-.342,1.94,1.94,0,0,1,1.569.665,2.882,2.882,0,0,1,.56,1.9v.369H48.314a1.846,1.846,0,0,0,.447,1.237,1.407,1.407,0,0,0,1.089.471,1.549,1.549,0,0,0,.795-.191,2.009,2.009,0,0,0,.569-.506l.541.42A2.173,2.173,0,0,1,49.8,1155.353Zm-.11-4.641a1.179,1.179,0,0,0-.9.39,1.9,1.9,0,0,0-.45,1.093h2.593v-.066a1.689,1.689,0,0,0-.363-1.046A1.11,1.11,0,0,0,49.692,1150.712Z" transform="translate(-41.095 -1099.894)" fill="#161615"/>
      <path id="Path_575" data-name="Path 575" d="M54.406,1150.08l.028.651a1.886,1.886,0,0,1,1.551-.747q1.641,0,1.655,1.852v3.421h-.885v-3.426A1.2,1.2,0,0,0,56.5,1151a1.028,1.028,0,0,0-.782-.267,1.28,1.28,0,0,0-.756.229,1.561,1.561,0,0,0-.507.6v3.689h-.886v-5.177Z" transform="translate(-41.818 -1099.894)" fill="#161615"/>
      <path id="Path_576" data-name="Path 576" d="M61.816,1155.353a2.263,2.263,0,0,1-1.713-.691,2.57,2.57,0,0,1-.661-1.85v-.162a3.116,3.116,0,0,1,.295-1.376,2.3,2.3,0,0,1,.823-.948,2.074,2.074,0,0,1,1.146-.342,1.94,1.94,0,0,1,1.569.665,2.882,2.882,0,0,1,.559,1.9v.369H60.328a1.837,1.837,0,0,0,.447,1.237,1.406,1.406,0,0,0,1.089.471,1.545,1.545,0,0,0,.794-.191,2.012,2.012,0,0,0,.57-.506l.541.42A2.174,2.174,0,0,1,61.816,1155.353Zm-.11-4.641a1.18,1.18,0,0,0-.9.39,1.889,1.889,0,0,0-.449,1.093h2.593v-.066a1.689,1.689,0,0,0-.363-1.046A1.113,1.113,0,0,0,61.705,1150.712Z" transform="translate(-42.511 -1099.894)" fill="#161615"/>
      <path id="Path_577" data-name="Path 577" d="M68.085,1150.874a2.781,2.781,0,0,0-.436-.033,1.167,1.167,0,0,0-1.182.741v3.675h-.885v-5.177h.862l.014.6a1.378,1.378,0,0,1,1.234-.694.915.915,0,0,1,.393.067Z" transform="translate(-43.235 -1099.894)" fill="#161615"/>
      <path id="Path_578" data-name="Path 578" d="M68.994,1152.348a3.031,3.031,0,0,1,.565-1.916,1.92,1.92,0,0,1,2.918-.1v-2.7h.886v7.349h-.813l-.043-.555a1.8,1.8,0,0,1-1.478.65,1.766,1.766,0,0,1-1.466-.737,3.066,3.066,0,0,1-.567-1.924Zm.885.1a2.293,2.293,0,0,0,.364,1.377,1.173,1.173,0,0,0,1,.5,1.292,1.292,0,0,0,1.23-.756v-2.378a1.3,1.3,0,0,0-1.22-.732,1.178,1.178,0,0,0-1.014.5A2.524,2.524,0,0,0,69.879,1152.449Z" transform="translate(-43.637 -1099.617)" fill="#161615"/>
      <path id="Path_579" data-name="Path 579" d="M76.423,1149.04l-.76,0-1.234-1.407H75.5Zm-.086,5.94h-.89V1149.8h.89Z" transform="translate(-44.278 -1099.617)" fill="#161615"/>
      <path id="Path_580" data-name="Path 580" d="M109.263,1097.123a3.378,3.378,0,0,1-.473,1.957,1.792,1.792,0,0,1-2.78.013,3.255,3.255,0,0,1-.494-1.908v-1.092a3.315,3.315,0,0,1,.477-1.947,1.807,1.807,0,0,1,2.776-.023,3.2,3.2,0,0,1,.494,1.882Zm-.5-1.092a2.981,2.981,0,0,0-.34-1.582,1.261,1.261,0,0,0-2.054-.013,2.883,2.883,0,0,0-.351,1.545v1.2a2.973,2.973,0,0,0,.354,1.595,1.146,1.146,0,0,0,1.028.552,1.13,1.13,0,0,0,1.015-.54,2.981,2.981,0,0,0,.349-1.583Z" transform="translate(-47.942 -1093.234)" fill="#161615"/>
      <path id="Path_581" data-name="Path 581" d="M114.091,1096.842a1.886,1.886,0,0,1-.666.609,1.786,1.786,0,0,1-.862.215,1.606,1.606,0,0,1-.917-.267,1.759,1.759,0,0,1-.615-.741,2.442,2.442,0,0,1-.218-1.035,2.552,2.552,0,0,1,.232-1.1,1.826,1.826,0,0,1,.649-.768,1.873,1.873,0,0,1,2.389.369,2.87,2.87,0,0,1,.511,1.823v.453a3.746,3.746,0,0,1-.7,2.478,2.659,2.659,0,0,1-2.148.829h-.092l0-.435h.176a2.226,2.226,0,0,0,1.662-.62A2.652,2.652,0,0,0,114.091,1096.842Zm-1.465.389a1.469,1.469,0,0,0,.9-.3,1.613,1.613,0,0,0,.567-.775v-.288a2.347,2.347,0,0,0-.387-1.439,1.245,1.245,0,0,0-1.044-.512,1.193,1.193,0,0,0-.976.478,1.876,1.876,0,0,0-.381,1.2,1.822,1.822,0,0,0,.366,1.163A1.158,1.158,0,0,0,112.626,1097.231Z" transform="translate(-48.567 -1093.234)" fill="#161615"/>
      <path id="Path_582" data-name="Path 582" d="M116.323,1099.585a.352.352,0,0,1,.094-.249.339.339,0,0,1,.262-.1.344.344,0,0,1,.263.1.349.349,0,0,1,.1.249.323.323,0,0,1-.1.242.362.362,0,0,1-.263.094.357.357,0,0,1-.262-.094A.325.325,0,0,1,116.323,1099.585Zm.009-3.865a.356.356,0,0,1,.094-.249.339.339,0,0,1,.262-.1.347.347,0,0,1,.264.1.355.355,0,0,1,.1.249.326.326,0,0,1-.1.242.362.362,0,0,1-.264.094.353.353,0,0,1-.262-.094A.328.328,0,0,1,116.332,1095.72Z" transform="translate(-49.216 -1093.456)" fill="#161615"/>
      <path id="Path_583" data-name="Path 583" d="M122.077,1097.123a3.378,3.378,0,0,1-.473,1.957,1.792,1.792,0,0,1-2.78.013,3.255,3.255,0,0,1-.494-1.908v-1.092a3.315,3.315,0,0,1,.477-1.947,1.807,1.807,0,0,1,2.776-.023,3.2,3.2,0,0,1,.494,1.882Zm-.5-1.092a2.981,2.981,0,0,0-.34-1.582,1.261,1.261,0,0,0-2.054-.013,2.883,2.883,0,0,0-.351,1.545v1.2a2.973,2.973,0,0,0,.354,1.595,1.145,1.145,0,0,0,1.028.552,1.13,1.13,0,0,0,1.015-.54,2.981,2.981,0,0,0,.349-1.583Z" transform="translate(-49.453 -1093.234)" fill="#161615"/>
      <path id="Path_584" data-name="Path 584" d="M127.464,1097.123a3.371,3.371,0,0,1-.474,1.957,1.6,1.6,0,0,1-1.394.668,1.615,1.615,0,0,1-1.386-.654,3.255,3.255,0,0,1-.494-1.908v-1.092a3.309,3.309,0,0,1,.477-1.947,1.807,1.807,0,0,1,2.776-.023,3.2,3.2,0,0,1,.494,1.882Zm-.5-1.092a2.972,2.972,0,0,0-.341-1.582,1.26,1.26,0,0,0-2.054-.013,2.883,2.883,0,0,0-.351,1.545v1.2a2.973,2.973,0,0,0,.354,1.595,1.144,1.144,0,0,0,1.028.552,1.13,1.13,0,0,0,1.015-.54,2.981,2.981,0,0,0,.349-1.583Z" transform="translate(-50.088 -1093.234)" fill="#161615"/>
      <path id="Path_585" data-name="Path 585" d="M136.093,1097.624h-2.005v-.422h2.005Z" transform="translate(-51.311 -1093.672)" fill="#161615"/>
      <path id="Path_586" data-name="Path 586" d="M144.962,1099.673h-.5v-5.493l-1.658.616v-.469l2.076-.77h.083Z" transform="translate(-52.338 -1093.242)" fill="#161615"/>
      <path id="Path_587" data-name="Path 587" d="M149.086,1096.344h.52a1.733,1.733,0,0,0,.753-.153,1.147,1.147,0,0,0,.492-.418,1.117,1.117,0,0,0,.169-.613,1.239,1.239,0,0,0-.331-.917,1.286,1.286,0,0,0-.95-.331,1.36,1.36,0,0,0-.961.345,1.18,1.18,0,0,0-.375.91h-.5a1.623,1.623,0,0,1,.239-.864,1.6,1.6,0,0,1,.662-.6,2.037,2.037,0,0,1,.938-.214,1.823,1.823,0,0,1,1.306.453,1.626,1.626,0,0,1,.477,1.238,1.324,1.324,0,0,1-.279.811,1.677,1.677,0,0,1-.764.555,1.563,1.563,0,0,1,.862.546,1.482,1.482,0,0,1,.293.923,1.644,1.644,0,0,1-.51,1.26,1.918,1.918,0,0,1-1.366.477,2.27,2.27,0,0,1-1-.218,1.611,1.611,0,0,1-.953-1.52h.5a1.217,1.217,0,0,0,.407.948,1.49,1.49,0,0,0,1.042.366,1.434,1.434,0,0,0,1.011-.333,1.244,1.244,0,0,0,.363-.964,1.141,1.141,0,0,0-.392-.934,1.78,1.78,0,0,0-1.153-.322h-.5Z" transform="translate(-52.928 -1093.234)" fill="#161615"/>
      <path id="Path_588" data-name="Path 588" d="M153.334,1099.585a.356.356,0,0,1,.094-.249.339.339,0,0,1,.262-.1.347.347,0,0,1,.264.1.353.353,0,0,1,.1.249.326.326,0,0,1-.1.242.366.366,0,0,1-.264.094.357.357,0,0,1-.262-.094A.328.328,0,0,1,153.334,1099.585Zm.009-3.865a.353.353,0,0,1,.094-.249.337.337,0,0,1,.261-.1.346.346,0,0,1,.264.1.351.351,0,0,1,.1.249.323.323,0,0,1-.1.242.361.361,0,0,1-.264.094.351.351,0,0,1-.261-.094A.325.325,0,0,1,153.343,1095.72Z" transform="translate(-53.58 -1093.456)" fill="#161615"/>
      <path id="Path_589" data-name="Path 589" d="M159.088,1097.123a3.378,3.378,0,0,1-.473,1.957,1.6,1.6,0,0,1-1.394.668,1.616,1.616,0,0,1-1.387-.654,3.261,3.261,0,0,1-.494-1.908v-1.092a3.315,3.315,0,0,1,.477-1.947,1.807,1.807,0,0,1,2.776-.023,3.183,3.183,0,0,1,.494,1.882Zm-.5-1.092a2.972,2.972,0,0,0-.341-1.582,1.26,1.26,0,0,0-2.054-.013,2.882,2.882,0,0,0-.352,1.545v1.2a2.973,2.973,0,0,0,.354,1.595,1.147,1.147,0,0,0,1.029.552,1.131,1.131,0,0,0,1.015-.54,2.989,2.989,0,0,0,.349-1.583Z" transform="translate(-53.816 -1093.234)" fill="#161615"/>
      <path id="Path_590" data-name="Path 590" d="M164.475,1097.123a3.371,3.371,0,0,1-.474,1.957,1.6,1.6,0,0,1-1.394.668,1.615,1.615,0,0,1-1.386-.654,3.255,3.255,0,0,1-.494-1.908v-1.092a3.315,3.315,0,0,1,.477-1.947,1.807,1.807,0,0,1,2.776-.023,3.2,3.2,0,0,1,.494,1.882Zm-.5-1.092a2.981,2.981,0,0,0-.34-1.582,1.261,1.261,0,0,0-2.054-.013,2.883,2.883,0,0,0-.351,1.545v1.2a2.973,2.973,0,0,0,.354,1.595,1.145,1.145,0,0,0,1.028.552,1.13,1.13,0,0,0,1.015-.54,2.98,2.98,0,0,0,.349-1.583Z" transform="translate(-54.451 -1093.234)" fill="#161615"/>
      <path id="Path_591" data-name="Path 591" d="M109.263,1110.731a3.376,3.376,0,0,1-.473,1.956,1.792,1.792,0,0,1-2.78.013,3.251,3.251,0,0,1-.494-1.907V1109.7a3.315,3.315,0,0,1,.477-1.947,1.808,1.808,0,0,1,2.776-.024,3.2,3.2,0,0,1,.494,1.881Zm-.5-1.093a2.983,2.983,0,0,0-.34-1.583,1.262,1.262,0,0,0-2.054-.012,2.879,2.879,0,0,0-.351,1.545v1.2a2.976,2.976,0,0,0,.354,1.6,1.146,1.146,0,0,0,1.028.552,1.129,1.129,0,0,0,1.015-.541,2.98,2.98,0,0,0,.349-1.582Z" transform="translate(-47.942 -1094.838)" fill="#161615"/>
      <path id="Path_592" data-name="Path 592" d="M114.091,1110.449a1.886,1.886,0,0,1-.666.61,1.786,1.786,0,0,1-.862.215,1.607,1.607,0,0,1-.917-.268,1.748,1.748,0,0,1-.615-.741,2.439,2.439,0,0,1-.218-1.035,2.551,2.551,0,0,1,.232-1.1,1.827,1.827,0,0,1,.649-.768,1.876,1.876,0,0,1,2.389.369,2.871,2.871,0,0,1,.511,1.822v.453a3.748,3.748,0,0,1-.7,2.479,2.658,2.658,0,0,1-2.148.828h-.092l0-.435h.176a2.229,2.229,0,0,0,1.662-.619A2.655,2.655,0,0,0,114.091,1110.449Zm-1.465.39a1.474,1.474,0,0,0,.9-.3,1.621,1.621,0,0,0,.567-.774v-.288a2.343,2.343,0,0,0-.387-1.439,1.242,1.242,0,0,0-1.044-.512,1.191,1.191,0,0,0-.976.478,1.872,1.872,0,0,0-.381,1.2,1.819,1.819,0,0,0,.366,1.163A1.157,1.157,0,0,0,112.626,1110.839Z" transform="translate(-48.567 -1094.838)" fill="#161615"/>
      <path id="Path_593" data-name="Path 593" d="M116.323,1113.193a.354.354,0,0,1,.094-.25.339.339,0,0,1,.262-.1.344.344,0,0,1,.263.1.351.351,0,0,1,.1.25.321.321,0,0,1-.1.241.362.362,0,0,1-.263.094.357.357,0,0,1-.262-.094A.323.323,0,0,1,116.323,1113.193Zm.009-3.865a.355.355,0,0,1,.094-.249.337.337,0,0,1,.262-.1.344.344,0,0,1,.264.1.353.353,0,0,1,.1.249.324.324,0,0,1-.1.241.362.362,0,0,1-.264.094.354.354,0,0,1-.262-.094A.325.325,0,0,1,116.332,1109.328Z" transform="translate(-49.216 -1095.06)" fill="#161615"/>
      <path id="Path_594" data-name="Path 594" d="M122.077,1110.731a3.376,3.376,0,0,1-.473,1.956,1.792,1.792,0,0,1-2.78.013,3.251,3.251,0,0,1-.494-1.907V1109.7a3.315,3.315,0,0,1,.477-1.947,1.808,1.808,0,0,1,2.776-.024,3.2,3.2,0,0,1,.494,1.881Zm-.5-1.093a2.983,2.983,0,0,0-.34-1.583,1.262,1.262,0,0,0-2.054-.012,2.879,2.879,0,0,0-.351,1.545v1.2a2.977,2.977,0,0,0,.354,1.6,1.145,1.145,0,0,0,1.028.552,1.129,1.129,0,0,0,1.015-.541,2.98,2.98,0,0,0,.349-1.582Z" transform="translate(-49.453 -1094.838)" fill="#161615"/>
      <path id="Path_595" data-name="Path 595" d="M127.464,1110.731a3.369,3.369,0,0,1-.474,1.956,1.6,1.6,0,0,1-1.394.668,1.615,1.615,0,0,1-1.386-.655,3.251,3.251,0,0,1-.494-1.907V1109.7a3.309,3.309,0,0,1,.477-1.947,1.808,1.808,0,0,1,2.776-.024,3.2,3.2,0,0,1,.494,1.881Zm-.5-1.093a2.974,2.974,0,0,0-.341-1.583,1.261,1.261,0,0,0-2.054-.012,2.879,2.879,0,0,0-.351,1.545v1.2a2.977,2.977,0,0,0,.354,1.6,1.144,1.144,0,0,0,1.028.552,1.129,1.129,0,0,0,1.015-.541,2.98,2.98,0,0,0,.349-1.582Z" transform="translate(-50.088 -1094.838)" fill="#161615"/>
      <path id="Path_596" data-name="Path 596" d="M136.093,1111.231h-2.005v-.423h2.005Z" transform="translate(-51.311 -1095.276)" fill="#161615"/>
      <path id="Path_597" data-name="Path 597" d="M144.962,1113.28h-.5v-5.492l-1.658.615v-.468l2.076-.77h.083Z" transform="translate(-52.338 -1094.846)" fill="#161615"/>
      <path id="Path_598" data-name="Path 598" d="M149.086,1109.952h.52a1.745,1.745,0,0,0,.753-.153,1.15,1.15,0,0,0,.492-.419,1.115,1.115,0,0,0,.169-.613,1.24,1.24,0,0,0-.331-.917,1.289,1.289,0,0,0-.95-.33,1.36,1.36,0,0,0-.961.345,1.177,1.177,0,0,0-.375.91h-.5a1.623,1.623,0,0,1,.239-.865,1.6,1.6,0,0,1,.662-.6,2.039,2.039,0,0,1,.938-.214,1.822,1.822,0,0,1,1.306.452,1.628,1.628,0,0,1,.477,1.239,1.321,1.321,0,0,1-.279.81,1.665,1.665,0,0,1-.764.555,1.564,1.564,0,0,1,.862.547,1.48,1.48,0,0,1,.293.922,1.643,1.643,0,0,1-.51,1.26,1.919,1.919,0,0,1-1.366.477,2.27,2.27,0,0,1-1-.218,1.609,1.609,0,0,1-.953-1.52h.5a1.219,1.219,0,0,0,.407.949,1.5,1.5,0,0,0,1.042.366,1.434,1.434,0,0,0,1.011-.333,1.246,1.246,0,0,0,.363-.965,1.142,1.142,0,0,0-.392-.934,1.78,1.78,0,0,0-1.153-.322h-.5Z" transform="translate(-52.928 -1094.838)" fill="#161615"/>
      <path id="Path_599" data-name="Path 599" d="M153.334,1113.193a.358.358,0,0,1,.094-.25.339.339,0,0,1,.262-.1.347.347,0,0,1,.264.1.355.355,0,0,1,.1.25.324.324,0,0,1-.1.241.366.366,0,0,1-.264.094.357.357,0,0,1-.262-.094A.326.326,0,0,1,153.334,1113.193Zm.009-3.865a.352.352,0,0,1,.094-.249.335.335,0,0,1,.261-.1.343.343,0,0,1,.264.1.349.349,0,0,1,.1.249.321.321,0,0,1-.1.241.361.361,0,0,1-.264.094.352.352,0,0,1-.261-.094A.323.323,0,0,1,153.343,1109.328Z" transform="translate(-53.58 -1095.06)" fill="#161615"/>
      <path id="Path_600" data-name="Path 600" d="M159.088,1110.731a3.376,3.376,0,0,1-.473,1.956,1.6,1.6,0,0,1-1.394.668,1.616,1.616,0,0,1-1.387-.655,3.258,3.258,0,0,1-.494-1.907V1109.7a3.315,3.315,0,0,1,.477-1.947,1.808,1.808,0,0,1,2.776-.024,3.186,3.186,0,0,1,.494,1.881Zm-.5-1.093a2.974,2.974,0,0,0-.341-1.583,1.261,1.261,0,0,0-2.054-.012,2.878,2.878,0,0,0-.352,1.545v1.2a2.976,2.976,0,0,0,.354,1.6,1.147,1.147,0,0,0,1.029.552,1.13,1.13,0,0,0,1.015-.541,2.988,2.988,0,0,0,.349-1.582Z" transform="translate(-53.816 -1094.838)" fill="#161615"/>
      <path id="Path_601" data-name="Path 601" d="M164.475,1110.731a3.369,3.369,0,0,1-.474,1.956,1.6,1.6,0,0,1-1.394.668,1.615,1.615,0,0,1-1.386-.655,3.251,3.251,0,0,1-.494-1.907V1109.7a3.315,3.315,0,0,1,.477-1.947,1.808,1.808,0,0,1,2.776-.024,3.2,3.2,0,0,1,.494,1.881Zm-.5-1.093a2.984,2.984,0,0,0-.34-1.583,1.262,1.262,0,0,0-2.054-.012,2.879,2.879,0,0,0-.351,1.545v1.2a2.977,2.977,0,0,0,.354,1.6,1.145,1.145,0,0,0,1.028.552,1.129,1.129,0,0,0,1.015-.541,2.98,2.98,0,0,0,.349-1.582Z" transform="translate(-54.451 -1094.838)" fill="#161615"/>
      <path id="Path_602" data-name="Path 602" d="M109.263,1124.338a3.378,3.378,0,0,1-.473,1.957,1.6,1.6,0,0,1-1.395.668,1.616,1.616,0,0,1-1.386-.655,3.249,3.249,0,0,1-.494-1.907v-1.092a3.315,3.315,0,0,1,.477-1.947,1.807,1.807,0,0,1,2.776-.023,3.194,3.194,0,0,1,.494,1.881Zm-.5-1.092a2.981,2.981,0,0,0-.34-1.583,1.261,1.261,0,0,0-2.054-.013,2.883,2.883,0,0,0-.351,1.545v1.2a2.974,2.974,0,0,0,.354,1.6,1.146,1.146,0,0,0,1.028.552,1.13,1.13,0,0,0,1.015-.54,2.98,2.98,0,0,0,.349-1.583Z" transform="translate(-47.942 -1096.442)" fill="#161615"/>
      <path id="Path_603" data-name="Path 603" d="M114.091,1124.057a1.893,1.893,0,0,1-.666.609,1.786,1.786,0,0,1-.862.215,1.6,1.6,0,0,1-.917-.268,1.75,1.75,0,0,1-.615-.74,2.442,2.442,0,0,1-.218-1.035,2.552,2.552,0,0,1,.232-1.1,1.835,1.835,0,0,1,.649-.769,1.707,1.707,0,0,1,.961-.274,1.724,1.724,0,0,1,1.428.642,2.874,2.874,0,0,1,.511,1.823v.453a3.746,3.746,0,0,1-.7,2.478,2.659,2.659,0,0,1-2.148.829h-.092l0-.436h.176a2.226,2.226,0,0,0,1.662-.619A2.652,2.652,0,0,0,114.091,1124.057Zm-1.465.389a1.469,1.469,0,0,0,.9-.3,1.613,1.613,0,0,0,.567-.775v-.288a2.347,2.347,0,0,0-.387-1.439,1.242,1.242,0,0,0-1.044-.512,1.193,1.193,0,0,0-.976.478,1.872,1.872,0,0,0-.381,1.2,1.822,1.822,0,0,0,.366,1.164A1.158,1.158,0,0,0,112.626,1124.446Z" transform="translate(-48.567 -1096.442)" fill="#161615"/>
      <path id="Path_604" data-name="Path 604" d="M116.323,1126.8a.351.351,0,0,1,.094-.249.339.339,0,0,1,.262-.1.344.344,0,0,1,.263.1.349.349,0,0,1,.1.249.321.321,0,0,1-.1.241.359.359,0,0,1-.263.094.354.354,0,0,1-.262-.094A.323.323,0,0,1,116.323,1126.8Zm.009-3.865a.356.356,0,0,1,.094-.249.339.339,0,0,1,.262-.1.347.347,0,0,1,.264.1.355.355,0,0,1,.1.249.326.326,0,0,1-.1.242.362.362,0,0,1-.264.094.354.354,0,0,1-.262-.094A.327.327,0,0,1,116.332,1122.935Z" transform="translate(-49.216 -1096.664)" fill="#161615"/>
      <path id="Path_605" data-name="Path 605" d="M122.077,1124.338a3.378,3.378,0,0,1-.473,1.957,1.6,1.6,0,0,1-1.395.668,1.616,1.616,0,0,1-1.386-.655,3.249,3.249,0,0,1-.494-1.907v-1.092a3.315,3.315,0,0,1,.477-1.947,1.807,1.807,0,0,1,2.776-.023,3.194,3.194,0,0,1,.494,1.881Zm-.5-1.092a2.981,2.981,0,0,0-.34-1.583,1.261,1.261,0,0,0-2.054-.013,2.883,2.883,0,0,0-.351,1.545v1.2a2.974,2.974,0,0,0,.354,1.6,1.145,1.145,0,0,0,1.028.552,1.13,1.13,0,0,0,1.015-.54,2.98,2.98,0,0,0,.349-1.583Z" transform="translate(-49.453 -1096.442)" fill="#161615"/>
      <path id="Path_606" data-name="Path 606" d="M127.464,1124.338a3.371,3.371,0,0,1-.474,1.957,1.6,1.6,0,0,1-1.394.668,1.616,1.616,0,0,1-1.386-.655,3.249,3.249,0,0,1-.494-1.907v-1.092a3.309,3.309,0,0,1,.477-1.947,1.807,1.807,0,0,1,2.776-.023,3.194,3.194,0,0,1,.494,1.881Zm-.5-1.092a2.972,2.972,0,0,0-.341-1.583,1.26,1.26,0,0,0-2.054-.013,2.883,2.883,0,0,0-.351,1.545v1.2a2.974,2.974,0,0,0,.354,1.6,1.144,1.144,0,0,0,1.028.552,1.13,1.13,0,0,0,1.015-.54,2.98,2.98,0,0,0,.349-1.583Z" transform="translate(-50.088 -1096.442)" fill="#161615"/>
      <path id="Path_607" data-name="Path 607" d="M136.093,1124.839h-2.005v-.422h2.005Z" transform="translate(-51.311 -1096.88)" fill="#161615"/>
      <path id="Path_608" data-name="Path 608" d="M144.962,1126.888h-.5v-5.493l-1.658.616v-.469l2.076-.77h.083Z" transform="translate(-52.338 -1096.45)" fill="#161615"/>
      <path id="Path_609" data-name="Path 609" d="M149.086,1123.559h.52a1.731,1.731,0,0,0,.753-.153,1.147,1.147,0,0,0,.492-.418,1.118,1.118,0,0,0,.169-.614,1.24,1.24,0,0,0-.331-.917,1.289,1.289,0,0,0-.95-.33,1.36,1.36,0,0,0-.961.345,1.179,1.179,0,0,0-.375.911h-.5a1.622,1.622,0,0,1,.239-.864,1.6,1.6,0,0,1,.662-.605,2.039,2.039,0,0,1,.938-.214,1.823,1.823,0,0,1,1.306.453,1.624,1.624,0,0,1,.477,1.238,1.324,1.324,0,0,1-.279.811,1.678,1.678,0,0,1-.764.555,1.562,1.562,0,0,1,.862.546,1.482,1.482,0,0,1,.293.923,1.644,1.644,0,0,1-.51,1.261,1.919,1.919,0,0,1-1.366.477,2.258,2.258,0,0,1-1-.219,1.609,1.609,0,0,1-.953-1.519h.5a1.217,1.217,0,0,0,.407.948,1.5,1.5,0,0,0,1.042.366,1.434,1.434,0,0,0,1.011-.333,1.245,1.245,0,0,0,.363-.965,1.14,1.14,0,0,0-.392-.933,1.78,1.78,0,0,0-1.153-.322h-.5Z" transform="translate(-52.928 -1096.442)" fill="#161615"/>
      <path id="Path_610" data-name="Path 610" d="M153.334,1126.8a.355.355,0,0,1,.094-.249.339.339,0,0,1,.262-.1.347.347,0,0,1,.264.1.353.353,0,0,1,.1.249.324.324,0,0,1-.1.241.362.362,0,0,1-.264.094.354.354,0,0,1-.262-.094A.326.326,0,0,1,153.334,1126.8Zm.009-3.865a.353.353,0,0,1,.094-.249.337.337,0,0,1,.261-.1.346.346,0,0,1,.264.1.351.351,0,0,1,.1.249.323.323,0,0,1-.1.242.361.361,0,0,1-.264.094.351.351,0,0,1-.261-.094A.325.325,0,0,1,153.343,1122.935Z" transform="translate(-53.58 -1096.664)" fill="#161615"/>
      <path id="Path_611" data-name="Path 611" d="M159.088,1124.338a3.378,3.378,0,0,1-.473,1.957,1.6,1.6,0,0,1-1.394.668,1.617,1.617,0,0,1-1.387-.655,3.256,3.256,0,0,1-.494-1.907v-1.092a3.315,3.315,0,0,1,.477-1.947,1.807,1.807,0,0,1,2.776-.023,3.182,3.182,0,0,1,.494,1.881Zm-.5-1.092a2.972,2.972,0,0,0-.341-1.583,1.26,1.26,0,0,0-2.054-.013,2.882,2.882,0,0,0-.352,1.545v1.2a2.974,2.974,0,0,0,.354,1.6,1.146,1.146,0,0,0,1.029.552,1.131,1.131,0,0,0,1.015-.54,2.988,2.988,0,0,0,.349-1.583Z" transform="translate(-53.816 -1096.442)" fill="#161615"/>
      <path id="Path_612" data-name="Path 612" d="M164.475,1124.338A3.371,3.371,0,0,1,164,1126.3a1.6,1.6,0,0,1-1.394.668,1.616,1.616,0,0,1-1.386-.655,3.25,3.25,0,0,1-.494-1.907v-1.092a3.315,3.315,0,0,1,.477-1.947,1.807,1.807,0,0,1,2.776-.023,3.194,3.194,0,0,1,.494,1.881Zm-.5-1.092a2.981,2.981,0,0,0-.34-1.583,1.261,1.261,0,0,0-2.054-.013,2.883,2.883,0,0,0-.351,1.545v1.2a2.974,2.974,0,0,0,.354,1.6,1.145,1.145,0,0,0,1.028.552,1.13,1.13,0,0,0,1.015-.54,2.98,2.98,0,0,0,.349-1.583Z" transform="translate(-54.451 -1096.442)" fill="#161615"/>
      <path id="Path_613" data-name="Path 613" d="M109.263,1137.945a3.378,3.378,0,0,1-.473,1.957,1.792,1.792,0,0,1-2.78.013,3.252,3.252,0,0,1-.494-1.907v-1.093a3.317,3.317,0,0,1,.477-1.947,1.807,1.807,0,0,1,2.776-.023,3.2,3.2,0,0,1,.494,1.881Zm-.5-1.092a2.981,2.981,0,0,0-.34-1.582,1.261,1.261,0,0,0-2.054-.012,2.878,2.878,0,0,0-.351,1.544v1.2a2.976,2.976,0,0,0,.354,1.6,1.147,1.147,0,0,0,1.028.551,1.13,1.13,0,0,0,1.015-.54,2.98,2.98,0,0,0,.349-1.582Z" transform="translate(-47.942 -1098.046)" fill="#161615"/>
      <path id="Path_614" data-name="Path 614" d="M114.091,1137.664a1.884,1.884,0,0,1-.666.609,1.776,1.776,0,0,1-.862.216,1.607,1.607,0,0,1-.917-.268,1.753,1.753,0,0,1-.615-.741,2.439,2.439,0,0,1-.218-1.035,2.551,2.551,0,0,1,.232-1.1,1.826,1.826,0,0,1,.649-.768,1.707,1.707,0,0,1,.961-.274,1.725,1.725,0,0,1,1.428.643,2.871,2.871,0,0,1,.511,1.823v.453a3.749,3.749,0,0,1-.7,2.479,2.659,2.659,0,0,1-2.148.828h-.092l0-.435h.176a2.229,2.229,0,0,0,1.662-.619A2.654,2.654,0,0,0,114.091,1137.664Zm-1.465.389a1.474,1.474,0,0,0,.9-.3,1.622,1.622,0,0,0,.567-.775v-.289a2.342,2.342,0,0,0-.387-1.438,1.242,1.242,0,0,0-1.044-.512,1.191,1.191,0,0,0-.976.478,1.872,1.872,0,0,0-.381,1.2,1.819,1.819,0,0,0,.366,1.163A1.155,1.155,0,0,0,112.626,1138.053Z" transform="translate(-48.567 -1098.046)" fill="#161615"/>
      <path id="Path_615" data-name="Path 615" d="M116.323,1140.407a.352.352,0,0,1,.094-.249.339.339,0,0,1,.262-.1.344.344,0,0,1,.263.1.349.349,0,0,1,.1.249.321.321,0,0,1-.1.242.362.362,0,0,1-.263.094.357.357,0,0,1-.262-.094A.324.324,0,0,1,116.323,1140.407Zm.009-3.864a.357.357,0,0,1,.094-.25.339.339,0,0,1,.262-.1.347.347,0,0,1,.264.1.355.355,0,0,1,.1.25.324.324,0,0,1-.1.241.362.362,0,0,1-.264.094.354.354,0,0,1-.262-.094A.326.326,0,0,1,116.332,1136.543Z" transform="translate(-49.216 -1098.268)" fill="#161615"/>
      <path id="Path_616" data-name="Path 616" d="M122.077,1137.945a3.378,3.378,0,0,1-.473,1.957,1.792,1.792,0,0,1-2.78.013,3.252,3.252,0,0,1-.494-1.907v-1.093a3.317,3.317,0,0,1,.477-1.947,1.807,1.807,0,0,1,2.776-.023,3.2,3.2,0,0,1,.494,1.881Zm-.5-1.092a2.981,2.981,0,0,0-.34-1.582,1.261,1.261,0,0,0-2.054-.012,2.878,2.878,0,0,0-.351,1.544v1.2a2.976,2.976,0,0,0,.354,1.6,1.146,1.146,0,0,0,1.028.551,1.13,1.13,0,0,0,1.015-.54,2.98,2.98,0,0,0,.349-1.582Z" transform="translate(-49.453 -1098.046)" fill="#161615"/>
      <path id="Path_617" data-name="Path 617" d="M127.464,1137.945a3.37,3.37,0,0,1-.474,1.957,1.6,1.6,0,0,1-1.394.668,1.615,1.615,0,0,1-1.386-.654,3.252,3.252,0,0,1-.494-1.907v-1.093a3.31,3.31,0,0,1,.477-1.947,1.807,1.807,0,0,1,2.776-.023,3.2,3.2,0,0,1,.494,1.881Zm-.5-1.092a2.972,2.972,0,0,0-.341-1.582,1.261,1.261,0,0,0-2.054-.012,2.878,2.878,0,0,0-.351,1.544v1.2a2.976,2.976,0,0,0,.354,1.6,1.145,1.145,0,0,0,1.028.551,1.13,1.13,0,0,0,1.015-.54,2.98,2.98,0,0,0,.349-1.582Z" transform="translate(-50.088 -1098.046)" fill="#161615"/>
      <path id="Path_618" data-name="Path 618" d="M136.093,1138.446h-2.005v-.423h2.005Z" transform="translate(-51.311 -1098.484)" fill="#161615"/>
      <path id="Path_619" data-name="Path 619" d="M144.962,1140.495h-.5V1135l-1.658.615v-.468l2.076-.77h.083Z" transform="translate(-52.338 -1098.055)" fill="#161615"/>
      <path id="Path_620" data-name="Path 620" d="M149.086,1137.167h.52a1.745,1.745,0,0,0,.753-.153,1.155,1.155,0,0,0,.492-.419,1.115,1.115,0,0,0,.169-.613,1.239,1.239,0,0,0-.331-.917,1.289,1.289,0,0,0-.95-.33,1.363,1.363,0,0,0-.961.344,1.18,1.18,0,0,0-.375.911h-.5a1.623,1.623,0,0,1,.239-.865,1.594,1.594,0,0,1,.662-.6,2.027,2.027,0,0,1,.938-.214,1.823,1.823,0,0,1,1.306.453,1.627,1.627,0,0,1,.477,1.239,1.323,1.323,0,0,1-.279.811,1.664,1.664,0,0,1-.764.555,1.563,1.563,0,0,1,.862.546,1.482,1.482,0,0,1,.293.923,1.642,1.642,0,0,1-.51,1.26,1.918,1.918,0,0,1-1.366.477,2.271,2.271,0,0,1-1-.218,1.611,1.611,0,0,1-.953-1.52h.5a1.216,1.216,0,0,0,.407.948,1.49,1.49,0,0,0,1.042.366,1.438,1.438,0,0,0,1.011-.332,1.246,1.246,0,0,0,.363-.965,1.142,1.142,0,0,0-.392-.934,1.781,1.781,0,0,0-1.153-.322h-.5Z" transform="translate(-52.928 -1098.046)" fill="#161615"/>
      <path id="Path_621" data-name="Path 621" d="M153.334,1140.407a.356.356,0,0,1,.094-.249.339.339,0,0,1,.262-.1.347.347,0,0,1,.264.1.353.353,0,0,1,.1.249.325.325,0,0,1-.1.242.366.366,0,0,1-.264.094.357.357,0,0,1-.262-.094A.327.327,0,0,1,153.334,1140.407Zm.009-3.864a.354.354,0,0,1,.094-.25.337.337,0,0,1,.261-.1.346.346,0,0,1,.264.1.351.351,0,0,1,.1.25.321.321,0,0,1-.1.241.361.361,0,0,1-.264.094.352.352,0,0,1-.261-.094A.323.323,0,0,1,153.343,1136.543Z" transform="translate(-53.58 -1098.268)" fill="#161615"/>
      <path id="Path_622" data-name="Path 622" d="M159.088,1137.945a3.377,3.377,0,0,1-.473,1.957,1.6,1.6,0,0,1-1.394.668,1.616,1.616,0,0,1-1.387-.654,3.258,3.258,0,0,1-.494-1.907v-1.093a3.317,3.317,0,0,1,.477-1.947,1.807,1.807,0,0,1,2.776-.023,3.182,3.182,0,0,1,.494,1.881Zm-.5-1.092a2.972,2.972,0,0,0-.341-1.582,1.261,1.261,0,0,0-2.054-.012,2.877,2.877,0,0,0-.352,1.544v1.2a2.976,2.976,0,0,0,.354,1.6,1.148,1.148,0,0,0,1.029.551,1.131,1.131,0,0,0,1.015-.54,2.988,2.988,0,0,0,.349-1.582Z" transform="translate(-53.816 -1098.046)" fill="#161615"/>
      <path id="Path_623" data-name="Path 623" d="M164.475,1137.945A3.37,3.37,0,0,1,164,1139.9a1.6,1.6,0,0,1-1.394.668,1.615,1.615,0,0,1-1.386-.654,3.252,3.252,0,0,1-.494-1.907v-1.093a3.317,3.317,0,0,1,.477-1.947,1.807,1.807,0,0,1,2.776-.023,3.2,3.2,0,0,1,.494,1.881Zm-.5-1.092a2.981,2.981,0,0,0-.34-1.582,1.261,1.261,0,0,0-2.054-.012,2.878,2.878,0,0,0-.351,1.544v1.2a2.976,2.976,0,0,0,.354,1.6,1.146,1.146,0,0,0,1.028.551,1.13,1.13,0,0,0,1.015-.54,2.98,2.98,0,0,0,.349-1.582Z" transform="translate(-54.451 -1098.046)" fill="#161615"/>
      <path id="Path_624" data-name="Path 624" d="M109.263,1151.554a3.38,3.38,0,0,1-.473,1.957,1.793,1.793,0,0,1-2.78.012,3.251,3.251,0,0,1-.494-1.907v-1.092a3.315,3.315,0,0,1,.477-1.947,1.808,1.808,0,0,1,2.776-.024,3.2,3.2,0,0,1,.494,1.881Zm-.5-1.092a2.979,2.979,0,0,0-.34-1.582,1.261,1.261,0,0,0-2.054-.013,2.879,2.879,0,0,0-.351,1.545v1.2a2.976,2.976,0,0,0,.354,1.6,1.146,1.146,0,0,0,1.028.552,1.13,1.13,0,0,0,1.015-.54,2.982,2.982,0,0,0,.349-1.582Z" transform="translate(-47.942 -1099.65)" fill="#161615"/>
      <path id="Path_625" data-name="Path 625" d="M114.091,1151.272a1.886,1.886,0,0,1-.666.61,1.786,1.786,0,0,1-.862.215,1.607,1.607,0,0,1-.917-.268,1.748,1.748,0,0,1-.615-.741,2.438,2.438,0,0,1-.218-1.034,2.552,2.552,0,0,1,.232-1.1,1.827,1.827,0,0,1,.649-.768,1.876,1.876,0,0,1,2.389.369,2.874,2.874,0,0,1,.511,1.823v.452a3.748,3.748,0,0,1-.7,2.479,2.658,2.658,0,0,1-2.148.828h-.092l0-.435h.176a2.226,2.226,0,0,0,1.662-.619A2.655,2.655,0,0,0,114.091,1151.272Zm-1.465.39a1.468,1.468,0,0,0,.9-.3,1.621,1.621,0,0,0,.567-.774v-.288a2.347,2.347,0,0,0-.387-1.439,1.242,1.242,0,0,0-1.044-.512,1.193,1.193,0,0,0-.976.478,1.872,1.872,0,0,0-.381,1.2,1.819,1.819,0,0,0,.366,1.163A1.156,1.156,0,0,0,112.626,1151.662Z" transform="translate(-48.567 -1099.65)" fill="#161615"/>
      <path id="Path_626" data-name="Path 626" d="M116.323,1154.016a.352.352,0,0,1,.094-.249.337.337,0,0,1,.262-.1.341.341,0,0,1,.263.1.349.349,0,0,1,.1.249.321.321,0,0,1-.1.241.359.359,0,0,1-.263.094.354.354,0,0,1-.262-.094A.323.323,0,0,1,116.323,1154.016Zm.009-3.865a.356.356,0,0,1,.094-.249.339.339,0,0,1,.262-.1.347.347,0,0,1,.264.1.355.355,0,0,1,.1.249.324.324,0,0,1-.1.241.359.359,0,0,1-.264.094.351.351,0,0,1-.262-.094A.325.325,0,0,1,116.332,1150.151Z" transform="translate(-49.216 -1099.873)" fill="#161615"/>
      <path id="Path_627" data-name="Path 627" d="M122.077,1151.554a3.38,3.38,0,0,1-.473,1.957,1.793,1.793,0,0,1-2.78.012,3.251,3.251,0,0,1-.494-1.907v-1.092a3.315,3.315,0,0,1,.477-1.947,1.808,1.808,0,0,1,2.776-.024,3.2,3.2,0,0,1,.494,1.881Zm-.5-1.092a2.979,2.979,0,0,0-.34-1.582,1.261,1.261,0,0,0-2.054-.013,2.879,2.879,0,0,0-.351,1.545v1.2a2.977,2.977,0,0,0,.354,1.6,1.145,1.145,0,0,0,1.028.552,1.13,1.13,0,0,0,1.015-.54,2.982,2.982,0,0,0,.349-1.582Z" transform="translate(-49.453 -1099.65)" fill="#161615"/>
      <path id="Path_628" data-name="Path 628" d="M127.464,1151.554a3.373,3.373,0,0,1-.474,1.957,1.6,1.6,0,0,1-1.394.667,1.615,1.615,0,0,1-1.386-.655,3.251,3.251,0,0,1-.494-1.907v-1.092a3.309,3.309,0,0,1,.477-1.947,1.808,1.808,0,0,1,2.776-.024,3.2,3.2,0,0,1,.494,1.881Zm-.5-1.092a2.969,2.969,0,0,0-.341-1.582,1.26,1.26,0,0,0-2.054-.013,2.879,2.879,0,0,0-.351,1.545v1.2a2.977,2.977,0,0,0,.354,1.6,1.144,1.144,0,0,0,1.028.552,1.13,1.13,0,0,0,1.015-.54,2.982,2.982,0,0,0,.349-1.582Z" transform="translate(-50.088 -1099.65)" fill="#161615"/>
      <path id="Path_629" data-name="Path 629" d="M136.093,1152.055h-2.005v-.423h2.005Z" transform="translate(-51.311 -1100.089)" fill="#161615"/>
      <path id="Path_630" data-name="Path 630" d="M144.962,1154.1h-.5v-5.493l-1.658.615v-.468l2.076-.77h.083Z" transform="translate(-52.338 -1099.659)" fill="#161615"/>
      <path id="Path_631" data-name="Path 631" d="M149.086,1150.775h.52a1.745,1.745,0,0,0,.753-.153,1.147,1.147,0,0,0,.492-.418,1.12,1.12,0,0,0,.169-.614,1.24,1.24,0,0,0-.331-.917,1.289,1.289,0,0,0-.95-.33,1.36,1.36,0,0,0-.961.345,1.177,1.177,0,0,0-.375.91h-.5a1.62,1.62,0,0,1,.239-.864,1.6,1.6,0,0,1,.662-.605,2.039,2.039,0,0,1,.938-.214,1.826,1.826,0,0,1,1.306.452,1.628,1.628,0,0,1,.477,1.239,1.325,1.325,0,0,1-.279.811,1.677,1.677,0,0,1-.764.555,1.563,1.563,0,0,1,.862.546,1.48,1.48,0,0,1,.293.923,1.642,1.642,0,0,1-.51,1.26,1.914,1.914,0,0,1-1.366.477,2.27,2.27,0,0,1-1-.218,1.609,1.609,0,0,1-.953-1.519h.5a1.218,1.218,0,0,0,.407.948,1.5,1.5,0,0,0,1.042.366,1.434,1.434,0,0,0,1.011-.333,1.245,1.245,0,0,0,.363-.965,1.14,1.14,0,0,0-.392-.933,1.775,1.775,0,0,0-1.153-.323h-.5Z" transform="translate(-52.928 -1099.65)" fill="#161615"/>
      <path id="Path_632" data-name="Path 632" d="M153.334,1154.016a.356.356,0,0,1,.094-.249.337.337,0,0,1,.262-.1.344.344,0,0,1,.264.1.353.353,0,0,1,.1.249.324.324,0,0,1-.1.241.363.363,0,0,1-.264.094.354.354,0,0,1-.262-.094A.326.326,0,0,1,153.334,1154.016Zm.009-3.865a.353.353,0,0,1,.094-.249.337.337,0,0,1,.261-.1.346.346,0,0,1,.264.1.351.351,0,0,1,.1.249.321.321,0,0,1-.1.241.358.358,0,0,1-.264.094.348.348,0,0,1-.261-.094A.323.323,0,0,1,153.343,1150.151Z" transform="translate(-53.58 -1099.873)" fill="#161615"/>
      <path id="Path_633" data-name="Path 633" d="M159.088,1151.554a3.38,3.38,0,0,1-.473,1.957,1.793,1.793,0,0,1-2.78.012,3.258,3.258,0,0,1-.494-1.907v-1.092a3.315,3.315,0,0,1,.477-1.947,1.808,1.808,0,0,1,2.776-.024,3.186,3.186,0,0,1,.494,1.881Zm-.5-1.092a2.969,2.969,0,0,0-.341-1.582,1.26,1.26,0,0,0-2.054-.013,2.878,2.878,0,0,0-.352,1.545v1.2a2.976,2.976,0,0,0,.354,1.6,1.147,1.147,0,0,0,1.029.552,1.131,1.131,0,0,0,1.015-.54,2.99,2.99,0,0,0,.349-1.582Z" transform="translate(-53.816 -1099.65)" fill="#161615"/>
      <path id="Path_634" data-name="Path 634" d="M164.475,1151.554a3.373,3.373,0,0,1-.474,1.957,1.6,1.6,0,0,1-1.394.667,1.615,1.615,0,0,1-1.386-.655,3.251,3.251,0,0,1-.494-1.907v-1.092a3.315,3.315,0,0,1,.477-1.947,1.808,1.808,0,0,1,2.776-.024,3.2,3.2,0,0,1,.494,1.881Zm-.5-1.092a2.979,2.979,0,0,0-.34-1.582,1.261,1.261,0,0,0-2.054-.013,2.879,2.879,0,0,0-.351,1.545v1.2a2.977,2.977,0,0,0,.354,1.6,1.145,1.145,0,0,0,1.028.552,1.13,1.13,0,0,0,1.015-.54,2.982,2.982,0,0,0,.349-1.582Z" transform="translate(-54.451 -1099.65)" fill="#161615"/>
      <path id="Path_635" data-name="Path 635" d="M176.927,1113.28h-.5v-5.492l-1.657.615v-.468l2.076-.77h.083Z" transform="translate(-56.107 -1094.846)" fill="#161615"/>
      <path id="Path_636" data-name="Path 636" d="M180.219,1110.16l.3-2.973h3.048v.465h-2.616l-.213,2.061a1.975,1.975,0,0,1,1.147-.335,1.7,1.7,0,0,1,1.315.535,2.033,2.033,0,0,1,.49,1.427,2.164,2.164,0,0,1-.477,1.5,1.716,1.716,0,0,1-1.344.531,1.855,1.855,0,0,1-1.29-.444,1.809,1.809,0,0,1-.565-1.243h.482a1.443,1.443,0,0,0,.423.944,1.358,1.358,0,0,0,.95.32,1.189,1.189,0,0,0,.986-.415,1.847,1.847,0,0,0,.333-1.18,1.594,1.594,0,0,0-.372-1.093,1.285,1.285,0,0,0-1.017-.423,1.9,1.9,0,0,0-.62.091,1.693,1.693,0,0,0-.557.349Z" transform="translate(-56.725 -1094.849)" fill="#161615"/>
      <path id="Path_637" data-name="Path 637" d="M185.1,1113.193a.358.358,0,0,1,.094-.25.34.34,0,0,1,.262-.1.346.346,0,0,1,.264.1.351.351,0,0,1,.1.25.321.321,0,0,1-.1.241.365.365,0,0,1-.264.094.359.359,0,0,1-.262-.094A.326.326,0,0,1,185.1,1113.193Zm.009-3.865a.356.356,0,0,1,.094-.249.337.337,0,0,1,.262-.1.341.341,0,0,1,.263.1.35.35,0,0,1,.1.249.321.321,0,0,1-.1.241.359.359,0,0,1-.263.094.354.354,0,0,1-.262-.094A.326.326,0,0,1,185.113,1109.328Z" transform="translate(-57.325 -1095.06)" fill="#161615"/>
      <path id="Path_638" data-name="Path 638" d="M190.762,1110.731a3.376,3.376,0,0,1-.474,1.956,1.791,1.791,0,0,1-2.78.013,3.245,3.245,0,0,1-.494-1.907V1109.7a3.309,3.309,0,0,1,.477-1.947,1.808,1.808,0,0,1,2.776-.024,3.2,3.2,0,0,1,.494,1.881Zm-.5-1.093a2.974,2.974,0,0,0-.341-1.583,1.261,1.261,0,0,0-2.054-.012,2.879,2.879,0,0,0-.351,1.545v1.2a2.977,2.977,0,0,0,.353,1.6,1.147,1.147,0,0,0,1.029.552,1.129,1.129,0,0,0,1.015-.541,2.98,2.98,0,0,0,.349-1.582Z" transform="translate(-57.55 -1094.838)" fill="#161615"/>
      <path id="Path_639" data-name="Path 639" d="M196.051,1110.731a3.376,3.376,0,0,1-.473,1.956,1.6,1.6,0,0,1-1.394.668,1.616,1.616,0,0,1-1.387-.655,3.251,3.251,0,0,1-.494-1.907V1109.7a3.315,3.315,0,0,1,.477-1.947,1.808,1.808,0,0,1,2.776-.024,3.186,3.186,0,0,1,.494,1.881Zm-.5-1.093a2.975,2.975,0,0,0-.34-1.583,1.261,1.261,0,0,0-2.054-.012,2.87,2.87,0,0,0-.352,1.545v1.2a2.977,2.977,0,0,0,.354,1.6,1.147,1.147,0,0,0,1.029.552,1.128,1.128,0,0,0,1.014-.541,2.98,2.98,0,0,0,.349-1.582Z" transform="translate(-58.174 -1094.838)" fill="#161615"/>
      <path id="Path_640" data-name="Path 640" d="M201.139,1111.231h-2.005v-.423h2.005Z" transform="translate(-58.979 -1095.276)" fill="#161615"/>
      <path id="Path_641" data-name="Path 641" d="M206.079,1113.28h-.5v-5.492l-1.657.615v-.468l2.076-.77h.084Z" transform="translate(-59.543 -1094.846)" fill="#161615"/>
      <path id="Path_642" data-name="Path 642" d="M212.121,1110.449a1.891,1.891,0,0,1-.665.61,1.792,1.792,0,0,1-.863.215,1.6,1.6,0,0,1-.917-.268,1.744,1.744,0,0,1-.616-.741,2.439,2.439,0,0,1-.218-1.035,2.551,2.551,0,0,1,.232-1.1,1.827,1.827,0,0,1,.649-.768,1.876,1.876,0,0,1,2.389.369,2.866,2.866,0,0,1,.511,1.822v.453a3.753,3.753,0,0,1-.7,2.479,2.662,2.662,0,0,1-2.149.828h-.092l0-.435h.176a2.229,2.229,0,0,0,1.661-.619A2.65,2.65,0,0,0,212.121,1110.449Zm-1.465.39a1.472,1.472,0,0,0,.9-.3,1.621,1.621,0,0,0,.567-.774v-.288a2.343,2.343,0,0,0-.387-1.439,1.242,1.242,0,0,0-1.044-.512,1.192,1.192,0,0,0-.976.478,1.872,1.872,0,0,0-.381,1.2,1.825,1.825,0,0,0,.366,1.163A1.157,1.157,0,0,0,210.656,1110.839Z" transform="translate(-60.124 -1094.838)" fill="#161615"/>
      <path id="Path_643" data-name="Path 643" d="M214.256,1113.193a.358.358,0,0,1,.094-.25.339.339,0,0,1,.262-.1.344.344,0,0,1,.263.1.351.351,0,0,1,.1.25.321.321,0,0,1-.1.241.362.362,0,0,1-.263.094.357.357,0,0,1-.262-.094A.326.326,0,0,1,214.256,1113.193Zm.009-3.865a.352.352,0,0,1,.094-.249.333.333,0,0,1,.261-.1.344.344,0,0,1,.264.1.349.349,0,0,1,.1.249.321.321,0,0,1-.1.241.362.362,0,0,1-.264.094.35.35,0,0,1-.261-.094A.323.323,0,0,1,214.265,1109.328Z" transform="translate(-60.762 -1095.06)" fill="#161615"/>
      <path id="Path_644" data-name="Path 644" d="M219.913,1110.731a3.369,3.369,0,0,1-.474,1.956,1.6,1.6,0,0,1-1.394.668,1.615,1.615,0,0,1-1.386-.655,3.251,3.251,0,0,1-.494-1.907V1109.7a3.315,3.315,0,0,1,.477-1.947,1.808,1.808,0,0,1,2.776-.024,3.2,3.2,0,0,1,.494,1.881Zm-.5-1.093a2.983,2.983,0,0,0-.34-1.583,1.262,1.262,0,0,0-2.054-.012,2.878,2.878,0,0,0-.351,1.545v1.2a2.976,2.976,0,0,0,.354,1.6,1.145,1.145,0,0,0,1.028.552,1.129,1.129,0,0,0,1.015-.541,2.98,2.98,0,0,0,.349-1.582Z" transform="translate(-60.987 -1094.838)" fill="#161615"/>
      <path id="Path_645" data-name="Path 645" d="M225.2,1110.731a3.376,3.376,0,0,1-.474,1.956,1.791,1.791,0,0,1-2.78.013,3.245,3.245,0,0,1-.494-1.907V1109.7a3.309,3.309,0,0,1,.477-1.947,1.808,1.808,0,0,1,2.776-.024,3.2,3.2,0,0,1,.494,1.881Zm-.5-1.093a2.974,2.974,0,0,0-.341-1.583,1.261,1.261,0,0,0-2.054-.012,2.879,2.879,0,0,0-.351,1.545v1.2a2.977,2.977,0,0,0,.353,1.6,1.147,1.147,0,0,0,1.029.552,1.129,1.129,0,0,0,1.015-.541,2.98,2.98,0,0,0,.349-1.582Z" transform="translate(-61.611 -1094.838)" fill="#161615"/>
      <path id="Path_646" data-name="Path 646" d="M176.927,1126.888h-.5v-5.493l-1.657.616v-.469l2.076-.77h.083Z" transform="translate(-56.107 -1096.45)" fill="#161615"/>
      <path id="Path_647" data-name="Path 647" d="M180.219,1123.768l.3-2.973h3.048v.464h-2.616l-.213,2.061a1.975,1.975,0,0,1,1.147-.335,1.694,1.694,0,0,1,1.315.536,2.033,2.033,0,0,1,.49,1.427,2.162,2.162,0,0,1-.477,1.494,1.717,1.717,0,0,1-1.344.532,1.855,1.855,0,0,1-1.29-.444,1.812,1.812,0,0,1-.565-1.244h.482a1.445,1.445,0,0,0,.423.945,1.362,1.362,0,0,0,.95.319,1.187,1.187,0,0,0,.986-.415,1.843,1.843,0,0,0,.333-1.18,1.6,1.6,0,0,0-.372-1.093,1.288,1.288,0,0,0-1.017-.422,1.925,1.925,0,0,0-.62.09,1.7,1.7,0,0,0-.557.35Z" transform="translate(-56.725 -1096.453)" fill="#161615"/>
      <path id="Path_648" data-name="Path 648" d="M185.1,1126.8a.355.355,0,0,1,.094-.249.34.34,0,0,1,.262-.1.34.34,0,0,1,.36.351.321.321,0,0,1-.1.241.361.361,0,0,1-.264.094.355.355,0,0,1-.262-.094A.326.326,0,0,1,185.1,1126.8Zm.009-3.865a.357.357,0,0,1,.094-.249.34.34,0,0,1,.262-.1.344.344,0,0,1,.263.1.352.352,0,0,1,.1.249.323.323,0,0,1-.1.242.358.358,0,0,1-.263.094.354.354,0,0,1-.262-.094A.328.328,0,0,1,185.113,1122.935Z" transform="translate(-57.325 -1096.664)" fill="#161615"/>
      <path id="Path_649" data-name="Path 649" d="M190.762,1124.338a3.378,3.378,0,0,1-.474,1.957,1.6,1.6,0,0,1-1.394.668,1.614,1.614,0,0,1-1.386-.655,3.243,3.243,0,0,1-.494-1.907v-1.092a3.309,3.309,0,0,1,.477-1.947,1.807,1.807,0,0,1,2.776-.023,3.194,3.194,0,0,1,.494,1.881Zm-.5-1.092a2.972,2.972,0,0,0-.341-1.583,1.26,1.26,0,0,0-2.054-.013,2.883,2.883,0,0,0-.351,1.545v1.2a2.975,2.975,0,0,0,.353,1.6,1.146,1.146,0,0,0,1.029.552,1.13,1.13,0,0,0,1.015-.54,2.98,2.98,0,0,0,.349-1.583Z" transform="translate(-57.55 -1096.442)" fill="#161615"/>
      <path id="Path_650" data-name="Path 650" d="M196.051,1124.338a3.378,3.378,0,0,1-.473,1.957,1.6,1.6,0,0,1-1.394.668,1.617,1.617,0,0,1-1.387-.655,3.249,3.249,0,0,1-.494-1.907v-1.092a3.315,3.315,0,0,1,.477-1.947,1.807,1.807,0,0,1,2.776-.023,3.182,3.182,0,0,1,.494,1.881Zm-.5-1.092a2.973,2.973,0,0,0-.34-1.583,1.26,1.26,0,0,0-2.054-.013,2.874,2.874,0,0,0-.352,1.545v1.2a2.974,2.974,0,0,0,.354,1.6,1.146,1.146,0,0,0,1.029.552,1.129,1.129,0,0,0,1.014-.54,2.98,2.98,0,0,0,.349-1.583Z" transform="translate(-58.174 -1096.442)" fill="#161615"/>
      <path id="Path_651" data-name="Path 651" d="M201.139,1124.839h-2.005v-.422h2.005Z" transform="translate(-58.979 -1096.88)" fill="#161615"/>
      <path id="Path_652" data-name="Path 652" d="M206.079,1126.888h-.5v-5.493l-1.657.616v-.469l2.076-.77h.084Z" transform="translate(-59.543 -1096.45)" fill="#161615"/>
      <path id="Path_653" data-name="Path 653" d="M212.121,1124.057a1.9,1.9,0,0,1-.665.609,1.792,1.792,0,0,1-.863.215,1.6,1.6,0,0,1-.917-.268,1.745,1.745,0,0,1-.616-.74,2.442,2.442,0,0,1-.218-1.035,2.552,2.552,0,0,1,.232-1.1,1.835,1.835,0,0,1,.649-.769,1.876,1.876,0,0,1,2.389.369,2.868,2.868,0,0,1,.511,1.823v.453a3.751,3.751,0,0,1-.7,2.478,2.662,2.662,0,0,1-2.149.829h-.092l0-.436h.176a2.225,2.225,0,0,0,1.661-.619A2.648,2.648,0,0,0,212.121,1124.057Zm-1.465.389a1.467,1.467,0,0,0,.9-.3,1.613,1.613,0,0,0,.567-.775v-.288a2.347,2.347,0,0,0-.387-1.439,1.242,1.242,0,0,0-1.044-.512,1.194,1.194,0,0,0-.976.478,1.872,1.872,0,0,0-.381,1.2,1.827,1.827,0,0,0,.366,1.164A1.158,1.158,0,0,0,210.656,1124.446Z" transform="translate(-60.124 -1096.442)" fill="#161615"/>
      <path id="Path_654" data-name="Path 654" d="M214.256,1126.8a.355.355,0,0,1,.094-.249.339.339,0,0,1,.262-.1.344.344,0,0,1,.263.1.349.349,0,0,1,.1.249.321.321,0,0,1-.1.241.359.359,0,0,1-.263.094.354.354,0,0,1-.262-.094A.326.326,0,0,1,214.256,1126.8Zm.009-3.865a.353.353,0,0,1,.094-.249.336.336,0,0,1,.261-.1.34.34,0,0,1,.36.351.323.323,0,0,1-.1.242.362.362,0,0,1-.264.094.35.35,0,0,1-.261-.094A.325.325,0,0,1,214.265,1122.935Z" transform="translate(-60.762 -1096.664)" fill="#161615"/>
      <path id="Path_655" data-name="Path 655" d="M219.913,1124.338a3.371,3.371,0,0,1-.474,1.957,1.6,1.6,0,0,1-1.394.668,1.616,1.616,0,0,1-1.386-.655,3.249,3.249,0,0,1-.494-1.907v-1.092a3.315,3.315,0,0,1,.477-1.947,1.807,1.807,0,0,1,2.776-.023,3.194,3.194,0,0,1,.494,1.881Zm-.5-1.092a2.981,2.981,0,0,0-.34-1.583,1.261,1.261,0,0,0-2.054-.013,2.883,2.883,0,0,0-.351,1.545v1.2a2.974,2.974,0,0,0,.354,1.6,1.145,1.145,0,0,0,1.028.552,1.13,1.13,0,0,0,1.015-.54,2.98,2.98,0,0,0,.349-1.583Z" transform="translate(-60.987 -1096.442)" fill="#161615"/>
      <path id="Path_656" data-name="Path 656" d="M225.2,1124.338a3.378,3.378,0,0,1-.474,1.957,1.6,1.6,0,0,1-1.394.668,1.614,1.614,0,0,1-1.386-.655,3.243,3.243,0,0,1-.494-1.907v-1.092a3.309,3.309,0,0,1,.477-1.947,1.807,1.807,0,0,1,2.776-.023,3.194,3.194,0,0,1,.494,1.881Zm-.5-1.092a2.972,2.972,0,0,0-.341-1.583,1.26,1.26,0,0,0-2.054-.013,2.883,2.883,0,0,0-.351,1.545v1.2a2.975,2.975,0,0,0,.353,1.6,1.146,1.146,0,0,0,1.029.552,1.13,1.13,0,0,0,1.015-.54,2.98,2.98,0,0,0,.349-1.583Z" transform="translate(-61.611 -1096.442)" fill="#161615"/>
      <path id="Path_657" data-name="Path 657" d="M176.927,1140.495h-.5V1135l-1.657.615v-.468l2.076-.77h.083Z" transform="translate(-56.107 -1098.055)" fill="#161615"/>
      <path id="Path_658" data-name="Path 658" d="M180.219,1137.375l.3-2.973h3.048v.464h-2.616l-.213,2.061a1.974,1.974,0,0,1,1.147-.334,1.7,1.7,0,0,1,1.315.535,2.034,2.034,0,0,1,.49,1.427,2.16,2.16,0,0,1-.477,1.494,1.713,1.713,0,0,1-1.344.532,1.856,1.856,0,0,1-1.29-.444,1.812,1.812,0,0,1-.565-1.243h.482a1.443,1.443,0,0,0,.423.944,1.361,1.361,0,0,0,.95.319,1.189,1.189,0,0,0,.986-.414,1.847,1.847,0,0,0,.333-1.18,1.6,1.6,0,0,0-.372-1.093,1.286,1.286,0,0,0-1.017-.423,1.9,1.9,0,0,0-.62.091,1.691,1.691,0,0,0-.557.349Z" transform="translate(-56.725 -1098.057)" fill="#161615"/>
      <path id="Path_659" data-name="Path 659" d="M185.1,1140.407a.356.356,0,0,1,.094-.249.34.34,0,0,1,.262-.1.346.346,0,0,1,.264.1.349.349,0,0,1,.1.249.321.321,0,0,1-.1.242.365.365,0,0,1-.264.094.359.359,0,0,1-.262-.094A.327.327,0,0,1,185.1,1140.407Zm.009-3.864a.358.358,0,0,1,.094-.25.339.339,0,0,1,.262-.1.344.344,0,0,1,.263.1.352.352,0,0,1,.1.25.321.321,0,0,1-.1.241.359.359,0,0,1-.263.094.354.354,0,0,1-.262-.094A.326.326,0,0,1,185.113,1136.543Z" transform="translate(-57.325 -1098.268)" fill="#161615"/>
      <path id="Path_660" data-name="Path 660" d="M190.762,1137.945a3.377,3.377,0,0,1-.474,1.957,1.6,1.6,0,0,1-1.394.668,1.613,1.613,0,0,1-1.386-.654,3.245,3.245,0,0,1-.494-1.907v-1.093a3.31,3.31,0,0,1,.477-1.947,1.807,1.807,0,0,1,2.776-.023,3.2,3.2,0,0,1,.494,1.881Zm-.5-1.092a2.972,2.972,0,0,0-.341-1.582,1.261,1.261,0,0,0-2.054-.012,2.878,2.878,0,0,0-.351,1.544v1.2a2.977,2.977,0,0,0,.353,1.6,1.148,1.148,0,0,0,1.029.551,1.13,1.13,0,0,0,1.015-.54,2.98,2.98,0,0,0,.349-1.582Z" transform="translate(-57.55 -1098.046)" fill="#161615"/>
      <path id="Path_661" data-name="Path 661" d="M196.051,1137.945a3.378,3.378,0,0,1-.473,1.957,1.6,1.6,0,0,1-1.394.668,1.616,1.616,0,0,1-1.387-.654,3.251,3.251,0,0,1-.494-1.907v-1.093a3.317,3.317,0,0,1,.477-1.947,1.807,1.807,0,0,1,2.776-.023,3.182,3.182,0,0,1,.494,1.881Zm-.5-1.092a2.972,2.972,0,0,0-.34-1.582,1.261,1.261,0,0,0-2.054-.012,2.869,2.869,0,0,0-.352,1.544v1.2a2.976,2.976,0,0,0,.354,1.6,1.148,1.148,0,0,0,1.029.551,1.129,1.129,0,0,0,1.014-.54,2.98,2.98,0,0,0,.349-1.582Z" transform="translate(-58.174 -1098.046)" fill="#161615"/>
      <path id="Path_662" data-name="Path 662" d="M201.139,1138.446h-2.005v-.423h2.005Z" transform="translate(-58.979 -1098.484)" fill="#161615"/>
      <path id="Path_663" data-name="Path 663" d="M206.079,1140.495h-.5V1135l-1.657.615v-.468l2.076-.77h.084Z" transform="translate(-59.543 -1098.055)" fill="#161615"/>
      <path id="Path_664" data-name="Path 664" d="M212.121,1137.664a1.889,1.889,0,0,1-.665.609,1.782,1.782,0,0,1-.863.216,1.6,1.6,0,0,1-.917-.268,1.749,1.749,0,0,1-.616-.741,2.439,2.439,0,0,1-.218-1.035,2.551,2.551,0,0,1,.232-1.1,1.826,1.826,0,0,1,.649-.768,1.873,1.873,0,0,1,2.389.369,2.866,2.866,0,0,1,.511,1.823v.453a3.753,3.753,0,0,1-.7,2.479,2.662,2.662,0,0,1-2.149.828h-.092l0-.435h.176a2.228,2.228,0,0,0,1.661-.619A2.65,2.65,0,0,0,212.121,1137.664Zm-1.465.389a1.472,1.472,0,0,0,.9-.3,1.622,1.622,0,0,0,.567-.775v-.289a2.342,2.342,0,0,0-.387-1.438,1.242,1.242,0,0,0-1.044-.512,1.192,1.192,0,0,0-.976.478,1.872,1.872,0,0,0-.381,1.2,1.825,1.825,0,0,0,.366,1.163A1.155,1.155,0,0,0,210.656,1138.053Z" transform="translate(-60.124 -1098.046)" fill="#161615"/>
      <path id="Path_665" data-name="Path 665" d="M214.256,1140.407a.356.356,0,0,1,.094-.249.339.339,0,0,1,.262-.1.344.344,0,0,1,.263.1.349.349,0,0,1,.1.249.321.321,0,0,1-.1.242.362.362,0,0,1-.263.094.357.357,0,0,1-.262-.094A.327.327,0,0,1,214.256,1140.407Zm.009-3.864a.354.354,0,0,1,.094-.25.336.336,0,0,1,.261-.1.347.347,0,0,1,.264.1.351.351,0,0,1,.1.25.321.321,0,0,1-.1.241.362.362,0,0,1-.264.094.35.35,0,0,1-.261-.094A.323.323,0,0,1,214.265,1136.543Z" transform="translate(-60.762 -1098.268)" fill="#161615"/>
      <path id="Path_666" data-name="Path 666" d="M219.913,1137.945a3.37,3.37,0,0,1-.474,1.957,1.6,1.6,0,0,1-1.394.668,1.615,1.615,0,0,1-1.386-.654,3.252,3.252,0,0,1-.494-1.907v-1.093a3.317,3.317,0,0,1,.477-1.947,1.807,1.807,0,0,1,2.776-.023,3.2,3.2,0,0,1,.494,1.881Zm-.5-1.092a2.981,2.981,0,0,0-.34-1.582,1.261,1.261,0,0,0-2.054-.012,2.877,2.877,0,0,0-.351,1.544v1.2a2.976,2.976,0,0,0,.354,1.6,1.146,1.146,0,0,0,1.028.551,1.13,1.13,0,0,0,1.015-.54,2.98,2.98,0,0,0,.349-1.582Z" transform="translate(-60.987 -1098.046)" fill="#161615"/>
      <path id="Path_667" data-name="Path 667" d="M225.2,1137.945a3.377,3.377,0,0,1-.474,1.957,1.6,1.6,0,0,1-1.394.668,1.613,1.613,0,0,1-1.386-.654,3.245,3.245,0,0,1-.494-1.907v-1.093a3.31,3.31,0,0,1,.477-1.947,1.807,1.807,0,0,1,2.776-.023,3.2,3.2,0,0,1,.494,1.881Zm-.5-1.092a2.972,2.972,0,0,0-.341-1.582,1.261,1.261,0,0,0-2.054-.012,2.878,2.878,0,0,0-.351,1.544v1.2a2.977,2.977,0,0,0,.353,1.6,1.148,1.148,0,0,0,1.029.551,1.13,1.13,0,0,0,1.015-.54,2.98,2.98,0,0,0,.349-1.582Z" transform="translate(-61.611 -1098.046)" fill="#161615"/>
      <path id="Path_668" data-name="Path 668" d="M236.752,1093.634l2.278,5.683,2.278-5.683H242.5v6.966h-.918v-2.713l.086-2.929-2.286,5.641h-.7l-2.283-5.627.091,2.915v2.713h-.918v-6.966Z" transform="translate(-63.274 -1093.251)" fill="#464545"/>
      <path id="Path_669" data-name="Path 669" d="M244.841,1098.191a3.06,3.06,0,0,1,.3-1.369,2.231,2.231,0,0,1,.833-.938,2.261,2.261,0,0,1,1.217-.331,2.183,2.183,0,0,1,1.71.733,2.814,2.814,0,0,1,.654,1.948v.062a3.077,3.077,0,0,1-.29,1.356,2.192,2.192,0,0,1-.827.936,2.292,2.292,0,0,1-1.237.334,2.174,2.174,0,0,1-1.705-.732,2.8,2.8,0,0,1-.654-1.937Zm.89.1a2.214,2.214,0,0,0,.4,1.382,1.354,1.354,0,0,0,2.141-.007,2.42,2.42,0,0,0,.4-1.48,2.211,2.211,0,0,0-.4-1.381,1.284,1.284,0,0,0-1.074-.528,1.269,1.269,0,0,0-1.057.521A2.4,2.4,0,0,0,245.731,1098.3Z" transform="translate(-64.367 -1093.477)" fill="#464545"/>
      <path id="Path_670" data-name="Path 670" d="M252.279,1095.649l.029.651a1.887,1.887,0,0,1,1.55-.747q1.641,0,1.656,1.852v3.421h-.886V1097.4a1.188,1.188,0,0,0-.256-.827,1.027,1.027,0,0,0-.782-.268,1.271,1.271,0,0,0-.755.23,1.559,1.559,0,0,0-.508.6v3.689h-.885v-5.177Z" transform="translate(-65.146 -1093.477)" fill="#464545"/>
      <path id="Path_671" data-name="Path 671" d="M257.327,1097.917a3.029,3.029,0,0,1,.565-1.916,1.919,1.919,0,0,1,2.918-.1v-2.7h.886v7.349h-.813l-.043-.555a1.8,1.8,0,0,1-1.478.65,1.766,1.766,0,0,1-1.466-.737,3.062,3.062,0,0,1-.567-1.923Zm.885.1a2.292,2.292,0,0,0,.364,1.377,1.173,1.173,0,0,0,1,.5,1.29,1.29,0,0,0,1.23-.756v-2.378a1.3,1.3,0,0,0-1.22-.732,1.178,1.178,0,0,0-1.014.5A2.526,2.526,0,0,0,258.212,1098.018Z" transform="translate(-65.839 -1093.2)" fill="#464545"/>
      <path id="Path_672" data-name="Path 672" d="M267.011,1100.826a1.883,1.883,0,0,1-.124-.545,1.978,1.978,0,0,1-1.474.641,1.825,1.825,0,0,1-1.256-.433,1.4,1.4,0,0,1-.49-1.1,1.465,1.465,0,0,1,.615-1.256,2.9,2.9,0,0,1,1.73-.448h.861v-.407a1,1,0,0,0-.277-.738,1.115,1.115,0,0,0-.818-.275,1.289,1.289,0,0,0-.795.24.7.7,0,0,0-.321.579h-.889a1.226,1.226,0,0,1,.275-.75,1.879,1.879,0,0,1,.746-.571,2.512,2.512,0,0,1,1.036-.212,2.043,2.043,0,0,1,1.4.448,1.614,1.614,0,0,1,.527,1.232v2.383a2.916,2.916,0,0,0,.182,1.133v.077Zm-1.469-.675a1.551,1.551,0,0,0,.789-.215,1.293,1.293,0,0,0,.541-.56v-1.062h-.693q-1.626,0-1.627.952a.811.811,0,0,0,.277.652A1.072,1.072,0,0,0,265.542,1100.151Z" transform="translate(-66.587 -1093.477)" fill="#464545"/>
      <path id="Path_673" data-name="Path 673" d="M271.414,1099.542l1.206-3.88h.947l-2.081,5.976q-.483,1.291-1.536,1.291l-.168-.014-.33-.062v-.717l.239.019a1.176,1.176,0,0,0,.7-.182,1.315,1.315,0,0,0,.414-.665l.2-.526-1.847-5.12h.967Z" transform="translate(-67.234 -1093.49)" fill="#464545"/>
      <path id="Path_674" data-name="Path 674" d="M240.3,1107.993h-2.239v6.214h-.914v-6.214h-2.234v-.752H240.3Z" transform="translate(-63.197 -1094.855)" fill="#464545"/>
      <path id="Path_675" data-name="Path 675" d="M244.715,1113.934a1.882,1.882,0,0,1-1.517.608,1.611,1.611,0,0,1-1.261-.481,2.078,2.078,0,0,1-.438-1.423v-3.37h.885v3.345q0,1.178.957,1.177a1.327,1.327,0,0,0,1.35-.755v-3.767h.885v5.177h-.842Z" transform="translate(-63.974 -1095.094)" fill="#464545"/>
      <path id="Path_676" data-name="Path 676" d="M249.764,1114.53a2.263,2.263,0,0,1-1.713-.691,2.57,2.57,0,0,1-.661-1.85v-.163a3.1,3.1,0,0,1,.295-1.375,2.291,2.291,0,0,1,.823-.948,2.072,2.072,0,0,1,1.146-.342,1.94,1.94,0,0,1,1.569.665,2.88,2.88,0,0,1,.559,1.9v.369h-3.506a1.833,1.833,0,0,0,.447,1.236,1.4,1.4,0,0,0,1.089.471,1.548,1.548,0,0,0,.794-.19,2,2,0,0,0,.57-.507l.54.421A2.172,2.172,0,0,1,249.764,1114.53Zm-.11-4.641a1.183,1.183,0,0,0-.9.389,1.9,1.9,0,0,0-.45,1.094H250.9v-.066a1.687,1.687,0,0,0-.363-1.046A1.113,1.113,0,0,0,249.653,1109.889Z" transform="translate(-64.668 -1095.082)" fill="#464545"/>
      <path id="Path_677" data-name="Path 677" d="M256.515,1113.061a.651.651,0,0,0-.27-.558,2.62,2.62,0,0,0-.943-.342,4.491,4.491,0,0,1-1.067-.344,1.526,1.526,0,0,1-.583-.479,1.142,1.142,0,0,1-.19-.66A1.345,1.345,0,0,1,254,1109.6a2.1,2.1,0,0,1,1.375-.44,2.161,2.161,0,0,1,1.428.455,1.443,1.443,0,0,1,.548,1.163h-.89a.8.8,0,0,0-.308-.627,1.158,1.158,0,0,0-.778-.263,1.21,1.21,0,0,0-.756.21.665.665,0,0,0-.273.55.536.536,0,0,0,.253.483,3.145,3.145,0,0,0,.917.311,4.749,4.749,0,0,1,1.074.354,1.561,1.561,0,0,1,.61.5,1.214,1.214,0,0,1,.2.7,1.322,1.322,0,0,1-.555,1.112,2.325,2.325,0,0,1-1.441.419,2.612,2.612,0,0,1-1.1-.22,1.806,1.806,0,0,1-.749-.615,1.487,1.487,0,0,1-.27-.855h.885a.919.919,0,0,0,.356.707,1.384,1.384,0,0,0,.878.259,1.429,1.429,0,0,0,.807-.2A.624.624,0,0,0,256.515,1113.061Z" transform="translate(-65.363 -1095.082)" fill="#464545"/>
      <path id="Path_678" data-name="Path 678" d="M259.013,1111.525a3.036,3.036,0,0,1,.565-1.916,1.921,1.921,0,0,1,2.919-.1v-2.7h.885v7.349h-.813l-.042-.554a1.805,1.805,0,0,1-1.479.65,1.767,1.767,0,0,1-1.466-.737,3.071,3.071,0,0,1-.567-1.924Zm.886.1a2.3,2.3,0,0,0,.363,1.378,1.174,1.174,0,0,0,1,.5,1.291,1.291,0,0,0,1.23-.755v-2.378a1.3,1.3,0,0,0-1.22-.733,1.182,1.182,0,0,0-1.014.5A2.523,2.523,0,0,0,259.9,1111.625Z" transform="translate(-66.038 -1094.804)" fill="#464545"/>
      <path id="Path_679" data-name="Path 679" d="M268.7,1114.433a1.875,1.875,0,0,1-.124-.545,1.973,1.973,0,0,1-1.474.641,1.822,1.822,0,0,1-1.255-.433,1.4,1.4,0,0,1-.49-1.1,1.462,1.462,0,0,1,.615-1.255,2.9,2.9,0,0,1,1.73-.448h.861v-.407a.993.993,0,0,0-.278-.739,1.115,1.115,0,0,0-.818-.275,1.289,1.289,0,0,0-.794.24.7.7,0,0,0-.321.579h-.89a1.222,1.222,0,0,1,.275-.749,1.878,1.878,0,0,1,.746-.572,2.514,2.514,0,0,1,1.036-.211,2.045,2.045,0,0,1,1.4.448,1.611,1.611,0,0,1,.526,1.231v2.383a2.924,2.924,0,0,0,.182,1.134v.076Zm-1.469-.674a1.552,1.552,0,0,0,.789-.215,1.3,1.3,0,0,0,.541-.56v-1.062h-.693q-1.627,0-1.628.952a.808.808,0,0,0,.278.651A1.068,1.068,0,0,0,267.229,1113.76Z" transform="translate(-66.786 -1095.082)" fill="#464545"/>
      <path id="Path_680" data-name="Path 680" d="M273.1,1113.15l1.206-3.881h.947l-2.082,5.977q-.483,1.29-1.536,1.291l-.167-.015-.331-.062v-.718l.24.019a1.178,1.178,0,0,0,.7-.182,1.314,1.314,0,0,0,.414-.665l.2-.527-1.847-5.12h.966Z" transform="translate(-67.433 -1095.094)" fill="#464545"/>
      <path id="Path_681" data-name="Path 681" d="M237,1125.62l.134.918.2-.828,1.378-4.861h.775l1.344,4.861.191.842.149-.938,1.081-4.766h.924l-1.688,6.967h-.838l-1.435-5.077-.11-.531-.11.531-1.487,5.077h-.837l-1.685-6.967h.918Z" transform="translate(-63.205 -1096.459)" fill="#464545"/>
      <path id="Path_682" data-name="Path 682" d="M247.215,1128.138a2.263,2.263,0,0,1-1.713-.691,2.569,2.569,0,0,1-.661-1.85v-.162a3.116,3.116,0,0,1,.295-1.376,2.3,2.3,0,0,1,.823-.947,2.072,2.072,0,0,1,1.146-.342,1.94,1.94,0,0,1,1.569.665,2.882,2.882,0,0,1,.559,1.9v.369h-3.506a1.836,1.836,0,0,0,.447,1.237,1.406,1.406,0,0,0,1.089.471,1.538,1.538,0,0,0,.794-.192,2,2,0,0,0,.57-.506l.541.42A2.174,2.174,0,0,1,247.215,1128.138Zm-.11-4.641a1.18,1.18,0,0,0-.9.39,1.9,1.9,0,0,0-.45,1.093h2.593v-.066a1.689,1.689,0,0,0-.363-1.046A1.112,1.112,0,0,0,247.1,1123.5Z" transform="translate(-64.367 -1096.686)" fill="#464545"/>
      <path id="Path_683" data-name="Path 683" d="M250.737,1125.133a3.027,3.027,0,0,1,.565-1.915,1.92,1.92,0,0,1,2.919-.1v-2.7h.885v7.349h-.813l-.043-.555a1.8,1.8,0,0,1-1.478.65,1.766,1.766,0,0,1-1.466-.737,3.063,3.063,0,0,1-.567-1.923Zm.885.1a2.292,2.292,0,0,0,.364,1.377,1.173,1.173,0,0,0,1,.5,1.291,1.291,0,0,0,1.23-.756v-2.378a1.3,1.3,0,0,0-1.221-.732,1.179,1.179,0,0,0-1.014.5A2.526,2.526,0,0,0,251.622,1125.234Z" transform="translate(-65.063 -1096.408)" fill="#464545"/>
      <path id="Path_684" data-name="Path 684" d="M258.083,1122.865l.029.651a1.887,1.887,0,0,1,1.55-.747q1.641,0,1.655,1.852v3.421h-.885v-3.426a1.192,1.192,0,0,0-.256-.827,1.024,1.024,0,0,0-.782-.268,1.275,1.275,0,0,0-.756.23,1.56,1.56,0,0,0-.507.6v3.689h-.885v-5.177Z" transform="translate(-65.83 -1096.686)" fill="#464545"/>
      <path id="Path_685" data-name="Path 685" d="M265.493,1128.138a2.264,2.264,0,0,1-1.713-.691,2.568,2.568,0,0,1-.66-1.85v-.162a3.116,3.116,0,0,1,.294-1.376,2.3,2.3,0,0,1,.823-.947,2.076,2.076,0,0,1,1.146-.342,1.94,1.94,0,0,1,1.569.665,2.882,2.882,0,0,1,.56,1.9v.369H264a1.846,1.846,0,0,0,.447,1.237,1.407,1.407,0,0,0,1.089.471,1.539,1.539,0,0,0,.795-.192,1.994,1.994,0,0,0,.569-.506l.541.42A2.174,2.174,0,0,1,265.493,1128.138Zm-.11-4.641a1.177,1.177,0,0,0-.9.39,1.9,1.9,0,0,0-.45,1.093h2.593v-.066a1.689,1.689,0,0,0-.363-1.046A1.113,1.113,0,0,0,265.383,1123.5Z" transform="translate(-66.522 -1096.686)" fill="#464545"/>
      <path id="Path_686" data-name="Path 686" d="M272.244,1126.669a.653.653,0,0,0-.27-.557,2.591,2.591,0,0,0-.943-.341,4.5,4.5,0,0,1-1.066-.345,1.515,1.515,0,0,1-.584-.479,1.141,1.141,0,0,1-.189-.66,1.345,1.345,0,0,1,.538-1.077,2.108,2.108,0,0,1,1.376-.44,2.159,2.159,0,0,1,1.427.455,1.444,1.444,0,0,1,.548,1.163h-.889a.8.8,0,0,0-.309-.627,1.155,1.155,0,0,0-.777-.263,1.215,1.215,0,0,0-.757.211.662.662,0,0,0-.273.55.537.537,0,0,0,.254.483,3.117,3.117,0,0,0,.916.311,4.739,4.739,0,0,1,1.074.355,1.56,1.56,0,0,1,.61.495,1.217,1.217,0,0,1,.2.706,1.326,1.326,0,0,1-.555,1.112,2.332,2.332,0,0,1-1.44.418,2.614,2.614,0,0,1-1.1-.22,1.8,1.8,0,0,1-.748-.615,1.48,1.48,0,0,1-.271-.855h.886a.914.914,0,0,0,.356.707,1.382,1.382,0,0,0,.878.26,1.417,1.417,0,0,0,.806-.2A.622.622,0,0,0,272.244,1126.669Z" transform="translate(-67.217 -1096.686)" fill="#464545"/>
      <path id="Path_687" data-name="Path 687" d="M274.743,1125.133a3.026,3.026,0,0,1,.565-1.915,1.92,1.92,0,0,1,2.918-.1v-2.7h.886v7.349H278.3l-.043-.555a1.8,1.8,0,0,1-1.478.65,1.766,1.766,0,0,1-1.466-.737,3.063,3.063,0,0,1-.567-1.923Zm.885.1a2.292,2.292,0,0,0,.364,1.377,1.172,1.172,0,0,0,1,.5,1.29,1.29,0,0,0,1.23-.756v-2.378a1.3,1.3,0,0,0-1.22-.732,1.178,1.178,0,0,0-1.014.5A2.526,2.526,0,0,0,275.628,1125.234Z" transform="translate(-67.893 -1096.408)" fill="#464545"/>
      <path id="Path_688" data-name="Path 688" d="M284.428,1128.042a1.845,1.845,0,0,1-.124-.545,1.978,1.978,0,0,1-1.474.64,1.825,1.825,0,0,1-1.256-.433,1.4,1.4,0,0,1-.49-1.1,1.465,1.465,0,0,1,.615-1.256,2.9,2.9,0,0,1,1.73-.448h.861v-.407a1,1,0,0,0-.277-.739,1.115,1.115,0,0,0-.818-.274,1.294,1.294,0,0,0-.795.239.707.707,0,0,0-.321.58h-.889a1.224,1.224,0,0,1,.275-.75,1.877,1.877,0,0,1,.746-.571,2.5,2.5,0,0,1,1.036-.212,2.042,2.042,0,0,1,1.4.448,1.614,1.614,0,0,1,.527,1.232v2.383a2.917,2.917,0,0,0,.182,1.134v.077Zm-1.47-.675a1.552,1.552,0,0,0,.789-.215,1.3,1.3,0,0,0,.541-.56v-1.062H283.6q-1.626,0-1.627.952a.811.811,0,0,0,.277.652A1.072,1.072,0,0,0,282.958,1127.368Z" transform="translate(-68.64 -1096.686)" fill="#464545"/>
      <path id="Path_689" data-name="Path 689" d="M288.83,1126.758l1.207-3.88h.947l-2.081,5.976q-.483,1.292-1.536,1.292l-.168-.015-.33-.062v-.717l.239.018a1.175,1.175,0,0,0,.7-.182,1.314,1.314,0,0,0,.414-.665l.2-.527-1.847-5.119h.967Z" transform="translate(-69.287 -1096.699)" fill="#464545"/>
      <path id="Path_690" data-name="Path 690" d="M240.3,1135.208h-2.239v6.215h-.914v-6.215h-2.234v-.751H240.3Z" transform="translate(-63.197 -1098.064)" fill="#464545"/>
      <path id="Path_691" data-name="Path 691" d="M242.922,1136.822a1.882,1.882,0,0,1,1.531-.723q1.641,0,1.655,1.852v3.421h-.885v-3.426a1.19,1.19,0,0,0-.256-.827,1.027,1.027,0,0,0-.782-.268,1.274,1.274,0,0,0-.756.23,1.561,1.561,0,0,0-.507.6v3.688h-.885v-7.349h.885Z" transform="translate(-64.037 -1098.013)" fill="#464545"/>
      <path id="Path_692" data-name="Path 692" d="M251.348,1141.151a1.88,1.88,0,0,1-1.516.608,1.613,1.613,0,0,1-1.261-.481,2.086,2.086,0,0,1-.438-1.424v-3.369h.886v3.345q0,1.178.956,1.177a1.325,1.325,0,0,0,1.35-.755v-3.767h.885v5.177h-.842Z" transform="translate(-64.756 -1098.303)" fill="#464545"/>
      <path id="Path_693" data-name="Path 693" d="M256.781,1137.266a2.777,2.777,0,0,0-.435-.033,1.167,1.167,0,0,0-1.182.741v3.675h-.886v-5.177h.862l.014.6a1.377,1.377,0,0,1,1.234-.694.9.9,0,0,1,.393.067Z" transform="translate(-65.48 -1098.29)" fill="#464545"/>
      <path id="Path_694" data-name="Path 694" d="M261.022,1140.277a.651.651,0,0,0-.27-.557,2.585,2.585,0,0,0-.943-.342,4.417,4.417,0,0,1-1.066-.345,1.515,1.515,0,0,1-.584-.479,1.141,1.141,0,0,1-.189-.66,1.343,1.343,0,0,1,.538-1.076,2.107,2.107,0,0,1,1.376-.44,2.163,2.163,0,0,1,1.427.454,1.446,1.446,0,0,1,.548,1.164h-.889a.8.8,0,0,0-.309-.627,1.155,1.155,0,0,0-.777-.263,1.214,1.214,0,0,0-.757.21.663.663,0,0,0-.273.55.537.537,0,0,0,.254.484,3.138,3.138,0,0,0,.916.311,4.754,4.754,0,0,1,1.074.354,1.559,1.559,0,0,1,.61.495,1.213,1.213,0,0,1,.2.706,1.324,1.324,0,0,1-.555,1.112,2.333,2.333,0,0,1-1.44.419,2.614,2.614,0,0,1-1.1-.22,1.8,1.8,0,0,1-.748-.616,1.477,1.477,0,0,1-.271-.854h.885a.914.914,0,0,0,.357.706,1.377,1.377,0,0,0,.878.26,1.425,1.425,0,0,0,.806-.2A.625.625,0,0,0,261.022,1140.277Z" transform="translate(-65.894 -1098.29)" fill="#464545"/>
      <path id="Path_695" data-name="Path 695" d="M263.521,1138.74a3.029,3.029,0,0,1,.565-1.916,1.92,1.92,0,0,1,2.918-.1v-2.7h.886v7.349h-.813l-.043-.555a1.8,1.8,0,0,1-1.478.651,1.768,1.768,0,0,1-1.466-.737,3.065,3.065,0,0,1-.567-1.924Zm.885.1a2.3,2.3,0,0,0,.364,1.378,1.172,1.172,0,0,0,1,.5,1.291,1.291,0,0,0,1.23-.755v-2.379a1.3,1.3,0,0,0-1.22-.732,1.179,1.179,0,0,0-1.014.5A2.521,2.521,0,0,0,264.406,1138.841Z" transform="translate(-66.57 -1098.013)" fill="#464545"/>
      <path id="Path_696" data-name="Path 696" d="M273.205,1141.649a1.883,1.883,0,0,1-.124-.545,1.979,1.979,0,0,1-1.474.641,1.821,1.821,0,0,1-1.256-.434,1.4,1.4,0,0,1-.49-1.1,1.465,1.465,0,0,1,.615-1.256,2.906,2.906,0,0,1,1.73-.447h.861v-.407a1,1,0,0,0-.277-.739,1.115,1.115,0,0,0-.819-.275,1.288,1.288,0,0,0-.794.24.7.7,0,0,0-.321.579h-.89a1.226,1.226,0,0,1,.275-.75,1.882,1.882,0,0,1,.747-.571,2.512,2.512,0,0,1,1.036-.211,2.042,2.042,0,0,1,1.4.448,1.613,1.613,0,0,1,.527,1.231v2.383a2.9,2.9,0,0,0,.182,1.133v.077Zm-1.469-.674a1.543,1.543,0,0,0,.789-.216,1.3,1.3,0,0,0,.541-.559v-1.062h-.693q-1.627,0-1.627.952a.81.81,0,0,0,.277.651A1.068,1.068,0,0,0,271.736,1140.975Z" transform="translate(-67.317 -1098.29)" fill="#464545"/>
      <path id="Path_697" data-name="Path 697" d="M277.608,1140.366l1.206-3.881h.947l-2.081,5.976q-.484,1.291-1.537,1.291l-.167-.014-.33-.062v-.717l.239.019a1.173,1.173,0,0,0,.7-.182,1.307,1.307,0,0,0,.415-.665l.2-.526-1.847-5.12h.967Z" transform="translate(-67.964 -1098.303)" fill="#464545"/>
      <path id="Path_698" data-name="Path 698" d="M239.408,1151.954h-2.923v3.077h-.918v-6.967h4.315v.752h-3.4v2.388h2.923Z" transform="translate(-63.274 -1099.668)" fill="#464545"/>
      <path id="Path_699" data-name="Path 699" d="M243.911,1150.874a2.789,2.789,0,0,0-.436-.033,1.167,1.167,0,0,0-1.182.741v3.675h-.885v-5.177h.861l.014.6a1.38,1.38,0,0,1,1.235-.694.915.915,0,0,1,.393.067Z" transform="translate(-63.963 -1099.894)" fill="#464545"/>
      <path id="Path_700" data-name="Path 700" d="M245.172,1148.468a.53.53,0,0,1,.131-.363.494.494,0,0,1,.39-.148.5.5,0,0,1,.393.148.524.524,0,0,1,.134.363.479.479,0,0,1-.527.5.5.5,0,0,1-.39-.144A.512.512,0,0,1,245.172,1148.468Zm.957,6.551h-.886v-5.177h.886Z" transform="translate(-64.406 -1099.655)" fill="#464545"/>
      <path id="Path_701" data-name="Path 701" d="M247.618,1152.348a3.036,3.036,0,0,1,.565-1.916,1.921,1.921,0,0,1,2.919-.1v-2.7h.885v7.349h-.813l-.042-.555a1.805,1.805,0,0,1-1.479.65,1.767,1.767,0,0,1-1.466-.737,3.071,3.071,0,0,1-.567-1.924Zm.886.1a2.293,2.293,0,0,0,.363,1.377,1.174,1.174,0,0,0,1,.5,1.292,1.292,0,0,0,1.23-.756v-2.378a1.3,1.3,0,0,0-1.22-.732,1.181,1.181,0,0,0-1.014.5A2.525,2.525,0,0,0,248.5,1152.449Z" transform="translate(-64.695 -1099.617)" fill="#464545"/>
      <path id="Path_702" data-name="Path 702" d="M257.3,1155.257a1.892,1.892,0,0,1-.124-.545,1.975,1.975,0,0,1-1.474.64,1.822,1.822,0,0,1-1.255-.433,1.4,1.4,0,0,1-.49-1.1,1.462,1.462,0,0,1,.615-1.256,2.9,2.9,0,0,1,1.73-.448h.861v-.407a1,1,0,0,0-.278-.739,1.115,1.115,0,0,0-.818-.274,1.294,1.294,0,0,0-.794.239.7.7,0,0,0-.321.579h-.89a1.222,1.222,0,0,1,.275-.749,1.886,1.886,0,0,1,.746-.572,2.514,2.514,0,0,1,1.036-.211,2.045,2.045,0,0,1,1.4.448,1.613,1.613,0,0,1,.526,1.231v2.384a2.919,2.919,0,0,0,.182,1.134v.077Zm-1.469-.675a1.552,1.552,0,0,0,.79-.215,1.3,1.3,0,0,0,.541-.56v-1.062h-.693q-1.627,0-1.627.952a.805.805,0,0,0,.278.651A1.068,1.068,0,0,0,255.834,1154.583Z" transform="translate(-65.442 -1099.894)" fill="#464545"/>
      <path id="Path_703" data-name="Path 703" d="M261.706,1153.973l1.206-3.88h.947l-2.081,5.976q-.483,1.291-1.536,1.292l-.168-.015-.33-.062v-.718l.239.019a1.175,1.175,0,0,0,.7-.182,1.314,1.314,0,0,0,.414-.665l.2-.527-1.847-5.119h.967Z" transform="translate(-66.089 -1099.907)" fill="#464545"/>
      <path id="Path_704" data-name="Path 704" d="M307.616,1096.842a1.883,1.883,0,0,1-.665.609,1.792,1.792,0,0,1-.863.215,1.6,1.6,0,0,1-.917-.267,1.761,1.761,0,0,1-.616-.741,2.442,2.442,0,0,1-.218-1.035,2.539,2.539,0,0,1,.233-1.1,1.818,1.818,0,0,1,.648-.768,1.873,1.873,0,0,1,2.389.369,2.864,2.864,0,0,1,.511,1.823v.453a3.751,3.751,0,0,1-.7,2.478,2.662,2.662,0,0,1-2.148.829h-.092l0-.435h.176a2.225,2.225,0,0,0,1.661-.62A2.647,2.647,0,0,0,307.616,1096.842Zm-1.465.389a1.467,1.467,0,0,0,.9-.3,1.607,1.607,0,0,0,.567-.775v-.288a2.341,2.341,0,0,0-.387-1.439,1.243,1.243,0,0,0-1.044-.512,1.194,1.194,0,0,0-.976.478,1.876,1.876,0,0,0-.381,1.2,1.827,1.827,0,0,0,.366,1.163A1.158,1.158,0,0,0,306.151,1097.231Z" transform="translate(-71.382 -1093.234)" fill="#464545"/>
      <path id="Path_705" data-name="Path 705" d="M315.686,1097.963h-2.767l-.628,1.712h-.54l2.307-6.1h.49l2.308,6.1h-.536Zm-2.607-.436h2.444l-1.222-3.319Z" transform="translate(-72.255 -1093.245)" fill="#464545"/>
      <path id="Path_706" data-name="Path 706" d="M319.235,1093.58l2.249,5.379,2.256-5.379h.686v6.1h-.515v-2.654l.042-2.721-2.269,5.376h-.4l-2.26-5.354.041,2.683v2.671h-.515v-6.1Z" transform="translate(-73.057 -1093.245)" fill="#464545"/>
      <path id="Path_707" data-name="Path 707" d="M330.69,1097.624h-2.005v-.422h2.005Z" transform="translate(-74.252 -1093.672)" fill="#464545"/>
      <path id="Path_708" data-name="Path 708" d="M336.6,1099.673h-.5v-5.493l-1.658.616v-.469l2.076-.77h.084Z" transform="translate(-74.93 -1093.242)" fill="#464545"/>
      <path id="Path_709" data-name="Path 709" d="M342.735,1097.193v2.482h-.515v-6.1H344.3a2.184,2.184,0,0,1,1.5.486,1.908,1.908,0,0,1,.021,2.66,2.246,2.246,0,0,1-1.534.468Zm0-.436H344.3a1.647,1.647,0,0,0,1.143-.356,1.272,1.272,0,0,0,.393-.994,1.329,1.329,0,0,0-.392-1.007,1.567,1.567,0,0,0-1.111-.385h-1.595Z" transform="translate(-75.847 -1093.245)" fill="#464545"/>
      <path id="Path_710" data-name="Path 710" d="M348.887,1093.58l2.248,5.379,2.257-5.379h.686v6.1h-.515v-2.654l.041-2.721-2.269,5.376h-.4l-2.262-5.354.042,2.683v2.671H348.2v-6.1Z" transform="translate(-76.553 -1093.245)" fill="#464545"/>
      <path id="Path_711" data-name="Path 711" d="M307.616,1110.449a1.883,1.883,0,0,1-.665.61,1.792,1.792,0,0,1-.863.215,1.6,1.6,0,0,1-.917-.268,1.75,1.75,0,0,1-.616-.741,2.439,2.439,0,0,1-.218-1.035,2.539,2.539,0,0,1,.233-1.1,1.819,1.819,0,0,1,.648-.768,1.876,1.876,0,0,1,2.389.369,2.866,2.866,0,0,1,.511,1.822v.453a3.753,3.753,0,0,1-.7,2.479,2.661,2.661,0,0,1-2.148.828h-.092l0-.435h.176a2.229,2.229,0,0,0,1.661-.619A2.65,2.65,0,0,0,307.616,1110.449Zm-1.465.39a1.472,1.472,0,0,0,.9-.3,1.615,1.615,0,0,0,.567-.774v-.288a2.337,2.337,0,0,0-.387-1.439,1.241,1.241,0,0,0-1.044-.512,1.192,1.192,0,0,0-.976.478,1.872,1.872,0,0,0-.381,1.2,1.825,1.825,0,0,0,.366,1.163A1.156,1.156,0,0,0,306.151,1110.839Z" transform="translate(-71.382 -1094.838)" fill="#464545"/>
      <path id="Path_712" data-name="Path 712" d="M315.686,1111.57h-2.767l-.628,1.712h-.54l2.307-6.1h.49l2.308,6.1h-.536Zm-2.607-.435h2.444l-1.222-3.32Z" transform="translate(-72.255 -1094.849)" fill="#464545"/>
      <path id="Path_713" data-name="Path 713" d="M319.235,1107.187l2.249,5.38,2.256-5.38h.686v6.1h-.515v-2.653l.042-2.721-2.269,5.375h-.4l-2.26-5.354.041,2.683v2.671h-.515v-6.1Z" transform="translate(-73.057 -1094.849)" fill="#464545"/>
      <path id="Path_714" data-name="Path 714" d="M330.69,1111.231h-2.005v-.423h2.005Z" transform="translate(-74.252 -1095.276)" fill="#464545"/>
      <path id="Path_715" data-name="Path 715" d="M336.6,1113.28h-.5v-5.492l-1.658.615v-.468l2.076-.77h.084Z" transform="translate(-74.93 -1094.846)" fill="#464545"/>
      <path id="Path_716" data-name="Path 716" d="M342.735,1110.8v2.482h-.515v-6.1H344.3a2.188,2.188,0,0,1,1.5.486,1.909,1.909,0,0,1,.021,2.66,2.25,2.25,0,0,1-1.534.467Zm0-.435H344.3a1.647,1.647,0,0,0,1.143-.357,1.272,1.272,0,0,0,.393-.993,1.33,1.33,0,0,0-.392-1.008,1.572,1.572,0,0,0-1.111-.385h-1.595Z" transform="translate(-75.847 -1094.849)" fill="#464545"/>
      <path id="Path_717" data-name="Path 717" d="M348.887,1107.187l2.248,5.38,2.257-5.38h.686v6.1h-.515v-2.653l.041-2.721-2.269,5.375h-.4l-2.262-5.354.042,2.683v2.671H348.2v-6.1Z" transform="translate(-76.553 -1094.849)" fill="#464545"/>
      <path id="Path_718" data-name="Path 718" d="M307.616,1124.057a1.89,1.89,0,0,1-.665.609,1.792,1.792,0,0,1-.863.215,1.6,1.6,0,0,1-.917-.268,1.751,1.751,0,0,1-.616-.74,2.442,2.442,0,0,1-.218-1.035,2.54,2.54,0,0,1,.233-1.1,1.827,1.827,0,0,1,.648-.769,1.876,1.876,0,0,1,2.389.369,2.869,2.869,0,0,1,.511,1.823v.453a3.751,3.751,0,0,1-.7,2.478,2.662,2.662,0,0,1-2.148.829h-.092l0-.436h.176a2.225,2.225,0,0,0,1.661-.619A2.648,2.648,0,0,0,307.616,1124.057Zm-1.465.389a1.467,1.467,0,0,0,.9-.3,1.607,1.607,0,0,0,.567-.775v-.288a2.341,2.341,0,0,0-.387-1.439,1.241,1.241,0,0,0-1.044-.512,1.194,1.194,0,0,0-.976.478,1.872,1.872,0,0,0-.381,1.2,1.827,1.827,0,0,0,.366,1.164A1.158,1.158,0,0,0,306.151,1124.446Z" transform="translate(-71.382 -1096.442)" fill="#464545"/>
      <path id="Path_719" data-name="Path 719" d="M315.686,1125.177h-2.767l-.628,1.713h-.54l2.307-6.1h.49l2.308,6.1h-.536Zm-2.607-.435h2.444l-1.222-3.319Z" transform="translate(-72.255 -1096.453)" fill="#464545"/>
      <path id="Path_720" data-name="Path 720" d="M319.235,1120.8l2.249,5.379,2.256-5.379h.686v6.1h-.515v-2.654l.042-2.721-2.269,5.376h-.4l-2.26-5.354.041,2.683v2.671h-.515v-6.1Z" transform="translate(-73.057 -1096.453)" fill="#464545"/>
      <path id="Path_721" data-name="Path 721" d="M330.69,1124.839h-2.005v-.422h2.005Z" transform="translate(-74.252 -1096.88)" fill="#464545"/>
      <path id="Path_722" data-name="Path 722" d="M336.6,1126.888h-.5v-5.493l-1.658.616v-.469l2.076-.77h.084Z" transform="translate(-74.93 -1096.45)" fill="#464545"/>
      <path id="Path_723" data-name="Path 723" d="M342.735,1124.407v2.483h-.515v-6.1H344.3a2.188,2.188,0,0,1,1.5.485,1.691,1.691,0,0,1,.55,1.336,1.671,1.671,0,0,1-.529,1.325,2.245,2.245,0,0,1-1.534.467Zm0-.435H344.3a1.652,1.652,0,0,0,1.143-.356,1.275,1.275,0,0,0,.393-.994,1.331,1.331,0,0,0-.392-1.008,1.571,1.571,0,0,0-1.111-.384h-1.595Z" transform="translate(-75.847 -1096.453)" fill="#464545"/>
      <path id="Path_724" data-name="Path 724" d="M348.887,1120.8l2.248,5.379,2.257-5.379h.686v6.1h-.515v-2.654l.041-2.721-2.269,5.376h-.4l-2.262-5.354.042,2.683v2.671H348.2v-6.1Z" transform="translate(-76.553 -1096.453)" fill="#464545"/>
      <path id="Path_725" data-name="Path 725" d="M307.616,1137.664a1.882,1.882,0,0,1-.665.609,1.782,1.782,0,0,1-.863.216,1.6,1.6,0,0,1-.917-.268,1.755,1.755,0,0,1-.616-.741,2.439,2.439,0,0,1-.218-1.035,2.539,2.539,0,0,1,.233-1.1,1.818,1.818,0,0,1,.648-.768,1.873,1.873,0,0,1,2.389.369,2.866,2.866,0,0,1,.511,1.823v.453a3.753,3.753,0,0,1-.7,2.479,2.661,2.661,0,0,1-2.148.828h-.092l0-.435h.176a2.228,2.228,0,0,0,1.661-.619A2.65,2.65,0,0,0,307.616,1137.664Zm-1.465.389a1.472,1.472,0,0,0,.9-.3,1.616,1.616,0,0,0,.567-.775v-.289a2.337,2.337,0,0,0-.387-1.438,1.241,1.241,0,0,0-1.044-.512,1.192,1.192,0,0,0-.976.478,1.872,1.872,0,0,0-.381,1.2,1.825,1.825,0,0,0,.366,1.163A1.155,1.155,0,0,0,306.151,1138.053Z" transform="translate(-71.382 -1098.046)" fill="#464545"/>
      <path id="Path_726" data-name="Path 726" d="M315.686,1138.785h-2.767l-.628,1.712h-.54l2.307-6.1h.49l2.308,6.1h-.536Zm-2.607-.435h2.444l-1.222-3.32Z" transform="translate(-72.255 -1098.057)" fill="#464545"/>
      <path id="Path_727" data-name="Path 727" d="M319.235,1134.4l2.249,5.38,2.256-5.38h.686v6.1h-.515v-2.654l.042-2.72-2.269,5.375h-.4l-2.26-5.354.041,2.683v2.671h-.515v-6.1Z" transform="translate(-73.057 -1098.057)" fill="#464545"/>
      <path id="Path_728" data-name="Path 728" d="M330.69,1138.446h-2.005v-.423h2.005Z" transform="translate(-74.252 -1098.484)" fill="#464545"/>
      <path id="Path_729" data-name="Path 729" d="M336.6,1140.495h-.5V1135l-1.658.615v-.468l2.076-.77h.084Z" transform="translate(-74.93 -1098.055)" fill="#464545"/>
      <path id="Path_730" data-name="Path 730" d="M342.735,1138.015v2.482h-.515v-6.1H344.3a2.188,2.188,0,0,1,1.5.486,1.909,1.909,0,0,1,.021,2.66,2.25,2.25,0,0,1-1.534.467Zm0-.435H344.3a1.647,1.647,0,0,0,1.143-.357,1.272,1.272,0,0,0,.393-.994,1.329,1.329,0,0,0-.392-1.007,1.571,1.571,0,0,0-1.111-.385h-1.595Z" transform="translate(-75.847 -1098.057)" fill="#464545"/>
      <path id="Path_731" data-name="Path 731" d="M348.887,1134.4l2.248,5.38,2.257-5.38h.686v6.1h-.515v-2.654l.041-2.72-2.269,5.375h-.4l-2.262-5.354.042,2.683v2.671H348.2v-6.1Z" transform="translate(-76.553 -1098.057)" fill="#464545"/>
      <path id="Path_732" data-name="Path 732" d="M307.616,1151.272a1.883,1.883,0,0,1-.665.61,1.792,1.792,0,0,1-.863.215,1.6,1.6,0,0,1-.917-.268,1.75,1.75,0,0,1-.616-.741,2.438,2.438,0,0,1-.218-1.034,2.54,2.54,0,0,1,.233-1.1,1.819,1.819,0,0,1,.648-.768,1.876,1.876,0,0,1,2.389.369,2.869,2.869,0,0,1,.511,1.823v.452a3.753,3.753,0,0,1-.7,2.479,2.661,2.661,0,0,1-2.148.828h-.092l0-.435h.176a2.225,2.225,0,0,0,1.661-.619A2.65,2.65,0,0,0,307.616,1151.272Zm-1.465.39a1.467,1.467,0,0,0,.9-.3,1.615,1.615,0,0,0,.567-.774v-.288a2.341,2.341,0,0,0-.387-1.439,1.241,1.241,0,0,0-1.044-.512,1.194,1.194,0,0,0-.976.478,1.872,1.872,0,0,0-.381,1.2,1.825,1.825,0,0,0,.366,1.163A1.156,1.156,0,0,0,306.151,1151.662Z" transform="translate(-71.382 -1099.65)" fill="#464545"/>
      <path id="Path_733" data-name="Path 733" d="M315.686,1152.393h-2.767l-.628,1.713h-.54l2.307-6.1h.49l2.308,6.1h-.536Zm-2.607-.435h2.444l-1.222-3.32Z" transform="translate(-72.255 -1099.661)" fill="#464545"/>
      <path id="Path_734" data-name="Path 734" d="M319.235,1148.01l2.249,5.38,2.256-5.38h.686v6.1h-.515v-2.654l.042-2.721-2.269,5.376h-.4l-2.26-5.355.041,2.683v2.672h-.515v-6.1Z" transform="translate(-73.057 -1099.661)" fill="#464545"/>
      <path id="Path_735" data-name="Path 735" d="M330.69,1152.055h-2.005v-.423h2.005Z" transform="translate(-74.252 -1100.089)" fill="#464545"/>
      <path id="Path_736" data-name="Path 736" d="M336.6,1154.1h-.5v-5.493l-1.658.615v-.468l2.076-.77h.084Z" transform="translate(-74.93 -1099.659)" fill="#464545"/>
      <path id="Path_737" data-name="Path 737" d="M342.735,1151.623v2.483h-.515v-6.1H344.3a2.188,2.188,0,0,1,1.5.486,1.909,1.909,0,0,1,.021,2.66,2.25,2.25,0,0,1-1.534.467Zm0-.435H344.3a1.651,1.651,0,0,0,1.143-.356,1.275,1.275,0,0,0,.393-.994,1.33,1.33,0,0,0-.392-1.008,1.568,1.568,0,0,0-1.111-.384h-1.595Z" transform="translate(-75.847 -1099.661)" fill="#464545"/>
      <path id="Path_738" data-name="Path 738" d="M348.887,1148.01l2.248,5.38,2.257-5.38h.686v6.1h-.515v-2.654l.041-2.721-2.269,5.376h-.4l-2.262-5.355.042,2.683v2.672H348.2v-6.1Z" transform="translate(-76.553 -1099.661)" fill="#464545"/>
      <path id="Path_739" data-name="Path 739" d="M370.5,1108.911h.519a1.748,1.748,0,0,0,.753-.153,1.145,1.145,0,0,0,.492-.419,1.115,1.115,0,0,0,.169-.613,1.24,1.24,0,0,0-.331-.917,1.289,1.289,0,0,0-.95-.33,1.365,1.365,0,0,0-.961.345,1.179,1.179,0,0,0-.374.91h-.5a1.631,1.631,0,0,1,.239-.864,1.6,1.6,0,0,1,.662-.6,2.041,2.041,0,0,1,.938-.214,1.823,1.823,0,0,1,1.306.452,1.628,1.628,0,0,1,.477,1.239,1.321,1.321,0,0,1-.279.81,1.67,1.67,0,0,1-.764.555,1.573,1.573,0,0,1,.863.546,1.488,1.488,0,0,1,.293.923,1.643,1.643,0,0,1-.511,1.26,1.918,1.918,0,0,1-1.365.477,2.275,2.275,0,0,1-1-.218,1.609,1.609,0,0,1-.953-1.52h.5a1.219,1.219,0,0,0,.407.949,1.5,1.5,0,0,0,1.043.366,1.437,1.437,0,0,0,1.011-.333,1.246,1.246,0,0,0,.362-.965,1.141,1.141,0,0,0-.391-.934,1.784,1.784,0,0,0-1.154-.322h-.5Z" transform="translate(-79.03 -1094.715)" fill="#464545"/>
      <path id="Path_740" data-name="Path 740" d="M377.891,1109.759v2.482h-.515v-6.1h2.076a2.191,2.191,0,0,1,1.5.486,1.908,1.908,0,0,1,.02,2.66,2.248,2.248,0,0,1-1.534.467Zm0-.435h1.561a1.64,1.64,0,0,0,1.142-.357,1.269,1.269,0,0,0,.394-.993,1.33,1.33,0,0,0-.392-1.008,1.572,1.572,0,0,0-1.111-.385h-1.6Z" transform="translate(-79.992 -1094.726)" fill="#464545"/>
      <path id="Path_741" data-name="Path 741" d="M384.043,1106.146l2.249,5.38,2.256-5.38h.687v6.1h-.515v-2.653l.041-2.721-2.269,5.375h-.4l-2.262-5.354.042,2.683v2.671h-.515v-6.1Z" transform="translate(-80.697 -1094.726)" fill="#464545"/>
      <path id="Path_742" data-name="Path 742" d="M395.5,1110.19h-2.006v-.423H395.5Z" transform="translate(-81.892 -1095.153)" fill="#464545"/>
      <path id="Path_743" data-name="Path 743" d="M402.777,1106.435l-2.6,5.807h-.522l2.586-5.668h-3.466v-.428h4.006Z" transform="translate(-82.514 -1094.726)" fill="#464545"/>
      <path id="Path_744" data-name="Path 744" d="M407.543,1109.759v2.482h-.515v-6.1h2.077a2.188,2.188,0,0,1,1.5.486,1.908,1.908,0,0,1,.02,2.66,2.247,2.247,0,0,1-1.534.467Zm0-.435h1.562a1.644,1.644,0,0,0,1.142-.357,1.269,1.269,0,0,0,.393-.993,1.329,1.329,0,0,0-.391-1.008,1.572,1.572,0,0,0-1.111-.385h-1.6Z" transform="translate(-83.488 -1094.726)" fill="#464545"/>
      <path id="Path_745" data-name="Path 745" d="M413.695,1106.146l2.249,5.38,2.257-5.38h.686v6.1h-.515v-2.653l.041-2.721-2.27,5.375h-.4l-2.261-5.354.042,2.683v2.671h-.515v-6.1Z" transform="translate(-84.193 -1094.726)" fill="#464545"/>
      <path id="Path_746" data-name="Path 746" d="M370.5,1122.518h.519a1.735,1.735,0,0,0,.753-.153,1.143,1.143,0,0,0,.492-.418,1.119,1.119,0,0,0,.169-.614,1.24,1.24,0,0,0-.331-.917,1.289,1.289,0,0,0-.95-.33,1.364,1.364,0,0,0-.961.345,1.181,1.181,0,0,0-.374.91h-.5a1.63,1.63,0,0,1,.239-.864,1.6,1.6,0,0,1,.662-.605,2.043,2.043,0,0,1,.938-.213,1.822,1.822,0,0,1,1.306.453,1.624,1.624,0,0,1,.477,1.239,1.324,1.324,0,0,1-.279.811,1.682,1.682,0,0,1-.764.555,1.568,1.568,0,0,1,.863.546,1.487,1.487,0,0,1,.293.923,1.645,1.645,0,0,1-.511,1.261,1.918,1.918,0,0,1-1.365.477,2.264,2.264,0,0,1-1-.219,1.609,1.609,0,0,1-.953-1.519h.5a1.217,1.217,0,0,0,.407.948,1.5,1.5,0,0,0,1.043.366,1.437,1.437,0,0,0,1.011-.333,1.244,1.244,0,0,0,.362-.965,1.139,1.139,0,0,0-.391-.933,1.783,1.783,0,0,0-1.154-.322h-.5Z" transform="translate(-79.03 -1096.319)" fill="#464545"/>
      <path id="Path_747" data-name="Path 747" d="M377.891,1123.366v2.483h-.515v-6.1h2.076a2.191,2.191,0,0,1,1.5.485,1.691,1.691,0,0,1,.55,1.336,1.672,1.672,0,0,1-.53,1.325,2.244,2.244,0,0,1-1.534.467Zm0-.435h1.561a1.644,1.644,0,0,0,1.142-.356,1.272,1.272,0,0,0,.394-.994,1.33,1.33,0,0,0-.392-1.008,1.571,1.571,0,0,0-1.111-.384h-1.6Z" transform="translate(-79.992 -1096.33)" fill="#464545"/>
      <path id="Path_748" data-name="Path 748" d="M384.043,1119.754l2.249,5.379,2.256-5.379h.687v6.1h-.515V1123.2l.041-2.721-2.269,5.376h-.4l-2.262-5.354.042,2.682v2.672h-.515v-6.1Z" transform="translate(-80.697 -1096.33)" fill="#464545"/>
      <path id="Path_749" data-name="Path 749" d="M395.5,1123.8h-2.006v-.423H395.5Z" transform="translate(-81.892 -1096.757)" fill="#464545"/>
      <path id="Path_750" data-name="Path 750" d="M402.777,1120.042l-2.6,5.807h-.522l2.586-5.668h-3.466v-.427h4.006Z" transform="translate(-82.514 -1096.33)" fill="#464545"/>
      <path id="Path_751" data-name="Path 751" d="M407.543,1123.366v2.483h-.515v-6.1h2.077a2.189,2.189,0,0,1,1.5.485,1.691,1.691,0,0,1,.55,1.336,1.669,1.669,0,0,1-.53,1.325,2.244,2.244,0,0,1-1.534.467Zm0-.435h1.562a1.648,1.648,0,0,0,1.142-.356,1.272,1.272,0,0,0,.393-.994,1.33,1.33,0,0,0-.391-1.008,1.571,1.571,0,0,0-1.111-.384h-1.6Z" transform="translate(-83.488 -1096.33)" fill="#464545"/>
      <path id="Path_752" data-name="Path 752" d="M413.695,1119.754l2.249,5.379,2.257-5.379h.686v6.1h-.515V1123.2l.041-2.721-2.27,5.376h-.4l-2.261-5.354.042,2.682v2.672h-.515v-6.1Z" transform="translate(-84.193 -1096.33)" fill="#464545"/>
      <path id="Path_753" data-name="Path 753" d="M370.5,1136.126h.519a1.748,1.748,0,0,0,.753-.153,1.15,1.15,0,0,0,.492-.419,1.117,1.117,0,0,0,.169-.613,1.239,1.239,0,0,0-.331-.917,1.289,1.289,0,0,0-.95-.33,1.368,1.368,0,0,0-.961.344,1.183,1.183,0,0,0-.374.911h-.5a1.631,1.631,0,0,1,.239-.865,1.6,1.6,0,0,1,.662-.6,2.031,2.031,0,0,1,.938-.214,1.822,1.822,0,0,1,1.306.453,1.627,1.627,0,0,1,.477,1.238,1.324,1.324,0,0,1-.279.811,1.67,1.67,0,0,1-.764.555,1.569,1.569,0,0,1,.863.546,1.488,1.488,0,0,1,.293.923,1.643,1.643,0,0,1-.511,1.26,1.917,1.917,0,0,1-1.365.477,2.275,2.275,0,0,1-1-.218,1.611,1.611,0,0,1-.953-1.52h.5a1.216,1.216,0,0,0,.407.948,1.491,1.491,0,0,0,1.043.366,1.441,1.441,0,0,0,1.011-.332,1.246,1.246,0,0,0,.362-.965,1.141,1.141,0,0,0-.391-.934,1.783,1.783,0,0,0-1.154-.322h-.5Z" transform="translate(-79.03 -1097.923)" fill="#464545"/>
      <path id="Path_754" data-name="Path 754" d="M377.891,1136.974v2.482h-.515v-6.1h2.076a2.191,2.191,0,0,1,1.5.486,1.907,1.907,0,0,1,.02,2.66,2.244,2.244,0,0,1-1.534.468Zm0-.435h1.561a1.64,1.64,0,0,0,1.142-.357,1.269,1.269,0,0,0,.394-.994,1.328,1.328,0,0,0-.392-1.007,1.57,1.57,0,0,0-1.111-.385h-1.6Z" transform="translate(-79.992 -1097.935)" fill="#464545"/>
      <path id="Path_755" data-name="Path 755" d="M384.043,1133.361l2.249,5.38,2.256-5.38h.687v6.1h-.515V1136.8l.041-2.721-2.269,5.376h-.4l-2.262-5.354.042,2.683v2.671h-.515v-6.1Z" transform="translate(-80.697 -1097.935)" fill="#464545"/>
      <path id="Path_756" data-name="Path 756" d="M395.5,1137.406h-2.006v-.423H395.5Z" transform="translate(-81.892 -1098.361)" fill="#464545"/>
      <path id="Path_757" data-name="Path 757" d="M402.777,1133.649l-2.6,5.807h-.522l2.586-5.669h-3.466v-.427h4.006Z" transform="translate(-82.514 -1097.935)" fill="#464545"/>
      <path id="Path_758" data-name="Path 758" d="M407.543,1136.974v2.482h-.515v-6.1h2.077a2.189,2.189,0,0,1,1.5.486,1.688,1.688,0,0,1,.55,1.336,1.669,1.669,0,0,1-.53,1.324,2.244,2.244,0,0,1-1.534.468Zm0-.435h1.562a1.643,1.643,0,0,0,1.142-.357,1.269,1.269,0,0,0,.393-.994,1.328,1.328,0,0,0-.391-1.007,1.571,1.571,0,0,0-1.111-.385h-1.6Z" transform="translate(-83.488 -1097.935)" fill="#464545"/>
      <path id="Path_759" data-name="Path 759" d="M413.695,1133.361l2.249,5.38,2.257-5.38h.686v6.1h-.515V1136.8l.041-2.721-2.27,5.376h-.4l-2.261-5.354.042,2.683v2.671h-.515v-6.1Z" transform="translate(-84.193 -1097.935)" fill="#464545"/>
    </g>
    <rect id="Rectangle_42" data-name="Rectangle 42" width="342.938" height="59.224" transform="translate(36.181 1090.982)" fill="none" stroke="#006828" stroke-width="0.456"/>
    <line id="Line_14" data-name="Line 14" y1="59.224" transform="translate(207.752 1090.982)" fill="none" stroke="#006828" stroke-width="0.5"/>
    <line id="Line_15" data-name="Line 15" x2="342.934" transform="translate(36.186 1102.925)" fill="none" stroke="#006828" stroke-width="0.501"/>
    <line id="Line_16" data-name="Line 16" x2="342.934" transform="translate(36.186 1114.8)" fill="none" stroke="#006828" stroke-width="0.501"/>
    <line id="Line_17" data-name="Line 17" x2="342.934" transform="translate(36.186 1126.675)" fill="none" stroke="#006828" stroke-width="0.501"/>
    <line id="Line_18" data-name="Line 18" x2="342.934" transform="translate(36.186 1138.55)" fill="none" stroke="#006828" stroke-width="0.501"/>
  </g>
</svg>
