<svg xmlns="http://www.w3.org/2000/svg" width="48" height="48.002" viewBox="0 0 48 48.002">
  <g id="Group_97" data-name="Group 97" transform="translate(-634.188 399.856)">
    <path id="Path_404" data-name="Path 404" d="M658.188-351.854a24.027,24.027,0,0,1-24-24,24.027,24.027,0,0,1,24-24,24.028,24.028,0,0,1,24,24A24.028,24.028,0,0,1,658.188-351.854Z" transform="translate(0 0)" fill="#096828"/>
    <g id="Group_96" data-name="Group 96" transform="translate(642.367 -386.245)">
      <g id="Group_95" data-name="Group 95" transform="translate(4.745 3.937)">
        <path id="Path_405" data-name="Path 405" d="M648.6-387.771a21.693,21.693,0,0,0-5.57,0,3.677,3.677,0,0,0-2.582,3.5v1.426a.767.767,0,0,0,.78.78h9.139a.767.767,0,0,0,.78-.78v-1.426A3.574,3.574,0,0,0,648.6-387.771Z" transform="translate(-640.45 394.973)" fill="#fff"/>
        <circle id="Ellipse_14" data-name="Ellipse 14" cx="3.057" cy="3.057" r="3.057" transform="translate(2.309)" fill="#fff"/>
        <path id="Path_406" data-name="Path 406" d="M655.451-390.728h-8.239a.693.693,0,0,0-.689.689.693.693,0,0,0,.689.689h8.239a.694.694,0,0,0,.691-.689A.681.681,0,0,0,655.451-390.728Z" transform="translate(-633.99 392.019)" fill="#fff"/>
        <path id="Path_407" data-name="Path 407" d="M655.451-388.561h-8.239a.693.693,0,0,0-.689.689.694.694,0,0,0,.689.691h8.239a.694.694,0,0,0,.691-.691A.681.681,0,0,0,655.451-388.561Z" transform="translate(-633.99 394.324)" fill="#fff"/>
        <path id="Path_408" data-name="Path 408" d="M655.451-386.393h-8.239a.693.693,0,0,0-.689.689.693.693,0,0,0,.689.689h8.239a.694.694,0,0,0,.691-.689A.681.681,0,0,0,655.451-386.393Z" transform="translate(-633.99 396.631)" fill="#fff"/>
      </g>
      <path id="Path_409" data-name="Path 409" d="M667.236-393.261H640.731a2.578,2.578,0,0,0-2.58,2.578v15.625a2.578,2.578,0,0,0,2.58,2.578h26.483a2.577,2.577,0,0,0,2.578-2.578v-15.625A2.544,2.544,0,0,0,667.236-393.261Zm1.176,18.225a1.169,1.169,0,0,1-1.176,1.174H640.731a1.168,1.168,0,0,1-1.176-1.174v-15.648a1.168,1.168,0,0,1,1.176-1.176h26.483a1.168,1.168,0,0,1,1.176,1.176Z" transform="translate(-638.151 393.261)" fill="#fff"/>
    </g>
  </g>
</svg>
