<svg xmlns="http://www.w3.org/2000/svg" width="48" height="48" viewBox="0 0 48 48">
  <g id="Group_439" data-name="Group 439" transform="translate(-15.862 -1000)">
    <path id="Path_456" data-name="Path 456" d="M658.188-59.642a24.025,24.025,0,0,1-24-24,24.027,24.027,0,0,1,24-24,24.028,24.028,0,0,1,24,24A24.026,24.026,0,0,1,658.188-59.642Z" transform="translate(-618.326 1107.642)" fill="#006828"/>
    <g id="Group_161" data-name="Group 161" transform="translate(-1 32.5)">
      <g id="Group_159" data-name="Group 159" transform="translate(22.382 979.206)">
        <path id="Path_426" data-name="Path 426" d="M648.253-336.433a.552.552,0,0,0-.782-.005l-8.288,8.29h0a.438.438,0,0,0,0,.619.437.437,0,0,0,.62,0l1.714-1.713V-319.1a.553.553,0,0,0,.554.554h11.582a.554.554,0,0,0,.554-.554v-10.146l1.72,1.721h0a.439.439,0,0,0,.619,0,.438.438,0,0,0,0-.619Zm1.436,17.021h-3.654v-5.681a1.829,1.829,0,0,1,1.828-1.827,1.829,1.829,0,0,1,1.826,1.827Zm3.665,0h-2.8v-5.676a2.692,2.692,0,0,0-2.689-2.689,2.692,2.692,0,0,0-2.69,2.689v5.676h-2.787v-10.7l5.474-5.476,5.494,5.5Z" transform="translate(-639.055 336.598)" fill="#fff"/>
      </g>
      <g id="Group_160" data-name="Group 160" transform="translate(40.862 987.475)">
        <path id="Path_426-2" data-name="Path 426" d="M648.253-336.433a.552.552,0,0,0-.782-.005l-8.288,8.29h0a.438.438,0,0,0,0,.619.437.437,0,0,0,.62,0l1.714-1.713V-319.1a.553.553,0,0,0,.554.554h11.582a.554.554,0,0,0,.554-.554v-10.146l1.72,1.721h0a.439.439,0,0,0,.619,0,.438.438,0,0,0,0-.619Zm1.436,17.021h-3.654v-5.681a1.829,1.829,0,0,1,1.828-1.827,1.829,1.829,0,0,1,1.826,1.827Zm3.665,0h-2.8v-5.676a2.692,2.692,0,0,0-2.689-2.689,2.692,2.692,0,0,0-2.69,2.689v5.676h-2.787v-10.7l5.474-5.476,5.494,5.5Z" transform="translate(-639.055 336.598)" fill="#fff"/>
      </g>
      <path id="Path_525" data-name="Path 525" d="M661.286-245.684l-.929-1.628-.613,2.243a10.931,10.931,0,0,0-4.468-3.473,11.021,11.021,0,0,0-14.405,5.915l1.2.5a9.72,9.72,0,0,1,12.7-5.215,9.638,9.638,0,0,1,3.7,2.749l-1.954-.535.927,1.628,3.011.823Z" transform="translate(-611.079 1227.601)" fill="#fff"/>
    </g>
  </g>
</svg>
