<svg xmlns="http://www.w3.org/2000/svg" width="48" height="48" viewBox="0 0 48 48">
  <g id="Group_443" data-name="Group 443" transform="translate(-15.862 -1506)">
    <path id="Path_456" data-name="Path 456" d="M658.188-59.642a24.025,24.025,0,0,1-24-24,24.027,24.027,0,0,1,24-24,24.028,24.028,0,0,1,24,24A24.026,24.026,0,0,1,658.188-59.642Z" transform="translate(-618.326 1613.642)" fill="#006828"/>
    <g id="Group_163" data-name="Group 163" transform="translate(-277.021 1223.928)">
      <path id="Path_526" data-name="Path 526" d="M311.145,301.5a5.607,5.607,0,0,1,5.968-5.9c3.4.018,5.823,2.633,5.781,6.237a5.753,5.753,0,0,1-5.906,5.946C313.557,307.78,311.133,305.173,311.145,301.5Z" transform="translate(0)" fill="#fff"/>
      <path id="Path_527" data-name="Path 527" d="M312.03,329.784c-.784.02-.915-.44-.829-1.112a5.677,5.677,0,0,1,4.569-4.8,5.762,5.762,0,0,1,7.018,4.805c.139,1.027.064,1.111-.936,1.109Z" transform="translate(-0.016 -13.24)" fill="#fff"/>
    </g>
  </g>
</svg>
