<svg xmlns="http://www.w3.org/2000/svg" width="48" height="48" viewBox="0 0 48 48">
  <g id="Group_437" data-name="Group 437" transform="translate(-16 -750)">
    <path id="Path_425" data-name="Path 425" d="M658.188-341.3a24.025,24.025,0,0,0-24,24,24.027,24.027,0,0,0,24,24,24.028,24.028,0,0,0,24-24A24.027,24.027,0,0,0,658.188-341.3Z" transform="translate(-618.188 1091.299)" fill="#006828"/>
    <path id="Path_427" data-name="Path 427" d="M650.82-331.936a.636.636,0,0,0,.9-.047l.008-.008,3.1-3.539a.64.64,0,0,0-.039-.9.637.637,0,0,0-.9.041l-.016.019-2.679,3.059-1.133-.984a.637.637,0,0,0-.9.058.639.639,0,0,0,.06.9Z" transform="translate(-602.429 1095.3)" fill="#fff"/>
    <path id="Path_521" data-name="Path 521" d="M640.708,491.933a.778.778,0,0,1-.344-.079,21.942,21.942,0,0,1-12.466-19.72,22.285,22.285,0,0,1,.249-3.309.8.8,0,0,1,.9-.674,20.434,20.434,0,0,0,2.646.172,20.037,20.037,0,0,0,8.673-1.948.81.81,0,0,1,.688,0,20.038,20.038,0,0,0,8.673,1.948,20.43,20.43,0,0,0,2.646-.172.8.8,0,0,1,.9.674,22.269,22.269,0,0,1,.249,3.309,21.944,21.944,0,0,1-12.463,19.72.784.784,0,0,1-.344.079ZM629.63,469.827a20.784,20.784,0,0,0-.13,2.307,20.342,20.342,0,0,0,11.208,18.109,20.346,20.346,0,0,0,11.208-18.109,20.755,20.755,0,0,0-.13-2.307c-.684.065-1.374.1-2.06.1a21.6,21.6,0,0,1-9.017-1.944,21.62,21.62,0,0,1-9.017,1.944c-.688,0-1.379-.033-2.06-.1Z" transform="translate(-600.708 298.23)" fill="#fff"/>
    <g id="Group_158" data-name="Group 158" transform="translate(-1291.004 438.259)">
      <g id="Group_157" data-name="Group 157" transform="translate(1325.012 332.431)">
        <path id="Path_523" data-name="Path 523" d="M1335.242,342.779a.33.33,0,0,1-.051.04c-.049.027-.17.034-.211.071-.023.02-.032.087-.052.11a.128.128,0,0,1-.065.042c-.033,0-.078-.071-.111-.075a.174.174,0,0,0-.1.038.143.143,0,0,0-.041.088c0,.03.063.066.082.089a.49.49,0,0,1,.073.1c.008.023-.01.081.006.1s.084.009.1.029a.192.192,0,0,1,.01.129.176.176,0,0,1-.05.067c-.02.014-.077.013-.092.032a.158.158,0,0,0-.013.1c.007.028.058.064.069.09a.323.323,0,0,1,.025.141.186.186,0,0,1-.054.086c-.015.011-.057.008-.074.016a.271.271,0,0,0-.072.067c-.016.024-.024.084-.042.106a.314.314,0,0,1-.068.045c-.025.015-.081.038-.1.056-.042.032-.106.116-.145.152a.751.751,0,0,1-.085.069.25.25,0,0,1-.1.045c-.038,0-.094-.083-.131-.076-.018,0-.041.042-.046.059s.014.083.007.11-.05.067-.064.091-.039.062-.036.085.058.084.084.106.1.039.124.069a.282.282,0,0,1,.013.134.31.31,0,0,1-.041.153c-.036.035-.147.04-.2.047s-.185-.008-.244.006a.3.3,0,0,0-.116.058.4.4,0,0,0-.044.124c-.014.052-.035.159-.043.213,0,.016-.005.045-.008.073l-.086-.025c-.05-.015-.165-.018-.2-.055-.016-.015-.011-.068-.026-.084a.125.125,0,0,0-.091-.033c-.019.007-.026.058-.043.068a.16.16,0,0,1-.083.006c-.028-.005-.074-.041-.1-.047s-.12.011-.156,0-.059-.065-.085-.075a.329.329,0,0,0-.143,0,.236.236,0,0,0-.113.056c-.022.033,0,.122-.017.159a.306.306,0,0,1-.1.122.224.224,0,0,1-.153,0c-.033-.019-.045-.111-.076-.132s-.08-.005-.1-.015a.23.23,0,0,1-.1-.068c-.01-.019,0-.064,0-.085s-.05-.073-.048-.1.032-.049.044-.065.025-.048.04-.054.055.014.073.016a.479.479,0,0,0,.18,0,.2.2,0,0,0,.064-.069.553.553,0,0,0,.029-.1,1.016,1.016,0,0,0,.025-.11.966.966,0,0,0-.005-.212.584.584,0,0,0-.041-.108.632.632,0,0,0-.065-.108c-.014-.015-.044-.052-.064-.051s-.025.03-.037.033a.126.126,0,0,1-.084-.026c-.033-.033-.035-.137-.057-.179s-.068-.074-.083-.1-.012-.11-.035-.137a.373.373,0,0,0-.123-.057.816.816,0,0,1-.168-.056.292.292,0,0,1-.062-.1c-.012-.033-.01-.107-.021-.141a.423.423,0,0,0-.037-.073,1.1,1.1,0,0,0-.147-.183,1.233,1.233,0,0,0-.215-.125c-.068-.032-.21-.079-.28-.1a.909.909,0,0,0-.14-.042c-.042,0-.125.02-.166.015a.333.333,0,0,1-.133-.043c-.031-.026-.091-.1-.08-.143.007-.023.068-.027.086-.045a.355.355,0,0,0,.066-.129c.012-.051-.012-.159-.005-.211s.04-.108.042-.146a.266.266,0,0,0-.024-.116.631.631,0,0,0-.184-.133,1.651,1.651,0,0,0-.214-.09,1.918,1.918,0,0,0-.213-.055,1.142,1.142,0,0,0-.146-.014c-.065,0-.216-.025-.26.024-.018.02.011.084,0,.109a.123.123,0,0,1-.047.058.236.236,0,0,1-.139-.018.312.312,0,0,1-.107-.107.5.5,0,0,1-.019-.19.276.276,0,0,1,.025-.1c.011-.016.047-.034.061-.047a.608.608,0,0,0,.111-.137,1.333,1.333,0,0,0,.038-.294c.014-.131.046-.395.042-.527a2.67,2.67,0,0,0-.068-.5,1.794,1.794,0,0,0-.114-.251c-.03-.057-.1-.163-.134-.219a1.856,1.856,0,0,1-.127-.23c-.018-.051-.02-.163-.037-.214a.293.293,0,0,0-.055-.108c-.018-.015-.074-.006-.091-.022s-.023-.1-.038-.133a.924.924,0,0,0-.111-.149,1.547,1.547,0,0,0-.128-.12.532.532,0,0,1-.085-.061.929.929,0,0,1-.057-.2c-.027-.084-.1-.246-.116-.332a4.1,4.1,0,0,1-.047-.468c-.008-.12-.008-.36-.016-.48-.009-.146-.026-.438-.053-.581a2.932,2.932,0,0,0-.145-.5,2.6,2.6,0,0,0-.21-.326,3.623,3.623,0,0,0-.269-.335c-.052-.052-.17-.139-.227-.185a1.374,1.374,0,0,0-.149-.12.6.6,0,0,0-.1-.038c.014-.039.033-.094.044-.118s.055-.107.074-.142.063-.079.065-.111a.2.2,0,0,0-.054-.115.257.257,0,0,0-.128-.042c-.024,0-.069.034-.094.03a.157.157,0,0,1-.089-.063c-.015-.034.028-.111.018-.146a.21.21,0,0,0-.077-.093.389.389,0,0,0-.149-.013c-.019,0-.057.018-.076.014a.1.1,0,0,1-.054-.039c-.006-.014.006-.045.01-.06.008-.031.052-.088.042-.118a.107.107,0,0,0-.066-.048.115.115,0,0,0-.068.021c-.021.018-.026.084-.048.1s-.05.025-.066.013-.017-.043-.015-.06.019-.079.019-.106-.022-.111-.026-.149.012-.111,0-.143a.33.33,0,0,0-.1-.083c-.028-.017-.092-.034-.118-.053s-.055-.076-.08-.093-.069-.021-.087-.036-.053-.1-.082-.117-.087-.017-.11-.035c-.047-.036-.089-.154-.126-.2a.27.27,0,0,0-.031-.028l.023-.024c.016-.02.031-.072.052-.085s.1,0,.134-.011a.239.239,0,0,0,.109-.044c.01-.014,0-.052.007-.069a.289.289,0,0,1,.015-.072c.021-.039.1-.092.125-.126s.07-.1.1-.132a.823.823,0,0,1,.148-.163.408.408,0,0,1,.167-.037.774.774,0,0,1,.221.073c.04.02.109.076.147.1a.781.781,0,0,1,.163.094.123.123,0,0,1,.026.081c-.009.027-.08.041-.093.066a.105.105,0,0,0,0,.07c.013.025.066.052.089.068a1.279,1.279,0,0,1,.189.121c.025.028.036.11.064.135a.321.321,0,0,0,.127.046c.027,0,.084-.01.11,0a.479.479,0,0,1,.087.058.906.906,0,0,0,.116.076c.034.013.112.006.144.024a.18.18,0,0,1,.052.063c.012.026.005.087.018.113a.4.4,0,0,0,.128.141.165.165,0,0,0,.091.01c.026-.008.058-.059.083-.07a.24.24,0,0,1,.09-.012c.033,0,.093.036.125.042s.095-.01.123,0a.4.4,0,0,1,.1.108,1.038,1.038,0,0,0,.084.138.276.276,0,0,0,.1.043c.047.009.149-.024.193,0a.2.2,0,0,1,.076.086c.012.033-.016.108,0,.141s.084.075.109.1.043.066.06.086.086.093.117.122a.615.615,0,0,0,.135.114.248.248,0,0,0,.136,0c.027-.012.062-.065.08-.088a.712.712,0,0,1,.068-.1.423.423,0,0,1,.14-.05.764.764,0,0,1,.192-.007.334.334,0,0,1,.12.04c.032.025.058.112.089.14a.957.957,0,0,0,.2.1.973.973,0,0,1,.142.054c.021.015.043.067.065.081s.079.013.1.027.066.085.1.1a.211.211,0,0,0,.119.032c.021-.006.046-.045.057-.063s.027-.061.038-.081a.962.962,0,0,1,.075-.121c.019-.023.078-.054.089-.082s-.02-.088,0-.109.07-.019.093-.018a.158.158,0,0,1,.07.021.1.1,0,0,1,.034.068c-.006.03-.081.052-.093.08a.124.124,0,0,0,0,.083.179.179,0,0,0,.079.045.665.665,0,0,0,.167.018.8.8,0,0,0,.149-.026c.039-.012.111-.052.15-.065a.583.583,0,0,1,.135-.031c.065,0,.189.059.254.059a.3.3,0,0,0,.169-.042.083.083,0,0,0,.01-.066c-.014-.028-.083-.046-.11-.062s-.118-.048-.141-.081a.12.12,0,0,1-.013-.086c.012-.023.066-.042.09-.048.048-.012.149.008.2,0a.439.439,0,0,0,.117-.048.587.587,0,0,0,.105-.106,1.483,1.483,0,0,1,.074-.135.151.151,0,0,1,.066-.037c.03,0,.086.046.114.036s.044-.062.056-.085.023-.087.046-.1a.134.134,0,0,1,.089,0,.394.394,0,0,1,.116.11c.021.028.043.1.067.125s.089.044.108.07.011.066.024.085a.242.242,0,0,0,.085.068.311.311,0,0,0,.091.005.5.5,0,0,0,.143-.015c.02-.009.045-.051.066-.059a.182.182,0,0,1,.111,0,.154.154,0,0,1,.057.086.164.164,0,0,1-.032.087c-.011.014-.051.024-.06.039s-.02.056-.01.071.057.014.076.015a.851.851,0,0,1,.094-.008c.032.007.082.063.115.064s.064-.032.085-.044a.538.538,0,0,1,.1-.063c.026-.005.08.017.107.015s.078-.036.105-.031a.065.065,0,0,1,.033.024.119.119,0,0,1,.006.07c-.01.031-.073.067-.085.1s0,.1-.006.132a1.623,1.623,0,0,1-.08.148c-.011.026-.022.082-.035.107a.418.418,0,0,1-.1.123c-.025.016-.1.006-.115.028s-.014.1-.009.136a.384.384,0,0,0,.047.119c.024.034.109.07.123.109s-.018.077-.017.1a.12.12,0,0,0,.013.057c.017.019.079.017.1.036a.24.24,0,0,1,.024.1c0,.035-.014.105-.008.139a.173.173,0,0,0,.029.065.793.793,0,0,0,.174.086.708.708,0,0,1,.12.061c.032.028.068.11.1.141a.252.252,0,0,0,.063.044.851.851,0,0,0,.163.021,1.16,1.16,0,0,1,.2.016.737.737,0,0,1,.152.1c.048.038.125.141.181.167a.846.846,0,0,0,.152.015c.054.009.159.042.213.054a.625.625,0,0,0,.127.024c.031,0,.087-.033.118-.037a.5.5,0,0,1,.16,0c.042.013.1.087.147.094a.2.2,0,0,0,.1-.024c.016-.01.032-.047.046-.06a.189.189,0,0,1,.067-.041c.023,0,.069.026.092.021s.06-.046.08-.06a.392.392,0,0,0,.049-.03.114.114,0,0,0,.012-.016c.027.014.056.029.07.039.053.036.144.126.194.167.032.026.115.064.13.1a.1.1,0,0,1-.012.073c-.013.014-.059.007-.074.018a.173.173,0,0,0-.042.064c-.007.021,0,.07-.01.087a.051.051,0,0,1-.041.012c-.016-.007-.031-.045-.036-.062s0-.1-.007-.131-.018-.081-.042-.089-.052.016-.062.03c-.022.03-.005.111-.02.145a.211.211,0,0,1-.053.066c-.021.015-.076.018-.1.033s-.06.1-.088.121-.109.048-.134.078a.176.176,0,0,0-.031.091c0,.032.05.082.06.113a.231.231,0,0,1,0,.051l-.043.063c-.034.052-.1.155-.13.21s-.038.154-.074.19-.107.035-.141.051-.086.035-.1.061a.119.119,0,0,0,.013.087c.022.032.105.05.137.072s.061.038.067.059a.111.111,0,0,1-.025.071.2.2,0,0,1-.065.032c-.017.006-.054,0-.068.015-.033.025-.045.119-.076.146a.157.157,0,0,1-.08.029c-.016,0-.044-.029-.06-.026a.175.175,0,0,0-.1.087.162.162,0,0,0,.02.117.169.169,0,0,0,.093.027c.019,0,.058-.028.073-.016s0,.048,0,.064c0,.042-.014.131.008.166a.236.236,0,0,0,.1.058c.036.013.12,0,.151.028a.269.269,0,0,1,.066.131.828.828,0,0,1-.019.139c0,.027-.014.086,0,.107a.143.143,0,0,0,.093.03.212.212,0,0,0,.1-.045c.021-.02.03-.09.056-.1a.145.145,0,0,1,.118.03.138.138,0,0,1,.012.1c-.014.042-.089.1-.124.129a.657.657,0,0,1-.137.079c-.038.013-.124.007-.161.025s-.06.067-.086.08a.306.306,0,0,1-.138.026c-.038-.006-.1-.076-.134-.077a.144.144,0,0,0-.089.043c-.014.02-.009.074-.012.1a.881.881,0,0,1-.019.21.316.316,0,0,1-.1.1c-.04.024-.14.027-.178.053a.52.52,0,0,0-.118.152.464.464,0,0,0-.041.149c0,.036.03.105.034.141s-.008.13,0,.172.017.094.041.111a.065.065,0,0,0,.049,0c.021-.011.032-.068.054-.076a.1.1,0,0,1,.067.015.163.163,0,0,1,.034.069.609.609,0,0,1,.01.168,1.137,1.137,0,0,1-.053.172c-.019.054-.062.161-.081.216a1.179,1.179,0,0,0-.073.223.289.289,0,0,0,.021.113c.011.022.057.051.069.073a.2.2,0,0,1,.02.088.288.288,0,0,1-.06.109,1.348,1.348,0,0,1-.154.105C1335.285,342.739,1335.264,342.759,1335.242,342.779Z" transform="translate(-1325.255 -332.678)" fill="#fff"/>
        <path id="Path_524" data-name="Path 524" d="M1331.759,345.739a.169.169,0,0,1-.082-.014.148.148,0,0,1-.049-.078.156.156,0,0,0-.029-.055.134.134,0,0,0-.047-.006.167.167,0,0,1-.054-.007.246.246,0,0,1-.106-.078.113.113,0,0,1,0-.06.149.149,0,0,0,0-.03.175.175,0,0,0-.019-.036.134.134,0,0,1-.029-.072.126.126,0,0,1,.036-.061l.012-.014.008-.014c.011-.019.024-.041.042-.048a.1.1,0,0,1,.062.008l.021.006.02,0a.412.412,0,0,0,.15,0,.185.185,0,0,0,.054-.06.371.371,0,0,0,.021-.074l.005-.024,0-.017a.778.778,0,0,0,.02-.09.937.937,0,0,0-.005-.205.569.569,0,0,0-.039-.1.625.625,0,0,0-.062-.1l0,0a.175.175,0,0,0-.041-.039l-.006.008a.057.057,0,0,1-.03.024.145.145,0,0,1-.1-.032.234.234,0,0,1-.042-.114.312.312,0,0,0-.019-.069.3.3,0,0,0-.037-.046.3.3,0,0,1-.046-.058.233.233,0,0,1-.015-.066.181.181,0,0,0-.017-.066.255.255,0,0,0-.086-.041l-.028-.01a.5.5,0,0,0-.057-.016.331.331,0,0,1-.117-.043.308.308,0,0,1-.068-.11.348.348,0,0,1-.013-.079.334.334,0,0,0-.009-.062.392.392,0,0,0-.034-.068,1.088,1.088,0,0,0-.143-.179,1.209,1.209,0,0,0-.21-.122c-.065-.031-.2-.076-.274-.1l0,0-.028-.01a.63.63,0,0,0-.107-.032.378.378,0,0,0-.077.007.381.381,0,0,1-.09.008.347.347,0,0,1-.144-.047c-.024-.02-.1-.108-.087-.165.007-.024.035-.033.061-.041a.123.123,0,0,0,.03-.012.335.335,0,0,0,.061-.118.432.432,0,0,0,0-.11.526.526,0,0,1,0-.1.37.37,0,0,1,.021-.07.314.314,0,0,0,.021-.073.25.25,0,0,0-.02-.1.618.618,0,0,0-.172-.123l-.005,0a1.626,1.626,0,0,0-.21-.088,1.909,1.909,0,0,0-.21-.054,1.112,1.112,0,0,0-.143-.014l-.056,0c-.06,0-.161-.011-.188.02a.135.135,0,0,0,0,.042.125.125,0,0,1,0,.06.142.142,0,0,1-.059.071.257.257,0,0,1-.157-.018.33.33,0,0,1-.117-.117.526.526,0,0,1-.021-.2.293.293,0,0,1,.029-.109.148.148,0,0,1,.042-.035.175.175,0,0,0,.022-.016.583.583,0,0,0,.107-.13.847.847,0,0,0,.031-.217c0-.027,0-.052.005-.071s0-.045.008-.072a4.251,4.251,0,0,0,.034-.452,2.66,2.66,0,0,0-.068-.494,1.708,1.708,0,0,0-.112-.247c-.017-.033-.049-.082-.079-.13s-.041-.065-.054-.088l-.028-.047a1.258,1.258,0,0,1-.1-.186.611.611,0,0,1-.02-.114.618.618,0,0,0-.017-.1.226.226,0,0,0-.048-.1.114.114,0,0,0-.033-.006.1.1,0,0,1-.06-.018.167.167,0,0,1-.031-.09.217.217,0,0,0-.011-.049.917.917,0,0,0-.108-.144,1.522,1.522,0,0,0-.126-.118.283.283,0,0,0-.029-.019.212.212,0,0,1-.059-.046.438.438,0,0,1-.045-.142c-.005-.024-.01-.048-.015-.063-.01-.032-.027-.075-.044-.121a1.827,1.827,0,0,1-.072-.213,3.75,3.75,0,0,1-.045-.439l0-.032c0-.062-.006-.157-.008-.249s0-.173-.007-.231l0-.028c-.01-.156-.026-.417-.051-.55a2.886,2.886,0,0,0-.143-.492,2.361,2.361,0,0,0-.208-.323,3.619,3.619,0,0,0-.267-.333,2.08,2.08,0,0,0-.164-.135l-.062-.048-.041-.035a.757.757,0,0,0-.1-.083.574.574,0,0,0-.093-.037.022.022,0,0,1-.013-.011.022.022,0,0,1,0-.017c.012-.033.033-.093.044-.12s.05-.1.075-.144a.345.345,0,0,1,.024-.035.2.2,0,0,0,.038-.066.187.187,0,0,0-.047-.1.238.238,0,0,0-.114-.037.149.149,0,0,0-.034.013.118.118,0,0,1-.062.017.176.176,0,0,1-.105-.076.144.144,0,0,1,.007-.09.16.16,0,0,0,.01-.058.193.193,0,0,0-.067-.08.32.32,0,0,0-.138-.01l-.025.006a.125.125,0,0,1-.056.007.118.118,0,0,1-.069-.052.1.1,0,0,1,.006-.064l0-.009a.237.237,0,0,1,.02-.046c.01-.019.026-.05.023-.061a.064.064,0,0,0-.1-.017.131.131,0,0,0-.017.041.128.128,0,0,1-.031.061.083.083,0,0,1-.093.014c-.028-.021-.024-.076-.024-.079a.4.4,0,0,1,.009-.05.33.33,0,0,0,.009-.054.489.489,0,0,0-.014-.082.59.59,0,0,1-.012-.064.34.34,0,0,1,0-.054.219.219,0,0,0,0-.081.316.316,0,0,0-.091-.071l-.005,0a.368.368,0,0,0-.049-.021.322.322,0,0,1-.07-.033.254.254,0,0,1-.043-.05.226.226,0,0,0-.036-.043.166.166,0,0,0-.036-.014.164.164,0,0,1-.052-.022.221.221,0,0,1-.045-.063.206.206,0,0,0-.036-.053.161.161,0,0,0-.046-.013.162.162,0,0,1-.064-.022.4.4,0,0,1-.084-.124.521.521,0,0,0-.046-.078.236.236,0,0,0-.028-.025.022.022,0,0,1-.008-.016.021.021,0,0,1,.006-.017l.021-.022a.187.187,0,0,0,.016-.03.138.138,0,0,1,.041-.06.181.181,0,0,1,.092-.012.248.248,0,0,0,.049,0h0a.245.245,0,0,0,.093-.035.119.119,0,0,0,0-.033.178.178,0,0,1,0-.026s0-.008,0-.013a.213.213,0,0,1,.015-.066.377.377,0,0,1,.08-.085.538.538,0,0,0,.047-.044c.014-.016.032-.043.051-.069s.033-.047.045-.063l.023-.03a.614.614,0,0,1,.131-.138.423.423,0,0,1,.179-.04.662.662,0,0,1,.324.138c.021.015.04.029.054.038a.557.557,0,0,0,.053.027.354.354,0,0,1,.115.071.141.141,0,0,1,.029.1c-.007.022-.033.035-.058.047a.125.125,0,0,0-.036.022.091.091,0,0,0,0,.051.21.21,0,0,0,.059.046l.023.015c.015.011.039.024.064.038a.53.53,0,0,1,.128.086.218.218,0,0,1,.033.071.189.189,0,0,0,.029.062.3.3,0,0,0,.116.041.214.214,0,0,0,.044,0,.2.2,0,0,1,.069,0,.253.253,0,0,1,.069.043l.023.017.031.022a.5.5,0,0,0,.082.052.248.248,0,0,0,.058.008.225.225,0,0,1,.088.017.2.2,0,0,1,.061.073.2.2,0,0,1,.01.063.18.18,0,0,0,.007.05.385.385,0,0,0,.118.131.147.147,0,0,0,.075.009.142.142,0,0,0,.035-.031.157.157,0,0,1,.045-.038.259.259,0,0,1,.1-.014.306.306,0,0,1,.075.024.33.33,0,0,0,.053.018.234.234,0,0,0,.045,0,.186.186,0,0,1,.083.006.324.324,0,0,1,.1.1l.01.013a.43.43,0,0,1,.033.058.312.312,0,0,0,.048.077.262.262,0,0,0,.088.038.3.3,0,0,0,.078,0,.253.253,0,0,1,.12,0,.218.218,0,0,1,.088.1.175.175,0,0,1,0,.079.163.163,0,0,0,0,.06.226.226,0,0,0,.059.057.341.341,0,0,1,.046.04.488.488,0,0,1,.033.047c.01.015.02.03.027.039.025.031.084.09.115.119l.024.024a.44.44,0,0,0,.1.086.229.229,0,0,0,.12,0,.253.253,0,0,0,.06-.066l.012-.016a.371.371,0,0,0,.023-.038.247.247,0,0,1,.049-.07.446.446,0,0,1,.149-.055.782.782,0,0,1,.2-.007.349.349,0,0,1,.13.044.244.244,0,0,1,.053.08.254.254,0,0,0,.037.061.733.733,0,0,0,.162.083l.034.014c.012.005.03.011.049.017a.373.373,0,0,1,.1.039.18.18,0,0,1,.036.045.068.068,0,0,0,.071.046.168.168,0,0,1,.057.015.232.232,0,0,1,.054.057.221.221,0,0,0,.042.046.2.2,0,0,0,.1.03c.005,0,.017-.012.043-.051l0,0a.35.35,0,0,0,.021-.044c.006-.013.011-.026.016-.035a1.01,1.01,0,0,1,.077-.125.249.249,0,0,1,.041-.035.174.174,0,0,0,.046-.042.124.124,0,0,0,0-.039.093.093,0,0,1,0-.076c.021-.026.079-.027.111-.025a.174.174,0,0,1,.083.026.121.121,0,0,1,.042.089c-.005.025-.032.041-.058.057a.13.13,0,0,0-.037.027.107.107,0,0,0,0,.064.166.166,0,0,0,.068.035.646.646,0,0,0,.16.017.773.773,0,0,0,.143-.026.658.658,0,0,0,.077-.033.756.756,0,0,1,.073-.032.591.591,0,0,1,.141-.032.512.512,0,0,1,.132.03.5.5,0,0,0,.121.028.283.283,0,0,0,.153-.035.072.072,0,0,0,.006-.042c-.006-.012-.043-.027-.065-.036a.333.333,0,0,1-.037-.016l-.039-.019a.273.273,0,0,1-.108-.069.136.136,0,0,1-.014-.108c.018-.036.09-.055.1-.059a.411.411,0,0,1,.11,0,.27.27,0,0,0,.2-.044.562.562,0,0,0,.1-.1.369.369,0,0,0,.028-.055.306.306,0,0,1,.047-.082.17.17,0,0,1,.079-.043.13.13,0,0,1,.065.021c.013.007.038.019.045.017s.028-.041.035-.055l.01-.02a.227.227,0,0,0,.012-.033.142.142,0,0,1,.041-.077.152.152,0,0,1,.109,0,.422.422,0,0,1,.125.117.344.344,0,0,1,.032.061.289.289,0,0,0,.033.062.2.2,0,0,0,.045.027.188.188,0,0,1,.065.044.128.128,0,0,1,.016.053.123.123,0,0,0,.008.033.227.227,0,0,0,.075.06.289.289,0,0,0,.076,0h.019a.442.442,0,0,0,.122-.013.134.134,0,0,0,.025-.023.123.123,0,0,1,.043-.036.2.2,0,0,1,.129,0,.172.172,0,0,1,.068.1.182.182,0,0,1-.037.1.1.1,0,0,1-.036.024.1.1,0,0,0-.023.013.09.09,0,0,0-.01.047.162.162,0,0,0,.048.006h.011a.218.218,0,0,0,.036,0,.184.184,0,0,1,.061,0,.175.175,0,0,1,.06.034.147.147,0,0,0,.051.029.162.162,0,0,0,.052-.027l.022-.014.031-.021a.25.25,0,0,1,.08-.044.172.172,0,0,1,.067.008.2.2,0,0,0,.042.007.18.18,0,0,0,.039-.013.143.143,0,0,1,.072-.018.085.085,0,0,1,.048.034.138.138,0,0,1,.008.087.16.16,0,0,1-.05.059.164.164,0,0,0-.036.038.194.194,0,0,0,0,.062.24.24,0,0,1,0,.068.447.447,0,0,1-.049.094.562.562,0,0,0-.033.057.43.43,0,0,0-.014.044.365.365,0,0,1-.022.064.443.443,0,0,1-.1.131.143.143,0,0,1-.062.014.126.126,0,0,0-.048.01.212.212,0,0,0,0,.119.359.359,0,0,0,.044.11.23.23,0,0,0,.05.04c.032.022.066.045.076.074a.129.129,0,0,1-.008.073.173.173,0,0,0-.008.036.117.117,0,0,0,.008.044.121.121,0,0,0,.036.011.106.106,0,0,1,.059.025.221.221,0,0,1,.029.113v0a.366.366,0,0,1,0,.067.3.3,0,0,0,0,.071.151.151,0,0,0,.024.054.412.412,0,0,0,.114.059c.02.008.04.016.054.023l.032.015a.414.414,0,0,1,.092.05.361.361,0,0,1,.057.079.358.358,0,0,0,.043.062.226.226,0,0,0,.056.039.557.557,0,0,0,.12.017l.038,0,.062,0a.528.528,0,0,1,.138.014.721.721,0,0,1,.155.1l0,0a.7.7,0,0,1,.068.067.473.473,0,0,0,.108.1.3.3,0,0,0,.087.01.451.451,0,0,1,.06,0c.032.006.08.019.126.031l.088.023.026.006a.417.417,0,0,0,.094.017.255.255,0,0,0,.057-.018.292.292,0,0,1,.059-.019.514.514,0,0,1,.169,0,.256.256,0,0,1,.075.049.221.221,0,0,0,.069.045.18.18,0,0,0,.087-.021.129.129,0,0,0,.02-.027.157.157,0,0,1,.023-.031.218.218,0,0,1,.078-.046.117.117,0,0,1,.056.012.119.119,0,0,0,.035.01.171.171,0,0,0,.045-.033.293.293,0,0,1,.028-.023l.02-.011a.142.142,0,0,0,.026-.016l.01-.013a.021.021,0,0,1,.028-.007c.037.019.06.032.072.04a1.508,1.508,0,0,1,.13.11c.025.022.048.044.065.058a.433.433,0,0,0,.04.027c.039.025.084.052.1.085a.115.115,0,0,1-.016.1.08.08,0,0,1-.053.017.107.107,0,0,0-.025,0,.159.159,0,0,0-.034.054.129.129,0,0,0,0,.03.1.1,0,0,1-.012.064.07.07,0,0,1-.065.018c-.026-.01-.041-.052-.049-.076a.27.27,0,0,1-.005-.075.283.283,0,0,0,0-.057l0-.006c-.012-.049-.021-.064-.026-.068a.079.079,0,0,0-.038.023.163.163,0,0,0-.009.068.212.212,0,0,1-.009.073.227.227,0,0,1-.06.075.165.165,0,0,1-.055.019.156.156,0,0,0-.041.013.24.24,0,0,0-.042.058.284.284,0,0,1-.044.061.277.277,0,0,1-.066.037.229.229,0,0,0-.066.038.158.158,0,0,0-.026.076.18.18,0,0,0,.03.056.246.246,0,0,1,.029.051.158.158,0,0,1,0,.042s0,.01,0,.014a.021.021,0,0,1,0,.013l-.043.062-.011.017c-.035.053-.093.142-.117.191a.437.437,0,0,0-.023.068.314.314,0,0,1-.056.128.227.227,0,0,1-.1.039.319.319,0,0,0-.05.016l-.018.008c-.021.009-.064.029-.07.043a.107.107,0,0,0,.011.066.208.208,0,0,0,.073.039.326.326,0,0,1,.058.027l.009.006c.031.021.06.041.066.065a.129.129,0,0,1-.029.091.191.191,0,0,1-.073.038.151.151,0,0,1-.032.006.124.124,0,0,0-.031.006.185.185,0,0,0-.033.065.2.2,0,0,1-.042.08.175.175,0,0,1-.095.034.083.083,0,0,1-.038-.016.111.111,0,0,0-.019-.01.161.161,0,0,0-.078.072.147.147,0,0,0,.015.1.159.159,0,0,0,.078.02.109.109,0,0,0,.021-.007c.021-.009.046-.019.064,0s.014.042.011.064a.109.109,0,0,0,0,.016c0,.013,0,.03,0,.048a.259.259,0,0,0,.007.108.2.2,0,0,0,.086.049.265.265,0,0,0,.057.008.2.2,0,0,1,.1.023.287.287,0,0,1,.075.144.29.29,0,0,1-.01.095.452.452,0,0,0-.009.049c0,.007,0,.015,0,.024a.166.166,0,0,0,0,.07.13.13,0,0,0,.075.021.2.2,0,0,0,.082-.039.135.135,0,0,0,.018-.038c.01-.028.021-.057.045-.067a.163.163,0,0,1,.142.036.156.156,0,0,1,.016.119.4.4,0,0,1-.131.139.669.669,0,0,1-.143.083.333.333,0,0,1-.078.011.281.281,0,0,0-.08.013.178.178,0,0,0-.037.035.2.2,0,0,1-.049.045.328.328,0,0,1-.151.028.189.189,0,0,1-.073-.042.167.167,0,0,0-.059-.035.128.128,0,0,0-.071.034.167.167,0,0,0-.007.06c0,.011,0,.021,0,.029s0,.038,0,.062a.444.444,0,0,1-.019.155.333.333,0,0,1-.1.107.316.316,0,0,1-.093.027.288.288,0,0,0-.085.025.5.5,0,0,0-.111.144.446.446,0,0,0-.039.139.318.318,0,0,0,.017.075.4.4,0,0,1,.016.064.523.523,0,0,1,0,.082.485.485,0,0,0,0,.089c.013.07.024.091.032.1a.056.056,0,0,0,.027,0,.113.113,0,0,0,.017-.028c.01-.021.021-.042.04-.05a.115.115,0,0,1,.088.018.183.183,0,0,1,.041.08.611.611,0,0,1,.011.176.848.848,0,0,1-.043.146l-.011.03c-.01.029-.027.073-.043.115s-.029.075-.038.1-.012.033-.02.053a.735.735,0,0,0-.052.165.27.27,0,0,0,.018.1.162.162,0,0,0,.03.031.173.173,0,0,1,.039.042.214.214,0,0,1,.022.1.308.308,0,0,1-.066.121.511.511,0,0,1-.1.073c-.021.013-.042.025-.055.035s-.025.021-.04.035l-.017.015h0a.36.36,0,0,1-.055.043.4.4,0,0,1-.1.03.308.308,0,0,0-.11.038.155.155,0,0,0-.022.049.182.182,0,0,1-.028.059s-.045.05-.082.05a.121.121,0,0,1-.072-.044c-.014-.013-.032-.03-.041-.031a.158.158,0,0,0-.083.032.128.128,0,0,0-.035.069c0,.012.029.035.045.049a.275.275,0,0,1,.032.03l.014.017a.345.345,0,0,1,.063.086.137.137,0,0,1,0,.054.119.119,0,0,0,0,.041.122.122,0,0,0,.036.007.094.094,0,0,1,.065.022.208.208,0,0,1,.014.148.192.192,0,0,1-.058.079.13.13,0,0,1-.05.017.121.121,0,0,0-.038.011.145.145,0,0,0-.009.085.151.151,0,0,0,.032.041.2.2,0,0,1,.036.046.344.344,0,0,1,.027.154.206.206,0,0,1-.063.1.107.107,0,0,1-.049.013.117.117,0,0,0-.027,0,.251.251,0,0,0-.064.06.2.2,0,0,0-.016.044.193.193,0,0,1-.027.064.224.224,0,0,1-.061.042l-.013.008-.042.022a.44.44,0,0,0-.06.033.74.74,0,0,0-.083.086c-.022.025-.043.049-.06.065a.767.767,0,0,1-.089.072l-.006,0a.221.221,0,0,1-.105.044.144.144,0,0,1-.074-.043c-.016-.013-.042-.035-.052-.034a.1.1,0,0,0-.03.045.143.143,0,0,0,0,.046.15.15,0,0,1,0,.064.208.208,0,0,1-.041.064.268.268,0,0,0-.024.032l-.007.012a.179.179,0,0,0-.027.059.239.239,0,0,0,.077.093.222.222,0,0,0,.048.024.179.179,0,0,1,.08.05.293.293,0,0,1,.017.147.283.283,0,0,1-.048.167.347.347,0,0,1-.18.049l-.03,0a.768.768,0,0,1-.108,0,.609.609,0,0,0-.134,0,.282.282,0,0,0-.106.051.3.3,0,0,0-.033.093l-.006.022c-.014.052-.035.16-.043.211,0,.015-.005.045-.008.072a.021.021,0,0,1-.009.016.021.021,0,0,1-.018,0l-.045-.013-.041-.012a.546.546,0,0,0-.062-.012.3.3,0,0,1-.149-.048.1.1,0,0,1-.02-.054.058.058,0,0,0-.075-.058.122.122,0,0,0-.012.024.085.085,0,0,1-.029.043.176.176,0,0,1-.1.008.221.221,0,0,1-.059-.026.223.223,0,0,0-.043-.021.272.272,0,0,0-.064,0,.242.242,0,0,1-.1,0,.157.157,0,0,1-.051-.043.152.152,0,0,0-.035-.032.311.311,0,0,0-.13,0,.226.226,0,0,0-.1.047.178.178,0,0,0-.007.074.214.214,0,0,1-.007.081.324.324,0,0,1-.111.133A.246.246,0,0,1,1331.759,345.739Zm-.305-.533h0a.139.139,0,0,0-.02.029l-.01.017-.014.017a.142.142,0,0,0-.026.037.136.136,0,0,0,.023.046.175.175,0,0,1,.025.048.149.149,0,0,1,0,.043.124.124,0,0,0,0,.036.214.214,0,0,0,.085.058.15.15,0,0,0,.039,0,.135.135,0,0,1,.07.013.157.157,0,0,1,.044.074.152.152,0,0,0,.03.057.21.21,0,0,0,.133,0,.291.291,0,0,0,.091-.112.213.213,0,0,0,0-.064.177.177,0,0,1,.015-.1.254.254,0,0,1,.126-.065.349.349,0,0,1,.155,0,.157.157,0,0,1,.051.043.151.151,0,0,0,.035.032.233.233,0,0,0,.077,0,.283.283,0,0,1,.077,0,.227.227,0,0,1,.055.025.214.214,0,0,0,.046.022.148.148,0,0,0,.068,0,.123.123,0,0,0,.011-.023c.009-.02.017-.04.036-.047a.143.143,0,0,1,.114.038.1.1,0,0,1,.018.053.111.111,0,0,0,.008.031.3.3,0,0,0,.126.036.575.575,0,0,1,.068.013l.041.012.021.006c0-.02,0-.037.006-.049.008-.053.029-.161.044-.215l.005-.021a.284.284,0,0,1,.043-.111.315.315,0,0,1,.127-.064.62.62,0,0,1,.146-.006.756.756,0,0,0,.1,0l.031,0a.351.351,0,0,0,.155-.038.276.276,0,0,0,.035-.14.255.255,0,0,0-.01-.12.17.17,0,0,0-.061-.034.239.239,0,0,1-.059-.031c-.026-.022-.085-.077-.091-.12a.157.157,0,0,1,.032-.087l.007-.011a.283.283,0,0,1,.028-.038.2.2,0,0,0,.033-.048.15.15,0,0,0,0-.045.15.15,0,0,1,0-.065c.005-.017.031-.068.062-.074s.059.019.088.043a.148.148,0,0,0,.049.033.235.235,0,0,0,.081-.038l.006,0a.76.76,0,0,0,.082-.066c.016-.014.036-.037.057-.062a.755.755,0,0,1,.089-.091.469.469,0,0,1,.067-.037l.039-.02.015-.008a.219.219,0,0,0,.048-.032.193.193,0,0,0,.019-.049.218.218,0,0,1,.022-.056.29.29,0,0,1,.079-.074.124.124,0,0,1,.042-.009.112.112,0,0,0,.029-.006.168.168,0,0,0,.045-.073.307.307,0,0,0-.024-.128.181.181,0,0,0-.028-.034.163.163,0,0,1-.042-.059.175.175,0,0,1,.017-.123.107.107,0,0,1,.063-.026.131.131,0,0,0,.034-.009.16.16,0,0,0,.042-.056.179.179,0,0,0-.006-.109.12.12,0,0,0-.036-.007.093.093,0,0,1-.065-.023.1.1,0,0,1-.01-.071.126.126,0,0,0,0-.035.348.348,0,0,0-.055-.073l-.015-.017a.259.259,0,0,0-.027-.025c-.027-.023-.055-.047-.06-.074a.16.16,0,0,1,.048-.107.194.194,0,0,1,.116-.043.133.133,0,0,1,.066.043c.013.012.034.032.043.032h0a.121.121,0,0,0,.049-.035.166.166,0,0,0,.019-.044.162.162,0,0,1,.035-.067.317.317,0,0,1,.129-.048.4.4,0,0,0,.086-.026.346.346,0,0,0,.048-.038l.016-.015c.016-.015.031-.028.043-.038s.036-.024.058-.038a.5.5,0,0,0,.092-.065.269.269,0,0,0,.055-.1.181.181,0,0,0-.018-.076.164.164,0,0,0-.03-.03.169.169,0,0,1-.04-.044.305.305,0,0,1-.023-.124.736.736,0,0,1,.055-.177c.008-.019.015-.037.02-.051s.023-.063.038-.1.033-.085.042-.114l.011-.031a.824.824,0,0,0,.041-.136.571.571,0,0,0-.01-.16.151.151,0,0,0-.026-.057.082.082,0,0,0-.046-.012.131.131,0,0,0-.017.029.1.1,0,0,1-.035.047.083.083,0,0,1-.071,0,.2.2,0,0,1-.05-.124.494.494,0,0,1,0-.1.57.57,0,0,0,0-.075.417.417,0,0,0-.015-.056.331.331,0,0,1-.019-.088.488.488,0,0,1,.044-.158.541.541,0,0,1,.125-.16.293.293,0,0,1,.1-.031.306.306,0,0,0,.079-.022.3.3,0,0,0,.088-.088.44.44,0,0,0,.015-.137c0-.025,0-.048,0-.066a.25.25,0,0,0,0-.025.16.16,0,0,1,.015-.084.164.164,0,0,1,.107-.052.169.169,0,0,1,.083.044.181.181,0,0,0,.054.033.285.285,0,0,0,.125-.024.187.187,0,0,0,.036-.035.192.192,0,0,1,.05-.045.294.294,0,0,1,.1-.017.318.318,0,0,0,.068-.009.64.64,0,0,0,.131-.076c.029-.022.1-.082.117-.119a.123.123,0,0,0-.008-.078.13.13,0,0,0-.093-.025c-.007,0-.016.029-.022.043a.141.141,0,0,1-.029.054.231.231,0,0,1-.109.051.16.16,0,0,1-.112-.038.154.154,0,0,1-.008-.1c0-.008,0-.016,0-.021a.445.445,0,0,1,.009-.055.282.282,0,0,0,.01-.079.248.248,0,0,0-.058-.117.2.2,0,0,0-.077-.014.275.275,0,0,1-.069-.011.219.219,0,0,1-.108-.066.262.262,0,0,1-.013-.133c0-.017,0-.033,0-.044a.158.158,0,0,1,0-.024c0-.006,0-.015,0-.021l-.02.007a.1.1,0,0,1-.039.01s-.081,0-.108-.034a.182.182,0,0,1-.024-.138.194.194,0,0,1,.112-.1.071.071,0,0,1,.047.016.091.091,0,0,0,.018.01.142.142,0,0,0,.065-.024.19.19,0,0,0,.031-.063.19.19,0,0,1,.047-.084.109.109,0,0,1,.052-.015l.022,0a.175.175,0,0,0,.056-.026.1.1,0,0,0,.02-.052c0-.01-.037-.033-.048-.04l-.01-.007a.3.3,0,0,0-.05-.023.21.21,0,0,1-.092-.054.138.138,0,0,1-.015-.108c.012-.027.049-.045.092-.064l.016-.008a.342.342,0,0,1,.058-.019.222.222,0,0,0,.077-.029.306.306,0,0,0,.045-.109.494.494,0,0,1,.026-.075c.025-.051.082-.138.12-.2l.011-.017.039-.058v-.008a.145.145,0,0,0,0-.03.231.231,0,0,0-.024-.041.191.191,0,0,1-.037-.076.2.2,0,0,1,.036-.106.24.24,0,0,1,.081-.05.264.264,0,0,0,.055-.03.276.276,0,0,0,.036-.052.257.257,0,0,1,.053-.07.162.162,0,0,1,.057-.02.159.159,0,0,0,.04-.013.188.188,0,0,0,.046-.057.2.2,0,0,0,.005-.057.169.169,0,0,1,.017-.092c.011-.016.056-.049.086-.038s.043.054.054.1v.006a.3.3,0,0,1,0,.069.273.273,0,0,0,0,.062.131.131,0,0,0,.023.048.044.044,0,0,0,.017-.006.125.125,0,0,0,0-.036.127.127,0,0,1,0-.045.189.189,0,0,1,.049-.074.094.094,0,0,1,.045-.011.107.107,0,0,0,.026,0,.083.083,0,0,0,.007-.05c-.008-.02-.049-.046-.079-.065a.446.446,0,0,1-.044-.03c-.018-.015-.042-.037-.067-.059a1.439,1.439,0,0,0-.125-.106c-.009-.006-.026-.016-.051-.029l0,0a.154.154,0,0,1-.036.024l-.016.009a.228.228,0,0,0-.023.02.165.165,0,0,1-.065.043.113.113,0,0,1-.059-.011.117.117,0,0,0-.034-.01.177.177,0,0,0-.056.036.152.152,0,0,0-.016.022.129.129,0,0,1-.033.04.215.215,0,0,1-.118.027.225.225,0,0,1-.089-.054.25.25,0,0,0-.061-.041.483.483,0,0,0-.151,0,.286.286,0,0,0-.049.016.269.269,0,0,1-.07.021.436.436,0,0,1-.107-.018l-.025-.006-.09-.023c-.045-.012-.092-.025-.122-.031a.421.421,0,0,0-.053,0,.3.3,0,0,1-.1-.014.479.479,0,0,1-.122-.107.69.69,0,0,0-.063-.063l0,0a.721.721,0,0,0-.142-.1.526.526,0,0,0-.125-.012c-.025,0-.048,0-.065,0l-.036,0a.559.559,0,0,1-.133-.02.265.265,0,0,1-.07-.048.391.391,0,0,1-.049-.071.333.333,0,0,0-.048-.069.409.409,0,0,0-.081-.043l-.034-.016-.051-.022a.415.415,0,0,1-.129-.069.191.191,0,0,1-.035-.076.311.311,0,0,1,0-.084.364.364,0,0,0,0-.058v0a.236.236,0,0,0-.018-.088.118.118,0,0,0-.036-.011.106.106,0,0,1-.059-.025.132.132,0,0,1-.019-.071.167.167,0,0,1,.01-.049.129.129,0,0,0,.008-.047c-.005-.015-.036-.036-.06-.053a.247.247,0,0,1-.06-.051.4.4,0,0,1-.051-.128c-.006-.035-.015-.119.013-.153a.112.112,0,0,1,.077-.025.138.138,0,0,0,.043-.008.4.4,0,0,0,.088-.115.363.363,0,0,0,.019-.056.425.425,0,0,1,.016-.049.578.578,0,0,1,.035-.063.435.435,0,0,0,.044-.083.219.219,0,0,0,0-.054.2.2,0,0,1,.005-.08.173.173,0,0,1,.047-.054.157.157,0,0,0,.038-.041.1.1,0,0,0,0-.053.053.053,0,0,0-.018-.013.143.143,0,0,0-.048.015.18.18,0,0,1-.052.017.2.2,0,0,1-.055-.008.167.167,0,0,0-.049-.007.249.249,0,0,0-.064.037.38.38,0,0,1-.035.023l-.019.012a.155.155,0,0,1-.076.034.151.151,0,0,1-.075-.038.164.164,0,0,0-.043-.027.174.174,0,0,0-.046,0,.221.221,0,0,1-.045,0h-.01c-.036,0-.067,0-.082-.024s0-.079.009-.095a.1.1,0,0,1,.04-.029.1.1,0,0,0,.022-.012.148.148,0,0,0,.028-.071.138.138,0,0,0-.046-.07.165.165,0,0,0-.093,0,.125.125,0,0,0-.026.025.129.129,0,0,1-.039.034.427.427,0,0,1-.138.017h-.019a.279.279,0,0,1-.093-.007.26.26,0,0,1-.1-.077.13.13,0,0,1-.014-.05.13.13,0,0,0-.008-.034.182.182,0,0,0-.05-.032.215.215,0,0,1-.057-.037.309.309,0,0,1-.041-.073.323.323,0,0,0-.027-.053.374.374,0,0,0-.107-.1.12.12,0,0,0-.07,0,.152.152,0,0,0-.024.054.242.242,0,0,1-.016.041l-.009.018c-.014.03-.032.067-.059.077a.108.108,0,0,1-.078-.019.131.131,0,0,0-.041-.016.138.138,0,0,0-.053.03.3.3,0,0,0-.038.07.366.366,0,0,1-.033.063.6.6,0,0,1-.111.111.456.456,0,0,1-.125.051.436.436,0,0,1-.1,0,.393.393,0,0,0-.1,0,.162.162,0,0,0-.077.037.108.108,0,0,0,.011.065.273.273,0,0,0,.091.054l.043.021.032.014c.035.014.074.03.087.057a.1.1,0,0,1-.013.089c-.043.047-.178.049-.184.049a.5.5,0,0,1-.134-.03.5.5,0,0,0-.12-.028.511.511,0,0,0-.128.03.722.722,0,0,0-.068.03.691.691,0,0,1-.083.035.815.815,0,0,1-.154.027.675.675,0,0,1-.174-.019.187.187,0,0,1-.091-.054.141.141,0,0,1,0-.1.125.125,0,0,1,.054-.046c.013-.008.036-.022.038-.029a.1.1,0,0,0-.027-.048.171.171,0,0,0-.133-.006.122.122,0,0,0,0,.041.114.114,0,0,1,0,.064.179.179,0,0,1-.059.059.234.234,0,0,0-.034.028.957.957,0,0,0-.072.118c0,.007-.009.019-.014.031a.346.346,0,0,1-.025.051l0,0c-.02.031-.042.061-.067.068a.226.226,0,0,1-.136-.034.233.233,0,0,1-.054-.057.223.223,0,0,0-.042-.046.17.17,0,0,0-.042-.01.105.105,0,0,1-.1-.065.165.165,0,0,0-.026-.034.366.366,0,0,0-.084-.033.546.546,0,0,1-.054-.019l-.033-.014a.734.734,0,0,1-.174-.091.265.265,0,0,1-.047-.073.234.234,0,0,0-.041-.065.318.318,0,0,0-.11-.036.754.754,0,0,0-.184.007.408.408,0,0,0-.13.046.245.245,0,0,0-.038.057.33.33,0,0,1-.026.043l-.011.015a.242.242,0,0,1-.078.08.268.268,0,0,1-.152,0,.439.439,0,0,1-.119-.1l-.024-.023c-.031-.029-.091-.09-.119-.124-.009-.01-.019-.026-.029-.043s-.022-.033-.03-.043a.324.324,0,0,0-.04-.035.236.236,0,0,1-.072-.074.169.169,0,0,1,0-.083.169.169,0,0,0,0-.059.181.181,0,0,0-.065-.074.241.241,0,0,0-.1,0,.317.317,0,0,1-.091,0,.3.3,0,0,1-.108-.048.324.324,0,0,1-.058-.089.4.4,0,0,0-.029-.052l-.01-.014a.342.342,0,0,0-.079-.087.18.18,0,0,0-.062,0,.25.25,0,0,1-.055,0,.35.35,0,0,1-.061-.021.291.291,0,0,0-.062-.021.221.221,0,0,0-.079.01.166.166,0,0,0-.031.029.14.14,0,0,1-.054.043.183.183,0,0,1-.107-.012.419.419,0,0,1-.137-.151.187.187,0,0,1-.011-.065.192.192,0,0,0-.007-.048.163.163,0,0,0-.043-.054.214.214,0,0,0-.07-.012.261.261,0,0,1-.071-.011.507.507,0,0,1-.091-.057l-.029-.021-.026-.019a.245.245,0,0,0-.055-.036.188.188,0,0,0-.052,0,.23.23,0,0,1-.056,0,.338.338,0,0,1-.137-.051.2.2,0,0,1-.041-.08.211.211,0,0,0-.025-.057.517.517,0,0,0-.117-.077c-.026-.014-.051-.028-.068-.04l-.021-.013a.207.207,0,0,1-.075-.063.125.125,0,0,1,0-.089.113.113,0,0,1,.055-.041.12.12,0,0,0,.036-.023.115.115,0,0,0-.022-.061.347.347,0,0,0-.1-.059.629.629,0,0,1-.058-.03c-.015-.01-.035-.024-.057-.04a.623.623,0,0,0-.3-.13.389.389,0,0,0-.155.034.611.611,0,0,0-.118.128l-.024.03c-.011.014-.028.038-.043.06s-.038.055-.053.072a.56.56,0,0,1-.051.048.368.368,0,0,0-.071.073.215.215,0,0,0-.01.051c0,.005,0,.01,0,.014s0,.012,0,.019a.1.1,0,0,1-.011.059.224.224,0,0,1-.118.051h0a.255.255,0,0,1-.06,0,.176.176,0,0,0-.068.006.138.138,0,0,0-.025.042.2.2,0,0,1-.021.039l-.008.009a.123.123,0,0,1,.016.016.538.538,0,0,1,.051.085.391.391,0,0,0,.072.11.154.154,0,0,0,.047.014.164.164,0,0,1,.063.021.211.211,0,0,1,.048.067.218.218,0,0,0,.034.051.159.159,0,0,0,.038.015.172.172,0,0,1,.049.02.25.25,0,0,1,.046.052.234.234,0,0,0,.035.042.305.305,0,0,0,.06.027.371.371,0,0,1,.056.024l.005,0a.3.3,0,0,1,.108.089.219.219,0,0,1,.007.1.355.355,0,0,0,0,.047c0,.015.006.036.011.059a.494.494,0,0,1,.015.091.33.33,0,0,1-.01.063.346.346,0,0,0-.008.044.073.073,0,0,0,.007.041.052.052,0,0,0,.04-.012.13.13,0,0,0,.017-.041.131.131,0,0,1,.03-.06.134.134,0,0,1,.085-.026.125.125,0,0,1,.083.063.138.138,0,0,1-.025.093.218.218,0,0,0-.017.037l0,.01a.13.13,0,0,0-.007.036.089.089,0,0,0,.039.026.129.129,0,0,0,.035-.007.174.174,0,0,1,.035-.007.384.384,0,0,1,.16.015.227.227,0,0,1,.088.106.162.162,0,0,1-.009.081.145.145,0,0,0-.009.062.138.138,0,0,0,.073.051.124.124,0,0,0,.038-.014.13.13,0,0,1,.052-.017.277.277,0,0,1,.142.047.222.222,0,0,1,.061.132.2.2,0,0,1-.046.09.368.368,0,0,0-.021.031c-.014.025-.057.1-.073.141-.009.021-.025.065-.036.1a.556.556,0,0,1,.08.033.767.767,0,0,1,.113.088l.039.034.061.048a2.056,2.056,0,0,1,.168.139,3.65,3.65,0,0,1,.271.338,2.381,2.381,0,0,1,.212.33,2.916,2.916,0,0,1,.146.5c.026.136.042.4.052.556l0,.028c0,.059.005.147.007.232s0,.186.008.247l0,.032a3.726,3.726,0,0,0,.044.433,1.836,1.836,0,0,0,.071.207c.018.047.035.091.045.124.005.018.01.042.016.067a.437.437,0,0,0,.038.127.212.212,0,0,0,.047.034.32.32,0,0,1,.034.023,1.556,1.556,0,0,1,.13.122.929.929,0,0,1,.115.154.235.235,0,0,1,.015.061.168.168,0,0,0,.019.066.116.116,0,0,0,.034.006.1.1,0,0,1,.055.015.271.271,0,0,1,.062.118.638.638,0,0,1,.019.109.6.6,0,0,0,.018.105,1.249,1.249,0,0,0,.1.178l.029.048c.013.022.033.054.054.086.031.049.063.1.081.133a1.854,1.854,0,0,1,.116.255,2.69,2.69,0,0,1,.069.5,4.351,4.351,0,0,1-.035.458c0,.027-.006.051-.008.072s0,.043-.005.069a.845.845,0,0,1-.034.231.628.628,0,0,1-.116.144.2.2,0,0,1-.028.021.148.148,0,0,0-.03.023.258.258,0,0,0-.022.089.494.494,0,0,0,.017.179.292.292,0,0,0,.1.1.221.221,0,0,0,.122.017.111.111,0,0,0,.035-.045.13.13,0,0,0,0-.038c-.005-.029-.011-.059.006-.078.041-.046.141-.04.223-.034l.053,0a1.178,1.178,0,0,1,.15.014,1.952,1.952,0,0,1,.216.055,1.661,1.661,0,0,1,.218.091l0,0a.621.621,0,0,1,.187.137.287.287,0,0,1,.027.128.332.332,0,0,1-.023.086.357.357,0,0,0-.018.061.506.506,0,0,0,0,.091.445.445,0,0,1,0,.123.374.374,0,0,1-.072.139.118.118,0,0,1-.047.023.131.131,0,0,0-.033.014c-.006.025.042.093.073.119a.317.317,0,0,0,.122.038.373.373,0,0,0,.079-.007.391.391,0,0,1,.088-.008.63.63,0,0,1,.117.034l.027.009h0c.074.025.211.07.278.1a1.246,1.246,0,0,1,.22.128,1.119,1.119,0,0,1,.151.188.42.42,0,0,1,.039.078.368.368,0,0,1,.011.072.316.316,0,0,0,.01.068.275.275,0,0,0,.055.091.329.329,0,0,0,.1.035.516.516,0,0,1,.063.018l.026.009a.258.258,0,0,1,.106.054.188.188,0,0,1,.026.088.214.214,0,0,0,.011.053.289.289,0,0,0,.039.049.31.31,0,0,1,.043.055.323.323,0,0,1,.023.081.229.229,0,0,0,.03.092.114.114,0,0,0,.062.021l.008-.009a.051.051,0,0,1,.036-.025h0c.027,0,.053.027.077.055l0,0a.653.653,0,0,1,.068.112.633.633,0,0,1,.043.114,1.016,1.016,0,0,1,.006.218.805.805,0,0,1-.021.1l0,.017-.005.023a.364.364,0,0,1-.026.086.216.216,0,0,1-.075.078.409.409,0,0,1-.172,0l-.02,0a.155.155,0,0,1-.031-.009A.138.138,0,0,0,1331.454,345.207Z" transform="translate(-1325.012 -332.431)" fill="#fff"/>
      </g>
    </g>
  </g>
</svg>
