<svg id="Group_108" data-name="Group 108" xmlns="http://www.w3.org/2000/svg" width="48" height="48" viewBox="0 0 48 48">
  <path id="Path_433" data-name="Path 433" d="M658.188-176.443a24.025,24.025,0,0,1-24-24,24.027,24.027,0,0,1,24-24,24.028,24.028,0,0,1,24,24A24.026,24.026,0,0,1,658.188-176.443Z" transform="translate(-634.188 224.443)" fill="#006828"/>
  <path id="Path_434" data-name="Path 434" d="M670.167-210.549l2.367-.958L654.94-217.69l-.072-.027-17.594,6.21,6.65,2.617s-.371,4.518.08,5.754l.217.3a13.313,13.313,0,0,0,10.684,5.356,13.312,13.312,0,0,0,10.682-5.356l.219-.3c.452-1.236.076-5.612.076-5.612l0-.142,2.885-1.094v2.113h-.708v2.633a1.381,1.381,0,0,0,1.393,1.364,1.381,1.381,0,0,0,1.393-1.364v-2.633h-.681ZM654.905-198.9c-4.256,0-8.383-2.718-9.667-5.131a41.885,41.885,0,0,1,.167-4.26l9.5,3.814,9.489-3.814a41.885,41.885,0,0,1,.167,4.26A12.081,12.081,0,0,1,654.905-198.9Zm.05-6.99-13.9-5.545,13.84-4.9,14,4.9Z" transform="translate(-630.905 231.598)" fill="#fff"/>
</svg>
